<svg width="1248" height="832" viewBox="0 0 1248 832" fill="none" xmlns="http://www.w3.org/2000/svg">
<g clip-path="url(#clip0_121_349)">
<path d="M289.56 1.82031H1V382.01H289.56V1.82031Z" fill="white"/>
<path d="M289.56 383H1C0.45 383 0 382.55 0 382V1.82031C0 1.27031 0.45 0.820312 1 0.820312H289.56C290.11 0.820312 290.56 1.27031 290.56 1.82031V382.01C290.56 382.56 290.11 383.01 289.56 383.01V383ZM2 381H288.56V2.82031H2V381.01V381Z" fill="black"/>
<path d="M82.0109 209.43C81.8709 209.43 81.7309 209.4 81.5909 209.34C81.4609 209.29 81.3309 209.22 81.2309 209.11L46.6809 174.6C42.5109 170.43 40.2109 164.89 40.2109 158.99C40.2109 153.09 42.5109 147.55 46.6809 143.39C55.2909 134.79 69.3009 134.79 77.9209 143.39L81.9409 147.41L85.9509 143.39C94.5609 134.79 108.581 134.79 117.191 143.39C121.361 147.56 123.661 153.1 123.661 158.99C123.661 164.88 121.361 170.43 117.191 174.6L82.7109 209.14C82.5109 209.34 82.2609 209.43 82.0009 209.43H82.0109ZM62.3009 138.94C57.1609 138.94 52.0109 140.9 48.1009 144.81C44.3109 148.6 42.2209 153.64 42.2209 159C42.2209 164.36 44.3109 169.4 48.1009 173.19L81.9909 207.04L115.791 173.19C119.581 169.4 121.671 164.36 121.671 159C121.671 153.64 119.581 148.6 115.791 144.81C107.961 136.98 95.2109 136.98 87.3809 144.81L82.6609 149.54C82.4709 149.73 82.2209 149.83 81.9509 149.83C81.6809 149.83 81.4309 149.73 81.2409 149.54L76.5109 144.81C72.5909 140.9 67.4509 138.94 62.3009 138.94Z" fill="#478D8D"/>
<path d="M82.8895 196.74C82.8895 196.74 82.8194 196.74 82.7794 196.74C82.3394 196.69 81.9795 196.36 81.8995 195.92L75.5695 159.12L67.0894 180.93C66.9394 181.31 66.5895 181.56 66.1795 181.57C65.7695 181.59 65.4094 181.35 65.2394 180.98L62.9695 175.88L29.4395 175.95C28.8895 175.95 28.4395 175.5 28.4395 174.95C28.4395 174.4 28.8895 173.95 29.4395 173.95L63.6195 173.87C64.0095 173.87 64.3694 174.1 64.5294 174.46L66.0894 177.96L74.9995 155.02C75.1595 154.6 75.5794 154.34 76.0294 154.39C76.4794 154.43 76.8394 154.77 76.9194 155.22L83.2694 192.11L92.8394 168.5C92.9994 168.12 93.3595 167.86 93.7895 167.88C94.2095 167.88 94.5694 168.15 94.7094 168.55L96.5594 173.8L131.569 173.72C132.119 173.72 132.569 174.17 132.569 174.72C132.569 175.27 132.119 175.72 131.569 175.72L95.8494 175.8C95.4294 175.8 95.0495 175.53 94.9095 175.13L93.6994 171.7L83.7995 196.12C83.6495 196.5 83.2795 196.74 82.8695 196.74H82.8895Z" fill="#478D8D"/>
<path d="M213.73 113.33C235.479 113.33 253.11 95.4165 253.11 73.3196C253.11 51.2227 235.479 33.3096 213.73 33.3096C191.981 33.3096 174.35 51.2227 174.35 73.3196C174.35 95.4165 191.981 113.33 213.73 113.33Z" fill="#B0F7F6"/>
<path d="M234.019 68.6802H218.289V52.7002H209.169V68.6802H193.439V77.9502H209.169V93.9302H218.289V77.9502H234.019V68.6802Z" fill="#478D8D"/>
<path d="M111.2 64.1104H49.9805C49.4305 64.1104 48.9805 63.6604 48.9805 63.1104C48.9805 62.5604 49.4305 62.1104 49.9805 62.1104H111.2C111.75 62.1104 112.2 62.5604 112.2 63.1104C112.2 63.6604 111.75 64.1104 111.2 64.1104Z" fill="black"/>
<path d="M152.12 84.5303H49.9805C49.4305 84.5303 48.9805 84.0803 48.9805 83.5303C48.9805 82.9803 49.4305 82.5303 49.9805 82.5303H152.12C152.67 82.5303 153.12 82.9803 153.12 83.5303C153.12 84.0803 152.67 84.5303 152.12 84.5303Z" fill="black"/>
<path d="M261.539 153.75H233.689C233.139 153.75 232.689 153.3 232.689 152.75C232.689 152.2 233.139 151.75 233.689 151.75H261.539C262.089 151.75 262.539 152.2 262.539 152.75C262.539 153.3 262.089 153.75 261.539 153.75Z" fill="black"/>
<path d="M217.53 153.75H151.68C151.13 153.75 150.68 153.3 150.68 152.75C150.68 152.2 151.13 151.75 151.68 151.75H217.53C218.08 151.75 218.53 152.2 218.53 152.75C218.53 153.3 218.08 153.75 217.53 153.75Z" fill="black"/>
<path d="M261.54 174.18H151.68C151.13 174.18 150.68 173.73 150.68 173.18C150.68 172.63 151.13 172.18 151.68 172.18H261.54C262.09 172.18 262.54 172.63 262.54 173.18C262.54 173.73 262.09 174.18 261.54 174.18Z" fill="black"/>
<path d="M261.54 194.61H195.84C195.29 194.61 194.84 194.16 194.84 193.61C194.84 193.06 195.29 192.61 195.84 192.61H261.54C262.09 192.61 262.54 193.06 262.54 193.61C262.54 194.16 262.09 194.61 261.54 194.61Z" fill="black"/>
<path d="M180.46 194.61H151.68C151.13 194.61 150.68 194.16 150.68 193.61C150.68 193.06 151.13 192.61 151.68 192.61H180.46C181.01 192.61 181.46 193.06 181.46 193.61C181.46 194.16 181.01 194.61 180.46 194.61Z" fill="black"/>
<path d="M261.54 266.13H37.0098V281.62H261.54V266.13Z" fill="#B0F7F6"/>
<path d="M260.96 300.19H37.5898C37.2694 300.19 37.0098 300.45 37.0098 300.77V315.1C37.0098 315.421 37.2694 315.68 37.5898 315.68H260.96C261.28 315.68 261.54 315.421 261.54 315.1V300.77C261.54 300.45 261.28 300.19 260.96 300.19Z" fill="#B0F7F6"/>
<path d="M261.54 334.19H37.0098V349.68H261.54V334.19Z" fill="#B0F7F6"/>
<path d="M261.54 233.27H37.0098V248.76H261.54V233.27Z" fill="#B0F7F6"/>
<path d="M236.42 266.13H37.0098V281.62H236.42V266.13Z" fill="#478D8D"/>
<path d="M130.06 300.19H37.0098V315.68H130.06V300.19Z" fill="#478D8D"/>
<path d="M155.18 334.19H37.0098V349.68H155.18V334.19Z" fill="#478D8D"/>
<path d="M207.76 233.27H37.0098V248.76H207.76V233.27Z" fill="#478D8D"/>
<path d="M730.341 520.62L380.361 520.64L98.3809 792.6L1244.49 793.02L1245.16 520.64L730.341 520.62Z" fill="white"/>
<path d="M1244.49 794.02L98.3707 793.6C97.9607 793.6 97.6007 793.35 97.4407 792.97C97.2907 792.59 97.3807 792.16 97.6707 791.88L379.651 519.92C379.841 519.74 380.091 519.64 380.341 519.64L730.321 519.62L1245.14 519.64C1245.41 519.64 1245.66 519.75 1245.85 519.93C1246.04 520.11 1246.14 520.37 1246.14 520.64L1245.47 793.01C1245.47 793.56 1245.02 794.01 1244.47 794.01L1244.49 794.02ZM100.851 791.6L1243.49 792.01L1244.15 521.64L730.331 521.62L380.761 521.64L100.851 791.6Z" fill="black"/>
<path d="M639.17 599C638.12 599.09 637.24 599.84 637.36 600.68L637.33 604.85C637.33 605.98 638.23 606.91 639.37 606.91L981.01 608.81C984.79 608.83 988.85 608.05 991.94 606.71L1069.49 572.19C1070.09 571.92 1070.47 571.41 1070.47 570.86V566.13C1070.47 565.23 1069.49 564.53 1068.36 564.62L639.18 598.99L639.17 599Z" fill="black"/>
<path d="M638.849 599.81C637.919 600.12 638.269 601 639.319 601L982.879 601.46C986.289 601.46 989.939 600.74 992.669 599.51L1068.28 565.59C1069.08 565.23 1068.67 564.44 1067.68 564.44C1067.68 564.44 743.359 564.65 743.219 564.7L638.849 599.81Z" fill="white"/>
<path d="M982.91 602.46H982.87L639.31 602C638.27 602 637.45 601.42 637.32 600.58C637.22 599.95 637.55 599.18 638.53 598.86L742.89 563.76C743.037 563.714 851.297 563.61 1067.67 563.45H1067.68C1068.67 563.45 1069.49 564 1069.66 564.79C1069.81 565.5 1069.43 566.17 1068.68 566.51L993.07 600.43C990.23 601.7 986.43 602.46 982.91 602.46ZM641.4 600.01L982.88 600.46H982.91C986.17 600.46 989.66 599.77 992.26 598.6L1066.16 565.45C1042.34 565.47 750.9 565.66 743.39 565.7L641.41 600L641.4 600.01Z" fill="black"/>
<path d="M780.979 572.86H761.939C761.109 572.86 760.439 572.19 760.439 571.36C760.439 570.53 761.109 569.86 761.939 569.86H780.979C781.809 569.86 782.479 570.53 782.479 571.36C782.479 572.19 781.809 572.86 780.979 572.86Z" fill="#B0F7F6"/>
<path d="M1019.79 573.62H892.029C891.199 573.62 890.529 572.95 890.529 572.12C890.529 571.29 891.199 570.62 892.029 570.62H1019.79C1020.62 570.62 1021.29 571.29 1021.29 572.12C1021.29 572.95 1020.62 573.62 1019.79 573.62Z" fill="#B0F7F6"/>
<path d="M784.51 581.64H731.77C730.94 581.64 730.27 580.97 730.27 580.14C730.27 579.31 730.94 578.64 731.77 578.64H784.51C785.34 578.64 786.01 579.31 786.01 580.14C786.01 580.97 785.34 581.64 784.51 581.64Z" fill="#B0F7F6"/>
<path d="M996.681 581.9H898.811C897.981 581.9 897.311 581.23 897.311 580.4C897.311 579.57 897.981 578.9 898.811 578.9H996.681C997.511 578.9 998.181 579.57 998.181 580.4C998.181 581.23 997.511 581.9 996.681 581.9Z" fill="#B0F7F6"/>
<path d="M789.251 591.89H698.131C697.301 591.89 696.631 591.22 696.631 590.39C696.631 589.56 697.301 588.89 698.131 588.89H789.251C790.081 588.89 790.751 589.56 790.751 590.39C790.751 591.22 790.081 591.89 789.251 591.89Z" fill="#B0F7F6"/>
<path d="M978.54 591.89H902.34C901.51 591.89 900.84 591.22 900.84 590.39C900.84 589.56 901.51 588.89 902.34 588.89H978.54C979.37 588.89 980.04 589.56 980.04 590.39C980.04 591.22 979.37 591.89 978.54 591.89Z" fill="#B0F7F6"/>
<path d="M1106.53 241.13C1066.85 220.32 1018.86 228.52 932.28 218.05C931.84 218 931.62 217.97 931.14 217.91C888.18 212.79 842.28 215.5 842.28 215.5C827.62 213.89 805.8 213.57 782.39 222.18C758.69 230.9 703.23 276.86 677.61 366.1C662.18 419.84 650.27 461.33 672.35 492.19C714.81 551.53 845.4 519.11 882.64 495.16C915.35 474.13 921.56 465.6 921.56 465.6C938.16 466.94 954.75 468.28 971.35 469.62C975.75 470.82 982.62 473.12 990.05 477.69C1009.23 489.48 1017.93 507.58 1024.18 520.62C1027.28 527.08 1031.32 536.75 1034.35 549.2C1058.16 547.55 1094.49 545.02 1107.96 544.08C1165.39 540.06 1194.75 538.13 1212.2 524.12C1238.08 503.34 1244.47 472.29 1245.23 468.33C1254.86 418 1218.95 373.12 1159.42 298.7C1131.99 264.42 1118.28 247.27 1106.53 241.11V241.13Z" fill="white"/>
<path d="M1034.35 550.22C1033.89 550.22 1033.49 549.91 1033.38 549.46C1030.98 539.59 1027.58 530.04 1023.28 521.07C1017.03 508.04 1008.46 490.19 989.53 478.56C983.87 475.08 977.7 472.41 971.18 470.63L922.01 466.66C920.29 468.69 911.9 477.56 883.18 496.03C864.48 508.05 822.87 522.19 779.54 525.93C743.33 529.06 695.19 525.85 671.54 492.8C649.17 461.54 661.3 419.31 676.65 365.85C690.81 316.55 713.45 282.89 729.96 263.33C750.62 238.85 770.41 225.55 782.05 221.27C800.59 214.45 820.86 212.18 842.31 214.52C844.57 214.39 889.58 211.97 931.27 216.94L932.41 217.08C963.72 220.87 989.7 222.19 1012.63 223.36C1052.61 225.4 1081.5 226.88 1107.01 240.26C1118.94 246.52 1132.71 263.73 1160.15 298.03L1160.21 298.11C1219.9 372.73 1255.94 417.77 1246.22 468.55C1245.1 474.39 1238.25 504.53 1212.84 524.93C1195.31 539 1166.68 541.01 1109.64 545L1108.05 545.11C1094.57 546.05 1058.24 548.58 1034.44 550.23C1034.42 550.23 1034.39 550.23 1034.37 550.23L1034.35 550.22ZM921.56 464.61C921.56 464.61 921.61 464.61 921.64 464.61L971.43 468.63C971.49 468.63 971.55 468.65 971.61 468.66C978.35 470.5 984.73 473.25 990.57 476.84C1010.01 488.78 1018.72 506.93 1025.08 520.19C1029.32 529.03 1032.7 538.43 1035.12 548.15C1058.94 546.5 1094.58 544.02 1107.89 543.08L1109.48 542.97C1166.1 539.01 1194.53 537.02 1211.57 523.34C1236.43 503.38 1243.15 473.86 1244.24 468.15C1253.78 418.27 1217.97 373.5 1158.63 299.33L1158.57 299.25C1131.3 265.17 1117.62 248.06 1106.06 242C1080.94 228.82 1052.24 227.36 1012.51 225.33C989.55 224.16 963.53 222.83 932.15 219.03L931.01 218.89C888.62 213.84 842.78 216.46 842.32 216.49C842.26 216.49 842.21 216.49 842.15 216.49C820.98 214.16 800.99 216.39 782.72 223.12C771.32 227.31 751.88 240.41 731.47 264.59C715.09 284 692.61 317.42 678.56 366.37C663.36 419.31 651.35 461.13 673.16 491.6C696.26 523.89 743.67 526.99 779.36 523.9C821.91 520.22 864.05 505.91 882.09 494.31C914.11 473.72 920.69 465.08 920.75 464.99C920.94 464.73 921.24 464.58 921.56 464.58V464.61Z" fill="#478D8D"/>
<path d="M989.221 540.09L992.111 224.22L931.971 284.26L919.161 215.41C907.231 238.08 895.741 262.14 885.001 287.63C844.931 382.68 824.401 457.85 815.471 541.05L989.231 540.09H989.221Z" fill="#478D8D"/>
<path d="M988.85 477.55C988.5 477.55 988.16 477.37 987.98 477.04C987.71 476.56 987.88 475.95 988.37 475.68C1029.19 452.87 1071.65 437.33 1114.57 429.52C1132.46 426.26 1150.78 424.22 1169.02 423.45C1169.6 423.43 1170.04 423.86 1170.06 424.41C1170.08 424.96 1169.66 425.43 1169.1 425.45C1150.95 426.22 1132.72 428.25 1114.92 431.49C1072.22 439.27 1029.97 454.72 989.34 477.43C989.19 477.52 989.02 477.56 988.85 477.56V477.55Z" fill="#478D8D"/>
<path d="M1108.76 433.48C1108.4 433.48 1108.06 433.29 1107.88 432.95L1088.04 395.74C1087.78 395.25 1087.96 394.65 1088.45 394.39C1088.94 394.13 1089.54 394.31 1089.8 394.8L1109.64 432.01C1109.9 432.5 1109.72 433.1 1109.23 433.36C1109.08 433.44 1108.92 433.48 1108.76 433.48Z" fill="#478D8D"/>
<path d="M944.331 505.14C903.181 537.54 894.281 564.96 892.651 576.66C892.191 580.01 892.391 584.17 895.401 585.8C899.551 588.05 903.861 583.32 906.131 579.25C909.861 572.57 913.591 565.89 917.311 559.21L918.041 558.21C918.321 564.32 919.101 570.77 922.831 575.68C926.561 580.59 934.181 583.09 939.101 579.44C940.921 583.94 945.191 587.39 950.001 588.24C954.811 589.09 959.981 587.31 963.191 583.7C965.101 586.78 969.271 587.74 972.871 587.29C978.721 586.55 984.031 582.66 986.441 577.35C988.761 572.25 988.331 566.01 985.381 561.19C985.211 561.2 985.051 561.23 984.881 561.24L985.011 560.6C985.141 560.79 985.261 560.99 985.381 561.19C992.741 559.31 1000.31 557.24 1008.07 554.96C1016.64 552.44 1024.88 549.81 1032.77 547.13C1031.31 541.67 1029.03 534.27 1025.45 525.81C1022.24 518.22 1017.54 507.3 1008.3 495.32C1004.33 490.17 997.461 483.64 988.821 476.55C969.021 486.69 954.771 496.9 944.301 505.14H944.331Z" fill="white"/>
<path d="M952.419 589.44C951.559 589.44 950.689 589.37 949.839 589.22C945.099 588.38 940.839 585.17 938.679 580.9C933.209 583.97 925.729 581.12 922.039 576.28C918.779 571.99 917.679 566.71 917.239 561.39L907.009 579.73C904.339 584.51 899.579 589.19 894.929 586.67C892.129 585.15 890.969 581.54 891.659 576.51C893.109 566.06 901.079 538.12 943.709 504.35C956.599 494.14 970.589 484.92 985.299 476.94C985.789 476.68 986.389 476.86 986.659 477.34C986.919 477.83 986.739 478.43 986.259 478.7C971.649 486.62 957.749 495.78 944.959 505.92C902.899 539.25 895.069 566.58 893.649 576.79C893.319 579.19 893.169 583.44 895.889 584.91C899.499 586.86 903.489 581.96 905.279 578.75L916.459 558.71C916.459 558.71 916.499 558.64 916.519 558.61L917.249 557.61C917.499 557.27 917.939 557.12 918.349 557.24C918.759 557.36 919.039 557.73 919.059 558.15C919.329 564.16 920.079 570.36 923.649 575.06C926.999 579.47 934.079 581.93 938.529 578.62C938.779 578.44 939.099 578.38 939.399 578.46C939.699 578.54 939.939 578.76 940.059 579.05C941.749 583.23 945.729 586.45 950.209 587.24C954.679 588.03 959.499 586.38 962.479 583.02C962.689 582.78 962.999 582.66 963.309 582.69C963.619 582.72 963.909 582.89 964.069 583.16C965.869 586.05 969.879 586.65 972.779 586.28C978.279 585.58 983.299 581.91 985.569 576.92C987.679 572.29 987.399 566.72 984.879 562.23C984.609 562.22 984.359 562.1 984.179 561.89C983.969 561.65 983.889 561.33 983.949 561.03L984.079 560.39C984.159 559.99 984.469 559.69 984.869 559.61C985.249 559.53 985.649 559.69 985.869 560.01L1032.54 546.17C1033.07 546.01 1033.63 546.31 1033.78 546.84C1033.94 547.37 1033.64 547.93 1033.11 548.08L986.919 561.78C989.479 566.73 989.689 572.73 987.399 577.75C984.849 583.36 979.209 587.49 973.039 588.27C969.899 588.67 965.629 588.06 963.129 585.23C960.299 587.91 956.379 589.44 952.439 589.44H952.419Z" fill="black"/>
<path d="M938.32 576.9C937.87 576.9 937.47 576.6 937.35 576.15C935.91 570.56 935.18 564.81 935.18 559.06C935.18 558.51 935.63 558.06 936.18 558.06C936.73 558.06 937.18 558.51 937.18 559.06C937.18 564.64 937.89 570.23 939.29 575.65C939.43 576.18 939.11 576.73 938.57 576.87C938.49 576.89 938.4 576.9 938.32 576.9Z" fill="black"/>
<path d="M963.259 582.24C962.839 582.24 962.459 581.98 962.309 581.56C960.799 577.13 959.879 572.52 959.589 567.87C959.559 567.32 959.969 566.84 960.529 566.81C961.079 566.77 961.559 567.19 961.589 567.75C961.869 572.23 962.749 576.66 964.209 580.92C964.389 581.44 964.109 582.01 963.589 582.19C963.479 582.23 963.369 582.24 963.269 582.24H963.259Z" fill="black"/>
<path d="M979.72 572.01C979.59 572.01 979.45 571.98 979.32 571.93C978.81 571.71 978.58 571.12 978.8 570.62L983.42 559.89C983.64 559.38 984.23 559.15 984.73 559.37C985.24 559.59 985.47 560.18 985.25 560.68L980.63 571.41C980.47 571.79 980.1 572.01 979.71 572.01H979.72Z" fill="black"/>
<path d="M1034.35 550.22C1033.9 550.22 1033.49 549.91 1033.38 549.46C1030.98 539.59 1027.58 530.04 1023.28 521.07C1017.03 508.04 1008.46 490.19 989.531 478.56C989.001 478.23 988.471 477.92 987.951 477.62C987.471 477.34 987.311 476.73 987.591 476.25C987.871 475.77 988.481 475.61 988.961 475.89C989.501 476.2 990.041 476.52 990.581 476.86C1010.02 488.8 1018.73 506.95 1025.09 520.21C1029.45 529.3 1032.9 538.98 1035.33 548.99C1035.46 549.53 1035.13 550.07 1034.59 550.2C1034.51 550.22 1034.43 550.23 1034.35 550.23V550.22Z" fill="#478D8D"/>
<path d="M686.2 396.25C686.2 396.25 795.8 456.78 852.39 513.4C858.51 519.53 859.51 529.1 854.83 536.39L850.58 543L863.06 565.78C865.78 570.74 863.89 576.97 858.88 579.59L857.11 580.51C852.95 582.68 847.85 581.71 844.78 578.16L830.51 561.67C830.51 561.67 823.08 572.74 807.68 565.11C807.68 565.11 800.94 575.19 787.25 567.31C787.25 567.31 776.07 575.64 762.93 553.23L674.34 502.33C639.08 482.07 686.21 396.25 686.21 396.25H686.2Z" fill="white"/>
<path d="M852.42 582.66C849.28 582.66 846.2 581.32 844.03 578.81L830.54 563.22C828.18 565.83 820.66 572.27 807.97 566.35C806.05 568.56 799.1 574.96 787.28 568.47C786.12 569.12 783.27 570.36 779.34 569.56C773.37 568.35 767.61 563.1 762.2 553.96L673.84 503.19C658.97 494.65 656.29 473.28 666.09 441.39C673.41 417.58 685.21 395.98 685.33 395.76C685.46 395.53 685.67 395.35 685.93 395.28C686.19 395.21 686.46 395.24 686.69 395.37C687.79 395.98 797.06 456.62 853.11 512.69C859.51 519.09 860.59 529.28 855.68 536.92L851.75 543.03L863.94 565.29C865.39 567.93 865.7 570.97 864.83 573.85C863.96 576.73 862.01 579.08 859.35 580.47L857.58 581.39C855.94 582.25 854.17 582.66 852.42 582.66ZM830.51 560.67C830.8 560.67 831.08 560.79 831.27 561.01L845.54 577.5C848.32 580.71 852.89 581.58 856.65 579.62L858.42 578.7C860.6 577.56 862.2 575.63 862.92 573.27C863.63 570.91 863.38 568.42 862.19 566.26L849.71 543.48C849.53 543.16 849.55 542.77 849.75 542.46L854 535.85C858.4 529 857.44 519.85 851.7 514.11C798.53 460.92 697.16 403.53 686.61 397.62C681.78 406.74 642.71 483.01 674.84 501.46L763.43 552.36C763.58 552.45 763.71 552.57 763.79 552.72C768.86 561.37 774.37 566.51 779.74 567.6C783.97 568.46 786.63 566.52 786.66 566.5C786.98 566.26 787.41 566.24 787.76 566.44C800.5 573.76 806.61 564.93 806.87 564.55C807.15 564.13 807.69 563.99 808.15 564.21C822.54 571.34 829.42 561.53 829.71 561.11C829.88 560.85 830.17 560.69 830.48 560.67C830.5 560.67 830.52 560.67 830.54 560.67H830.51Z" fill="black"/>
<path d="M785.889 566.96C785.599 566.96 785.309 566.84 785.119 566.59C781.219 561.83 778.309 556.17 776.709 550.22C776.569 549.69 776.879 549.14 777.419 548.99C777.949 548.85 778.499 549.16 778.649 549.7C780.179 555.37 782.949 560.77 786.679 565.32C787.029 565.75 786.969 566.38 786.539 566.73C786.349 566.88 786.129 566.96 785.909 566.96H785.889Z" fill="black"/>
<path d="M807.01 564.48C806.84 564.48 806.67 564.44 806.51 564.35C801.28 561.34 797.46 553.31 795.77 547.35C795.62 546.82 795.93 546.27 796.46 546.12C796.99 545.97 797.54 546.28 797.69 546.81C799.4 552.85 803.1 560.09 807.5 562.62C807.98 562.9 808.14 563.51 807.87 563.99C807.68 564.31 807.35 564.49 807 564.49L807.01 564.48Z" fill="black"/>
<path d="M850.59 543.99C850.29 543.99 850 543.86 849.8 543.61L807.6 489.63C807.26 489.2 807.34 488.57 807.77 488.23C808.21 487.89 808.83 487.97 809.17 488.4L851.37 542.38C851.71 542.81 851.63 543.44 851.2 543.78C851.02 543.92 850.8 543.99 850.58 543.99H850.59Z" fill="black"/>
<path d="M830.51 562.67C830.2 562.67 829.89 562.53 829.7 562.25L814.56 541.16C814.24 540.71 814.34 540.09 814.79 539.76C815.24 539.44 815.86 539.54 816.19 539.99L831.33 561.08C831.65 561.53 831.55 562.15 831.1 562.48C830.92 562.61 830.72 562.67 830.52 562.67H830.51Z" fill="black"/>
<path d="M799.51 463.71C746.04 424.37 683.27 391.08 683.27 391.08C677.48 397.2 671.69 403.32 665.9 409.44C663.84 413.69 661.26 419.7 659.13 427.18C654.28 444.26 654.86 458.18 655.27 463.63C655.65 468.68 656.16 474.93 658.8 482.72C658.8 482.72 661.48 490.61 666.48 498.32C673.97 509.87 704.03 530.59 748.91 548.26C765.78 520.07 782.64 491.89 799.51 463.7V463.71Z" fill="white"/>
<path d="M748.91 549.27C748.79 549.27 748.66 549.25 748.54 549.2C702.16 530.94 673.06 510.31 665.64 498.87C660.63 491.14 657.96 483.37 657.85 483.05C655.11 474.98 654.62 468.46 654.26 463.71C653.64 455.37 653.81 442.21 658.15 426.91C659.89 420.77 662.19 414.75 664.98 409.01C665.22 408.51 665.82 408.31 666.32 408.55C666.82 408.79 667.02 409.39 666.78 409.89C664.04 415.53 661.79 421.44 660.08 427.47C655.81 442.49 655.64 455.39 656.26 463.58C656.61 468.23 657.08 474.59 659.74 482.43C659.77 482.51 662.44 490.3 667.31 497.81C674.74 509.28 704.97 529.82 748.47 547.05L798.17 464C770.31 443.56 739.99 424.83 719.38 412.68C718.9 412.4 718.75 411.79 719.03 411.31C719.31 410.83 719.93 410.68 720.4 410.96C741.23 423.25 771.96 442.24 800.09 462.93C800.51 463.24 800.62 463.81 800.36 464.25L749.76 548.81C749.57 549.12 749.24 549.3 748.9 549.3L748.91 549.27Z" fill="#478D8D"/>
<path d="M827.39 402.299L817.035 399.811C815.746 399.501 814.45 400.295 814.14 401.584L812.814 407.106C812.504 408.395 813.298 409.691 814.587 410.001L824.942 412.489C826.231 412.798 827.526 412.005 827.836 410.716L829.163 405.193C829.473 403.904 828.679 402.608 827.39 402.299Z" fill="black"/>
<path d="M825.17 418.45C819.36 418.45 813.47 416.98 808.08 413.89C807.6 413.62 807.44 413 807.71 412.53C807.98 412.05 808.6 411.88 809.07 412.16C824.6 421.06 844.49 415.67 853.39 400.15L879.5 359.05C888.71 343 896.6 326.08 891.9 311.36C888.71 301.37 880.1 293.26 865.58 286.56C847.89 278.4 834.27 276.86 823.95 281.87C813.75 286.81 806.87 297.96 802.31 316.95L794.89 365.34C792.85 373.85 794.23 382.56 798.76 389.95C803.29 397.34 810.43 402.53 818.87 404.55C819.41 404.68 819.74 405.22 819.61 405.76C819.48 406.3 818.94 406.63 818.4 406.5C809.45 404.35 801.87 398.84 797.06 391C792.25 383.15 790.79 373.9 792.94 364.96L800.36 316.57C805.09 296.87 812.31 285.3 823.09 280.07C833.99 274.79 848.17 276.32 866.43 284.75C881.49 291.7 890.45 300.21 893.82 310.76C898.75 326.22 890.68 343.61 881.23 360.1L855.12 401.2C848.78 412.26 837.14 418.47 825.19 418.47L825.17 418.45Z" fill="black"/>
<path d="M813.601 409.931L804.36 404.636C803.21 403.978 801.743 404.376 801.084 405.526L798.261 410.454C797.602 411.604 798 413.071 799.15 413.73L808.391 419.024C809.541 419.683 811.007 419.285 811.666 418.135L814.49 413.206C815.149 412.056 814.751 410.59 813.601 409.931Z" fill="black"/>
<path d="M1000.68 311.93C1012.71 311.93 1022.46 302.188 1022.46 290.17C1022.46 278.152 1012.71 268.41 1000.68 268.41C988.652 268.41 978.9 278.152 978.9 290.17C978.9 302.188 988.652 311.93 1000.68 311.93Z" fill="white"/>
<path d="M1000.68 312.94C988.12 312.94 977.9 302.73 977.9 290.18C977.9 277.63 988.12 267.42 1000.68 267.42C1013.24 267.42 1023.46 277.63 1023.46 290.18C1023.46 302.73 1013.24 312.94 1000.68 312.94ZM1000.68 269.41C989.22 269.41 979.9 278.72 979.9 290.17C979.9 301.62 989.22 310.93 1000.68 310.93C1012.14 310.93 1021.46 301.62 1021.46 290.17C1021.46 278.72 1012.14 269.41 1000.68 269.41Z" fill="black"/>
<path d="M1000.68 304.35C1008.52 304.35 1014.87 298.002 1014.87 290.17C1014.87 282.339 1008.52 275.99 1000.68 275.99C992.843 275.99 986.49 282.339 986.49 290.17C986.49 298.002 992.843 304.35 1000.68 304.35Z" fill="white"/>
<path d="M1000.68 305.35C992.3 305.35 985.49 298.54 985.49 290.17C985.49 281.8 992.3 274.99 1000.68 274.99C1009.06 274.99 1015.87 281.8 1015.87 290.17C1015.87 298.54 1009.06 305.35 1000.68 305.35ZM1000.68 276.99C993.41 276.99 987.49 282.9 987.49 290.17C987.49 297.44 993.41 303.35 1000.68 303.35C1007.95 303.35 1013.87 297.44 1013.87 290.17C1013.87 282.9 1007.95 276.99 1000.68 276.99Z" fill="black"/>
<path d="M866.011 286.64C865.931 286.64 865.851 286.64 865.761 286.61C865.221 286.47 864.901 285.93 865.041 285.39C865.131 285.05 873.841 251.02 882.381 228.6C882.951 227.11 883.481 225.68 883.991 224.32C890.201 207.71 893.311 199.37 912.861 200.65L961.651 203.7C985.461 205.92 998.411 210.91 1004.99 220.41C1011.71 230.13 1011.77 244.56 1005.16 268.68C1005.01 269.21 1004.46 269.53 1003.93 269.38C1003.4 269.23 1003.08 268.68 1003.23 268.15C1009.66 244.67 1009.69 230.73 1003.34 221.55C997.141 212.59 984.621 207.85 961.491 205.69L912.721 202.65C894.661 201.47 892.081 208.36 885.851 225.02C885.341 226.39 884.801 227.82 884.231 229.32C875.731 251.64 867.041 285.55 866.961 285.89C866.841 286.34 866.441 286.64 865.991 286.64H866.011Z" fill="black"/>
<path d="M918.93 145.92C918.88 168.4 918.82 190.88 918.77 213.36C923.17 236.99 927.57 260.63 931.96 284.26C952.52 264.1 971.539 244.38 992.099 224.22C988.729 198.63 986.9 172.59 983.53 146.99L918.93 145.92Z" fill="white"/>
<path d="M992.1 225.22C991.6 225.22 991.16 224.84 991.11 224.33L982.63 147.98L919.93 146.94V214.58C919.93 215.13 919.48 215.58 918.93 215.58C918.38 215.58 917.93 215.13 917.93 214.58V145.92C917.93 145.65 918.04 145.4 918.23 145.21C918.42 145.02 918.67 144.93 918.95 144.92L983.55 145.99C984.05 145.99 984.47 146.38 984.53 146.88L993.1 224.11C993.16 224.66 992.77 225.15 992.22 225.21C992.18 225.21 992.15 225.21 992.11 225.21L992.1 225.22Z" fill="black"/>
<path d="M900.51 82.2402L910.61 176.75C910.61 176.75 974.6 183.97 974.37 164.13C974.14 144.29 973.16 93.8702 973.16 93.8702L900.52 82.2402H900.51Z" fill="white"/>
<path d="M935.061 179.05C922.401 179.05 911.431 177.85 910.491 177.74C910.021 177.69 909.661 177.32 909.611 176.85L899.511 82.34C899.481 82.03 899.591 81.72 899.821 81.51C900.051 81.3 900.361 81.2 900.671 81.25L973.311 92.88C973.791 92.96 974.141 93.36 974.151 93.85C974.151 94.35 975.131 144.5 975.361 164.12C975.391 166.94 974.261 169.4 972.001 171.45C965.231 177.57 949.111 179.05 935.061 179.05ZM911.511 175.84C917.801 176.47 959.331 180.2 970.651 169.97C972.501 168.3 973.381 166.4 973.361 164.15C973.151 145.94 972.291 101.4 972.161 94.73L901.631 83.44L911.501 175.84H911.511Z" fill="black"/>
<path d="M1028.46 94.2997C1026.17 84.6697 1015.59 77.8397 1005.85 79.6997C1008.69 60.3097 996 40.7197 978.37 32.1297C960.75 23.5397 939.48 24.7297 921.15 31.7497C910.98 35.6397 901.32 41.3697 894.2 49.5897C887.08 57.8197 882.71 68.7497 883.78 79.5597C884.85 90.3697 891.93 100.74 902.18 104.35C902.6 100.7 903.02 97.0397 903.44 93.3897C909.78 102.39 920.58 107.46 931.46 109.25C942.35 111.04 953.48 109.93 964.46 108.81C963.93 115.72 965.5 122.59 966.16 129.48C966.83 136.37 966.46 143.79 962.57 149.53C957.16 157.52 946.43 160.07 936.78 159.71C927.13 159.35 917.61 156.75 907.96 157.19C906.57 165.38 905.18 173.7 906.05 181.95C906.92 190.21 910.35 198.55 916.97 203.57C926.99 211.15 941.02 209.32 953.42 207.13C963.26 205.39 973.61 203.42 981.18 196.9C990.63 188.78 993.59 175.33 993.42 162.89C993.25 150.45 990.53 138.11 991.03 125.68C996.48 124.14 1001.94 122.6 1007.39 121.05C1012.37 119.64 1015.39 118.58 1019.13 115.61C1025.74 110.38 1030.54 103.12 1028.44 94.2697L1028.46 94.2997Z" fill="black"/>
<path d="M988.311 121.72C988.311 121.72 992.791 92.1898 1014.16 107.25C1035.53 122.3 1014 158 990.331 141.68L988.311 121.73V121.72Z" fill="white"/>
<path d="M1002.65 146.88C998.61 146.88 994.24 145.57 989.77 142.49C989.53 142.32 989.37 142.06 989.34 141.77L987.32 121.82C987.32 121.74 987.32 121.65 987.32 121.57C987.41 120.96 989.67 106.69 998.6 102.88C1003.19 100.92 1008.62 102.11 1014.74 106.43C1026.24 114.53 1025.78 128.47 1019.5 137.48C1015.7 142.93 1009.67 146.89 1002.64 146.89L1002.65 146.88ZM991.28 141.1C1002.25 148.4 1012.51 144.01 1017.87 136.33C1023.74 127.91 1024.15 115.49 1013.6 108.06C1008.08 104.17 1003.3 103.05 999.39 104.72C991.88 107.93 989.56 120.39 989.33 121.75L991.29 141.11L991.28 141.1Z" fill="black"/>
<path d="M999.49 136.17C999.49 136.17 999.41 136.17 999.37 136.17C998.82 136.1 998.43 135.6 998.5 135.05C999.28 128.72 1003.29 122.95 1008.95 120C1009.44 119.74 1010.04 119.94 1010.3 120.42C1010.56 120.91 1010.37 121.51 1009.88 121.77C1004.79 124.42 1001.19 129.61 1000.49 135.29C1000.43 135.8 1000 136.17 999.5 136.17H999.49Z" fill="black"/>
<path d="M928.139 130.27C928.219 139.22 934.339 146.42 941.809 146.34C949.289 146.26 955.279 138.95 955.209 129.99C955.129 121.04 949.009 113.84 941.539 113.92C934.059 114 928.069 121.31 928.139 130.27Z" fill="white"/>
<path d="M941.699 147.34C938.309 147.34 935.019 145.94 932.409 143.38C929.099 140.13 927.179 135.36 927.139 130.28C927.059 120.79 933.509 113.01 941.529 112.93C944.969 112.87 948.309 114.3 950.939 116.89C954.249 120.14 956.169 124.91 956.209 129.99C956.289 139.48 949.839 147.26 941.819 147.35C941.779 147.35 941.739 147.35 941.699 147.35V147.34ZM929.139 130.26C929.179 134.82 930.879 139.08 933.809 141.95C936.069 144.16 938.909 145.39 941.799 145.34C948.709 145.27 954.279 138.39 954.209 130C954.169 125.44 952.469 121.18 949.539 118.31C947.279 116.1 944.419 114.88 941.549 114.92C934.639 114.99 929.069 121.87 929.139 130.26Z" fill="black"/>
<path d="M891.21 130.64C891.29 139.59 897.41 146.79 904.88 146.71C912.35 146.63 918.35 139.32 918.28 130.36C918.2 121.41 912.08 114.21 904.6 114.29C897.12 114.37 891.13 121.68 891.2 130.64H891.21Z" fill="white"/>
<path d="M904.77 147.72C901.38 147.72 898.09 146.32 895.48 143.76C892.17 140.51 890.25 135.74 890.21 130.66C890.13 121.17 896.58 113.39 904.6 113.31C908.07 113.3 911.38 114.68 914.01 117.27C917.32 120.52 919.24 125.29 919.28 130.37C919.36 139.86 912.91 147.64 904.89 147.72C904.85 147.72 904.81 147.72 904.77 147.72ZM904.72 115.3C904.72 115.3 904.65 115.3 904.62 115.3C897.71 115.37 892.14 122.25 892.21 130.64C892.25 135.2 893.95 139.46 896.88 142.33C899.14 144.54 901.96 145.75 904.87 145.72C911.78 145.65 917.35 138.77 917.28 130.38C917.24 125.82 915.54 121.56 912.61 118.69C910.38 116.5 907.58 115.3 904.72 115.3Z" fill="black"/>
<path d="M918.28 131.37C918.02 131.37 917.76 131.27 917.56 131.07C917.18 130.67 917.19 130.04 917.58 129.66C921.51 125.85 926.6 127.88 928.73 129.48C929.17 129.81 929.26 130.44 928.93 130.88C928.6 131.32 927.97 131.41 927.53 131.08C927.33 130.93 922.64 127.53 918.96 131.1C918.77 131.29 918.51 131.38 918.26 131.38L918.28 131.37Z" fill="black"/>
<path d="M955.211 131C954.781 131 954.391 130.72 954.251 130.29C954.091 129.76 954.381 129.2 954.911 129.04L987.581 118.99C988.101 118.83 988.671 119.12 988.831 119.65C988.991 120.18 988.701 120.74 988.171 120.9L955.501 130.95C955.401 130.98 955.301 130.99 955.211 130.99V131Z" fill="black"/>
<path d="M1022.97 556.15H1033.34C1037.55 556.15 1040.87 552.57 1040.56 548.37L1025.13 340.15C1024.75 335 1019.88 330.13 1014.54 330.13H971.721L1022.97 556.15Z" fill="black"/>
<path d="M679.76 556.15H1022.97C1026.03 556.15 1028.16 553.93 1027.94 550.97L1012.41 341.13C1011.98 335.3 1006.27 330.14 1000.25 330.14H661.47C658.41 330.14 656.28 332.36 656.5 335.32L672.35 549.45C672.61 553 676.1 556.15 679.77 556.15H679.76Z" fill="white"/>
<path d="M1022.97 557.15H679.759C675.579 557.15 671.649 553.58 671.349 549.52L655.499 335.39C655.379 333.7 655.899 332.14 656.969 330.98C658.079 329.79 659.669 329.13 661.459 329.13H1000.24C1006.78 329.13 1012.93 334.7 1013.4 341.05L1028.93 550.89C1029.05 552.58 1028.53 554.14 1027.46 555.3C1026.35 556.49 1024.76 557.15 1022.97 557.15ZM661.469 331.13C660.239 331.13 659.169 331.56 658.439 332.34C657.749 333.08 657.419 334.11 657.499 335.24L673.349 549.37C673.569 552.39 676.629 555.15 679.769 555.15H1022.98C1024.21 555.15 1025.28 554.72 1026.01 553.94C1026.7 553.2 1027.03 552.17 1026.95 551.04L1011.42 341.2C1011.03 335.93 1005.71 331.13 1000.26 331.13H661.479H661.469Z" fill="black"/>
<path d="M767.041 612L814.661 485.32L868.511 485.23L849.491 604.88C848.361 613.14 847.631 617.72 850.991 622.66L901.371 622.86V627.47L871.821 635.36C865.511 637.05 859.001 637.9 852.461 637.9L784.831 638.48C771.411 638.48 762.311 624.57 767.031 612H767.041Z" fill="white"/>
<path d="M860.76 638.9C857.19 638.9 851.82 637.03 846.5 628.14L846.35 627.89C843.19 622.74 841.86 613.47 843.05 604.82L862.45 485.08C862.54 484.53 863.05 484.16 863.6 484.25C864.15 484.34 864.52 484.85 864.43 485.4L845.04 605.12C843.92 613.32 845.13 622.06 848.07 626.85L848.23 627.12C853.08 635.21 857.73 636.91 860.78 636.91C861.33 636.91 861.78 637.36 861.78 637.91C861.78 638.46 861.33 638.91 860.78 638.91L860.76 638.9Z" fill="black"/>
<path d="M852.469 639.48H784.839C778.109 639.48 772.049 636.31 768.219 630.77C764.389 625.24 763.549 618.45 765.919 612.15L813.729 484.97C813.879 484.58 814.249 484.32 814.669 484.32L865.749 484.26L868.509 484.23C868.829 484.23 869.089 484.35 869.279 484.58C869.469 484.8 869.559 485.1 869.509 485.39L850.219 605.11C849.269 612.08 849.599 617.3 851.289 621.47C851.379 621.45 851.469 621.43 851.559 621.43H901.379C901.929 621.43 902.379 621.88 902.379 622.43V623.41C902.379 623.41 902.379 623.44 902.379 623.45V628.03C902.379 628.48 902.079 628.88 901.639 629L872.089 636.89C865.699 638.6 859.099 639.46 852.479 639.46L852.469 639.48ZM815.359 486.32L767.799 612.85C765.669 618.53 766.419 624.64 769.879 629.63C773.329 634.62 778.789 637.48 784.859 637.48H852.489C858.929 637.48 865.359 636.64 871.589 634.97L900.399 627.28V624.73L867.699 633.06C860.149 634.88 854.729 632 850.129 623.71L849.689 622.77C847.679 618.15 847.229 612.46 848.269 604.83L867.369 486.25L865.779 486.27L815.389 486.33L815.359 486.32ZM852.239 623.44C856.259 630.35 860.769 632.66 867.189 631.11L897.319 623.44H852.239Z" fill="black"/>
<path d="M769.55 146.06H591.52C585.21 146.06 580.09 140.95 580.09 134.64V53.5303C580.09 47.2203 585.21 42.1104 591.52 42.1104H769.55C775.86 42.1104 780.98 47.2203 780.98 53.5303V134.64C780.98 140.95 775.86 146.06 769.55 146.06Z" fill="#B0F7F6"/>
<path d="M857.369 112.6H618.549C611.699 112.6 606.119 107.03 606.119 100.18V12.42C606.119 5.57 611.699 0 618.549 0H809.419C816.269 0 821.849 5.57 821.849 12.42V68.81L858.129 110.95C858.379 111.25 858.439 111.66 858.279 112.02C858.119 112.37 857.759 112.6 857.369 112.6ZM618.549 2C612.799 2 608.119 6.68 608.119 12.42V100.18C608.119 105.93 612.799 110.6 618.549 110.6H855.189L820.089 69.83C819.929 69.65 819.849 69.42 819.849 69.18V12.42C819.849 6.67 815.169 2 809.419 2H618.549Z" fill="black"/>
<path d="M691.511 82.4495C690.961 82.4495 690.511 81.9995 690.511 81.4495V66.8595C690.511 66.3095 690.961 65.8595 691.511 65.8595C704.291 65.8595 714.691 55.4695 714.691 42.6895C714.691 29.9095 704.291 19.5195 691.511 19.5195C681.701 19.5195 672.911 25.7295 669.651 34.9795C669.471 35.4995 668.901 35.7695 668.371 35.5895C667.851 35.4095 667.581 34.8395 667.761 34.3095C671.311 24.2695 680.851 17.5195 691.511 17.5195C705.391 17.5195 716.691 28.8095 716.691 42.6895C716.691 56.5695 705.931 67.3095 692.511 67.8395V81.4495C692.511 81.9995 692.061 82.4495 691.511 82.4495Z" fill="black"/>
<path d="M691.529 95.0898C690.979 95.0898 690.529 94.6398 690.529 94.0898V88.0098C690.529 87.4598 690.979 87.0098 691.529 87.0098C692.079 87.0098 692.529 87.4598 692.529 88.0098V94.0898C692.529 94.6398 692.079 95.0898 691.529 95.0898Z" fill="black"/>
<path d="M754.521 82.4495C753.971 82.4495 753.521 81.9995 753.521 81.4495V66.8595C753.521 66.3095 753.971 65.8595 754.521 65.8595C767.301 65.8595 777.701 55.4695 777.701 42.6895C777.701 29.9095 767.301 19.5195 754.521 19.5195C744.711 19.5195 735.921 25.7295 732.661 34.9795C732.481 35.4995 731.911 35.7695 731.381 35.5895C730.861 35.4095 730.591 34.8395 730.771 34.3095C734.321 24.2695 743.861 17.5195 754.521 17.5195C768.401 17.5195 779.701 28.8095 779.701 42.6895C779.701 56.5695 768.941 67.3095 755.521 67.8395V81.4495C755.521 81.9995 755.071 82.4495 754.521 82.4495Z" fill="black"/>
<path d="M754.539 95.0898C753.989 95.0898 753.539 94.6398 753.539 94.0898V88.0098C753.539 87.4598 753.989 87.0098 754.539 87.0098C755.089 87.0098 755.539 87.4598 755.539 88.0098V94.0898C755.539 94.6398 755.089 95.0898 754.539 95.0898Z" fill="black"/>
<path d="M413.509 331.13C413.349 331.13 413.189 331.09 413.039 331.01C412.709 330.84 412.509 330.5 412.509 330.13L412.439 211.74C412.439 204.89 418.019 199.32 424.869 199.32H602.889C609.739 199.32 615.319 204.89 615.319 211.74V292.85C615.319 299.7 609.739 305.27 602.889 305.27H452.159L414.059 330.95C413.889 331.06 413.699 331.12 413.499 331.12L413.509 331.13ZM424.869 201.32C419.119 201.32 414.439 206 414.439 211.74L414.509 328.25L451.309 303.45C451.479 303.34 451.669 303.28 451.869 303.28H602.899C608.649 303.28 613.329 298.6 613.329 292.86V211.75C613.329 206 608.649 201.33 602.899 201.33H424.879L424.869 201.32Z" fill="black"/>
<path d="M587.831 265.52H552.311C551.761 265.52 551.311 265.07 551.311 264.52C551.311 263.97 551.761 263.52 552.311 263.52H587.831C588.381 263.52 588.831 263.97 588.831 264.52C588.831 265.07 588.381 265.52 587.831 265.52Z" fill="black"/>
<path d="M540.08 265.52H480.82C480.27 265.52 479.82 265.07 479.82 264.52C479.82 263.97 480.27 263.52 480.82 263.52H540.08C540.63 263.52 541.08 263.97 541.08 264.52C541.08 265.07 540.63 265.52 540.08 265.52Z" fill="black"/>
<path d="M468.38 265.52H440.58C440.03 265.52 439.58 265.07 439.58 264.52C439.58 263.97 440.03 263.52 440.58 263.52H468.38C468.93 263.52 469.38 263.97 469.38 264.52C469.38 265.07 468.93 265.52 468.38 265.52Z" fill="black"/>
<path d="M587.83 232.45H514.4C513.85 232.45 513.4 232 513.4 231.45C513.4 230.9 513.85 230.45 514.4 230.45H587.83C588.38 230.45 588.83 230.9 588.83 231.45C588.83 232 588.38 232.45 587.83 232.45Z" fill="black"/>
<path d="M505.58 232.45H440.58C440.03 232.45 439.58 232 439.58 231.45C439.58 230.9 440.03 230.45 440.58 230.45H505.58C506.13 230.45 506.58 230.9 506.58 231.45C506.58 232 506.13 232.45 505.58 232.45Z" fill="black"/>
<path d="M1126.83 586.19V575.17H1169.18V586.19C1175.12 590.35 1178.66 597.15 1178.66 604.4V722.91C1178.66 728.83 1173.86 733.62 1167.95 733.62H1128.07C1122.15 733.62 1117.36 728.82 1117.36 722.91V604.4C1117.36 597.15 1120.9 590.35 1126.84 586.19H1126.83Z" fill="white"/>
<path d="M1167.94 734.63H1128.06C1121.6 734.63 1116.35 729.38 1116.35 722.92V604.41C1116.35 597.01 1119.88 590.05 1125.83 585.69V575.18C1125.83 574.63 1126.28 574.18 1126.83 574.18H1169.18C1169.73 574.18 1170.18 574.63 1170.18 575.18V585.69C1176.13 590.06 1179.66 597.02 1179.66 604.41V722.92C1179.66 729.38 1174.41 734.63 1167.95 734.63H1167.94ZM1127.83 576.17V586.19C1127.83 586.52 1127.67 586.82 1127.4 587.01C1121.73 590.98 1118.35 597.48 1118.35 604.4V722.91C1118.35 728.27 1122.71 732.62 1128.06 732.62H1167.94C1173.3 732.62 1177.65 728.26 1177.65 722.91V604.4C1177.65 597.48 1174.26 590.98 1168.59 587.01C1168.32 586.82 1168.16 586.52 1168.16 586.19V576.17H1127.81H1127.83Z" fill="black"/>
<path d="M1123.92 680.14H1162.97V608.62H1123.92V680.14Z" fill="#B0F7F6"/>
<path d="M1123.92 696.23H1162.97V684.271H1123.92V696.23Z" fill="#B0F7F6"/>
<path d="M1129.36 561.35H1167.36C1171.65 561.35 1175.13 564.83 1175.13 569.12C1175.13 573.41 1171.65 576.89 1167.36 576.89H1129.36C1125.07 576.89 1121.59 573.41 1121.59 569.12C1121.59 564.83 1125.07 561.35 1129.36 561.35Z" fill="#478D8D"/>
<path d="M1025.44 656.13L1041.2 649.23V631.84H1078.96V649.12L1094.76 656.12C1098.64 657.84 1101.14 661.68 1101.14 665.92V750.51C1101.14 755.41 1097.17 759.37 1092.27 759.37H1027.89C1022.99 759.37 1019.02 755.4 1019.02 750.51V665.95C1019.02 661.69 1021.54 657.84 1025.44 656.13Z" fill="white"/>
<path d="M1092.26 760.38H1027.88C1022.44 760.38 1018.01 755.95 1018.01 750.51V665.95C1018.01 661.3 1020.77 657.08 1025.03 655.21L1040.19 648.57V631.83C1040.19 631.28 1040.64 630.83 1041.19 630.83H1078.95C1079.5 630.83 1079.95 631.28 1079.95 631.83V648.46L1095.16 655.2C1099.4 657.08 1102.14 661.28 1102.14 665.91V750.5C1102.14 755.94 1097.71 760.37 1092.27 760.37L1092.26 760.38ZM1025.83 657.05C1022.29 658.6 1020.01 662.09 1020.01 665.95V750.51C1020.01 754.85 1023.54 758.38 1027.88 758.38H1092.26C1096.6 758.38 1100.13 754.85 1100.13 750.51V665.92C1100.13 662.08 1097.86 658.59 1094.34 657.03L1078.54 650.03C1078.18 649.87 1077.95 649.51 1077.95 649.12V632.84H1042.19V649.24C1042.19 649.64 1041.96 650 1041.59 650.16L1025.83 657.06V657.05Z" fill="black"/>
<path d="M1033.39 642.86H1086.76L1085.43 618.23C1085.25 614.94 1082.53 612.37 1079.23 612.37H1041.24C1037.98 612.37 1035.27 614.9 1035.05 618.15L1033.38 642.87L1033.39 642.86Z" fill="white"/>
<path d="M1086.76 643.86H1033.39C1033.11 643.86 1032.85 643.75 1032.66 643.54C1032.47 643.34 1032.37 643.07 1032.39 642.79L1034.06 618.07C1034.31 614.3 1037.47 611.36 1041.25 611.36H1079.24C1083.07 611.36 1086.23 614.35 1086.43 618.17L1087.76 642.8C1087.77 643.07 1087.68 643.34 1087.49 643.54C1087.3 643.74 1087.04 643.85 1086.76 643.85V643.86ZM1034.46 641.86H1085.7L1084.43 618.28C1084.28 615.52 1082 613.36 1079.23 613.36H1041.24C1038.51 613.36 1036.23 615.49 1036.05 618.21L1034.46 641.86Z" fill="black"/>
<path d="M1043.07 640.24C1043.07 640.24 1043.02 640.24 1042.99 640.24C1042.44 640.2 1042.03 639.71 1042.07 639.16L1043.72 618.56C1043.76 618.01 1044.24 617.59 1044.8 617.64C1045.35 617.68 1045.76 618.17 1045.72 618.72L1044.07 639.32C1044.03 639.84 1043.59 640.24 1043.07 640.24Z" fill="black"/>
<path d="M1051.17 640.54C1051.17 640.54 1051.15 640.54 1051.13 640.54C1050.58 640.52 1050.15 640.06 1050.17 639.5L1050.96 618.49C1050.98 617.94 1051.42 617.5 1052 617.53C1052.55 617.55 1052.98 618.01 1052.96 618.57L1052.17 639.58C1052.15 640.12 1051.71 640.54 1051.17 640.54Z" fill="black"/>
<path d="M1031.52 731.33H1088.63V678.05H1031.52V731.33Z" fill="white"/>
<path d="M1088.63 732.33H1031.52C1030.97 732.33 1030.52 731.88 1030.52 731.33V678.05C1030.52 677.5 1030.97 677.05 1031.52 677.05H1088.63C1089.18 677.05 1089.63 677.5 1089.63 678.05V731.33C1089.63 731.88 1089.18 732.33 1088.63 732.33ZM1032.52 730.33H1087.63V679.05H1032.52V730.33Z" fill="black"/>
<path d="M217.561 451.52L248.611 387.68C248.611 387.68 254.431 364.7 250.581 348.2C246.731 331.7 239.761 279.08 315.841 294.42L315.171 289.12C315.171 289.12 361.591 289.13 362.701 323.29C363.701 354.37 336.681 361.75 336.681 361.75C336.681 361.75 335.481 392.85 332.801 415.19C331.511 425.94 322.461 434.09 311.641 434.17C303.571 434.23 294.381 433.27 287.561 429.59L278.651 456.08L217.571 451.52H217.561Z" fill="white"/>
<path d="M278.64 457.08C278.64 457.08 278.59 457.08 278.57 457.08L217.49 452.52C217.16 452.5 216.86 452.31 216.7 452.02C216.53 451.73 216.52 451.38 216.67 451.08L247.67 387.33C248.07 385.69 253.23 363.95 249.61 348.42C246.92 336.87 244.35 315.5 257.38 302.07C268.22 290.9 287.49 287.9 314.68 293.16L314.19 289.24C314.15 288.95 314.24 288.67 314.43 288.45C314.62 288.23 314.89 288.11 315.18 288.11C315.65 288.11 362.58 288.52 363.71 323.25C364.64 351.9 341.99 361.01 337.66 362.48C337.46 367.23 336.23 395.03 333.8 415.3C332.46 426.54 322.93 435.08 311.65 435.16C301.87 435.24 293.97 433.83 288.14 431L279.6 456.39C279.46 456.8 279.08 457.07 278.65 457.07L278.64 457.08ZM219.1 450.63L277.94 455.02L286.6 429.27C286.69 428.99 286.91 428.77 287.18 428.66C287.46 428.55 287.76 428.57 288.02 428.71C293.64 431.75 301.58 433.25 311.62 433.17C321.9 433.09 330.57 425.31 331.8 415.07C334.44 393.03 335.66 362.02 335.67 361.71C335.69 361.27 335.98 360.9 336.4 360.78C337.47 360.49 362.65 353.22 361.69 323.32C360.72 293.45 323.35 290.45 316.3 290.15L316.82 294.29C316.86 294.61 316.74 294.93 316.51 295.15C316.27 295.37 315.95 295.46 315.63 295.4C288.43 289.92 269.31 292.63 258.8 303.47C245.97 316.69 249.45 339 251.55 347.97C255.41 364.52 249.82 386.97 249.58 387.92C249.56 387.99 249.54 388.05 249.51 388.11L219.11 450.63H219.1Z" fill="black"/>
<path d="M285.219 409.4C285.039 409.4 284.859 409.35 284.699 409.26C273.029 402.22 259.689 397.8 246.119 396.48C245.569 396.43 245.169 395.94 245.219 395.39C245.269 394.84 245.759 394.44 246.309 394.49C259.749 395.79 272.979 400.08 284.639 406.9C286.499 400.97 287.869 394.86 288.729 388.72C288.809 388.17 289.309 387.79 289.859 387.87C290.409 387.95 290.789 388.45 290.709 389C289.779 395.67 288.249 402.31 286.159 408.72C286.069 409.01 285.839 409.24 285.559 409.35C285.449 409.39 285.329 409.41 285.209 409.41L285.219 409.4Z" fill="black"/>
<path d="M302.52 383C302.02 383 301.58 382.62 301.53 382.11C301.13 378.5 298.57 375.23 295.16 373.97C294.64 373.78 294.38 373.2 294.57 372.69C294.76 372.17 295.34 371.91 295.85 372.1C299.96 373.61 303.04 377.55 303.52 381.9C303.58 382.45 303.18 382.94 302.64 383C302.6 383 302.57 383 302.53 383H302.52Z" fill="black"/>
<path d="M287.55 430.59C287.45 430.59 287.34 430.57 287.24 430.54C286.72 430.37 286.43 429.8 286.6 429.28L297.68 395.58C297.76 395.32 297.95 395.11 298.19 394.99C298.63 394.77 308.99 389.39 307.82 370.22C307.52 365.35 305.29 362.15 300.99 360.43C296.75 358.74 291.38 360.31 288.23 364.17C285.36 367.69 284.33 372.97 285.54 377.96C286.61 382.35 289.31 386.65 293.35 390.4C293.76 390.78 293.78 391.41 293.4 391.81C293.02 392.22 292.39 392.24 291.99 391.86C287.66 387.85 284.76 383.2 283.59 378.43C282.21 372.76 283.36 366.95 286.67 362.9C290.36 358.39 296.68 356.57 301.71 358.57C306.73 360.57 309.45 364.45 309.8 370.09C310.95 388.8 301.53 395.35 299.44 396.56L288.49 429.89C288.35 430.31 287.96 430.58 287.54 430.58L287.55 430.59Z" fill="black"/>
<path d="M331.45 393.29C325.18 393.29 320.64 391.82 317.94 388.9C315.63 386.4 314.71 382.82 315.29 378.57C315.92 373.97 315.95 369.82 315.4 365.87C313.33 351.13 313.94 342.19 317.21 339.31C323.6 333.68 336.749 343.38 337.299 343.8C337.549 343.99 337.7 344.29 337.7 344.6L337.67 361.76C337.67 362.31 337.22 362.76 336.67 362.76C336.12 362.76 335.67 362.31 335.67 361.76L335.7 345.11C331.96 342.43 322.67 337.17 318.53 340.82C315.91 343.13 315.49 352.16 317.38 365.6C317.96 369.73 317.92 374.07 317.27 378.85C316.77 382.55 317.48 385.48 319.41 387.56C322.03 390.4 326.9 391.64 333.87 391.24C334.43 391.21 334.89 391.63 334.93 392.18C334.96 392.73 334.54 393.2 333.99 393.24C333.11 393.29 332.27 393.31 331.45 393.31V393.29Z" fill="black"/>
<path d="M339.649 387.33C339.649 387.33 339.599 387.33 339.569 387.33C339.019 387.29 338.609 386.8 338.649 386.25L340.379 365.02C340.419 364.47 340.919 364.05 341.459 364.1C342.009 364.14 342.419 364.63 342.379 365.18L340.649 386.41C340.609 386.93 340.169 387.33 339.649 387.33Z" fill="black"/>
<path d="M340.55 376.269C340.5 376.269 340.44 376.27 340.39 376.26L308.65 371.16C308.1 371.07 307.73 370.56 307.82 370.01C307.91 369.46 308.43 369.089 308.97 369.179L340.71 374.28C341.26 374.37 341.63 374.879 341.54 375.429C341.46 375.919 341.04 376.269 340.55 376.269Z" fill="black"/>
<path d="M458.201 662.96C478.671 643.66 499.141 624.36 519.601 605.06C525.611 597.7 531.611 590.33 537.621 582.97L553.081 566.09L573.301 548.78C575.711 545.26 576.531 550.92 580.471 546.57C585.311 541.23 587.871 527.11 587.871 527.11L591.591 505.15C592.301 500.94 596.601 496.55 601.371 495.16C606.251 493.73 609.851 495.96 609.461 500.17C607.701 519.51 605.941 538.85 604.191 558.18C598.801 571.18 590.671 589.75 579.661 611.54C563.851 642.83 552.161 665.95 533.401 690.11C507.781 723.12 479.591 759.43 439.301 759.83C409.281 760.13 387.941 740.34 386.161 738.62C372.901 725.9 370.121 713.19 357.911 669.17C353.441 653.06 346.371 627.9 337.061 596.38C368.821 593.73 400.591 591.09 432.351 588.44C440.971 613.28 449.591 638.11 458.211 662.95L458.201 662.96Z" fill="white"/>
<path d="M438.619 760.84C408.739 760.84 387.769 741.56 385.459 739.35C372.919 727.32 369.499 714.93 359.339 678.14C358.579 675.38 357.779 672.49 356.929 669.44C350.349 645.7 343.329 621.22 336.079 596.67C335.989 596.38 336.039 596.07 336.209 595.82C336.379 595.57 336.649 595.41 336.949 595.39L432.239 587.45C432.689 587.41 433.119 587.69 433.269 588.12L458.629 661.17L518.859 604.37L536.839 582.33L552.339 565.4C552.339 565.4 552.399 565.34 552.429 565.32L572.549 548.1C574.109 545.91 575.609 546.58 576.509 546.98C577.439 547.39 578.109 547.69 579.729 545.9C584.329 540.83 586.859 527.08 586.879 526.94L590.589 504.99C591.359 500.44 595.969 495.7 601.069 494.2C604.019 493.34 606.729 493.68 608.499 495.13C609.939 496.32 610.629 498.14 610.439 500.25L605.169 558.26C605.169 558.36 605.139 558.46 605.099 558.55C597.649 576.51 589.379 594.48 580.539 611.98C564.549 643.61 552.999 666.47 534.179 690.71C508.819 723.38 480.069 760.41 439.299 760.82C439.069 760.82 438.839 760.82 438.609 760.82L438.619 760.84ZM338.359 597.29C345.489 621.46 352.389 645.55 358.869 668.92C359.709 671.97 360.509 674.86 361.279 677.62C371.599 714.99 374.709 726.27 386.859 737.91C389.109 740.07 409.539 758.84 438.629 758.84C438.859 758.84 439.079 758.84 439.299 758.84C479.109 758.44 507.539 721.82 532.619 689.5C551.319 665.41 562.829 642.63 578.769 611.09C587.569 593.69 595.789 575.8 603.209 557.94L608.469 500.08C608.599 498.62 608.179 497.45 607.249 496.68C605.999 495.65 603.959 495.45 601.649 496.12C597.289 497.39 593.219 501.52 592.579 505.32L588.859 527.28C588.749 527.88 586.199 541.75 581.219 547.24C578.829 549.88 577.179 549.46 575.709 548.8C574.889 548.43 574.789 548.39 574.139 549.34C574.089 549.41 574.029 549.48 573.969 549.53L553.799 566.8L538.379 583.64L520.399 605.69C520.399 605.69 520.339 605.76 520.309 605.79L458.909 663.69C458.659 663.92 458.309 664.01 457.989 663.93C457.659 663.85 457.389 663.61 457.279 663.29L431.669 589.51L338.379 597.28L338.359 597.29Z" fill="black"/>
<path d="M543.381 616.84H392.211L486.911 442.7H638.081L543.381 616.84Z" fill="black"/>
<path d="M541.8 605.06H406.59L489.42 452.76H624.62L541.8 605.06Z" fill="white"/>
<path d="M478.24 589.86C474.64 592.19 472.59 595.97 473.65 598.3C474.71 600.63 478.49 600.63 482.09 598.3C485.69 595.97 487.74 592.19 486.68 589.86C485.62 587.53 481.84 587.53 478.24 589.86Z" fill="#478D8D"/>
<path d="M503.44 496.87H481C480.65 496.87 480.32 496.68 480.14 496.38C479.96 496.08 479.95 495.7 480.12 495.39L492.7 472.26C492.87 471.94 493.21 471.74 493.58 471.74H514.73C515.28 471.74 515.73 472.19 515.73 472.74C515.73 473.29 515.28 473.74 514.73 473.74H494.17L482.68 494.87H502.84L507.8 485.75C508.06 485.26 508.67 485.09 509.16 485.35C509.65 485.61 509.82 486.22 509.56 486.71L504.32 496.35C504.15 496.67 503.81 496.87 503.44 496.87Z" fill="black"/>
<path d="M497.18 492.9C497.06 492.9 496.93 492.88 496.82 492.83C496.49 492.7 496.25 492.4 496.19 492.05L494.3 479.37C494.22 478.82 494.6 478.31 495.14 478.23C495.68 478.15 496.19 478.53 496.28 479.07L497.92 490.03L523.85 469.12C524.28 468.77 524.91 468.84 525.26 469.27C525.61 469.7 525.54 470.33 525.11 470.68L497.82 492.68C497.64 492.83 497.42 492.9 497.19 492.9H497.18Z" fill="#478D8D"/>
<path d="M481.84 536.6H459.4C459.05 536.6 458.72 536.41 458.54 536.11C458.36 535.81 458.35 535.43 458.52 535.12L471.1 511.99C471.27 511.67 471.61 511.47 471.98 511.47H493.13C493.68 511.47 494.13 511.92 494.13 512.47C494.13 513.02 493.68 513.47 493.13 513.47H472.57L461.08 534.6H481.24L485.52 526.73C485.78 526.24 486.39 526.07 486.88 526.33C487.37 526.59 487.54 527.2 487.28 527.69L482.71 536.09C482.54 536.41 482.2 536.61 481.83 536.61L481.84 536.6Z" fill="black"/>
<path d="M475.58 532.63C475.46 532.63 475.33 532.61 475.22 532.56C474.89 532.43 474.65 532.13 474.59 531.78L472.7 519.1C472.62 518.55 473 518.04 473.54 517.96C474.08 517.88 474.6 518.25 474.68 518.8L476.32 529.76L502.25 508.85C502.68 508.5 503.31 508.57 503.66 509C504.01 509.43 503.94 510.06 503.51 510.41L476.22 532.41C476.04 532.56 475.82 532.63 475.59 532.63H475.58Z" fill="#478D8D"/>
<path d="M460.141 576.49H437.701C437.351 576.49 437.021 576.3 436.841 576C436.661 575.7 436.651 575.32 436.821 575.01L449.401 551.88C449.571 551.56 449.911 551.36 450.281 551.36H471.431C471.981 551.36 472.431 551.81 472.431 552.36C472.431 552.91 471.981 553.36 471.431 553.36H450.871L439.381 574.49H459.541L468.451 558.1C468.711 557.61 469.321 557.44 469.811 557.7C470.301 557.96 470.471 558.57 470.211 559.06L461.011 575.97C460.841 576.29 460.501 576.49 460.131 576.49H460.141Z" fill="black"/>
<path d="M568.439 478.81H531.119C530.569 478.81 530.119 478.36 530.119 477.81C530.119 477.26 530.569 476.81 531.119 476.81H568.439C568.989 476.81 569.439 477.26 569.439 477.81C569.439 478.36 568.989 478.81 568.439 478.81Z" fill="black"/>
<path d="M588.931 491.8H553.801C553.251 491.8 552.801 491.35 552.801 490.8C552.801 490.25 553.251 489.8 553.801 489.8H588.931C589.481 489.8 589.931 490.25 589.931 490.8C589.931 491.35 589.481 491.8 588.931 491.8Z" fill="black"/>
<path d="M546.251 491.8H524.061C523.511 491.8 523.061 491.35 523.061 490.8C523.061 490.25 523.511 489.8 524.061 489.8H546.251C546.801 489.8 547.251 490.25 547.251 490.8C547.251 491.35 546.801 491.8 546.251 491.8Z" fill="black"/>
<path d="M546.84 518.54H509.52C508.97 518.54 508.52 518.09 508.52 517.54C508.52 516.99 508.97 516.54 509.52 516.54H546.84C547.39 516.54 547.84 516.99 547.84 517.54C547.84 518.09 547.39 518.54 546.84 518.54Z" fill="black"/>
<path d="M567.329 531.53H532.199C531.649 531.53 531.199 531.08 531.199 530.53C531.199 529.98 531.649 529.53 532.199 529.53H567.329C567.879 529.53 568.329 529.98 568.329 530.53C568.329 531.08 567.879 531.53 567.329 531.53Z" fill="black"/>
<path d="M524.651 531.53H502.461C501.911 531.53 501.461 531.08 501.461 530.53C501.461 529.98 501.911 529.53 502.461 529.53H524.651C525.201 529.53 525.651 529.98 525.651 530.53C525.651 531.08 525.201 531.53 524.651 531.53Z" fill="black"/>
<path d="M525.14 558.43H487.82C487.27 558.43 486.82 557.98 486.82 557.43C486.82 556.88 487.27 556.43 487.82 556.43H525.14C525.69 556.43 526.14 556.88 526.14 557.43C526.14 557.98 525.69 558.43 525.14 558.43Z" fill="black"/>
<path d="M545.63 571.42H510.5C509.95 571.42 509.5 570.97 509.5 570.42C509.5 569.87 509.95 569.42 510.5 569.42H545.63C546.18 569.42 546.63 569.87 546.63 570.42C546.63 570.97 546.18 571.42 545.63 571.42Z" fill="black"/>
<path d="M502.95 571.42H480.76C480.21 571.42 479.76 570.97 479.76 570.42C479.76 569.87 480.21 569.42 480.76 569.42H502.95C503.5 569.42 503.95 569.87 503.95 570.42C503.95 570.97 503.5 571.42 502.95 571.42Z" fill="black"/>
<path d="M588.311 550.93C584.931 537.44 584.831 522.2 588.031 506.21C588.191 505.39 588.361 504.54 588.071 503.92C587.621 502.97 586.201 502.85 584.821 503.1C579.991 503.96 574.921 508.4 572.341 512.89C569.761 517.38 569.191 521.87 569.081 526.04C569.031 527.9 569.051 529.78 568.261 531.79C566.941 535.15 563.651 538.21 560.811 541.23C550.421 552.27 555.781 583.38 556.031 594.51L588.311 550.94V550.93Z" fill="white"/>
<path d="M556.03 595.5C555.49 595.5 555.04 595.07 555.03 594.52C554.98 592.36 554.73 589.41 554.45 586C553.24 571.56 551.42 549.73 560.08 540.54C560.52 540.08 560.96 539.61 561.41 539.15C563.8 536.66 566.28 534.09 567.33 531.43C568 529.74 568.03 528.15 568.07 526.46V526.02C568.18 522.25 568.65 517.3 571.47 512.4C573.92 508.14 579.08 503.11 584.64 502.12C586.79 501.74 588.37 502.24 588.97 503.5C589.4 504.42 589.19 505.48 589.01 506.41C585.82 522.35 585.91 537.25 589.28 550.69C589.41 551.23 589.09 551.77 588.55 551.9C588.02 552.03 587.47 551.71 587.34 551.17C583.9 537.44 583.8 522.25 587.05 506.01C587.17 505.41 587.32 504.67 587.17 504.35C587.03 504.05 586.24 503.86 585 504.08C580.29 504.92 575.51 509.39 573.21 513.38C570.63 517.87 570.18 522.31 570.08 526.05V526.49C570.03 528.28 569.98 530.13 569.19 532.15C568 535.18 565.38 537.9 562.85 540.53C562.41 540.99 561.96 541.45 561.53 541.91C553.49 550.45 555.26 571.74 556.44 585.83C556.73 589.28 556.98 592.26 557.03 594.48C557.04 595.03 556.61 595.49 556.05 595.5H556.03Z" fill="black"/>
<path d="M485.721 637.01C476.551 645.66 467.371 654.31 458.201 662.96C449.581 638.12 440.961 613.29 432.341 588.45C400.581 591.1 368.811 593.74 337.051 596.39C346.361 627.91 353.431 653.06 357.901 669.18C370.111 713.2 372.891 725.91 386.151 738.63C387.941 740.35 409.271 760.14 439.291 759.84C456.791 759.67 472.001 752.71 485.711 742.2V637.01H485.721Z" fill="white"/>
<path d="M438.619 760.84C408.739 760.84 387.769 741.56 385.459 739.35C372.919 727.32 369.499 714.93 359.339 678.14C358.579 675.38 357.779 672.49 356.929 669.44C350.349 645.7 343.329 621.22 336.079 596.67C335.989 596.38 336.039 596.07 336.209 595.82C336.379 595.57 336.649 595.41 336.949 595.39L432.239 587.45C432.689 587.41 433.119 587.69 433.269 588.12L458.629 661.17L485.029 636.28C485.429 635.9 486.059 635.92 486.439 636.32C486.819 636.72 486.799 637.35 486.399 637.73L458.879 663.68C458.629 663.91 458.279 664.01 457.959 663.92C457.629 663.84 457.359 663.6 457.249 663.28L431.639 589.5L338.349 597.27C345.479 621.44 352.379 645.53 358.859 668.9C359.699 671.95 360.499 674.84 361.269 677.6C371.589 714.97 374.699 726.25 386.849 737.89C389.099 740.05 409.529 758.82 438.619 758.82C438.849 758.82 439.069 758.82 439.289 758.82C455.019 758.66 470.009 752.96 485.119 741.39C485.559 741.06 486.179 741.14 486.519 741.58C486.859 742.02 486.769 742.65 486.329 742.98C470.869 754.83 455.489 760.66 439.309 760.83C439.079 760.83 438.849 760.83 438.619 760.83V760.84Z" fill="black"/>
<path d="M465 684.8C464.58 684.8 464.19 684.53 464.05 684.11L457.25 663.28C457.08 662.75 457.37 662.19 457.89 662.02C458.42 661.85 458.98 662.14 459.15 662.66L465.95 683.49C466.12 684.02 465.83 684.58 465.31 684.75C465.21 684.78 465.1 684.8 465 684.8Z" fill="black"/>
<path d="M397.25 584.73C397.25 584.73 419.67 568.4 427.11 565.78C434.55 563.16 444.34 563.77 449.76 559.47C455.18 555.17 452.79 545.01 442.93 544.18C433.07 543.35 426.85 542.67 426.07 538.41C425.29 534.15 450.52 524.3 452.82 525.4C455.12 526.5 462.18 535.01 472.41 528.77C482.65 522.53 468.64 512.64 460.78 508C452.92 503.36 445.17 504.42 439.8 507.51C439.8 507.51 433.2 500.99 422.36 505.53C422.36 505.53 411.13 499.45 400.83 506.19C400.83 506.19 394.79 503.3 381.62 509.37C368.46 515.45 337.17 542.02 337.17 542.02L397.24 584.75L397.25 584.73Z" fill="white"/>
<path d="M397.25 585.73C397.05 585.73 396.84 585.67 396.67 585.54L336.6 542.81C336.35 542.63 336.19 542.35 336.18 542.04C336.17 541.73 336.3 541.43 336.53 541.23C337.81 540.14 368.07 514.5 381.21 508.43C392.6 503.17 398.9 504.45 400.72 505.04C410.24 499.13 420.21 503.33 422.41 504.4C431.79 500.67 438.06 504.76 439.93 506.27C443.55 504.36 451.72 501.46 461.29 507.12C468.44 511.35 476.98 517.62 477.02 523.48C477.04 525.88 475.66 527.95 472.93 529.61C463.94 535.09 457.15 529.87 453.89 527.36C453.25 526.87 452.7 526.45 452.39 526.29C450.42 525.85 432.64 532.43 427.94 536.94C427.16 537.69 427.04 538.12 427.06 538.22C427.7 541.72 433.55 542.38 443.02 543.18C448.99 543.68 452.19 547.38 453.18 550.68C454.27 554.28 453.17 558.04 450.38 560.25C446.88 563.03 441.7 563.87 436.69 564.68C433.54 565.19 430.28 565.72 427.44 566.72C420.22 569.27 398.06 585.38 397.84 585.54C397.66 585.67 397.46 585.73 397.25 585.73ZM338.81 541.93L397.24 583.49C400.89 580.85 419.87 567.26 426.77 564.82C429.77 563.76 433.12 563.22 436.36 562.69C441.34 561.88 446.03 561.12 449.13 558.67C451.27 556.97 452.11 554.05 451.26 551.24C450.22 547.79 447.07 545.51 442.84 545.16C433.08 544.34 426.03 543.75 425.08 538.57C424.85 537.34 425.68 536.05 427.68 534.52C433.54 530.04 450.74 523.27 453.24 524.47C453.75 524.71 454.34 525.17 455.1 525.75C458.23 528.16 464.06 532.65 471.88 527.88C474 526.59 475.02 525.15 475.01 523.47C474.98 519.68 469.61 514.35 460.27 508.82C451 503.34 443.21 506.65 440.3 508.33C439.91 508.55 439.42 508.49 439.1 508.17C438.85 507.93 432.8 502.19 422.75 506.4C422.47 506.52 422.15 506.5 421.89 506.36C421.78 506.3 411.04 500.65 401.38 506.97C401.09 507.16 400.71 507.19 400.4 507.04C400.35 507.02 394.51 504.48 382.05 510.23C370.46 515.58 344.22 537.37 338.81 541.91V541.93Z" fill="black"/>
<path d="M426.09 514.25C425.7 514.25 425.33 514.02 425.17 513.64C424.96 513.13 425.2 512.54 425.7 512.33L439.41 506.57C439.92 506.36 440.51 506.6 440.72 507.1C440.93 507.61 440.69 508.2 440.19 508.41L426.48 514.17C426.35 514.22 426.22 514.25 426.09 514.25Z" fill="black"/>
<path d="M361.76 629.82L355.18 763.21H74.3203L94.3503 627.27C94.3503 627.27 106.69 516.34 141.88 476.74C159.17 457.29 182.64 449.76 198.32 448.1C272.63 440.26 337.21 456.31 337.21 456.31C337.21 456.31 390.47 465.23 415.6 528.05C437.37 582.47 444.45 609.03 444.45 609.03L361.75 629.81L361.76 629.82Z" fill="#478D8D"/>
<path d="M312.129 458.9C312.129 458.9 303.899 443.35 288.349 439.69C272.799 436.03 225.229 432.37 215.169 436.03C205.109 439.69 196.869 459.81 196.869 459.81L312.129 458.9Z" fill="#478D8D"/>
<path d="M304.019 451.44C304.019 451.44 303.979 451.44 303.949 451.44C298.459 451.07 240.799 448.15 213.199 448.15C212.649 448.15 212.199 447.7 212.199 447.15C212.199 446.6 212.649 446.15 213.199 446.15C240.849 446.15 298.589 449.07 304.089 449.44C304.639 449.48 305.059 449.95 305.019 450.5C304.979 451.03 304.549 451.43 304.019 451.43V451.44Z" fill="black"/>
<path d="M361.411 628.35C361.411 628.35 361.391 628.35 361.381 628.35C360.831 628.33 360.391 627.87 360.411 627.32L362.481 556.82C362.501 556.27 362.961 555.82 363.511 555.85C364.061 555.87 364.501 556.33 364.481 556.88L362.411 627.38C362.391 627.92 361.951 628.35 361.411 628.35Z" fill="black"/>
<path d="M63.1299 830.47L31.6199 638.36C25.3099 599.88 54.9999 564.91 93.9999 564.91H317.61C355.58 564.91 384.99 598.15 380.35 635.84L356.41 830.46H63.1299V830.47Z" fill="white"/>
<path d="M63.1301 831.47C62.6501 831.47 62.2201 831.12 62.1401 830.63L30.6301 638.52C27.5701 619.89 32.8301 600.95 45.0501 586.56C57.2701 572.17 75.1101 563.91 93.9901 563.91H105.37C105.92 563.91 106.37 564.36 106.37 564.91C106.37 565.46 105.92 565.91 105.37 565.91H93.9901C75.7001 565.91 58.4101 573.91 46.5701 587.85C34.7301 601.79 29.6301 620.14 32.5901 638.2L64.1001 830.31C64.1901 830.85 63.8201 831.37 63.2801 831.46C63.2201 831.46 63.1701 831.47 63.1201 831.47H63.1301Z" fill="black"/>
<path d="M356.41 831.47C356.41 831.47 356.33 831.47 356.29 831.47C355.74 831.4 355.35 830.9 355.42 830.36L379.36 635.74C379.8 632.2 379.93 628.62 379.77 625.09C379.74 624.54 380.17 624.07 380.72 624.04C381.27 624.02 381.74 624.44 381.77 624.99C381.94 628.63 381.8 632.32 381.35 635.97L357.41 830.59C357.35 831.1 356.92 831.47 356.42 831.47H356.41Z" fill="black"/>
<path d="M934.391 761.26C942.266 761.26 948.651 754.88 948.651 747.01C948.651 739.14 942.266 732.76 934.391 732.76C926.515 732.76 920.131 739.14 920.131 747.01C920.131 754.88 926.515 761.26 934.391 761.26Z" fill="#B0F7F6"/>
<path d="M892.77 761.26C900.645 761.26 907.03 754.88 907.03 747.01C907.03 739.14 900.645 732.76 892.77 732.76C884.894 732.76 878.51 739.14 878.51 747.01C878.51 754.88 884.894 761.26 892.77 761.26Z" fill="#B0F7F6"/>
<path d="M851.151 761.26C859.026 761.26 865.411 754.88 865.411 747.01C865.411 739.14 859.026 732.76 851.151 732.76C843.275 732.76 836.891 739.14 836.891 747.01C836.891 754.88 843.275 761.26 851.151 761.26Z" fill="#B0F7F6"/>
<path d="M822.94 748.01H592.73C592.18 748.01 591.73 747.56 591.73 747.01V628.93C591.73 628.38 592.18 627.93 592.73 627.93C593.28 627.93 593.73 628.38 593.73 628.93V746.01H822.94C823.49 746.01 823.94 746.46 823.94 747.01C823.94 747.56 823.49 748.01 822.94 748.01Z" fill="#478D8D"/>
<path d="M935.391 725.35C934.841 725.35 934.391 724.9 934.391 724.35V628.94C934.391 628.39 934.841 627.94 935.391 627.94C935.941 627.94 936.391 628.39 936.391 628.94V724.35C936.391 724.9 935.941 725.35 935.391 725.35Z" fill="#478D8D"/>
<path d="M96.0996 495.86C95.5496 495.86 95.0996 495.41 95.0996 494.86V399.45C95.0996 398.9 95.5496 398.45 96.0996 398.45C96.6496 398.45 97.0996 398.9 97.0996 399.45V494.86C97.0996 495.41 96.6496 495.86 96.0996 495.86Z" fill="#478D8D"/>
</g>
<defs>
<clipPath id="clip0_121_349">
<rect width="1247.78" height="831.47" fill="white"/>
</clipPath>
</defs>
</svg>
