<svg width="476" height="477" viewBox="0 0 476 477" fill="none" xmlns="http://www.w3.org/2000/svg">
<path d="M436.279 229.706C433.769 238.166 428.144 245.522 421.35 251.018C405.188 264.086 383.378 266.12 363.386 264.8C353.434 264.151 343.632 262.161 334.74 257.509C327.124 253.528 320.417 248.054 314.705 241.65C302.329 227.759 295.167 210.19 291.791 192.037C287.81 170.682 288.46 148.635 289.217 127.02C289.541 118.063 290.212 109.04 292.614 100.342C293.761 96.1232 295.383 92.0556 297.568 88.2476C298.628 86.4085 299.819 84.6342 301.16 82.9899C301.852 82.1244 302.61 81.3025 303.367 80.5236C303.627 80.2639 303.864 80.0257 304.124 79.7877C304.037 79.7012 303.951 79.6146 303.886 79.5281C295.881 78.3814 287.637 78.3815 279.632 79.1171C277.706 79.2902 277.273 76.3261 279.199 76.153C303.15 73.9244 330.521 78.8359 346.077 98.8711C348.847 102.42 351.075 106.357 352.72 110.555C354.386 114.752 355.532 119.123 357.047 123.363C358.54 127.539 360.379 131.65 363.408 134.96C365.853 137.643 369.011 139.547 372.257 141.04C378.813 144.113 385.996 145.8 392.249 149.543C395.127 151.274 397.745 153.546 399.476 156.467C401.921 160.513 402.245 165.1 402.721 169.687C403.219 174.252 404.322 178.406 407.719 181.652C410.618 184.421 414.253 186.304 417.758 188.208C421.328 190.155 424.941 192.124 427.927 194.937C430.956 197.793 433.336 201.276 434.981 205.106C438.291 212.851 438.659 221.701 436.279 229.706Z" fill="#0C2C3E"/>
<path d="M363.624 198.939C363.43 200.605 362.045 201.709 360.79 202.617C357.761 204.781 354.515 206.642 351.162 208.243C337.206 214.885 321.434 217.633 306.159 219.213C298.218 220.035 290.256 220.511 282.294 220.965C278.377 221.181 274.482 221.376 270.566 221.614C266.737 221.831 262.886 222.22 259.056 222.306C255.551 222.393 251.916 222.133 248.757 220.467C245.663 218.801 243.478 216.075 240.816 213.825C238.004 211.445 234.563 209.844 231.621 207.594C228.548 205.236 225.757 202.553 222.966 199.891C222.815 199.761 222.707 199.588 222.62 199.415C222.058 198.571 221.82 197.706 221.928 196.689C221.993 196.17 222.339 195.694 222.837 195.478C229.782 192.535 237.463 191.972 244.863 191.02C251.765 190.133 258.688 189.246 265.59 188.359C265.634 188.078 265.612 187.753 265.59 187.429C265.525 185.784 265.136 184.162 264.616 182.604C262.647 176.611 258.883 169.968 262.972 163.975C264.811 161.249 267.84 159.496 270.826 158.241C274.483 156.705 278.399 155.623 282.294 154.888C290.212 153.416 298.434 153.546 306.288 155.277C307.889 155.623 307.868 157.873 306.656 158.22C307.175 159.669 307.695 161.119 308.236 162.547C311.092 170.011 314.315 177.346 317.907 184.486C318.599 185.849 319.205 188.121 320.936 188.381C322.775 188.662 324.744 188.489 326.583 188.575C330.456 188.77 334.329 189.16 338.18 189.722C345.926 190.891 353.78 192.751 361.093 195.586C362.543 196.17 363.819 197.208 363.624 198.939Z" fill="white"/>
<path d="M320.72 149.543C319.422 151.967 318.016 154.606 315.7 156.186C313.623 157.592 310.854 158.22 308.517 157.051C307.349 156.446 306.44 155.061 305.185 154.714C303.844 154.325 304.839 155.602 305.185 156.121C306.7 158.284 307.327 160.513 306.116 163.023C304.904 165.554 302.437 167.004 299.906 167.956C296.466 169.254 292.874 170.444 289.218 171.158C288.612 171.547 287.963 171.915 287.271 172.261C282.164 174.641 275.998 175.053 270.459 175.204C264.552 175.356 258.602 174.793 252.977 172.889C243.478 169.665 235.148 162.114 233.028 152.053C232.963 151.729 233.006 151.447 233.093 151.231C232.617 149.933 232.206 148.591 231.86 147.25C230.605 142.252 230.367 136.951 231.189 131.867C231.578 129.378 232.228 126.912 233.115 124.553C234.088 121.979 235.495 119.685 236.814 117.262C238.286 114.579 238.74 111.507 239.908 108.694C240.904 106.292 242.223 103.999 243.825 101.943C246.053 99.0224 248.823 96.5344 251.917 94.5871C251.008 94.1111 250.748 93.1807 251.267 92.2936C255.898 84.591 265.677 84.0069 273.704 84.2232C281.364 84.4396 289.044 83.7256 296.66 84.2449C300.252 84.5045 303.844 85.0887 307.198 86.3652C310.443 87.5769 314.165 89.4809 315.939 92.6182C316.891 94.3058 317.172 96.2746 317.41 98.2002C317.691 100.364 317.972 102.549 318.188 104.713C318.621 109.018 318.881 113.367 318.557 117.695C318.059 124.25 316.112 130.936 312.044 136.172C312.953 136.41 313.883 136.648 314.814 136.886C316.631 136.951 318.448 137.384 320.071 138.249C320.937 138.704 321.131 139.526 320.871 140.175C321.218 140.564 321.521 140.997 321.759 141.473C323.143 144.113 322.04 147.077 320.72 149.543Z" fill="white"/>
<path d="M265.698 84.5479C258.818 85.7595 252.976 90.0651 248.26 95.0631C243.781 99.8015 240.362 105.535 238.328 111.723C237.766 113.454 240.362 114.666 240.946 112.891C242.85 107.158 245.901 101.9 249.968 97.4431C254.187 92.8129 259.683 88.5072 265.98 87.4038C267.775 87.0792 267.516 84.2233 265.698 84.5479Z" fill="#0C2C3E"/>
<path d="M268.878 172.413C262.604 172.521 256.134 172.629 250.228 170.249C245.576 168.367 241.465 165.23 238.284 161.357C231.339 152.875 229.305 141.776 231.815 131.196C233.308 124.9 236.315 118.993 240.383 113.973C241.551 112.545 239.344 110.706 238.176 112.134C230.452 121.676 226.233 134.463 228.44 146.709C230.387 157.506 237.484 167.437 247.48 172.175C254.274 175.399 261.803 175.399 269.159 175.269C270.999 175.247 270.718 172.391 268.878 172.413Z" fill="#0C2C3E"/>
<path d="M254.556 112.719C253.971 112.243 253.019 112.286 252.543 112.913C252.392 113.086 252.262 113.281 252.111 113.432C252.024 113.519 251.938 113.606 251.851 113.714C251.418 114.103 251.05 114.384 250.639 114.644C250.185 114.925 250.055 114.99 249.622 115.185C249.19 115.38 248.736 115.531 248.26 115.639C248.022 115.683 247.892 115.704 247.784 115.726C247.567 115.769 247.329 115.791 247.091 115.812C246.853 115.834 246.637 115.834 246.399 115.834C246.139 115.812 246.031 115.812 245.923 115.812C245.663 115.791 245.425 115.748 245.165 115.704C245.057 115.683 244.971 115.661 244.862 115.639C244.624 115.575 244.538 115.531 244.452 115.488C244.43 114.904 244.17 114.341 243.586 114.082C242.937 113.779 241.942 114.06 241.682 114.796C240.47 118.344 245.62 118.928 247.935 118.604C250.574 118.236 253.063 116.873 254.729 114.774C255.226 114.125 255.161 113.216 254.556 112.719Z" fill="#0C2C3E"/>
<path d="M255.832 98.7196C252.738 97.032 248.757 97.0538 245.857 99.1309C244.343 100.213 245.987 102.549 247.502 101.489C249.925 99.7582 253.3 100.148 255.572 101.965C258.082 103.956 259.056 107.353 258.882 110.447C258.688 114.06 256.978 117.457 254.923 120.356C253.863 121.871 252.695 123.299 251.44 124.662C250.769 125.397 250.055 126.133 249.341 126.825C249.016 127.128 248.691 127.453 248.367 127.734C248.28 127.821 248.194 127.885 248.108 127.95C247.199 127.345 245.554 128.253 245.901 129.681C246.312 131.282 248.302 131.283 249.449 130.525C251.007 129.508 252.392 127.842 253.625 126.479C256.178 123.667 258.558 120.508 260.094 117.003C262.842 110.836 262.409 102.268 255.832 98.7196Z" fill="#0C2C3E"/>
<path d="M285.95 114.233C283.484 115.228 280.844 116.353 278.139 116.267C276.106 116.202 274.05 115.423 272.904 113.692C271.887 112.156 269.528 113.8 270.545 115.336C272.081 117.651 274.808 118.928 277.534 119.101C280.823 119.296 283.938 118.149 286.946 116.937C288.633 116.223 287.66 113.54 285.95 114.233Z" fill="#0C2C3E"/>
<path d="M259.25 135.934C259.012 135.264 258.104 134.723 257.412 135.069C253.344 137.103 248.541 137.492 244.235 135.934C243.499 135.675 242.677 135.913 242.331 136.648C242.028 137.319 242.309 138.271 243.045 138.552C248.021 140.348 253.625 140.132 258.385 137.773C259.078 137.427 259.532 136.713 259.25 135.934Z" fill="#0C2C3E"/>
<path d="M296.746 105.838C290.71 99.2172 281.19 94.9332 272.492 99.0658C270.826 99.8447 271.799 102.549 273.465 101.77C280.93 98.2219 289.152 101.749 294.388 107.482C294.907 108.067 295.686 108.305 296.379 107.829C296.984 107.439 297.287 106.422 296.746 105.838Z" fill="#0C2C3E"/>
<path d="M361.808 193.617C360.661 194.244 359.514 194.85 358.346 195.434C339.046 187.212 318.838 189.03 318.557 189.051C317.886 189.116 317.259 188.727 317.021 188.099L305.423 158.349C305.121 157.592 305.51 156.705 306.267 156.424C307.046 156.121 307.912 156.51 308.193 157.268L319.379 185.979C324.334 185.655 343.677 185.049 361.808 193.617Z" fill="white"/>
<path d="M324.528 141.408C323.576 137.275 320.157 134.571 316.003 134.095C311.633 133.597 307.111 135.415 304.428 138.92C303.303 140.391 305.51 142.23 306.635 140.759C308.453 138.379 311.2 136.994 314.186 136.886C317.259 136.756 320.396 138.163 321.499 141.17C322.602 144.199 321.672 147.445 319.92 150.041C318.124 152.702 315.441 155.731 312.304 156.748C309.166 157.765 305.726 155.775 304.731 152.702C304.168 150.95 301.464 151.923 302.048 153.676C303.238 157.354 306.873 159.885 310.724 159.864C315.008 159.864 318.643 156.316 321.153 153.178C323.814 149.868 325.524 145.692 324.528 141.408Z" fill="#0C2C3E"/>
<path d="M317.972 145.519C317.907 144.805 317.172 144.069 316.414 144.221C313.039 144.891 309.599 145.281 306.159 145.346C305.38 145.368 304.795 146.168 304.86 146.904C304.947 147.726 305.639 148.223 306.418 148.202C309.858 148.137 313.298 147.769 316.674 147.077C317.431 146.925 318.037 146.341 317.972 145.519Z" fill="#0C2C3E"/>
<path d="M270.026 196.126C267.581 188.51 265.137 180.916 262.713 173.3C262.151 171.548 259.36 172.218 259.922 173.971C262.367 181.587 264.812 189.181 267.235 196.797C267.798 198.55 270.589 197.901 270.026 196.126Z" fill="#0C2C3E"/>
<path d="M317.994 87.2956C316.977 87.6851 316.003 88.1609 315.094 88.7234C311.438 90.9303 308.474 94.4138 306.115 97.8756C305.921 98.1568 305.726 98.4598 305.531 98.7627C305.012 99.5633 304.535 100.407 304.081 101.251C303.237 100.84 302.372 100.429 301.485 100.083C301.312 100.018 301.139 99.9311 300.966 99.8662C283.483 92.7262 264.162 94.4138 245.728 93.57C244.906 93.5267 244.495 92.6179 244.538 91.9256C244.733 89.7619 246.225 88.1393 247.891 86.9061C249.687 85.5646 251.635 84.4178 253.604 83.3577C273.163 72.7558 296.638 72.994 315.246 85.4133C316.198 85.9758 317.107 86.6249 317.994 87.2956Z" fill="#0C2C3E"/>
<path d="M324.96 139.18C324.528 139.764 323.468 139.894 322.948 139.374C318.989 135.415 312.541 134.398 307.651 137.276C306.656 137.86 305.617 137.319 305.401 136.237C302.48 121.568 306.937 107.028 310.204 92.7478C310.204 92.6613 310.204 92.5747 310.226 92.4665C310.377 91.5794 310.572 90.6491 310.875 89.762C310.94 89.4807 311.005 89.2211 311.048 88.9398C311.157 88.5071 311.372 88.2043 311.675 88.0312C311.935 87.6201 312.217 87.2306 312.563 86.8844C314.25 85.2184 316.609 85.197 318.534 86.4951C322.083 88.8751 324.398 93.3754 325.891 97.2484C327.557 101.576 328.53 106.184 329.331 110.728C331.04 120.356 331.083 130.958 324.96 139.18Z" fill="#0C2C3E"/>
<path d="M409.667 375.016C409.753 374.778 409.819 374.54 409.905 374.302C402.397 380.23 392.379 380.382 383.292 379.56C372.517 378.564 361.786 377.396 350.989 376.53C329.504 374.821 307.954 373.739 286.383 373.285C264.66 372.831 242.937 373.004 221.214 373.826C201.46 374.583 181.317 376.184 161.822 371.944C146.504 368.612 127.009 360.65 123.98 343.146C123.785 342.021 124.759 341.415 125.646 341.501C130.731 329.601 158.404 264.606 164.873 245.566C172.554 222.934 187.656 208.027 199.232 201.644C204.143 198.918 211.262 196.581 219.051 194.634C220.133 194.352 221.214 194.093 222.296 193.833C223.097 194.72 223.94 195.564 224.828 196.343C230.734 201.687 238.459 205.192 246.096 207.399C268.749 213.976 293.437 214.258 316.479 209.801C331.019 206.988 345.147 202.141 358.345 195.434C359.492 194.85 360.661 194.244 361.807 193.617C362.889 194.136 363.971 194.677 365.053 195.261C370.57 198.225 375.871 202.141 380.523 207.226C403.111 231.913 423.579 328.757 424.271 343.773C424.791 354.634 419.317 366.297 409.667 375.016Z" fill="#33A1FD"/>
<path d="M212.646 242.883C211.304 237.668 209.985 232.454 208.643 227.261C208.167 225.422 205.203 225.811 205.679 227.694C206.955 232.692 208.232 237.668 209.509 242.666C196.375 255.41 190.123 274.407 192.503 292.495C193.173 297.688 194.601 302.794 196.722 307.597C197.501 309.371 200.248 308.203 199.47 306.429C192.351 290.309 193.909 270.88 202.888 255.778C205.398 251.537 208.492 247.643 212.084 244.289C212.452 243.943 212.776 243.423 212.646 242.883Z" fill="white"/>
<path d="M187.592 259.088C187.592 259.737 186.921 260.322 186.315 260.387C181.209 261.122 176.103 261.858 171.018 262.593C162.623 263.805 154.142 265.406 145.639 265.233C141.636 265.146 137.439 264.692 133.653 263.329C132.831 263.048 132.008 262.572 131.294 262.009C130.385 262.507 129.044 261.966 129.109 260.581C129.131 260.192 129.174 259.78 129.195 259.369C128.719 258.244 128.698 256.99 129.433 255.691C130.061 249.395 131.121 243.229 132.657 237.17C132.808 234.639 132.96 232.108 133.133 229.576C128.308 229.792 123.527 230.463 118.788 231.394C107.992 233.514 97.4334 236.846 86.572 238.707C83.8241 239.183 81.0762 239.551 78.3067 239.789C76.0998 239.983 73.8495 240.135 71.6642 239.572C69.652 239.053 67.8348 237.841 67.0559 235.851C66.1472 233.514 66.8395 231.004 67.5752 228.711C67.8348 227.889 68.5921 227.651 69.2412 227.824C69.5009 227.304 69.782 226.828 70.1498 226.396C71.9889 224.124 74.8014 223.107 77.5276 222.35C81.4005 221.268 85.2953 220.229 89.1899 219.191C88.173 218.001 87.7833 216.4 87.3506 214.907C87.2857 214.669 87.2206 214.431 87.1773 214.193C87.0259 213.803 86.8962 213.436 86.7664 213.046C86.3553 211.661 86.1388 210.277 86.1605 208.827C86.1605 208.632 86.1822 208.459 86.2038 208.286C86.0307 206.101 86.0741 203.894 86.3121 201.709C86.3337 201.492 86.3988 201.319 86.4853 201.168C86.2041 200.454 85.9009 199.761 85.7062 199.091C85.1869 197.403 84.7541 195.672 84.4944 193.941C84.4295 193.595 84.4083 193.27 84.365 192.924C83.7376 189.744 83.7588 186.477 84.4511 183.296C84.5377 182.928 84.7112 182.669 84.9276 182.452C82.8505 179.531 82.9582 176.026 83.9319 172.651C83.9102 169.881 85.1003 167.242 87.2639 165.403C87.4587 165.23 87.6968 165.143 87.9348 165.1C88.8435 163.845 89.8603 162.655 91.0287 161.595C94.1227 158.739 98.1253 156.9 102.301 156.424C106.715 155.904 110.74 157.051 114.569 159.193C118.68 161.508 122.705 163.91 127.032 165.835C130.321 167.307 133.696 168.562 137.114 169.665C136.292 167.977 135.362 166.333 134.301 164.797C133.479 163.585 134.604 161.984 136.032 162.482C144.362 165.425 152.39 169.081 160.071 173.387C166.778 177.151 173.398 181.37 179.37 186.239C182.204 188.554 184.606 191.237 185.623 194.828C186.726 198.744 186.77 203.028 186.986 207.074C187.44 215.729 187.397 224.405 187.44 233.06C187.527 241.714 187.57 250.412 187.592 259.088Z" fill="white"/>
<path d="M132.873 192.211C132.57 192.816 132.029 193.076 131.51 193.054C130.536 193.054 129.563 192.167 130.126 191.042C130.19 190.912 130.234 190.782 130.299 190.674C133.198 184.205 129.087 177.433 124.262 173.149C121.947 171.072 119.394 169.103 116.689 167.567C114.007 166.052 110.869 164.927 107.797 165.922C104.789 166.896 102.063 168.995 99.4886 170.769C96.6975 172.673 93.993 174.707 91.375 176.849C88.9517 178.861 86.5285 181.154 85.4899 184.227C84.6894 186.585 84.9273 189.138 85.425 191.54C85.901 193.92 86.658 196.213 87.2854 198.55C87.7181 200.173 88.1075 201.795 88.3239 203.461C87.8046 204.933 87.4585 206.469 87.3287 208.005C86.4849 208.07 85.4895 207.442 85.5327 206.339C85.576 205.171 85.4898 204.024 85.295 202.899C84.4945 197.728 81.9197 192.795 81.9846 187.494C82.0711 180.224 87.8479 175.68 93.1704 171.656C96.2212 169.363 99.3803 167.156 102.647 165.165C105.525 163.434 108.533 162.223 111.93 162.72C115.435 163.218 118.593 165.143 121.428 167.177C124.219 169.168 126.902 171.353 129.152 173.949C133.501 178.818 135.924 186.023 132.873 192.211Z" fill="#0C2C3E"/>
<path d="M152.433 224.989C136.184 226.461 120.303 230.269 104.4 233.752C96.3947 235.505 88.3889 237.171 80.2969 238.447C76.6837 239.01 72.3566 239.919 69.652 236.738C67.4018 234.098 67.6399 229.988 70.2796 227.672C71.7941 226.353 73.763 225.703 75.667 225.119C77.9604 224.427 80.2754 223.756 82.5905 223.085C87.4587 221.657 92.3052 220.229 97.1734 218.801C99.0341 218.26 97.9307 215.47 96.0916 216.01C91.4614 217.374 86.8531 218.715 82.2229 220.078C78.2201 221.246 73.7195 222.068 70.0846 224.167C66.7743 226.071 64.762 229.706 65.1515 233.557C65.5193 237.171 68.2023 240.438 71.6857 241.52C75.7966 242.796 80.5566 241.455 84.6892 240.741C89.0165 240.005 93.3437 239.139 97.6277 238.252C106.239 236.457 114.807 234.444 123.418 232.649C133.133 230.615 142.891 228.862 152.779 227.975C154.683 227.78 154.358 224.816 152.433 224.989Z" fill="#0C2C3E"/>
<path d="M129.801 205.538C128.027 208.805 125.344 211.791 121.731 213.025C118.377 214.15 113.898 213.609 112.059 210.212C110.523 207.421 111.388 203.699 114.331 202.293C116.083 201.471 117.165 204.262 115.413 205.084C114.352 205.582 114.114 207.009 114.374 208.048C114.72 209.476 116.062 210.277 117.446 210.515C120.8 211.077 123.851 208.848 125.776 206.317C127.551 203.98 128.827 201.038 129.152 198.117C129.52 194.893 128.178 192.167 125.56 190.285C122.747 188.272 119.156 187.667 115.759 187.558C112.254 187.429 108.619 187.71 105.135 188.207C102.085 188.64 99.1206 189.527 96.6973 191.518C94.0144 193.746 91.6774 196.84 89.9465 199.848C89.319 200.951 88.7565 202.163 88.3021 203.439C87.7828 204.911 87.4367 206.447 87.3069 207.983C87.0473 211.207 87.8048 214.388 90.228 216.833C90.7906 217.395 91.0499 218.239 90.4874 218.931C90.033 219.515 88.9513 219.775 88.3887 219.191C85.3596 216.14 84.0833 212.072 84.278 207.81C84.3646 206.122 84.7107 204.456 85.2732 202.877C85.7709 201.362 86.463 199.913 87.2419 198.55C87.9559 197.295 88.7567 196.083 89.6005 194.958C92.1103 191.561 95.031 188.272 99.0553 186.671C102.733 185.178 106.845 184.94 110.761 184.702C117.252 184.313 126.296 184.919 130.234 190.696C130.731 191.41 131.143 192.21 131.445 193.076C131.597 193.465 131.705 193.855 131.813 194.287C132.808 198.052 131.618 202.185 129.801 205.538Z" fill="#0C2C3E"/>
<path d="M120.086 201.968C119.956 201.124 119.264 200.627 118.441 200.648C115.78 200.735 113.14 200.821 110.479 200.908C109.7 200.93 109.051 201.817 109.159 202.552C109.289 203.418 109.981 203.894 110.804 203.872C113.465 203.786 116.104 203.699 118.766 203.612C119.545 203.612 120.194 202.726 120.086 201.968Z" fill="#0C2C3E"/>
<path d="M112.383 201.124C111.907 200.497 110.934 200.324 110.285 200.821C107.212 203.245 104.789 206.468 103.382 210.147C103.101 210.904 103.426 211.791 104.183 212.116C104.919 212.419 105.849 212.072 106.152 211.315C107.385 208.091 109.441 205.322 112.08 203.223C112.729 202.725 112.881 201.795 112.383 201.124Z" fill="#0C2C3E"/>
<path d="M114.525 185.46C113.811 182.928 110.695 181.479 108.294 182.452C107.277 182.863 106.455 183.599 105.632 184.291C105.459 184.443 105.265 184.594 105.07 184.724C104.962 184.811 104.832 184.875 104.724 184.962C104.616 185.005 104.529 185.049 104.443 185.092C103.166 185.049 102.322 185.611 102.236 186.433C102.149 187.234 102.668 188.013 103.512 188.121C104.681 188.272 105.741 187.905 106.693 187.256C107.472 186.736 108.121 186.044 108.878 185.525C108.943 185.481 109.03 185.438 109.116 185.373C109.333 185.265 109.419 185.243 109.527 185.2C109.7 185.157 109.808 185.157 109.916 185.135C110.09 185.157 110.198 185.157 110.306 185.179C110.501 185.265 110.631 185.287 110.739 185.33C110.825 185.373 111.15 185.59 110.847 185.373C110.977 185.46 111.323 185.633 111.366 185.784C111.237 185.633 111.193 185.611 111.28 185.698C111.453 185.914 111.518 186.001 111.582 186.087C111.647 186.26 111.712 186.412 111.734 186.542C111.95 187.299 112.989 187.688 113.681 187.385C114.482 187.061 114.763 186.282 114.525 185.46Z" fill="#0C2C3E"/>
<path d="M129.995 173.625C129.995 173.992 129.952 174.295 129.822 174.577C128.783 176.935 126.771 175.723 126.49 173.646C126.144 171.201 125.278 168.886 123.915 166.809C122.79 165.1 121.405 163.607 119.847 162.33C119.003 161.616 118.095 161.011 117.143 160.448C111.474 157.138 104.312 156.424 98.0809 158.825C90.4865 161.746 81.8755 170.877 85.9648 179.596C86.787 181.349 83.9958 182.431 83.1736 180.678C80.8802 175.81 82.1785 170.206 84.9047 165.792C90.0758 157.462 100.483 153.092 110.046 154.736C110.825 154.866 111.582 155.039 112.361 155.255C114.005 155.688 115.585 156.272 117.099 157.03C118.462 157.679 119.782 158.501 120.994 159.41C121.903 160.102 122.79 160.859 123.59 161.682C124.045 162.136 124.478 162.612 124.867 163.088C125.927 164.386 126.858 165.771 127.636 167.307C128.286 168.605 129.973 171.656 129.995 173.625Z" fill="#0C2C3E"/>
<path d="M266.282 189.679C265.958 189.7 244.278 191.951 224.849 196.343C223.962 195.564 223.118 194.72 222.317 193.833C242.071 189.203 264.616 186.866 265.979 186.715L266.282 189.679Z" fill="#0C2C3E"/>
<path d="M201.59 169.6C199.275 174.945 196.332 180.419 192.264 184.638C192.135 184.768 192.048 184.876 191.962 184.962C191.832 185.114 191.681 185.2 191.529 185.265C190.361 187.775 189.409 190.371 188.175 192.859C187.483 194.266 186.51 195.434 185.017 196.04C183.61 196.646 182.031 196.776 180.538 197.035C177.314 197.598 174.09 198.204 170.866 198.658C164.981 199.502 158.577 199.848 153.06 197.187C150.182 195.802 147.845 193.682 145.703 191.345C143.561 189.008 141.441 186.607 139.537 184.075C137.633 181.544 136.01 178.796 134.95 175.81C133.846 172.651 133.197 169.341 131.791 166.29C131.704 166.117 131.661 165.922 131.661 165.771C131.207 165.251 130.731 164.754 130.19 164.3C127.204 161.79 122.92 160.794 119.415 162.806C117.944 163.629 116.905 161.638 117.749 160.47C116.667 160.535 115.629 159.929 115.174 158.847C115.023 158.501 115.023 158.133 115.131 157.83C114.85 156.857 115.369 155.623 116.624 155.861C117.619 156.056 118.593 156.251 119.567 156.446C123.613 156.229 127.659 156.813 131.445 158.241C131.575 156.878 131.683 155.537 131.791 154.174C131.878 153.113 133.219 152.551 134.063 153.07C134.366 152.875 134.604 152.854 134.906 152.81C135.469 152.746 136.053 152.767 136.616 152.746L140.294 152.616C142.825 152.529 145.378 152.421 147.91 152.335C156.716 152.01 165.522 151.642 174.35 151.837C178.742 151.945 183.091 152.248 187.461 152.616C191.745 152.962 196.029 153.157 200.248 152.162C200.703 152.053 201.395 152.313 201.633 152.724C204.835 158.025 203.948 164.191 201.59 169.6Z" fill="white"/>
<path d="M204.209 152.421C203.884 151.642 203.408 151.123 202.802 150.885C200.92 150.127 158.296 150.019 133.068 150.019H132.528L132.116 150.365C129 152.962 127.94 164.992 132.83 176.307C138.239 188.813 151.372 197.511 154.337 198.983C155.873 199.761 160.784 200.086 166.302 200.086C170.953 200.086 176.038 199.848 179.868 199.415C180.95 199.285 181.945 199.156 182.789 199.004C184.282 198.745 185.363 198.42 185.796 198.074C185.969 197.944 186.207 197.706 186.467 197.403C187.116 196.689 188.025 195.542 189.063 194.114C193.304 188.337 199.946 178.06 202.11 172.911C204.858 166.376 205.615 155.818 204.209 152.421ZM199.34 171.742C197.436 176.286 192.265 184.356 188.371 189.917C187.462 191.193 186.64 192.34 185.948 193.271C185.017 194.525 184.282 195.391 183.936 195.694C183.633 195.845 183.048 195.975 182.27 196.126C181.491 196.256 180.474 196.386 179.348 196.494C171.819 197.252 157.993 197.489 155.635 196.321C151.914 194.46 140.252 186.001 135.535 175.139C131.056 164.797 132.332 155.234 133.695 153.027C159.14 153.027 196.852 153.2 201.461 153.676C202.305 155.688 202.067 165.251 199.34 171.742Z" fill="#0C2C3E"/>
<path d="M130.99 156.359C125.17 153.178 118.03 152.875 111.929 155.407C110.154 156.143 111.323 158.89 113.097 158.155C118.549 155.905 124.737 156.316 129.908 159.15C130.622 159.539 131.574 158.977 131.856 158.306C132.158 157.462 131.704 156.748 130.99 156.359Z" fill="#0C2C3E"/>
<path d="M131.489 164.732C130.97 165.424 130.082 165.446 129.39 165.035C127.983 164.191 126.447 163.52 124.846 163.066C123.224 162.59 121.514 162.33 119.827 162.309C118.983 161.595 118.074 160.989 117.122 160.426C117.274 159.864 117.75 159.366 118.334 159.345C119.221 159.301 120.108 159.323 120.973 159.388C124.565 159.648 128.027 160.751 131.186 162.633C131.9 163.066 131.943 164.148 131.489 164.732Z" fill="#0C2C3E"/>
<path d="M138.628 181.825C136.681 181.847 134.756 181.63 132.852 181.219C132.505 181.154 132.029 181.306 131.77 181.522C131.467 181.76 131.229 182.149 131.207 182.539C131.142 183.404 131.705 184.01 132.527 184.205C134.431 184.616 136.357 184.811 138.304 184.811C138.715 184.811 139.061 184.767 139.386 184.508C139.689 184.27 139.927 183.88 139.948 183.491C140.013 182.755 139.472 181.825 138.628 181.825Z" fill="#0C2C3E"/>
<path d="M143.042 187.818C142.696 187.083 141.852 186.693 141.073 187.018C140.684 187.191 140.684 187.169 140.316 187.234C139.97 187.277 139.624 187.321 139.277 187.342C138.542 187.385 137.806 187.407 137.07 187.429C135.686 187.472 134.171 187.45 132.7 187.407C131.921 187.385 131.099 187.883 131.034 188.727C130.99 189.484 131.51 190.349 132.354 190.393C134.063 190.458 135.772 190.458 137.481 190.393C139.061 190.349 140.749 190.415 142.22 189.787C142.977 189.463 143.388 188.554 143.042 187.818Z" fill="#0C2C3E"/>
<path d="M130.493 257.314C129.519 257.119 128.546 256.903 127.572 256.665C130.169 242.969 132.008 231.61 131.467 228.668L134.409 228.127C135.015 231.459 133.392 242.104 130.493 257.314Z" fill="#0C2C3E"/>
<path d="M189.928 211.964C189.798 220.814 189.279 229.663 189.041 238.512C188.868 244.808 188.76 251.083 188.695 257.379C187.7 257.487 186.704 257.595 185.73 257.682C185.795 250.52 185.925 243.359 186.141 236.197C186.401 227.456 186.921 218.715 186.986 209.974C187.007 205.776 186.877 201.557 186.466 197.382C186.336 195.997 186.163 194.612 185.969 193.249C186.661 192.319 187.505 191.172 188.392 189.895C188.565 190.739 188.695 191.583 188.825 192.448C188.911 192.989 188.976 193.552 189.063 194.114C189.841 199.999 190.014 205.993 189.928 211.964Z" fill="#0C2C3E"/>
<path d="M191.573 353.726C190.405 358.053 188.588 362.121 185.515 365.691C182.248 369.499 178.116 371.857 173.615 373.977C168.704 376.293 163.662 378.326 158.34 379.495C153.06 380.663 147.565 380.858 142.177 380.273C134.475 379.43 126.621 379.257 121.493 372.506C118.074 368.006 116.582 362.337 115.565 356.776C111.584 334.772 115.932 313.547 120.389 292.041C122.488 281.893 124.912 270.188 126.967 259.586C127.162 258.591 127.356 257.617 127.53 256.665C128.503 256.903 129.477 257.098 130.45 257.314C132.787 257.768 135.167 258.136 137.547 258.418C149.425 259.824 161.477 259.391 173.377 258.656C177.488 258.396 181.577 258.093 185.688 257.682C186.683 257.595 187.679 257.487 188.652 257.379L188.631 260.408C188.631 262.204 188.609 264 188.609 265.796C188.522 280.963 188.609 297.688 191.746 312.53C193.672 321.639 194.278 331.008 193.542 340.29C193.218 344.855 192.741 349.42 191.573 353.726Z" fill="#33A1FD"/>
<path d="M186.293 257.574C185.406 274.558 185.535 291.586 186.725 308.549C186.855 310.453 189.841 310.583 189.711 308.657C188.521 291.694 188.392 274.667 189.279 257.682C189.387 255.757 186.401 255.648 186.293 257.574Z" fill="white"/>
<path d="M311.026 356.582C305.336 354.418 292.959 349.334 278.636 343.427C232.096 324.279 189.754 307.056 182.723 306.818C178.439 306.667 167.793 313.331 165.716 314.672L166.517 315.927L51.9092 368.871L50.8274 367.832C49.2046 369.52 48.5554 371.857 49.0314 374.259C49.5074 376.617 51.4977 381.096 59.5897 384.666C64.1766 386.678 89.0585 396.457 115.39 406.8C146.849 419.154 182.528 433.174 189.451 436.268C193.584 438.107 197.868 439.059 202.65 439.059C212.451 439.059 224.178 435.035 240.318 426.532C253.928 419.349 279.87 404.701 300.706 392.931C314.077 385.38 324.614 379.408 328.184 377.526C331.754 375.643 333.398 373.566 333.247 371.165C332.987 366.772 326.345 362.402 311.026 356.582Z" fill="#0C2C3E"/>
<path d="M270.437 352.644C266.672 356.906 255.14 360.736 252.457 361.818C250.077 362.791 247.632 363.873 245.057 364.198C242.461 364.544 239.972 363.917 237.614 362.856C232.768 360.693 228.051 358.248 223.183 356.106C213.382 351.8 203.364 347.992 193.173 344.66C191.853 344.227 192.005 342.67 192.892 342.042C192.567 341.371 192.697 340.484 193.606 340.138C200.27 337.563 206.912 334.945 213.62 332.414C216.649 331.267 219.353 330.791 222.555 331.505C225.563 332.176 228.549 332.955 231.535 333.755C237.485 335.356 243.37 337.131 249.211 339.078C255.118 341.047 260.981 343.211 266.758 345.547C272.232 347.797 272.536 350.285 270.437 352.644Z" fill="white"/>
<path d="M185.773 348.035C177.314 345.396 167.642 337.498 160.502 338.623C153.362 339.727 97.9514 360.584 97.5403 363.376C97.1292 366.167 197.695 407.405 197.695 407.405L208.535 411.581C208.535 411.581 212.019 412.403 215.134 411.408C218.25 410.413 260.289 387.76 263.253 385.791C268.511 382.307 257.368 377.764 250.033 374.323C246.269 372.528 188.954 349.16 185.773 348.035Z" fill="#6B3FEB"/>
<path d="M203.796 415.497C201.892 413.983 199.728 417.055 201.632 418.57C202.822 419.5 202.671 421.188 202.13 422.443C201.351 424.238 199.837 425.212 197.933 425.537C195.445 425.969 192.827 425.342 190.425 424.65C187.785 423.892 185.167 423.005 182.571 422.075C171.774 418.245 161.216 413.68 150.592 409.353C128.999 400.568 107.428 391.806 85.8346 383.021C73.5884 378.045 61.3639 373.068 49.1177 368.092C46.8892 367.183 45.5908 370.71 47.841 371.619C71.165 381.096 94.4892 390.572 117.813 400.071C129.475 404.809 141.137 409.548 152.799 414.286C164.093 418.873 175.323 423.828 186.941 427.484C191.961 429.064 198.841 431.097 203.298 427.095C206.609 424.13 207.582 418.505 203.796 415.497Z" fill="white"/>
<path d="M337.185 332.673C337.012 338.818 336.277 344.941 335.368 351.021C334.546 356.668 334.005 362.661 331.927 368.049C331.711 368.611 330.997 369.131 330.37 368.979C326.194 368.006 322.234 366.405 318.448 364.392C314.835 362.488 311.394 360.325 307.911 358.204C303.67 356.56 299.495 354.807 295.362 352.947C290.71 350.848 286.123 348.619 281.58 346.283C279.351 345.136 277.144 343.946 274.937 342.713C273.899 342.129 272.838 341.501 271.692 341.155C270.48 340.809 269.203 340.83 267.97 340.895C262.929 341.112 257.953 342.302 252.868 342.064C250.704 341.956 248.108 341.696 246.291 340.398C245.49 339.814 244.971 339.078 244.733 338.234C239.908 340.008 234.369 339.684 229.804 337.282C227.402 338.645 224.655 339.294 221.82 339.164C219.635 339.056 217.493 338.407 215.589 337.304C215.329 337.152 215.113 336.979 214.896 336.784C212.733 338.364 209.899 338.97 207.216 338.45C203.386 337.736 200.421 334.989 198.647 331.613C196.505 327.546 196.397 322.742 196.981 318.285C197.544 314.174 198.604 310.107 200.076 306.212C199.729 306.212 199.383 306.256 199.059 306.299C193.001 310.583 187.569 315.624 182.896 321.401C182.636 321.704 182.355 321.899 182.052 321.964C181.922 322.223 181.793 322.483 181.685 322.764C179.889 327.135 179.002 331.786 177.249 336.178C177.033 336.698 176.795 337.217 176.578 337.737C176.751 337.931 176.881 338.169 176.903 338.494C177.141 342.994 174.436 347.321 170.109 348.793C169.546 348.966 169.027 348.836 168.638 348.555C167.556 348.706 166.409 348.62 165.306 348.273C159.702 346.456 158.209 340.16 158.88 334.924C159.659 328.844 162.514 322.981 165.089 317.463C167.556 312.141 170.585 307.143 175.107 303.313C176.254 302.339 177.487 301.409 178.742 300.522C181.079 298.337 183.675 296.454 186.488 294.94C187.332 294.399 188.175 293.858 189.041 293.339C196.57 288.882 204.727 285.701 213.166 283.364C222.058 280.919 224.936 282.823 235.256 282.823C235.797 282.823 241.314 283.17 241.422 283.559C246.572 283.927 251.7 284.446 256.784 285.203C273.747 287.67 290.407 292.213 306.266 298.661C312.563 299.851 318.729 301.604 324.722 303.897C327.449 304.957 330.131 306.126 332.749 307.402C333.398 307.705 334.069 307.943 334.415 308.614C334.718 309.22 334.827 310.15 335 310.821C335.346 312.205 335.649 313.59 335.909 314.997C336.991 320.838 337.358 326.767 337.185 332.673Z" fill="white"/>
<path d="M229.869 284.316C215.113 283.948 199.989 287.41 187.202 294.853C177.682 300.392 169.979 308.787 165.089 318.631C162.644 323.586 160.762 329.06 160.026 334.556C159.637 337.585 159.615 340.852 161.043 343.622C162.147 345.785 164.332 347.668 166.798 347.97C172.618 348.663 174.912 340.852 176.254 336.655C178.093 330.878 179.672 325.014 183.155 319.973C187.396 313.893 193.324 309.393 199.685 305.715C201.113 304.871 202.541 304.092 203.991 303.356C203.299 304.828 202.65 306.299 202.044 307.813C200.638 308.614 199.231 309.458 197.868 310.345C196.419 311.297 194.991 312.292 193.628 313.374C188.283 317.593 184.172 322.742 181.814 329.147C179.693 334.88 178.785 341.566 175.107 346.607C173.506 348.814 171.212 350.61 168.421 350.956C165.587 351.302 162.839 350.091 160.805 348.187C155.937 343.686 156.435 336.546 157.711 330.618C158.944 325.014 161.043 319.627 163.834 314.629C169.698 304.07 178.72 295.632 189.516 290.223C202.001 283.948 216.086 280.984 230.041 281.33C231.967 281.374 231.794 284.359 229.869 284.316Z" fill="#0C2C3E"/>
<path d="M202.65 417.748C201.677 415.26 201.439 414.048 201.071 412.165C200.4 408.769 199.383 403.619 193.195 386.526C191.313 381.355 188.998 374.453 186.553 367.14C180.928 350.372 173.917 329.515 167.621 315.408C161.866 302.491 147.521 295.243 147.369 295.178C140.727 291.889 98.2117 274.472 60.348 260.062C60.0884 259.975 37.2621 252.035 25.8165 248.746C19.3472 246.885 15.5176 248.919 13.4189 250.953C9.9787 254.328 8.83174 260.257 10.4761 266.423C10.8656 267.894 11.4064 270.015 12.0772 272.611C15.6255 286.458 22.9822 315.256 30.2737 335.897C31.507 339.381 32.5671 342.475 33.4975 345.223C39.1879 361.861 40.724 366.34 51.3042 370.883C67.9425 378.045 176.103 421.513 185.839 424.542C188.024 425.212 192.027 426.294 195.684 426.294C198.237 426.294 200.595 425.775 202.045 424.239C203.061 423.157 203.992 421.166 202.65 417.748Z" fill="#0C2C3E"/>
<path d="M249.753 318.696C247.936 318.069 246.984 320.903 248.823 321.531C250.576 322.137 251.311 324.084 251.354 325.815C251.419 327.87 250.576 329.861 249.386 331.505C246.897 334.924 242.657 337.001 238.524 337.412C234.759 337.78 230.28 336.763 228.052 333.431C225.217 329.168 227.208 323.391 228.982 319.129C231.211 313.785 234.37 308.787 238.221 304.46C238.762 303.854 238.935 303.01 238.372 302.339C237.896 301.777 236.793 301.582 236.252 302.188C232.098 306.84 228.722 312.054 226.299 317.809C224.027 323.132 222.08 329.882 225.586 335.118C228.442 339.381 233.872 340.809 238.74 340.376C243.846 339.922 248.974 337.239 251.96 333.02C254.968 328.822 255.79 320.774 249.753 318.696Z" fill="#0C2C3E"/>
<path d="M253.128 315.776C252.522 315.148 251.7 315.126 251.007 315.624C248 317.809 245.512 320.709 243.802 324.019C243.435 324.711 243.478 325.642 244.213 326.096C244.841 326.486 245.901 326.421 246.29 325.685C247.112 324.106 248.086 322.634 249.255 321.293C249.276 321.271 249.363 321.163 249.406 321.12C249.644 320.86 249.796 320.709 249.926 320.557C250.228 320.233 250.553 319.93 250.877 319.627C251.548 319.021 252.24 318.437 252.976 317.896C253.604 317.42 253.647 316.317 253.128 315.776Z" fill="#0C2C3E"/>
<path d="M227.684 336.46C223.768 338.321 219.029 337.693 215.892 334.643C212.56 331.397 212.279 326.81 212.949 322.44C214.226 313.85 218.229 305.758 223.897 299.246C224.438 298.64 224.092 297.58 223.486 297.169C222.75 296.671 221.95 296.974 221.409 297.579C216.281 303.443 212.582 310.583 210.764 318.177C209.834 322.094 209.12 326.378 210.115 330.359C211.002 333.864 213.274 336.958 216.411 338.754C220.284 340.96 224.979 341.069 229.003 339.165C230.734 338.321 229.415 335.616 227.684 336.46Z" fill="#0C2C3E"/>
<path d="M213.447 339.1C211.694 340.138 209.228 340.246 207.259 340.008C203.407 339.554 199.73 337.563 197.458 334.383C194.905 330.77 194.363 326.248 194.883 321.942C195.359 317.982 196.527 314.11 197.912 310.345C198.172 309.631 198.431 308.917 198.712 308.225C199.037 307.381 199.361 306.558 199.729 305.715C201.287 301.993 203.083 298.402 205.117 294.918C206.09 293.252 208.579 294.918 207.605 296.562C206.329 298.769 205.138 301.041 204.035 303.335C203.342 304.806 202.694 306.277 202.088 307.792C202.001 308.03 201.893 308.268 201.807 308.506C200.444 311.946 199.21 315.494 198.41 319.107C197.631 322.548 197.285 326.312 198.431 329.688C199.427 332.609 201.59 334.967 204.425 336.157C205.831 336.741 207.324 337.066 208.86 337.066C209.617 337.066 210.374 336.979 211.11 336.784C211.435 336.698 212.17 336.2 212.365 336.352C210.851 335.183 212.495 332.695 214.031 333.864C215.87 335.335 215.394 337.953 213.447 339.1Z" fill="#0C2C3E"/>
<path d="M328.4 307.143C325.717 305.974 322.991 304.849 320.243 303.767C305.769 298.055 290.818 293.512 275.586 290.245C260.397 286.978 244.927 284.944 229.392 284.187C227.467 284.1 227.813 281.114 229.738 281.222C238.587 281.655 247.437 282.499 256.221 283.754C271.669 285.961 286.923 289.444 301.809 294.096C310.529 296.822 319.14 299.981 327.556 303.551C327.837 304.719 328.14 305.931 328.4 307.143Z" fill="#0C2C3E"/>
<path d="M278.464 321.228C273.185 329.471 262.042 327.524 254.015 325.772C252.132 325.36 251.808 328.346 253.669 328.736C258.991 329.904 264.595 331.029 270.025 329.904C274.331 329.017 278.442 326.788 280.865 323.024C281.904 321.423 279.524 319.605 278.464 321.228Z" fill="#0C2C3E"/>
<path d="M271.021 338.624C271.497 338.883 301.225 355.111 328.509 368.179C328.227 369.153 327.924 370.104 327.578 371.078C300.684 358.248 271.54 342.324 269.593 341.242C268.857 340.852 268.597 339.943 268.987 339.208C269.376 338.494 270.285 338.213 271.021 338.624Z" fill="white"/>
<path d="M269.723 338.385C265.093 338.84 260.441 339.402 255.789 339.749C251.354 340.073 247.113 339.273 243.37 336.806C241.769 335.746 239.973 338.147 241.574 339.208C245.534 341.826 250.012 342.972 254.751 342.799C259.879 342.605 265.028 341.847 270.156 341.35C272.06 341.155 271.627 338.191 269.723 338.385Z" fill="#0C2C3E"/>
<path d="M411.332 369.088C411.051 370.429 410.683 371.749 410.294 373.069C410.099 373.718 409.904 374.367 409.666 375.016C409.601 375.081 409.537 375.146 409.494 375.189C408.109 376.422 406.681 377.569 405.188 378.629C396.75 384.644 386.667 387.846 376.282 387.846C373.577 387.846 370.851 387.63 368.125 387.197C360.682 385.986 346.056 379.841 330.326 372.419C329.417 371.987 328.53 371.554 327.6 371.121C327.946 370.169 328.249 369.196 328.53 368.222C328.595 368.027 328.66 367.833 328.703 367.638C334.48 347.884 332.9 327.07 328.422 307.186C328.162 305.974 327.881 304.763 327.578 303.573C328.725 304.049 329.872 304.546 331.018 305.044C331.17 304.957 331.386 304.914 331.603 304.892C337.423 304.611 343.286 306.039 348.912 307.359C354.537 308.657 360.119 310.215 365.615 312.033C375.286 315.256 384.806 319.237 393.742 324.192C397.853 326.464 401.51 329.212 404.474 332.89C407.135 336.2 409.169 340.03 410.532 344.033C413.28 352.103 413.215 360.801 411.332 369.088Z" fill="#33A1FD"/>
<path d="M376.715 319.172C365.507 316.143 354.278 313.201 343.027 310.345C341.966 310.085 340.906 309.804 339.825 309.523C335.887 308.527 331.949 307.554 328.011 306.58C326.15 306.126 326.475 303.14 328.358 303.594C331.971 304.481 335.584 305.39 339.198 306.299C340.258 306.558 341.339 306.818 342.4 307.099C354.235 310.085 366.026 313.179 377.818 316.36C379.657 316.901 378.554 319.67 376.715 319.172Z" fill="white"/>
<path d="M343.026 310.345C341.966 310.085 340.906 309.804 339.824 309.523C339.608 308.462 339.392 307.381 339.175 306.32C335.951 289.92 332.706 273.52 329.482 257.119C329.114 255.215 332.078 254.804 332.446 256.687C335.778 273.498 339.067 290.31 342.377 307.121C342.594 308.203 342.81 309.263 343.026 310.345Z" fill="white"/>
<path d="M331.235 78.3165C330.846 77.7972 330.197 77.689 329.591 77.7106C328.163 77.7322 327.06 78.6627 326.173 79.6796C326 79.8743 325.827 80.0905 325.654 80.3068C325.589 79.939 325.545 79.5712 325.48 79.225C325.329 78.4461 325.242 77.4726 324.723 76.8667C323.879 75.8715 322.451 76.1094 321.737 77.1047C321.24 77.7971 321.196 78.6411 321.196 79.4633C321.196 80.2422 321.239 80.9993 321.434 81.7566C321.585 82.4057 321.845 83.033 322.256 83.5306C322.17 83.5956 322.061 83.6607 321.975 83.7256C321.564 84.0068 321.304 84.6343 321.412 85.132C321.672 86.3653 322.841 87.0575 324.031 86.6031C324.485 86.43 324.831 85.9756 324.918 85.478C325.242 85.3914 325.567 85.2183 325.783 84.9371C325.891 84.8072 325.978 84.6776 326.086 84.5694C327.579 83.5741 329.05 82.5788 330.5 81.5186C331.106 81.0859 331.56 80.4369 331.646 79.7012C331.69 79.182 331.538 78.7059 331.235 78.3165Z" fill="#0C2C3E"/>
<path d="M229.955 422.421C229.696 421.815 228.982 421.448 228.333 421.556C227.857 421.642 227.446 421.837 227.056 422.118C226.645 422.227 226.364 422.335 226.126 422.529C225.391 423.157 224.936 424.044 224.828 424.996C224.785 425.385 224.785 425.818 224.893 426.208C225.044 426.835 225.282 427.419 225.845 427.787C226.688 428.328 227.792 428.35 228.657 427.895C229.133 427.636 229.48 427.354 229.826 426.943C230.172 426.511 230.324 425.991 230.432 425.472C230.648 424.455 230.345 423.373 229.955 422.421Z" fill="white"/>
<path d="M253.82 410.262C253.257 409.569 252.392 409.613 251.721 410.045C247.567 412.663 243.24 415 238.761 417.034C237.009 417.834 238.242 420.561 239.995 419.76C244.711 417.618 249.233 415.13 253.604 412.361C254.296 411.949 254.296 410.846 253.82 410.262Z" fill="white"/>
<path d="M305.357 382.805C305.314 382.61 305.228 382.437 305.098 382.286C304.99 382.199 304.903 382.113 304.795 382.004C304.579 381.853 304.319 381.767 304.059 381.745L303.67 381.767C303.41 381.81 303.172 381.918 302.977 382.091C302.804 382.264 302.653 382.437 302.48 382.61C302.307 382.74 302.199 382.892 302.112 383.086C302.004 383.259 301.939 383.433 301.939 383.649C301.917 383.844 301.939 384.038 302.004 384.211C302.047 384.406 302.134 384.579 302.264 384.731C302.372 384.817 302.458 384.904 302.566 385.012C302.783 385.163 303.042 385.25 303.302 385.272C303.432 385.272 303.562 385.25 303.691 385.25C303.951 385.207 304.189 385.098 304.384 384.925C304.557 384.752 304.708 384.579 304.882 384.406C305.055 384.276 305.163 384.125 305.249 383.93C305.357 383.757 305.422 383.584 305.422 383.368C305.444 383.173 305.422 382.978 305.357 382.805Z" fill="white"/>
<path d="M310.529 378.045C308.625 378.088 308.344 381.074 310.269 381.031C312.173 380.987 312.455 378.002 310.529 378.045Z" fill="white"/>
<path d="M96.5453 337.39C100.461 343.146 100.288 350.091 96.1343 352.903C92.0018 355.716 85.4676 353.336 81.5514 347.603C77.6352 341.847 77.8082 334.902 81.9624 332.089C86.0949 329.255 92.6291 331.635 96.5453 337.39Z" fill="white"/>
<path d="M163.207 102.96C162.298 101.056 160.913 99.5417 159.312 98.1786C157.646 96.7506 155.742 95.4743 154.639 93.527C153.406 91.385 154.119 89.5457 155.374 87.6417C156.564 85.8459 157.819 84.0933 158.014 81.908C158.187 79.9824 155.223 79.6364 155.05 81.562C154.877 83.4877 153.514 84.9804 152.518 86.5599C151.415 88.3124 150.657 90.2382 151.047 92.3586C151.934 97.2916 156.867 99.0443 159.594 102.701C161.887 105.773 161.995 110.382 159.983 113.627C158.75 115.618 156.716 116.808 155.071 118.409C153.622 119.858 152.626 121.568 152.15 123.58C151.133 127.82 152.561 132.451 155.958 135.198C157.451 136.41 159.247 134.008 157.754 132.797C155.028 130.59 154.119 126.609 155.309 123.363C156.066 121.308 157.646 120.075 159.269 118.733C160.827 117.435 162.146 116.007 163.055 114.19C164.786 110.749 164.829 106.422 163.207 102.96Z" fill="#6B3FEB"/>
<path d="M168.378 124.705C169.374 121.697 172.013 119.62 173.701 117.046C175.453 114.363 176.557 111.139 175.237 108.045C174.48 106.271 171.732 107.439 172.49 109.213C173.744 112.156 171.516 115.163 169.72 117.348C167.881 119.577 165.934 121.849 165.284 124.748C164.614 127.756 165.717 130.741 167.361 133.208C168.833 135.415 172.879 138.249 171.473 141.257C170.672 143.009 173.463 144.091 174.263 142.339C175.778 139.05 173.636 136.042 171.537 133.662C169.438 131.239 167.275 128.08 168.378 124.705Z" fill="#6B3FEB"/>
<path d="M183.87 118.257C185.882 115.012 187.353 111.42 187.7 107.591C188.046 103.869 187.245 100.256 185.168 97.1401C184.086 95.4957 182.853 94.0245 182.269 92.1205C181.771 90.4978 181.706 88.7668 181.922 87.1008C182.463 83.0548 184.627 79.355 187.375 76.3909C188.673 74.9845 186.272 73.1888 184.973 74.5951C179.824 80.199 176.535 88.9831 180.776 96.0149C181.879 97.854 183.307 99.4335 184.043 101.489C184.735 103.393 184.887 105.47 184.692 107.461C184.476 109.538 183.891 111.55 183.069 113.454C182.225 115.401 180.992 117.11 179.975 118.971C178.05 122.476 177.638 127.604 181.901 129.573C183.653 130.373 184.735 127.583 182.983 126.782C181.728 126.198 181.36 124.597 181.511 123.342C181.728 121.481 182.918 119.815 183.87 118.257Z" fill="#6B3FEB"/>
<path d="M442.013 204.153C439.113 197.511 433.877 192.275 427.04 189.787C420.29 187.321 411.354 186.974 406.724 180.678C404.344 177.433 404.473 173.3 404.733 169.471C404.993 165.641 405.253 161.855 404.365 158.068C402.786 151.253 398.589 145 392.704 141.148C386.71 137.232 379.527 136.28 372.712 134.614C369.358 133.792 365.918 132.775 362.954 130.958C359.99 129.14 357.674 126.63 355.922 123.645C352.33 117.5 351.227 110.209 347.635 104.064C346.748 102.549 345.558 101.403 343.784 101.1C341.88 100.775 341.555 103.761 343.438 104.064C344.887 104.302 345.58 106.552 346.077 107.699C346.77 109.257 347.375 110.858 347.981 112.459C349.193 115.726 350.296 119.015 351.789 122.174C353.217 125.181 354.97 128.037 357.371 130.374C359.795 132.754 362.759 134.463 365.939 135.675C372.365 138.12 379.31 138.639 385.758 141.019C392.184 143.399 397.334 148.137 400.06 154.455C401.401 157.57 402.093 160.946 402.029 164.364C401.964 168.216 401.272 172.067 401.769 175.918C402.764 183.426 409.061 187.58 415.811 189.657C419.662 190.826 423.644 191.561 427.365 193.141C430.481 194.46 433.207 196.516 435.392 199.091C439.849 204.392 441.926 211.402 441.493 218.282C441.017 226.071 437.75 233.536 433.099 239.724C430.697 242.926 427.884 245.393 424.271 247.124C420.333 248.984 416.265 250.564 412.241 252.251C410.207 253.117 408.174 253.982 406.118 254.826C404.344 255.583 405.512 258.331 407.287 257.574C411.506 255.778 415.746 254.004 419.965 252.208C423.816 250.585 427.841 249.092 431.043 246.323C434.051 243.727 436.431 240.438 438.443 237.019C440.498 233.514 442.186 229.793 443.224 225.855C445.15 218.693 445.02 211.034 442.013 204.153Z" fill="#0C2C3E"/>
</svg>
