<svg width="380" height="381" viewBox="0 0 380 381" fill="none" xmlns="http://www.w3.org/2000/svg">
<path d="M312.342 175.751C305.248 172.339 305.992 165.572 302.29 155.919C298.589 146.247 288.01 147.282 276.888 144.215C265.783 141.167 262.608 130.48 263.134 117.252C263.66 104.025 248.854 81.1442 227.153 70.9651C205.452 60.7859 177.418 66.9007 171.068 80.1282C164.717 93.3557 178.471 105.041 189.068 114.204C189.068 114.204 184.314 182.863 195.418 210.824C206.523 238.804 280.027 240.6 312.887 218.953C345.747 197.343 321.868 180.323 312.342 175.751Z" fill="#0C2C3E"/>
<path d="M253.989 171.144C253.935 174.627 251.921 178.111 249.78 180.742C245.479 186.04 239.31 189.832 233.468 193.226C227.262 196.854 220.675 199.867 213.762 201.862C206.885 203.84 199.41 205.201 192.243 204.294C188.596 203.822 185.203 202.625 182.027 200.774C178.979 199.014 176.257 196.8 173.427 194.714C170.451 192.518 167.366 190.595 163.992 189.071C160.943 187.71 157.768 186.839 154.575 185.877C152.016 185.097 149.222 183.972 147.698 181.631C145.829 178.819 146.536 175.389 148.169 172.65C151.145 167.66 157.133 165.428 162.613 164.684C169.38 163.74 176.457 164.993 183.007 162.815C182.045 158.315 181.193 153.779 180.013 149.334C179.505 147.41 178.743 145.324 177.527 143.618C170.85 141.822 165.189 137.322 161.633 131.534C161.07 131.606 160.472 131.37 160.109 130.663C157.804 126 155.446 120.338 157.369 115.203C157.387 113.806 157.496 112.409 157.75 111.012C158.185 108.49 158.983 106.059 160.217 103.809C161.56 101.414 163.411 99.5445 165.443 97.7482C167.33 96.097 169.018 94.3915 170.524 92.3775C171.921 90.5267 173.209 88.5671 174.679 86.7526C174.824 86.5893 174.969 86.4078 175.114 86.2264C175.259 86.1719 175.423 86.0812 175.55 85.936C181.429 80.7648 189.485 78.9505 197.16 79.8033C203.892 80.5472 210.188 83.1782 216.012 86.5712C212.256 98.2564 210.188 108.671 212.365 120.883C212.583 122.135 212.91 122.969 214.325 122.861C214.452 122.842 214.561 122.842 214.688 122.824C215.613 122.752 216.52 122.625 217.464 122.625C217.917 122.625 218.353 122.643 218.807 122.679C220.585 122.824 222.345 123.278 223.869 124.185C227.97 126.635 228.46 131.77 226.119 135.652C223.851 139.427 219.514 140.933 215.323 141.513C217.228 148.916 219.895 157.553 222.617 164.702C226.663 164.321 230.256 164.829 234.32 164.956C238.657 165.083 243.81 165.301 248.056 166.226C251.558 167.115 254.062 167.188 253.989 171.144Z" fill="white"/>
<path d="M119.447 262.992C118.141 264.425 116.453 265.314 114.784 266.222C112.606 267.401 110.447 268.58 108.27 269.76C99.8691 274.296 91.4863 278.85 82.922 283.042C74.8839 286.979 66.4649 290.463 57.574 291.86C52.0943 292.713 45.5077 292.912 40.6993 289.9C37.5966 289.465 34.4029 288.14 33.6953 284.892C33.1872 282.515 34.4755 280.138 36.3988 278.759C38.2859 277.435 40.5177 277.127 42.7676 277.036C42.6588 275.221 42.6224 273.389 42.6768 271.574C42.9853 262.048 45.4533 252.74 47.9935 243.613C49.1911 239.313 50.443 234.958 52.4571 230.966C54.4167 227.12 57.0839 223.817 60.1504 220.787C63.3801 217.612 66.9181 214.745 70.3475 211.806C74.0853 208.576 77.8416 205.382 81.5794 202.153C84.6277 199.54 88.057 195.82 92.4843 197.163C96.4217 198.342 98.1273 202.352 99.6877 205.782C101.411 209.556 104.297 212.169 107.055 215.181C109.921 218.302 111.699 221.876 112.788 225.958C113.877 230.095 114.312 234.36 115.237 238.533C116.272 243.069 117.832 247.406 119.611 251.688C121.117 255.262 122.405 259.726 119.447 262.992Z" fill="white"/>
<path d="M291.023 308.879C291.059 309.75 290.605 310.403 289.735 310.585C276.162 313.56 262.372 315.429 248.528 316.536C223.996 318.496 199.337 318.115 174.751 317.407C171.667 317.334 168.601 317.225 165.516 317.135C162.921 317.062 160.2 317.062 158.585 314.649C157.097 312.417 156.407 309.532 155.555 307.028C154.593 304.18 153.686 301.313 152.833 298.41C150.002 288.72 147.843 278.85 146.41 268.87C143.307 267.074 140.476 264.824 137.99 262.229C136.303 260.451 134.797 258.527 133.472 256.495C127.249 260.396 120.953 264.207 114.638 267.963C113.767 268.489 112.878 268.997 112.007 269.523C111.626 268.58 111.263 267.636 110.882 266.693C102.137 244.502 93.6993 222.22 85.5342 199.793C85.1531 198.795 84.7901 197.779 84.4453 196.763C85.2437 196.055 86.0603 195.329 86.8769 194.622C87.6934 193.896 88.5101 193.17 89.3266 192.463C96.1127 186.475 102.772 180.179 110.157 174.935C117.287 169.872 125.108 166.443 133.672 164.665C140.785 163.195 148.061 162.742 155.319 162.506C156.353 162.47 157.369 162.451 158.403 162.415C158.712 163.431 159.111 164.411 159.583 165.391C160.49 167.241 161.633 168.965 162.776 170.526C165.316 173.991 168.437 176.985 171.957 179.435C186.328 189.505 204.872 189.36 220.676 182.864C229.621 179.199 237.496 173.719 244.518 167.242C245.461 166.371 246.387 165.482 247.294 164.592C248.528 164.756 249.743 164.955 250.959 165.173C252.556 165.463 254.116 165.79 255.695 166.171C255.405 166.371 255.151 166.588 254.879 166.806C259.451 168.058 261.864 173.393 263.878 177.33C266.818 183.064 270.029 188.652 273.477 194.096C276.725 199.194 280.245 204.112 282.549 209.736C284.872 215.361 286.359 221.367 287.793 227.264C289.154 232.871 290.006 238.659 288.555 244.302C288.7 248.276 288.845 252.231 288.99 256.205C289.68 273.751 290.351 291.315 291.023 308.879Z" fill="#EB923F"/>
<path d="M142.655 205.417C141.784 203.04 140.931 200.682 140.06 198.305C139.389 196.472 136.613 197.651 137.284 199.484C138.028 201.498 138.754 203.512 139.498 205.544C128.52 214.798 124.165 229.659 126.143 243.666C126.76 248.094 127.976 252.43 129.645 256.585C130.371 258.4 133.147 257.22 132.421 255.406C128.937 246.678 127.613 237.025 129.627 227.772C131.369 219.77 135.76 212.312 142.201 207.214C142.727 206.76 142.872 206.052 142.655 205.417Z" fill="white"/>
<path d="M362.568 305.341C358.939 312.871 351.844 320.981 343.008 321.852C338.29 322.324 334.026 320.219 330.27 317.57C326.605 314.975 323.067 312.091 319.71 309.097C314.594 304.56 309.912 299.317 307.354 292.984C302.926 289.228 298.554 285.436 294.235 281.553C291.005 278.65 287.812 275.692 284.691 272.662C283.185 271.192 281.679 269.704 280.209 268.198C279.375 267.346 278.54 266.511 277.742 265.64C277.596 265.477 277.433 265.313 277.288 265.15C277.161 265.096 277.034 265.023 276.907 264.914C276.635 264.678 276.363 264.424 276.091 264.189C275.492 264.624 274.512 264.352 274.113 263.807C273.732 263.299 273.732 262.737 273.986 262.229C273.097 261.104 274.076 259.072 275.619 259.816C276.29 260.142 275.691 257.965 275.582 257.674C275.292 256.803 275.02 255.951 274.839 255.062C273.369 247.622 277.107 239.911 281.933 234.431C286.651 229.079 292.838 225.177 299.715 223.29C307.172 221.258 315.283 221.784 322.45 224.651C329.944 227.627 335.805 233.234 341.121 239.112C344.532 242.868 348.125 246.769 350.865 251.106C351.119 251.179 351.373 251.342 351.608 251.632C358.413 259.725 363.765 269.305 365.707 279.793C367.304 288.394 366.36 297.466 362.568 305.341Z" fill="white"/>
<path d="M312.434 300.042C307.644 295.56 302.817 291.078 297.991 286.633C290.388 279.629 282.713 272.68 275.02 265.785C275.818 265.15 276.616 264.533 277.433 263.898C289.826 275.002 302.11 286.252 314.249 297.629C315.646 298.935 313.868 301.384 312.434 300.042Z" fill="#0C2C3E"/>
<path d="M330.216 227.373C329.327 227.918 328.438 228.462 327.567 229.025C310.293 239.803 293.564 251.433 277.433 263.899C276.617 264.516 275.818 265.151 275.02 265.786C274.258 265.096 273.496 264.425 272.734 263.736C264.151 256.06 255.496 248.458 246.787 240.909C246.496 240.655 246.206 240.419 245.934 240.165C245.408 239.694 245.245 239.258 245.299 238.823C242.668 233.361 240.418 227.845 239.093 221.894C236.716 211.188 237.061 199.757 240.781 189.415C242.741 184.008 245.734 179.09 248.819 174.264C250.071 172.304 251.377 170.327 252.92 168.621C253.772 167.696 254.698 166.861 255.714 166.172C257.184 166.516 258.635 166.915 260.105 167.369C260.631 167.532 261.157 167.696 261.684 167.877C282.732 174.899 297.011 192.681 311.4 208.539C316.698 214.364 322.287 219.843 327.984 225.232C328.71 225.958 329.454 226.666 330.216 227.373Z" fill="#EB923F"/>
<path d="M275.836 262.972C266.51 253.991 257.184 245.009 247.876 236.009C246.479 234.667 244.682 237.098 246.061 238.423C255.388 247.404 264.714 256.386 274.022 265.386C275.419 266.728 277.215 264.297 275.836 262.972Z" fill="white"/>
<path d="M356.435 260.36C349.304 249.527 339.923 240.546 330.488 231.764C329.508 230.856 328.528 229.949 327.566 229.024C328.455 228.48 329.345 227.917 330.216 227.373C331.994 229.06 333.79 230.748 335.587 232.417C344.078 240.401 352.389 248.711 358.812 258.491C359.864 260.124 357.487 261.974 356.435 260.36Z" fill="#0C2C3E"/>
<path d="M199.81 77.9705C193.75 77.7891 187.653 79.4764 182.446 82.561C178.545 84.8653 175.37 88.0951 172.63 91.6696C169.854 95.2986 166.751 98.4376 163.975 102.103C162.124 104.534 160.418 107.111 159.311 109.978C155.936 118.76 158.658 129.156 165.082 135.852C168.094 138.991 171.831 141.259 175.878 142.674C176.894 143.037 177.946 143.346 178.98 143.582C183.299 144.616 187.853 144.743 192.172 143.999C194.131 143.672 194.458 146.539 192.607 146.993C192.244 147.083 191.881 147.156 191.518 147.247C191.228 147.319 190.992 147.301 190.774 147.229C187.109 147.664 183.353 147.537 179.724 146.811C178.617 146.612 177.529 146.34 176.458 146.013C175.842 145.832 175.225 145.632 174.608 145.414C164.501 141.767 156.916 133.13 155.192 122.443C154.34 117.217 154.993 111.756 157.316 106.984C158.658 104.208 160.455 101.667 162.36 99.2542C164.011 97.1676 165.68 94.7179 167.912 93.1937C174.371 81.7807 186.982 74.6137 200.137 74.9948C202.097 75.0311 201.734 78.0431 199.81 77.9705Z" fill="#0C2C3E"/>
<path d="M226.846 123.713C223.181 120.32 217.81 120.937 213.564 122.769C211.786 123.549 212.947 126.326 214.743 125.545C217.665 124.275 221.312 123.459 224.142 125.4C226.664 127.124 226.991 130.517 226.12 133.257C224.469 138.428 219.08 141.73 213.764 139.97C210.933 139.027 208.592 137.013 207.431 134.255C206.687 132.458 203.893 133.638 204.655 135.434C207.377 141.93 215.56 145.468 222.019 142.311C225.213 140.751 227.753 137.884 228.878 134.509C230.094 130.88 229.785 126.453 226.846 123.713Z" fill="#0C2C3E"/>
<path d="M220.368 131.115L212.258 128.466C211.514 128.212 210.57 128.521 210.298 129.319C210.044 130.063 210.352 131.007 211.151 131.279C213.854 132.168 216.558 133.039 219.261 133.928C220.005 134.182 220.949 133.874 221.221 133.075C221.475 132.331 221.167 131.388 220.368 131.115Z" fill="#0C2C3E"/>
<path d="M187.617 90.3255C186.873 90.2348 185.966 90.8335 185.947 91.6501C185.857 98.7809 180.395 105.368 173.318 106.565C171.395 106.892 171.83 109.885 173.754 109.559C182.064 108.144 188.832 100.468 188.959 91.9949C188.959 91.1966 188.487 90.4344 187.617 90.3255Z" fill="#0C2C3E"/>
<path d="M200.809 106.439C200.9 105.278 200.264 104.244 198.359 103.808C196.055 103.282 192.862 106.294 193.624 108.707C195.057 113.316 200.555 109.487 200.809 106.439Z" fill="#0C2C3E"/>
<path d="M183.534 96.169C183.624 95.0077 182.989 93.9736 181.084 93.5381C178.779 93.0119 175.586 96.0238 176.348 98.4371C177.782 103.046 183.279 99.2173 183.534 96.169Z" fill="#0C2C3E"/>
<path d="M183.407 117.144C183.298 116.4 182.5 115.674 181.701 115.873C178.417 116.654 174.988 116.618 171.776 115.62C170.996 115.384 170.125 115.674 169.816 116.472C169.526 117.18 169.889 118.196 170.669 118.432C174.389 119.575 178.344 119.775 182.137 118.867C182.917 118.668 183.516 117.996 183.407 117.144Z" fill="#0C2C3E"/>
<path d="M184.533 170.489C181.992 171.541 181.593 167.985 181.212 166.37C181.085 165.844 180.976 165.336 180.849 164.81C180.613 163.83 180.377 162.832 180.16 161.834C179.924 160.818 179.688 159.802 179.452 158.785C178.472 154.521 177.474 150.258 176.476 145.994C176.277 145.123 176.077 144.252 175.878 143.381C175.823 143.09 175.823 142.854 175.896 142.637C176.912 142.999 177.964 143.308 178.998 143.544C179.253 144.614 179.506 145.703 179.742 146.792C180.432 149.749 181.122 152.707 181.811 155.665C182.283 157.679 182.755 159.729 183.226 161.761C183.244 161.852 183.262 161.924 183.28 162.015L183.897 164.737L183.952 164.955C184.079 165.517 184.224 166.098 184.351 166.66C184.406 166.914 184.714 167.568 184.605 167.767C185.567 168.348 185.839 169.963 184.533 170.489Z" fill="#0C2C3E"/>
<path d="M223.254 164.194C221.04 156.555 218.809 148.934 216.595 141.295C216.359 140.515 215.307 140.207 214.617 140.497C213.782 140.842 213.583 141.695 213.819 142.475C216.032 150.114 218.264 157.735 220.478 165.373C220.714 166.154 221.567 165.809 222.274 165.519C223.091 165.174 223.49 164.974 223.254 164.194Z" fill="#0C2C3E"/>
<path d="M85.5354 199.812C79.1303 205.455 72.7069 211.098 66.2837 216.741C64.8321 218.029 62.9813 215.634 64.4329 214.364C71.092 208.503 77.7512 202.643 84.4284 196.782C84.7913 197.798 85.1544 198.814 85.5354 199.812Z" fill="#0C2C3E"/>
<path d="M78.2957 173.972C77.9147 180.541 77.2616 187.109 76.5721 193.66C75.3201 205.526 73.8503 217.375 72.4532 229.223C71.0742 240.872 69.8403 252.557 68.298 264.188C67.6266 269.214 66.7194 274.294 64.6872 278.958C62.6732 283.603 59.7155 287.885 54.6895 289.427C52.3125 290.153 49.7721 290.643 47.3045 290.951C44.8912 291.26 42.4055 291.278 40.1011 290.498C38.4681 289.953 37.1434 288.955 35.8914 287.849C30.6294 288.447 26.0753 283.095 22.9363 279.575C15.7328 271.537 14.3356 260.468 15.6058 250.108C15.9868 247.059 16.5677 244.047 17.2209 241.035C16.8398 240.745 16.6039 240.309 16.6946 239.765C17.6381 234.195 18.9444 228.697 20.5955 223.29C20.4867 223.054 20.4503 222.782 20.5229 222.491C20.5592 222.364 20.5774 222.237 20.6137 222.11C21.6117 218.1 22.6823 214.236 23.8435 210.407C25.0955 205.835 26.3658 201.28 27.6359 196.708C27.8536 195.909 28.0893 195.111 28.3252 194.295C30.0489 186.765 31.7729 179.253 33.4966 171.723C33.551 171.487 33.6597 171.269 33.7868 171.106C37.1617 157.461 42.3512 142.909 57.0484 139.171C58.3004 138.863 58.8989 140.042 58.6267 141.04C59.2074 141.058 59.7879 141.076 60.3867 141.149C64.3423 141.675 67.8808 143.78 71.1287 145.993C72.671 147.064 74.3401 148.116 75.5014 149.622C76.5719 151.001 77.1163 152.689 77.3158 154.413C77.4429 155.411 77.4248 156.463 77.4067 157.497C77.6063 158.386 77.7696 159.275 77.9148 160.164C77.9692 160.545 78.0233 160.926 78.0596 161.289C78.1141 161.616 78.1686 161.961 78.1868 162.287C78.2593 162.904 78.3139 163.521 78.3502 164.156C78.3684 164.301 78.3684 164.465 78.3865 164.628C78.4047 164.828 78.4229 165.027 78.441 165.227C78.5136 168.221 78.459 171.106 78.2957 173.972Z" fill="white"/>
<path d="M79.6195 160.764C79.4199 158.822 76.4443 159.258 76.6258 161.199C78.6761 181.83 73.4505 202.17 70.7651 222.474C70.003 228.28 69.4404 234.123 69.2771 239.965C69.2227 241.888 72.2164 242.252 72.2708 240.31C72.8514 219.353 78.6939 198.995 79.9096 178.11C80.2362 172.322 80.2001 166.516 79.6195 160.764Z" fill="#0C2C3E"/>
<path d="M117.324 81.7798L120.609 85.0639C124.582 89.0376 124.582 95.4972 120.609 99.4709L117.324 102.755C116.925 103.154 116.508 103.517 116.054 103.826C116.036 103.844 132.784 120.591 132.784 120.591C132.729 120.573 114.82 138.5 114.82 138.5C114.367 137.938 113.949 137.43 113.459 136.958L110.175 133.674C106.202 129.7 99.7419 129.7 95.7682 133.674L92.4844 136.958C88.5107 140.932 88.5107 147.391 92.4844 151.365L95.7682 154.649C96.24 155.121 96.7663 155.538 97.3107 155.901C97.3288 156.01 85.7523 167.586 85.7523 167.586C82.3955 170.943 76.9704 170.943 73.6136 167.586L32.6973 126.67C29.3405 123.313 29.3405 117.888 32.6973 114.531L73.6499 73.5784C77.0067 70.2216 82.4319 70.2216 85.7886 73.5784L98.5626 86.3523C98.8892 85.8805 99.2522 85.4631 99.6514 85.0639L102.936 81.7798C106.891 77.8061 113.351 77.8061 117.324 81.7798Z" fill="#6B3FEB"/>
<path d="M66.084 188.996C62.4733 193.787 56.0502 193.714 50.7882 192.317C41.2259 189.758 32.2806 182.192 30.8109 172.013C30.7383 171.451 30.9379 171.015 31.2645 170.725C26.7102 165.445 22.827 159.584 19.7424 153.324C16.6034 146.937 13.7908 139.824 13.7001 132.621C13.5913 125.744 16.6033 119.502 20.5225 114.005C24.2241 108.779 28.5788 103.553 34.1129 100.178C36.762 98.5635 40.4272 96.5675 43.6207 97.8558C45.3081 98.5453 46.4696 100.215 46.5422 101.938C50.4433 102.338 53.8362 105.749 54.1447 109.668C56.939 109.831 59.6427 111.555 60.7133 114.222C61.4935 116.164 61.3299 118.341 60.4408 120.192C61.2029 119.52 62.201 119.158 63.2352 119.248C65.7573 119.466 67.3543 122.26 67.1003 124.601C66.9732 125.78 66.4289 126.796 65.7212 127.704C64.9773 130.317 62.9993 132.712 61.3662 134.671C58.8986 137.647 55.7779 140.968 53.4373 144.597C53.6368 144.941 53.6913 145.359 53.4917 145.794C51.3507 150.802 52.0036 155.828 54.1084 160.382C58.5538 163.812 62.1647 168.221 64.6687 173.229C66.9731 177.819 69.5678 184.388 66.084 188.996Z" fill="white"/>
<path d="M64.8853 118.832C62.1454 118.324 59.1337 118.795 56.539 119.775C50.8597 121.898 47.5029 127.033 44.255 131.841C40.4446 137.484 36.7977 143.69 36.6888 150.694C36.6525 152.617 39.6644 152.98 39.6825 151.038C39.7732 145.377 42.3318 140.333 45.3439 135.67C46.8499 133.329 48.4101 131.007 50.0794 128.793C51.6761 126.689 53.4904 124.692 55.8311 123.422C58.1355 122.17 60.7849 121.535 63.4159 121.717C64.3957 121.789 65.72 121.844 65.847 123.023C65.9921 124.239 65.4661 125.745 65.0487 126.87C63.2343 131.842 59.3512 135.652 56.321 139.88C52.7828 144.797 50.025 150.803 51.9665 156.899C52.5653 158.75 55.3414 157.571 54.7427 155.72C52.8375 149.75 56.9925 143.817 60.5126 139.353C64.0145 134.908 67.8975 130.281 68.7503 124.493C69.1676 121.553 67.8791 119.376 64.8853 118.832Z" fill="#0C2C3E"/>
<path d="M54.6528 155.357C53.8 153.615 51.0238 154.777 51.8766 156.537C54.1629 161.2 57.6828 164.956 60.8037 169.038C63.9064 173.085 66.7373 177.929 66.1385 183.228C65.9208 185.151 68.9145 185.514 69.1322 183.572C70.4568 171.778 59.2979 164.81 54.6528 155.357Z" fill="#0C2C3E"/>
<path d="M61.4566 110.176C58.2813 107.146 53.3458 107.146 49.5173 108.815C45.3622 110.629 41.9331 114.095 38.9574 117.434C35.9454 120.79 33.387 124.528 31.2459 128.484C28.7782 133.056 27.0001 137.937 25.8388 143C25.4033 144.887 28.4152 145.213 28.8325 143.344C30.52 135.941 33.8223 128.937 38.3766 122.877C40.681 119.811 43.294 116.944 46.2516 114.476C49.0822 112.117 52.6565 110.049 56.485 110.883C59.8781 111.627 62.4909 115.71 59.7148 118.631C58.3902 120.046 60.8036 121.843 62.1282 120.446C64.8499 117.561 64.1783 112.771 61.4566 110.176Z" fill="#0C2C3E"/>
<path d="M56.3928 108.779C56.1387 110.702 53.145 110.375 53.3991 108.452C53.6349 106.547 52.6914 104.787 51.1491 103.68C50.0605 102.9 48.7358 102.573 47.4294 102.555C46.7036 102.537 45.9779 102.628 45.2703 102.773C45.2159 102.791 45.1431 102.809 45.0887 102.827C41.3509 103.698 38.4113 106.583 35.871 109.305C33.2582 112.063 30.8268 114.984 28.6676 118.141C24.4581 124.274 21.5188 131.278 21.5551 138.808C21.5732 140.75 18.5614 140.387 18.5614 138.463C18.5251 133.601 19.7044 128.792 21.7004 124.365C23.4967 120.355 25.8914 116.599 28.595 113.134C31.2985 109.668 34.3106 106.148 37.74 103.372C39.5907 101.866 41.7499 100.632 44.018 99.9965C45.0522 99.7062 46.1227 99.5431 47.1933 99.525C48.1912 99.5068 49.2076 99.6519 50.2237 99.9241C54.0341 101.013 56.919 104.787 56.3928 108.779Z" fill="#0C2C3E"/>
<path d="M47.5943 101.939C47.5762 102.175 47.5216 102.374 47.4309 102.556C46.7051 102.538 45.9794 102.628 45.2717 102.773C45.2173 102.792 45.1446 102.81 45.0901 102.828C44.7635 102.538 44.5639 102.138 44.6002 101.594C44.6546 100.941 44.4005 100.415 44.0194 99.9972C43.2755 99.217 42.0055 98.8723 40.9712 98.9267C39.0298 99.0175 37.1244 99.9247 35.4007 100.778C32.6064 102.157 30.0299 103.953 27.7074 106.04C19.4152 113.497 14.5347 125.001 15.3693 136.16C16.4036 149.841 25.9111 160.782 32.7153 172.05C33.7133 173.701 31.3367 175.57 30.3387 173.901C25.8751 166.498 20.5765 159.584 16.8024 151.782C13.7541 145.486 11.9578 138.718 12.3207 131.696C12.6655 125.255 14.6797 118.977 17.9094 113.406C21.0847 107.945 25.5845 103.136 30.9917 99.8158C33.8767 98.0376 37.3244 96.1143 40.7719 95.9328C43.4755 95.8058 46.1968 97.1666 47.1947 99.5436C47.5032 100.251 47.6487 101.05 47.5943 101.939Z" fill="#0C2C3E"/>
<path d="M111.991 269.541C110.013 270.684 108.053 271.827 106.076 272.97C90.9611 281.68 75.1207 291.424 57.4296 293.401C43.9299 294.907 28.8697 290.825 20.0332 279.992C14.8438 273.642 13.1565 265.64 12.8843 257.602C12.5577 248.185 13.9911 238.84 16.0415 229.659C18.11 220.387 20.6322 211.188 23.0092 201.97C25.4406 192.499 27.8902 183.027 30.3215 173.537C30.8114 171.65 33.6054 172.775 33.1336 174.644C32.553 176.912 31.9724 179.18 31.3736 181.449C29.0148 190.593 26.6562 199.757 24.3155 208.901C22.0293 217.792 19.5797 226.683 17.8559 235.701C16.1685 244.61 15.1708 253.828 16.3139 262.864C17.2211 270.103 20.1241 276.636 25.6764 281.48C30.5755 285.78 36.7444 288.539 43.1132 289.827C50.4436 291.315 57.9014 290.716 65.1411 288.92C73.3425 286.851 81.0901 283.258 88.5294 279.321C96.0957 275.329 103.499 271.029 110.884 266.692C111.247 267.654 111.628 268.598 111.991 269.541Z" fill="#0C2C3E"/>
<path d="M180.831 289.881C180.541 289.79 180.287 289.718 179.997 289.645C179.579 289.554 179.144 289.464 178.69 289.427C178.4 289.391 178.073 289.373 177.765 289.373H173.446C173.138 289.373 172.648 289.409 172.358 289.445C172.176 289.464 171.995 289.5 171.813 289.536C171.577 289.5 171.414 289.482 171.251 289.464C171.414 289.482 171.577 289.5 171.741 289.536V266.474H148.425C148.443 266.384 148.461 266.311 148.461 266.257C148.57 265.712 148.624 265.132 148.624 264.551V260.305C148.624 255.134 144.433 250.961 139.28 250.961H135.034C129.881 250.961 125.689 255.152 125.689 260.305V264.551C125.689 265.132 125.744 265.694 125.853 266.257C125.853 266.311 125.871 266.384 125.889 266.438C125.889 266.474 108.815 266.456 108.815 266.456C105.549 266.456 102.918 269.087 102.918 272.353V329.4C102.918 332.648 105.549 335.297 108.815 335.297H171.759V312.199C171.668 312.217 171.577 312.217 171.486 312.235C171.577 312.217 171.668 312.199 171.759 312.181C171.995 312.217 172.176 312.235 172.358 312.272C172.648 312.308 173.138 312.344 173.446 312.344H177.765C178.001 312.344 178.255 312.344 178.49 312.308C178.998 312.271 179.488 312.199 179.978 312.072C180.269 311.999 180.523 311.927 180.813 311.836C184.46 310.548 187.073 307.082 187.073 303V298.754C187.073 294.635 184.46 291.169 180.831 289.881Z" fill="#0C2C3E"/>
<path d="M129.245 264.806C129.172 264.697 129.19 264.624 129.209 264.569C129.209 264.642 129.227 264.697 129.245 264.77C129.227 264.788 129.245 264.788 129.245 264.806Z" fill="#0C2C3E"/>
<path d="M129.245 264.806C129.172 264.697 129.19 264.624 129.209 264.569C129.209 264.642 129.227 264.697 129.245 264.77C129.227 264.788 129.245 264.788 129.245 264.806Z" fill="#0C2C3E"/>
<path d="M240.671 266.421V324.157C240.671 330.29 235.699 335.262 229.566 335.262H171.83V312.164C172.066 312.218 172.32 312.236 172.556 312.273C172.864 312.309 173.191 312.327 173.517 312.327H177.763C177.999 312.327 178.253 312.327 178.489 312.29C178.997 312.254 179.487 312.182 179.977 312.055C180.267 311.982 180.539 311.91 180.812 311.819C184.459 310.531 187.071 307.065 187.071 302.982V298.736C187.071 294.654 184.459 291.188 180.812 289.9C180.539 289.809 180.267 289.719 179.977 289.664C179.56 289.573 179.124 289.483 178.671 289.446C178.38 289.41 178.054 289.392 177.745 289.392H173.517C173.191 289.392 172.882 289.41 172.556 289.446C172.302 289.483 172.066 289.501 171.83 289.555V266.457H195.146C195.001 266.983 194.946 267.473 194.946 267.963V272.209C194.946 277.38 199.138 281.572 204.309 281.572H208.555C213.708 281.572 217.899 277.38 217.899 272.227V267.981C217.899 267.473 217.863 266.983 217.79 266.511C217.7 266.421 240.671 266.421 240.671 266.421Z" fill="#6B3FEB"/>
<path d="M229.44 264.806C229.368 264.697 229.386 264.624 229.386 264.569C229.404 264.642 229.422 264.697 229.422 264.77C229.44 264.788 229.44 264.788 229.44 264.806Z" fill="#0C2C3E"/>
<path d="M229.44 264.806C229.368 264.697 229.386 264.624 229.386 264.569C229.404 264.642 229.422 264.697 229.422 264.77C229.44 264.788 229.44 264.788 229.44 264.806Z" fill="#0C2C3E"/>
<path d="M217.7 266.421C217.845 266.947 217.899 267.437 217.899 267.927V272.172C217.899 277.344 213.708 281.517 208.555 281.517H204.309C199.138 281.517 194.965 277.325 194.965 272.172V267.927C194.965 267.419 195.001 266.929 195.073 266.457C195.128 266.366 195.128 266.294 195.128 266.239C195.109 266.294 195.091 266.366 195.091 266.421H171.848C171.83 266.457 171.83 244.756 171.83 244.756C172.32 244.847 172.828 244.883 173.336 244.883H177.582C182.753 244.883 186.926 240.691 186.926 235.538V231.293C186.926 226.121 182.735 221.948 177.582 221.948H173.336C172.828 221.948 172.32 221.984 171.83 222.075V207.305C171.83 201.971 176.166 197.634 181.501 197.634H231C236.334 197.634 240.671 201.971 240.671 207.305V266.439H217.79C217.79 266.384 217.772 266.312 217.754 266.257C217.736 266.293 217.718 266.366 217.7 266.421Z" fill="white"/>
<path d="M350.919 289.209C348.233 283.911 345.348 278.594 340.976 274.476C336.403 270.157 329.816 267.417 323.52 268.887C322.25 269.177 321.978 270.447 322.577 271.246C309.948 271.264 297.319 274.385 284.709 275.038C283.765 275.093 282.822 275.111 281.878 275.129C278.34 275.02 274.82 274.802 271.3 274.439C271.027 274.403 270.737 274.367 270.465 274.312C270.284 274.276 270.138 274.294 269.993 274.312C267.961 274.095 265.929 273.822 263.915 273.532C255.95 272.335 247.93 270.52 239.892 271.917C234.884 272.262 230.184 273.895 225.902 276.363C225.648 276.508 225.521 276.581 225.394 276.653C224.886 276.417 224.251 276.399 223.797 276.744C219.134 280.191 214.943 284.274 211.368 288.846C207.739 292.584 204.999 297.701 206.814 302.945C206.959 303.362 207.213 303.616 207.503 303.743C207.685 304.051 207.939 304.342 208.211 304.578C209.445 305.612 211.132 305.721 212.638 305.34C215.777 304.541 217.773 301.929 220.023 299.806C223.47 296.558 228.188 295.106 232.76 295.632C232.887 295.814 232.978 296.032 232.978 296.304C233.015 297.447 232.398 298.717 232.017 299.769C231.545 301.094 231.019 302.382 230.438 303.652C226.047 313.523 218.971 321.924 211.604 329.708C209.535 331.886 207.503 334.153 205.235 336.113C203.275 337.819 200.263 339.488 197.85 337.637C196.308 336.458 194.493 338.871 196.054 340.051C196.253 340.214 196.471 340.341 196.707 340.468C197.868 344.369 200.971 347.435 205.036 348.252C207.522 348.742 210.116 348.198 212.294 346.927C212.366 347.036 212.457 347.127 212.547 347.218C217.174 351.246 223.924 351.736 229.277 349.159C229.349 349.268 229.44 349.359 229.567 349.431C231.617 350.883 234.085 351.772 236.607 351.845C238.44 351.899 240.363 351.355 241.343 349.885C243.048 348.96 244.591 347.689 246.26 346.655C246.768 347.998 247.966 349.159 249.309 349.704C252.103 350.829 254.77 349.25 256.639 347.218C257.111 346.691 257.564 346.147 258 345.585C260.758 343.135 263.189 340.377 265.276 337.383C269.649 332.23 273.713 326.823 277.433 321.18C297.319 319.91 317.115 327.93 336.947 323.847C339.905 323.231 343.135 322.45 345.729 320.817C346.854 320.527 347.961 320.128 349.013 319.529C353.459 317.025 355.799 311.999 356.126 307.045C356.471 300.713 353.713 294.725 350.919 289.209Z" fill="white"/>
<path d="M323.955 268.289C311.925 271.41 299.569 273.134 287.158 273.424C280.916 273.569 274.675 273.315 268.469 272.717C262.5 272.136 256.584 271.102 250.633 270.521C244.881 269.959 238.966 269.813 233.286 271.083C227.807 272.317 222.871 274.912 218.499 278.378C214.289 281.716 210.261 285.69 206.94 289.918C203.964 293.71 202.023 298.827 204.599 303.363C205.851 305.577 208.083 307.046 210.66 307.119C213.581 307.21 216.23 305.595 218.426 303.817C220.676 302.002 222.526 299.716 225.067 298.301C227.226 297.103 229.857 296.323 231.835 298.228C233.232 299.571 235.028 297.139 233.649 295.815C230.111 292.403 224.849 294.545 221.492 297.067C219.515 298.555 217.9 300.46 215.922 301.948C214.108 303.327 211.694 304.724 209.372 303.817C207.521 303.091 206.632 301.149 206.45 299.262C206.196 296.813 207.339 294.508 208.737 292.567C211.749 288.375 215.722 284.547 219.696 281.299C223.833 277.906 228.478 275.257 233.722 274.077C239.165 272.844 244.772 272.989 250.288 273.533C255.931 274.077 261.538 275.039 267.181 275.62C273.042 276.218 278.92 276.509 284.818 276.454C298.172 276.345 311.454 274.622 324.391 271.283C326.241 270.811 325.842 267.817 323.955 268.289Z" fill="#0C2C3E"/>
<path d="M230.565 296.213C227.444 305.467 221.982 313.596 216.593 321.652C211.966 328.565 205.235 337.42 195.691 335.079C193.804 334.625 193.477 337.619 195.346 338.073C202.858 339.924 209.88 335.206 214.489 329.69C216.956 326.751 219.025 323.485 221.13 320.273C223.398 316.844 225.63 313.396 227.644 309.822C229.912 305.812 231.907 301.675 233.377 297.302C234.012 295.487 231.2 294.362 230.565 296.213Z" fill="#0C2C3E"/>
<path d="M228.188 331.849C223.325 337.583 217.537 342.791 211.059 346.655C209.408 347.635 207.648 348.361 205.689 347.998C203.929 347.671 202.368 346.692 201.025 345.567C198.449 343.389 196.253 340.123 196.979 336.639C197.378 334.734 194.366 334.408 193.985 336.295C193.114 340.432 195.419 344.387 198.304 347.163C201.37 350.103 205.562 352.044 209.789 350.611C211.858 349.921 213.708 348.597 215.487 347.363C217.41 346.057 219.261 344.641 221.057 343.153C224.523 340.268 227.698 337.075 230.619 333.664C231.853 332.176 229.44 330.379 228.188 331.849Z" fill="#0C2C3E"/>
<path d="M243.339 336.023C242.613 335.479 241.797 335.751 241.234 336.332C238.984 338.654 236.68 340.923 234.303 343.118C232.18 345.06 229.948 346.983 227.39 348.326C223.089 350.575 216.975 351.21 213.527 347.092C212.275 345.604 209.898 347.455 211.132 348.942C215.124 353.696 222.037 354.041 227.426 351.646C230.511 350.267 233.196 348.18 235.682 345.912C238.44 343.408 241.053 340.777 243.647 338.128C244.228 337.548 243.938 336.459 243.339 336.023Z" fill="#0C2C3E"/>
<path d="M252.157 339.036C248.873 342.211 245.679 345.822 241.814 348.344C238.639 350.412 234.212 351.41 231.018 348.87C229.494 347.654 227.698 350.086 229.204 351.283C232.851 354.187 238.04 353.824 241.978 351.719C246.623 349.233 250.252 345.042 254.008 341.431C255.405 340.088 253.554 337.693 252.157 339.036Z" fill="#0C2C3E"/>
<path d="M275.692 318.024C272.752 325.064 268.779 331.632 263.88 337.511C261.448 340.432 258.817 343.281 255.878 345.694C253.029 348.053 249.255 349.904 245.699 347.944C244.973 347.545 244.011 348.108 243.739 348.797C243.394 349.632 243.884 350.358 244.592 350.757C252.557 355.148 260.559 345.948 265.204 340.614C270.757 334.227 275.238 326.933 278.504 319.13C279.267 317.334 276.454 316.227 275.692 318.024Z" fill="#0C2C3E"/>
<path d="M220.078 163.232C229.132 163.268 238.313 163.341 247.313 164.593C246.406 165.482 245.462 166.389 244.537 167.242C236.317 166.262 227.971 166.244 219.752 166.208C217.792 166.226 218.155 163.232 220.078 163.232Z" fill="white"/>
<path d="M212.276 100.886C210.588 95.2069 205.09 91.2332 199.211 91.1425C198.394 91.1243 197.759 91.9951 197.814 92.7571C197.886 93.6281 198.612 94.1362 199.429 94.1543C199.447 94.1543 199.665 94.1543 199.719 94.1543C199.846 94.1543 199.973 94.1725 200.118 94.1906C200.427 94.2269 200.717 94.2633 201.025 94.3178C201.334 94.3722 201.624 94.4448 201.915 94.5173C202.042 94.5536 202.151 94.5898 202.278 94.6261L202.55 94.7169C203.13 94.9346 203.675 95.1885 204.219 95.4788C204.473 95.624 204.709 95.7691 204.945 95.9143C204.981 95.9506 205.163 96.0596 205.181 96.0596C205.308 96.1503 205.435 96.2411 205.543 96.3318C207.467 97.8197 208.737 99.5796 209.409 101.848C209.644 102.628 210.588 103.045 211.332 102.791C212.148 102.519 212.511 101.666 212.276 100.886Z" fill="#0C2C3E"/>
<path d="M188.379 87.4953C187.98 86.2252 187.472 84.9732 186.837 83.8119C185.512 81.4531 183.48 79.4935 180.722 79.0943C179.924 78.9673 179.144 79.6387 179.053 80.4189C178.962 81.2535 179.579 81.9792 180.377 82.088C180.777 82.1425 181.121 82.2515 181.557 82.4692C181.811 82.5962 181.72 82.5418 181.956 82.7051C182.173 82.8503 182.391 83.0136 182.591 83.1769C183.172 83.6668 183.825 84.5195 184.242 85.336C184.75 86.2977 185.15 87.332 185.512 88.3663C185.875 89.4368 186.129 90.5435 186.02 91.6685C185.948 92.485 186.529 93.2472 187.345 93.3379C188.143 93.4286 188.942 92.8299 189.014 92.0134C189.159 90.4529 188.851 88.9651 188.379 87.4953Z" fill="#0C2C3E"/>
<path d="M183.914 164.756C182.88 164.775 181.864 164.811 180.848 164.829C173.754 165.01 166.641 165.192 159.564 165.41C159.093 164.448 158.693 163.45 158.385 162.434C158.838 162.416 159.292 162.397 159.746 162.397C166.55 162.198 173.354 162.017 180.158 161.853C181.193 161.817 182.209 161.799 183.243 161.781C183.261 161.871 183.279 161.944 183.297 162.035L183.914 164.756Z" fill="#0C2C3E"/>
<path d="M279.266 102.755C277.307 107.454 273.623 110.811 268.652 111.991C263.753 113.152 258.454 112.245 253.755 110.721C244.392 107.69 235.973 100.215 234.739 90.1082C233.397 88.4026 233.524 85.6265 233.506 83.5761C233.487 80.8726 233.814 78.0964 234.866 75.5924C237.135 70.2579 242.578 67.8084 247.985 66.7923C257.656 64.996 268.089 68.371 274.476 75.9373C280.554 83.1226 282.932 93.9004 279.266 102.755Z" fill="#0C2C3E"/>
<path d="M358.702 258.799L358.575 258.617L357.522 259.289L356.47 259.96C356.507 260.014 356.579 260.105 356.688 260.268C360.28 265.204 368.174 278.83 364.055 298.572C360.48 315.7 345.511 324.21 319.528 323.775C303.76 323.521 275.708 319.765 275.436 319.71L275.109 322.196C275.4 322.233 303.596 326.025 319.509 326.279C320.126 326.297 320.743 326.297 321.342 326.297C347.561 326.297 362.748 317.152 366.523 299.098C370.823 278.359 362.494 264.006 358.702 258.799Z" fill="#0C2C3E"/>
<path d="M336.15 192.135C335.805 187.4 333.592 182.881 330.144 179.634C326.715 176.404 322.106 175.079 317.751 173.628C313.578 172.231 309.096 170.525 307.046 166.315C304.796 161.707 305.213 156.263 303.616 151.437C300.495 142.002 290.135 138.754 281.226 137.592C278.196 137.193 274.948 137.066 272.335 135.288C269.958 133.655 268.325 131.169 266.964 128.665C263.716 122.641 261.43 116.127 260.16 109.396C259.797 107.49 256.803 107.908 257.166 109.831C258.255 115.637 260.051 121.298 262.555 126.651C264.678 131.169 267.254 136.068 271.845 138.518C274.276 139.806 277.035 140.151 279.738 140.459C282.061 140.731 284.365 141.094 286.633 141.657C290.806 142.709 295.179 144.451 298.082 147.753C301.33 151.473 301.621 156.318 302.383 160.963C303.181 165.735 304.85 170.18 309.005 172.993C312.652 175.479 317.026 176.458 321.126 177.946C325.426 179.525 329.164 181.902 331.323 186.093C333.664 190.647 333.864 196.145 331.305 200.663C328.765 205.163 324.083 208.248 318.93 208.738C316.989 208.919 317.424 211.913 319.366 211.732C329.146 210.824 336.857 201.952 336.15 192.135Z" fill="#0C2C3E"/>
<path d="M183.189 86.2077C181.357 83.7401 178.617 82.1977 175.459 81.853C172.339 81.5082 169.199 82.3794 166.586 84.3208C163.992 86.2442 162.25 89.0202 161.669 92.1048C161.089 95.2256 161.778 98.2921 163.611 100.76C165.444 103.227 168.183 104.77 171.341 105.115C171.776 105.169 172.23 105.187 172.665 105.187C175.332 105.187 177.963 104.298 180.195 102.647C182.79 100.724 184.532 97.9474 185.112 94.8628C185.711 91.7419 185.022 88.6754 183.189 86.2077ZM182.681 94.4092C182.227 96.8768 180.83 99.0906 178.743 100.633C176.657 102.175 174.135 102.901 171.649 102.611C169.199 102.338 167.058 101.141 165.661 99.2539C164.246 97.3487 163.72 94.9716 164.174 92.5402C164.627 90.0725 166.024 87.859 168.111 86.3167C169.907 84.974 172.012 84.2664 174.153 84.2664C174.498 84.2664 174.86 84.2846 175.205 84.3208C177.655 84.593 179.796 85.7905 181.193 87.6776C182.59 89.6009 183.117 91.9959 182.681 94.4092Z" fill="#EB923F"/>
<path d="M206.831 101.468C204.999 99 202.259 97.4577 199.102 97.1129C195.981 96.7682 192.842 97.6391 190.229 99.5806C187.634 101.504 185.892 104.28 185.312 107.365C184.731 110.486 185.439 113.552 187.253 116.02C189.412 118.923 192.806 120.447 196.307 120.447C198.902 120.447 201.551 119.612 203.855 117.925C209.263 113.897 210.587 106.53 206.831 101.468ZM202.386 115.911C198.104 119.104 192.225 118.487 189.285 114.532C187.87 112.627 187.344 110.25 187.798 107.818C188.251 105.351 189.648 103.137 191.735 101.595C193.531 100.252 195.636 99.5443 197.777 99.5443C198.122 99.5443 198.485 99.5625 198.829 99.5987C201.279 99.8709 203.42 101.068 204.817 102.955C207.757 106.911 206.668 112.717 202.386 115.911Z" fill="#EB923F"/>
<path d="M189.015 103.082C188.525 101.377 187.237 99.9974 185.876 98.9088C185.15 98.3281 184.37 97.7294 183.517 97.3847C182.41 96.9129 181.158 97.0037 180.178 97.6932C179.525 98.1468 179.398 99.2172 179.906 99.816C180.432 100.451 181.267 100.542 181.956 100.106C182.337 100.125 182.247 100.125 182.156 100.106C182.229 100.125 182.338 100.161 182.356 100.161C182.446 100.197 182.537 100.233 182.61 100.27C183.19 100.669 183.771 101.05 184.297 101.504C184.424 101.612 184.533 101.703 184.66 101.812C184.714 101.866 184.769 101.921 184.823 101.957C185.041 102.193 185.259 102.429 185.458 102.683C185.567 102.81 185.658 102.955 185.749 103.1C186.003 103.59 186.13 103.899 186.22 104.225C186.329 104.57 186.746 104.915 187.055 105.042C187.4 105.169 187.853 105.187 188.198 105.024C189.033 104.679 189.251 103.899 189.015 103.082Z" fill="#EB923F"/>
<path d="M101.882 36.2374C101.102 41.4449 100.34 46.6524 99.5597 51.8781C99.2694 53.8014 102.281 54.1461 102.553 52.2227C103.334 47.0152 104.096 41.8077 104.876 36.582C105.166 34.6587 102.173 34.3141 101.882 36.2374Z" fill="#6B3FEB"/>
<path d="M125.761 28.217C118.884 36.3459 113.151 45.382 108.687 55.0349C107.871 56.795 110.683 57.9018 111.5 56.1417C115.854 46.7246 121.479 37.9607 128.193 30.0315C129.426 28.5436 127.013 26.7292 125.761 28.217Z" fill="#6B3FEB"/>
<path d="M131.822 52.984C131.513 52.2401 130.588 51.8408 129.844 52.1855C126.27 53.8004 122.695 55.4154 119.102 57.0303C118.359 57.3569 117.978 58.2459 118.304 59.008C118.613 59.7519 119.538 60.1512 120.282 59.8064C123.856 58.1916 127.431 56.5766 131.024 54.9617C131.768 54.617 132.149 53.7461 131.822 52.984Z" fill="#6B3FEB"/>
</svg>
