<svg width="918" height="911" viewBox="0 0 918 911" fill="none" xmlns="http://www.w3.org/2000/svg">
<mask id="mask0_120_80" style="mask-type:alpha" maskUnits="userSpaceOnUse" x="0" y="107" width="804" height="804">
<circle cx="402" cy="509" r="402" fill="#6B3FEB"/>
</mask>
<g mask="url(#mask0_120_80)">
<circle cx="402" cy="509" r="402" fill="#6B3FEB"/>
<path d="M411.054 714.141C411.054 714.141 475.341 751.413 503.762 887.383C509.835 1003.21 507.635 1143.12 470.47 1264.5L508.933 1303.57C513.805 1308.51 510.304 1316.89 503.365 1316.89H336.581C318.335 1316.89 304.576 1300.28 307.98 1282.34C322.148 1207.49 355.055 1032.61 364.064 976.362L256.587 1271.81L298.791 1303.92C303.373 1308.94 299.813 1317.03 293.006 1317.03H126.366C106.28 1317.03 92.2322 1297.16 98.9075 1278.2C145.033 1147.34 278.104 723.354 324.914 640.088L411.054 714.141Z" fill="#6B3FEB"/>
<path d="M292.994 1318.22H126.354C116.383 1318.22 107.375 1313.55 101.614 1305.42C95.8526 1297.28 94.4454 1287.21 97.765 1277.79C110.49 1241.7 129.806 1183.38 152.165 1115.84C210.293 940.292 289.915 699.876 323.868 639.487C324.048 639.174 324.349 638.957 324.71 638.897C325.071 638.837 325.432 638.933 325.708 639.174L411.788 713.154C413.304 714.057 428.783 723.618 447.75 749.044C465.731 773.147 490.255 816.674 504.977 887.119C504.989 887.179 505.001 887.239 505.001 887.299C513.071 1041.3 502.234 1164.58 471.865 1264.14L509.824 1302.69C512.422 1305.34 513.155 1309.1 511.724 1312.52C510.292 1315.93 507.105 1318.06 503.401 1318.06H336.617C327.56 1318.06 319.057 1314.06 313.272 1307.09C307.487 1300.12 305.141 1291 306.825 1282.09C319.755 1213.75 349.546 1055.5 360.792 988.906L258.042 1271.37L299.537 1302.94C299.597 1302.99 299.645 1303.04 299.693 1303.09C302.135 1305.77 302.748 1309.5 301.28 1312.83C299.777 1316.16 296.614 1318.22 292.994 1318.22ZM325.239 641.952C291.009 704.194 212.134 942.361 154.438 1116.6C132.079 1184.14 112.763 1242.47 100.026 1278.59C96.9713 1287.25 98.2702 1296.52 103.574 1304.02C108.878 1311.52 117.177 1315.81 126.354 1315.81H292.994C295.652 1315.81 297.973 1314.3 299.056 1311.87C300.114 1309.46 299.693 1306.77 297.961 1304.79L255.853 1272.77C255.432 1272.44 255.276 1271.89 255.456 1271.39L362.933 975.941C363.149 975.364 363.763 975.027 364.364 975.183C364.966 975.34 365.351 975.929 365.254 976.542C356.222 1032.95 323.026 1209.33 309.158 1282.56C307.607 1290.76 309.772 1299.15 315.088 1305.58C320.404 1312 328.246 1315.68 336.581 1315.68H503.365C506.083 1315.68 508.416 1314.12 509.475 1311.61C510.521 1309.1 509.992 1306.33 508.08 1304.4L469.616 1265.33C469.303 1265.02 469.195 1264.56 469.327 1264.14C499.769 1164.75 510.641 1041.56 502.571 887.54C474.571 753.723 411.091 715.56 410.453 715.187C410.393 715.151 410.333 715.103 410.273 715.055L325.239 641.952Z" fill="white"/>
<path d="M364.052 977.554C363.932 977.554 363.799 977.53 363.679 977.494C363.042 977.289 362.705 976.604 362.909 975.978L437.443 748.865C440.354 740.001 447.799 733.193 456.879 731.101L470.194 728.022C470.843 727.865 471.481 728.274 471.637 728.924C471.781 729.573 471.384 730.223 470.735 730.367L457.421 733.446C449.158 735.358 442.374 741.552 439.728 749.623L365.195 976.736C365.026 977.229 364.557 977.554 364.052 977.554Z" fill="white"/>
<path d="M331.217 873.949H452.766L407.29 532.443L387.373 464.115L319.274 470.586C319.274 470.586 311.66 558.747 312.514 590.271C313.344 621.794 331.217 873.949 331.217 873.949Z" fill="#8257FF"/>
<path d="M638.949 464.621C603.239 473.774 574.338 460.52 557.656 449.274C550.776 475.458 545.171 496.338 545.171 496.338C545.171 496.338 464.203 468.951 437.177 463.9C435.686 463.623 431.921 462.745 426.545 462.048L420.423 461.422C412.449 460.821 402.31 460.929 391.257 463.226L382.585 464.573C385.664 473.486 393.229 488.039 401.456 544.543C408.408 592.316 418.03 679.142 420.399 760.616C423.25 858.518 418.102 948.315 418.102 948.315L514.79 948.483L463.59 589.009C500.429 599.003 565.221 608.914 605.453 573.806C642.184 541.753 638.828 504.685 638.949 464.621Z" fill="#6B3FEB"/>
<path d="M463.83 591.715C463.253 591.715 462.736 591.294 462.639 590.692C461.906 585.99 461.076 580.662 462.17 575.55C463.421 569.729 467.318 565.146 472.093 563.883C472.73 563.715 473.392 564.1 473.56 564.737C473.728 565.375 473.344 566.036 472.706 566.205C468.797 567.239 465.586 571.1 464.515 576.055C463.505 580.722 464.275 585.605 465.009 590.32C465.105 590.981 464.66 591.594 464.01 591.691C463.95 591.715 463.89 591.715 463.83 591.715Z" fill="white"/>
<path d="M397.403 632.739C397.318 632.739 397.222 632.727 397.138 632.703C396.489 632.558 396.08 631.909 396.236 631.259L419.064 531.745L399.135 518.082C398.834 517.877 398.641 517.552 398.617 517.18C398.593 516.819 398.725 516.458 398.99 516.217L417.669 498.489L389.597 468.12C389.14 467.627 389.176 466.869 389.669 466.424C390.15 465.979 390.92 466.003 391.365 466.496L420.243 497.731C420.688 498.212 420.664 498.97 420.182 499.415L401.72 516.939L421.097 530.229C421.505 530.506 421.698 531.011 421.59 531.492L398.569 631.801C398.437 632.366 397.944 632.739 397.403 632.739Z" fill="white"/>
<path d="M514.814 949.674H417.26C416.935 949.674 416.623 949.542 416.394 949.301C416.166 949.061 416.045 948.748 416.057 948.411L419.208 876.86C419.233 876.199 419.798 875.682 420.459 875.706C421.121 875.73 421.638 876.295 421.614 876.957L418.523 947.257H513.431L462.423 589.153C462.327 588.492 462.784 587.89 463.445 587.794C464.095 587.698 464.708 588.155 464.805 588.816L516.005 948.291C516.053 948.64 515.957 948.989 515.716 949.253C515.488 949.518 515.163 949.674 514.814 949.674Z" fill="white"/>
<path d="M528.645 599.604C503.953 599.604 480.211 594.745 463.288 590.163C462.651 589.994 462.266 589.333 462.446 588.683C462.615 588.046 463.276 587.661 463.926 587.841C499.154 597.391 564.282 608.156 604.682 572.903C638.034 543.797 637.902 510.012 637.77 474.255C637.758 471.572 637.745 468.878 637.758 466.172C603.864 474.327 576.165 462.841 558.413 451.222C551.81 476.359 546.409 496.457 546.361 496.662C546.277 496.986 546.061 497.251 545.772 497.407C545.483 497.564 545.135 497.588 544.822 497.491C544.016 497.215 463.625 470.081 436.984 465.102C435.89 464.897 409.79 460.134 384.268 465.631C383.619 465.775 382.981 465.354 382.837 464.705C382.693 464.055 383.114 463.418 383.763 463.274C409.754 457.681 436.311 462.528 437.429 462.732C462.422 467.399 534.142 491.358 544.377 494.797C545.676 489.926 550.667 471.284 556.524 448.985C556.621 448.612 556.897 448.299 557.258 448.167C557.619 448.035 558.028 448.083 558.353 448.299C575.889 460.122 604.057 472.366 638.672 463.478C639.032 463.382 639.417 463.466 639.706 463.694C639.995 463.923 640.175 464.272 640.175 464.645C640.163 467.868 640.175 471.067 640.187 474.255C640.331 510.589 640.452 544.903 606.282 574.731C584.572 593.626 556.031 599.604 528.645 599.604Z" fill="white"/>
<path d="M573.989 508.208C573.844 508.208 573.7 508.184 573.568 508.124L547.961 498.405C547.336 498.165 547.023 497.479 547.264 496.854C547.504 496.228 548.202 495.916 548.815 496.156L574.422 505.874C575.047 506.115 575.36 506.801 575.119 507.426C574.927 507.919 574.47 508.208 573.989 508.208Z" fill="white"/>
<path d="M638.949 464.62C639.021 441.215 636.7 421.658 636.46 412.084C636.46 412.084 649.774 396.593 629.688 387.825C629.688 387.825 623.915 377.205 614.967 383.195C614.967 383.195 608.664 371.011 598.706 387.873C598.706 387.873 600.125 355.844 599.644 349.049C599.151 342.253 586.931 332.018 580.412 363.53C576.732 381.342 566.593 415.223 557.656 449.285C557.656 449.285 566.857 456.213 580.015 461.012C593.173 465.823 600.582 469.154 616.121 467.687C631.673 466.208 638.949 464.62 638.949 464.62Z" fill="#6B3FEB"/>
<path d="M638.986 463.045C638.313 463.045 637.783 462.504 637.783 461.843C637.831 446.484 636.809 433.771 636.063 424.497C635.679 419.626 635.342 415.429 635.258 412.121C635.246 411.821 635.354 411.532 635.546 411.303C635.595 411.243 640.778 405.097 639.323 398.783C638.397 394.778 634.993 391.458 629.208 388.932C628.967 388.824 628.763 388.644 628.631 388.403C628.607 388.355 626.045 383.761 621.955 382.762C619.923 382.269 617.794 382.75 615.629 384.194C615.34 384.386 614.991 384.446 614.667 384.362C614.33 384.278 614.053 384.049 613.897 383.749C613.885 383.713 612.021 380.225 609.014 380.152C608.978 380.152 608.942 380.152 608.918 380.152C606.139 380.152 602.976 383.039 599.753 388.499C599.476 388.981 598.899 389.197 598.37 389.041C597.84 388.884 597.492 388.391 597.516 387.838C597.528 387.513 598.935 355.797 598.454 349.158C598.261 346.512 595.94 343.289 593.21 343.108C591.538 343 585.657 344.154 581.603 363.795C579.33 374.764 574.94 390.64 569.841 409.006C566.689 420.372 563.117 433.265 559.665 446.411C559.497 447.049 558.836 447.434 558.198 447.265C557.561 447.097 557.176 446.435 557.344 445.798C560.796 432.628 564.368 419.735 567.519 408.357C572.595 390.027 576.985 374.187 579.234 363.29C583.408 343.096 589.878 340.462 593.366 340.691C597.444 340.955 600.583 345.273 600.847 348.965C601.232 354.306 600.463 374.596 600.102 383.616C603.109 379.635 606.176 377.663 609.098 377.747C612.213 377.831 614.342 380.14 615.352 381.56C617.758 380.225 620.175 379.852 622.545 380.429C626.959 381.512 629.749 385.613 630.531 386.888C636.845 389.726 640.598 393.551 641.68 398.266C643.196 404.869 638.902 410.955 637.687 412.506C637.784 415.681 638.108 419.699 638.481 424.305C639.227 433.626 640.249 446.387 640.201 461.855C640.189 462.504 639.648 463.045 638.986 463.045Z" fill="white"/>
<path d="M614.919 468.914C590.551 468.914 570.622 459.473 556.983 450.272C556.43 449.899 556.285 449.153 556.658 448.6C557.031 448.047 557.777 447.902 558.33 448.275C575.866 460.098 604.034 472.342 638.649 463.454C639.298 463.286 639.948 463.682 640.116 464.32C640.284 464.957 639.888 465.619 639.25 465.787C630.735 467.964 622.616 468.914 614.919 468.914Z" fill="white"/>
<path d="M605.201 444.366C605.165 444.366 605.141 444.366 605.104 444.366C604.443 444.318 603.95 443.74 603.998 443.079C604.287 439.374 602.146 436.091 599.896 432.615C597.876 429.512 595.795 426.313 595.326 422.572C594.809 418.507 596.3 414.73 597.744 411.086C598.525 409.114 599.319 407.069 599.776 405.06C600.041 403.845 600.318 401.657 599.139 400.526C597.551 398.998 594.436 400.358 593.522 400.803C589.024 403.016 585.115 406.6 582.541 410.894C582.337 411.218 582.144 411.555 581.952 411.892C581.086 413.395 580.196 414.947 578.765 416.125C576.792 417.749 573.581 418.278 571.608 416.366C571.127 415.897 571.127 415.139 571.584 414.67C572.053 414.189 572.811 414.177 573.28 414.646C574.242 415.572 576.094 415.199 577.225 414.273C578.32 413.371 579.065 412.072 579.859 410.701C580.063 410.352 580.256 410.004 580.472 409.655C583.287 404.964 587.544 401.055 592.464 398.65C595.903 396.966 598.934 397.014 600.811 398.794C602.338 400.261 602.795 402.607 602.134 405.589C601.641 407.79 600.811 409.919 599.993 411.976C598.598 415.5 597.286 418.832 597.719 422.283C598.116 425.471 599.969 428.309 601.917 431.316C604.299 434.972 606.752 438.761 606.404 443.271C606.343 443.885 605.814 444.366 605.201 444.366Z" fill="white"/>
<path d="M605.176 424.268C605.104 424.268 605.044 424.268 604.972 424.268C602.674 424.184 600.449 422.548 599.283 420.094C598.309 418.026 598.128 415.74 597.972 413.72C597.924 413.058 598.417 412.481 599.078 412.433C599.752 412.385 600.317 412.878 600.365 413.539C600.51 415.44 600.666 417.412 601.448 419.072C602.037 420.323 603.336 421.814 605.044 421.874C606.704 421.935 608.352 420.696 610.036 418.194C616.482 408.632 618.31 396.328 614.906 385.311C614.714 384.674 615.063 384 615.7 383.808C616.338 383.615 617.011 383.964 617.204 384.602C620.812 396.316 618.876 409.378 612.032 419.541C609.915 422.668 607.606 424.268 605.176 424.268Z" fill="white"/>
<path d="M617.925 423.945C615.015 423.945 612.261 422.658 610.781 420.397C610.42 419.843 610.577 419.098 611.13 418.737C611.683 418.376 612.429 418.532 612.79 419.086C614.401 421.551 618.009 422.032 620.571 421.058C623.747 419.855 625.948 416.885 627.222 414.6C631.228 407.443 631.649 398.338 628.305 390.845C628.029 390.244 628.305 389.522 628.919 389.258C629.532 388.981 630.241 389.258 630.506 389.871C634.15 398.038 633.693 407.972 629.327 415.778C627.186 419.603 624.529 422.141 621.426 423.307C620.283 423.728 619.092 423.945 617.925 423.945Z" fill="white"/>
<path d="M631.216 416.523C630.242 416.523 629.279 416.295 628.449 415.85C627.86 415.537 627.644 414.804 627.956 414.226C628.269 413.637 629.003 413.42 629.58 413.733C630.386 414.166 631.42 414.238 632.406 413.938C633.393 413.637 634.211 412.999 634.644 412.194C634.956 411.604 635.678 411.388 636.267 411.701C636.857 412.013 637.073 412.735 636.761 413.324C636.039 414.695 634.704 415.754 633.104 416.247C632.491 416.439 631.841 416.523 631.216 416.523Z" fill="white"/>
<path d="M436.661 669.907L319.262 683.173L343.485 554.384C344.303 550.03 347.863 546.734 352.265 546.229L450.408 535.14C456.302 534.478 461.149 539.698 460.054 545.507L436.661 669.907Z" fill="white"/>
<path d="M343.099 947.664C343.099 947.664 319.73 589.272 319.261 546.659C319.009 523.554 323.783 469.96 323.783 469.96C285.079 476.238 253.964 479.233 207.647 497.394C163.35 514.774 153.391 603.103 151.31 658.213C150.396 682.448 171.685 702.377 210.136 698.023L235.153 694.523L190.652 946.666L343.099 947.664Z" fill="#6B3FEB"/>
<path d="M343.1 949.672H343.088L190.629 947.88C190.28 947.88 189.943 947.712 189.715 947.447C189.486 947.171 189.39 946.822 189.462 946.473L233.963 694.331C234.084 693.681 234.697 693.236 235.359 693.357C236.008 693.477 236.453 694.09 236.333 694.752L192.084 945.499L341.837 947.255L338.397 877.845C338.361 877.183 338.878 876.618 339.54 876.582C340.213 876.546 340.767 877.063 340.803 877.724L344.303 948.409C344.315 948.746 344.194 949.059 343.966 949.299C343.737 949.54 343.425 949.672 343.1 949.672Z" fill="white"/>
<path d="M199.733 699.226C184.206 699.226 171.096 694.848 162.135 686.525C153.945 678.924 149.675 668.448 150.108 657.034C151.612 617.212 157.228 562.379 175.462 527.331C175.943 526.501 186.696 508.027 200.118 499.836C218.688 488.506 286.763 473.641 323.639 468.781C324.313 468.697 324.902 469.154 324.987 469.816C325.071 470.477 324.614 471.079 323.952 471.163C287.281 475.998 219.687 490.707 201.369 501.893C188.464 509.771 177.675 528.305 177.567 528.497C159.574 563.112 154.005 617.56 152.514 657.142C152.105 667.859 156.11 677.673 163.771 684.781C174.091 694.355 190.34 698.445 209.524 696.268L254.951 690.326C255.612 690.242 256.214 690.699 256.298 691.36C256.382 692.022 255.925 692.623 255.264 692.707L209.812 698.649C206.348 699.034 202.993 699.226 199.733 699.226Z" fill="white"/>
<path d="M242.791 625.689C242.767 625.689 242.743 625.689 242.731 625.689C242.07 625.653 241.565 625.088 241.589 624.427C242.683 604.245 244.668 583.846 247.506 563.809C247.602 563.147 248.204 562.69 248.865 562.786C249.527 562.882 249.984 563.484 249.887 564.145C247.061 584.111 245.077 604.437 243.982 624.547C243.958 625.184 243.429 625.689 242.791 625.689Z" fill="white"/>
<path d="M269.877 631.018C269.865 631.018 269.865 631.018 269.853 631.018L223.861 630.152C223.199 630.14 222.67 629.587 222.682 628.926C222.694 628.264 223.235 627.699 223.909 627.747L269.901 628.613C270.563 628.625 271.092 629.178 271.08 629.84C271.068 630.501 270.527 631.018 269.877 631.018Z" fill="white"/>
<path d="M319.262 667.725C318.745 667.725 318.275 667.4 318.119 666.883L282.879 554.668C282.747 554.247 282.855 553.79 283.168 553.465L300.98 535.159L280.281 517.431C279.8 517.022 279.716 516.3 280.101 515.795L310.121 475.503C310.518 474.974 311.275 474.866 311.805 475.263C312.334 475.66 312.442 476.417 312.045 476.947L282.698 516.336L303.518 534.161C303.77 534.377 303.927 534.69 303.939 535.015C303.951 535.352 303.831 535.664 303.602 535.905L285.405 554.607L320.428 666.149C320.633 666.787 320.272 667.46 319.646 667.653C319.502 667.701 319.382 667.725 319.262 667.725Z" fill="white"/>
<path d="M269.984 629.816C269.984 629.816 249.73 662.591 255.095 691.505L407.843 673.704C407.843 673.704 411.92 672.922 414.987 670.409C418.186 667.787 416.526 662.591 412.401 662.194L404.186 661.412C404.186 661.412 422.468 656.613 422.793 649.505C423.117 642.397 417.272 643.371 402.346 647.953C387.42 652.536 361.393 651.465 352.914 649.036C344.434 646.606 339.695 639.186 335.534 627.808C331.372 616.418 331.324 603.548 323.807 605.449C316.29 607.349 318.082 629.78 318.082 629.78L269.984 629.816Z" fill="#6B3FEB"/>
<path d="M416.262 672.128C415.961 672.128 415.66 672.02 415.42 671.792C414.939 671.323 414.939 670.565 415.396 670.096C416.695 668.761 417.14 667.317 416.647 666.031C416.081 664.563 414.385 663.529 412.329 663.409L404.078 662.615C403.501 662.555 403.044 662.098 402.996 661.52C402.947 660.943 403.32 660.414 403.886 660.257C410.621 658.489 421.385 653.991 421.59 649.457C421.698 646.979 420.928 646.378 420.676 646.173C418.463 644.465 411.222 646.486 402.707 649.108C387.444 653.799 361.068 652.62 352.589 650.202C342.63 647.364 337.963 637.959 334.403 628.228C333.188 624.909 332.311 621.421 331.529 618.342C329.46 610.175 328.101 605.605 324.096 606.615C319.333 607.818 318.611 621.409 319.273 629.696C319.297 630.033 319.189 630.357 318.96 630.61C318.732 630.862 318.407 630.995 318.082 630.995L274.375 631.019C273.713 631.019 273.172 630.478 273.172 629.816C273.172 629.155 273.713 628.613 274.375 628.613L316.795 628.589C316.495 623.333 316.11 606.158 323.518 604.294C330.061 602.646 331.902 609.995 333.874 617.765C334.68 620.928 335.51 624.211 336.677 627.411C341.247 639.907 346.046 645.837 353.262 647.893C361.501 650.239 387.143 651.381 402.009 646.811C413.604 643.251 419.268 642.036 422.167 644.273C423.526 645.319 424.128 647.051 424.019 649.565C423.779 654.809 415.889 658.67 410.164 660.787L412.533 661.015C415.48 661.196 418.006 662.819 418.908 665.165C419.75 667.342 419.1 669.759 417.14 671.78C416.899 672.008 416.574 672.128 416.262 672.128Z" fill="white"/>
<path d="M259.244 692.382C258.643 692.382 258.125 691.937 258.053 691.324C257.981 690.662 258.45 690.061 259.112 689.989L325.695 682.159C326.357 682.087 326.958 682.556 327.03 683.217C327.103 683.879 326.633 684.48 325.972 684.552L259.388 692.382C259.34 692.37 259.292 692.382 259.244 692.382Z" fill="white"/>
<path d="M255.107 692.72C254.542 692.72 254.037 692.311 253.928 691.734C248.54 662.7 268.133 630.539 268.975 629.192C269.323 628.626 270.069 628.446 270.634 628.807C271.2 629.156 271.38 629.901 271.031 630.467C270.827 630.791 251.078 663.193 256.31 691.313C256.43 691.963 255.997 692.588 255.348 692.72C255.251 692.708 255.179 692.72 255.107 692.72Z" fill="white"/>
<path d="M371.423 665.164C369.247 665.164 367.07 665.128 364.905 665.068C364.243 665.044 363.714 664.491 363.738 663.829C363.762 663.18 364.291 662.663 364.941 662.663C364.953 662.663 364.965 662.663 364.977 662.663C377.161 663 389.465 662.374 401.552 660.811C402.202 660.726 402.815 661.195 402.899 661.845C402.983 662.506 402.526 663.108 401.865 663.192C391.798 664.503 381.587 665.164 371.423 665.164Z" fill="white"/>
<path d="M375.791 416.789L371.593 507.007L323.784 469.962L330.688 417.547L375.791 416.789Z" fill="#6B3FEB"/>
<path d="M323.784 471.165C323.736 471.165 323.676 471.165 323.627 471.153C322.966 471.069 322.509 470.468 322.593 469.806L329.497 417.391C329.569 416.801 330.074 416.356 330.664 416.344L375.766 415.599C376.103 415.599 376.416 415.731 376.644 415.959C376.873 416.2 376.993 416.525 376.981 416.849L374.744 464.995C374.708 465.657 374.179 466.174 373.481 466.138C372.819 466.102 372.302 465.548 372.338 464.875L374.515 418.004L331.734 418.714L324.963 470.107C324.89 470.72 324.373 471.165 323.784 471.165Z" fill="white"/>
<path d="M377.907 357.303L396.116 421.18C396.116 421.18 356.582 442.625 351.543 429.72C346.503 416.802 333.935 383.883 333.935 383.883L377.907 357.303Z" fill="#6B3FEB"/>
<path d="M359.613 435.048C357.821 435.048 356.197 434.831 354.814 434.326C352.673 433.544 351.194 432.137 350.412 430.165C345.421 417.392 332.924 384.641 332.804 384.316C332.6 383.775 332.804 383.162 333.309 382.861L377.281 356.293C377.606 356.1 377.991 356.064 378.34 356.208C378.688 356.341 378.953 356.641 379.061 357.002L397.271 420.88C397.427 421.421 397.187 421.998 396.681 422.263C395.599 422.828 372.915 435.048 359.613 435.048ZM335.414 384.389C337.507 389.861 348.151 417.74 352.661 429.287C353.178 430.61 354.153 431.524 355.644 432.065C365.194 435.565 389.802 423.141 394.685 420.591L377.173 359.167L335.414 384.389Z" fill="white"/>
<path d="M298.237 398.652C297.203 391.808 302.255 384.616 309.05 383.269C302.134 371.446 305.225 355.426 314.378 345.25C323.531 335.063 337.615 330.264 351.314 330.012C358.916 329.867 366.673 331.046 373.432 334.51C380.192 337.974 385.881 343.915 388.022 351.192C390.163 358.48 388.298 367.044 382.597 372.083C381.371 369.822 380.144 367.573 378.917 365.312C377.173 372.805 371.508 378.927 364.929 382.932C358.35 386.949 350.857 389.138 343.46 391.303C345.613 395.645 346.395 400.504 347.766 405.147C349.137 409.789 351.314 414.492 355.331 417.198C360.924 420.951 368.537 419.796 374.683 417.03C380.829 414.264 386.314 410.09 392.676 407.853C395.719 412.796 398.798 417.824 400.398 423.392C401.998 428.973 401.961 435.275 398.991 440.255C394.492 447.796 384.931 450.286 376.331 452.114C369.512 453.569 362.295 455 355.68 452.763C347.441 449.973 342.005 442.047 338.854 433.94C335.703 425.834 334.235 417.126 330.663 409.212C326.73 409.645 322.797 410.066 318.864 410.499C315.268 410.896 313.043 410.992 309.844 410.054C304.203 408.382 299.187 404.942 298.237 398.652Z" fill="white"/>
<path d="M331.398 405.891C331.398 405.891 320.765 387.934 310.879 403.293C300.98 418.652 324.265 436.14 335.319 419.35L331.398 405.891Z" fill="#6B3FEB"/>
<path d="M323.808 427.42C320.705 427.42 317.662 426.398 315.076 424.714C308.437 420.396 304.36 411.195 309.868 402.643C312.803 398.085 316.195 395.8 319.827 395.884C326.875 396.016 332.215 404.905 332.444 405.289C332.492 405.374 332.54 405.47 332.564 405.566L336.485 419.025C336.581 419.362 336.533 419.722 336.329 420.023C332.841 425.303 328.27 427.42 323.808 427.42ZM319.659 398.29C316.916 398.29 314.307 400.19 311.889 403.942C307.174 411.255 310.59 418.917 316.387 422.693C321.607 426.097 329.016 426.265 334.008 419.145L330.291 406.384C329.654 405.374 325.095 398.386 319.767 398.29C319.731 398.29 319.695 398.29 319.659 398.29Z" fill="white"/>
<path d="M327.693 418.748C327.273 418.748 326.863 418.519 326.635 418.134C324.771 414.779 321.235 412.458 317.41 412.097C316.748 412.037 316.267 411.447 316.327 410.786C316.387 410.124 316.977 409.643 317.638 409.703C322.245 410.148 326.491 412.939 328.74 416.968C329.064 417.545 328.848 418.279 328.271 418.604C328.09 418.7 327.886 418.748 327.693 418.748Z" fill="white"/>
<path d="M365.014 411.425C360.468 411.425 355.897 408.166 353.877 403.03C352.662 399.951 352.53 396.656 353.492 393.745C354.478 390.762 356.511 388.525 359.193 387.467C364.665 385.314 371.172 388.802 373.71 395.224C374.925 398.303 375.057 401.599 374.095 404.509C373.096 407.492 371.076 409.729 368.394 410.788C367.287 411.221 366.145 411.425 365.014 411.425ZM362.596 389.235C361.743 389.235 360.901 389.391 360.083 389.704C358.074 390.497 356.547 392.193 355.777 394.491C354.983 396.872 355.104 399.578 356.114 402.14C358.159 407.336 363.27 410.21 367.504 408.539C369.512 407.745 371.04 406.049 371.81 403.752C372.603 401.37 372.483 398.664 371.473 396.102C369.813 391.917 366.169 389.235 362.596 389.235Z" fill="white"/>
<path d="M396.585 386.226C398.882 392.047 396.802 398.313 391.943 400.226C387.083 402.138 381.286 398.963 378.989 393.142C376.692 387.32 378.772 381.054 383.631 379.142C388.502 377.241 394.3 380.417 396.585 386.226Z" fill="#6B3FEB"/>
<path d="M389.008 401.983C384.462 401.983 379.892 398.723 377.871 393.588C376.656 390.509 376.524 387.213 377.486 384.302C378.484 381.32 380.505 379.083 383.187 378.024C388.659 375.871 395.166 379.359 397.692 385.782C398.907 388.861 399.039 392.156 398.077 395.067C397.09 398.05 395.058 400.287 392.376 401.345C391.293 401.778 390.151 401.983 389.008 401.983ZM386.591 379.804C385.737 379.804 384.895 379.961 384.077 380.273C382.068 381.067 380.541 382.763 379.771 385.06C378.977 387.442 379.098 390.148 380.108 392.71C382.153 397.905 387.264 400.78 391.498 399.108C393.506 398.314 395.034 396.619 395.804 394.321C396.597 391.94 396.477 389.234 395.467 386.672C393.819 382.474 390.163 379.804 386.591 379.804Z" fill="white"/>
<path d="M372.591 396.871C372.375 396.871 372.158 396.811 371.966 396.69C371.401 396.342 371.22 395.608 371.557 395.043C372.603 393.323 375.586 390.472 379.447 392.036C380.06 392.288 380.361 392.986 380.108 393.599C379.856 394.213 379.158 394.514 378.545 394.261C375.634 393.082 373.698 396.161 373.614 396.294C373.385 396.666 372.988 396.871 372.591 396.871Z" fill="white"/>
<path d="M331.205 405.833C330.591 405.833 330.062 405.364 330.002 404.738C329.942 404.077 330.435 403.499 331.096 403.439L354.875 401.395C355.548 401.334 356.114 401.828 356.174 402.489C356.234 403.151 355.74 403.728 355.079 403.788L331.301 405.833C331.277 405.833 331.241 405.833 331.205 405.833Z" fill="white"/>
</g>
<path d="M838 0L678 160H838V0Z" fill="#24D0C0"/>
<circle cx="758" cy="400" r="80" fill="#24D0C0"/>
<path d="M678 320C699.217 320 719.566 311.571 734.569 296.569C749.571 281.566 758 261.217 758 240C758 218.783 749.571 198.434 734.569 183.431C719.566 168.429 699.217 160 678 160L678 240L678 320Z" fill="#9A7AF8"/>
<path d="M838 160C816.783 160 796.434 168.429 781.431 183.431C766.429 198.434 758 218.783 758 240C758 261.217 766.429 281.566 781.431 296.569C796.434 311.571 816.783 320 838 320L838 240L838 160Z" fill="#24D0C0"/>
</svg>
