<svg width="624" height="514" viewBox="0 0 624 514" fill="none" xmlns="http://www.w3.org/2000/svg">
<circle cx="333.5" cy="257.021" r="256.5" fill="#F0ECFD"/>
<path d="M484.658 264.568C482.024 270.388 477.216 274.86 472.009 278.412C466.618 282.088 460.768 285.243 454.826 287.969C430.568 299.148 403.432 302.885 376.877 301.476C363.462 300.771 350.138 298.719 337.09 295.534C323.43 292.226 309.831 287.877 297.978 280.158C292.22 276.422 286.952 271.858 280.826 268.734C275.344 265.916 269.248 265.181 263.521 263.037C257.916 260.924 253.475 257.034 251.821 251.123C250.167 245.181 251.178 238.841 252.372 232.929C252.403 232.715 252.494 232.531 252.556 232.378C248.911 226.957 246.001 221.107 244.255 214.767C240.978 202.73 242.816 189.1 251.637 179.789C255.925 175.287 261.01 173.051 266.86 171.274C269.616 170.447 272.556 169.62 274.884 167.844C277.028 166.22 278.345 163.862 278.927 161.259C280.152 155.837 279.203 150.171 279.631 144.658C280.06 139.206 281.99 134.091 286.4 130.661C294.976 123.984 307.32 125.393 315.283 117.521C319.449 113.356 322.082 107.904 324.747 102.728C327.504 97.3677 330.506 92.1916 334.334 87.5054C342.022 78.1025 352.068 70.6289 363.217 65.8509C374.273 61.1035 386.464 58.9598 398.439 60.0624C410.293 61.1344 421.809 65.2997 431.824 71.701C441.87 78.1024 450.354 86.893 456.296 97.2148C459.757 103.187 462.33 109.711 463.617 116.48C465.087 124.106 464.444 131.855 463.739 139.543C462.3 155.317 462.636 171.06 463.341 186.864C463.678 194.184 463.586 201.933 466.189 208.917C468.701 215.594 473.234 221.168 477.032 227.14C483.954 237.891 490.355 251.98 484.658 264.568Z" fill="#0C2C3E"/>
<path d="M330.26 92.773C327.014 99.3581 323.522 105.974 318.529 111.395C316.232 113.876 313.507 116.081 310.444 117.551C306.615 119.389 302.481 119.849 298.315 120.186C294.088 120.523 289.831 120.89 285.849 122.452C282.817 123.647 279.938 125.454 277.518 127.628C272.526 132.069 269.003 138.042 267.503 144.535C266.737 147.874 266.553 151.396 267.044 154.796C267.534 158.318 269.095 161.595 269.555 165.117C269.738 166.557 269.8 168.211 268.85 169.436C267.625 170.998 265.389 171.212 263.613 171.611C260.152 172.376 256.783 173.54 253.628 175.194C241.009 181.718 231.3 194.797 231.514 209.376C231.729 225.088 243.49 240.249 259.356 242.608C262.051 243.006 262.541 238.81 259.846 238.411C246.461 236.421 236.629 223.679 235.802 210.54C234.914 196.634 244.898 183.801 257.15 178.226C260.335 176.787 263.582 176.113 266.952 175.225C270.596 174.245 273.384 171.886 273.904 168.027C274.364 164.505 273.046 160.983 272.066 157.644C271.178 154.581 270.902 151.426 271.239 148.272C271.944 142.024 274.976 135.99 279.509 131.641C281.867 129.405 284.563 127.567 287.595 126.372C291.24 124.933 295.16 124.688 299.019 124.382C303.552 124.014 308.055 123.463 312.221 121.472C315.773 119.757 318.805 117.337 321.531 114.488C327.075 108.7 330.812 101.441 334.334 94.3351C335.406 91.8848 331.455 90.3533 330.26 92.773Z" fill="#0C2C3E"/>
<path d="M457.215 213.573C446.342 212.347 435.346 213.664 425.086 217.279C424.259 205.823 423.952 194.307 424.197 182.791C424.32 176.635 424.626 170.448 425.055 164.322C425.147 163.311 424.902 161.718 426.035 161.351C427.077 161.014 428.424 161.259 429.496 161.198C431.916 161.045 434.305 160.494 436.572 159.636C441.625 157.768 446.067 154.214 449.007 149.712C449.803 148.517 449.221 147.231 448.272 146.649C448.333 146.435 448.425 146.19 448.456 145.945C449.283 142.882 449.344 139.36 447.996 136.389C446.464 132.989 443.065 131.641 439.512 132.499C436.234 133.265 432.957 135.592 429.465 134.796C425.637 133.908 422.605 130.569 419.848 128.027C412.804 121.503 405.76 114.979 398.715 108.486C393.6 103.739 388.455 98.9913 383.309 94.2132C380.767 91.4261 378.01 88.8532 375.009 86.5255C374.672 86.2804 374.335 86.1583 374.028 86.097C373.967 85.8213 373.844 85.5763 373.691 85.3619C373.599 85.1475 373.477 84.9329 373.385 84.6878C372.712 82.942 370.69 83.187 369.801 84.2896C369.526 84.3203 369.25 84.3511 369.005 84.4429C361.256 84.7799 354.916 89.7112 350.567 96.0512C349.495 97.0314 348.453 98.0725 347.534 99.2364C344.594 102.881 342.542 107.2 341.072 111.61C339.725 115.715 338.836 119.941 338.071 124.168C337.336 124.535 336.753 125.24 336.784 126.282C337.09 134.674 334.18 142.821 334.579 151.243C334.762 155.378 335.926 159.268 337.58 162.974C338.223 167.14 339.234 171.397 341.654 174.705C344.778 178.901 350.016 181.474 354.702 183.495C359.204 185.455 363.982 186.773 368.852 187.538C368.761 192.163 368.362 196.788 368.087 201.413C367.872 204.966 367.657 208.519 367.443 212.072C352.159 210.449 337.09 207.294 322.45 202.638C320.827 201.842 319.142 201.29 317.304 201.015C315.589 200.739 314.609 202.638 315.13 203.955C314.946 204.047 314.762 204.139 314.578 204.261C313.139 205.15 317.458 208.182 318.775 208.733C323.277 210.663 322.756 214.063 326.432 217.309C330.26 220.678 333.384 221.75 336.968 225.334C343.951 232.348 359.388 234.43 368.73 235.502C389.067 237.799 406.004 236.544 425.668 230.939C436.847 227.753 447.628 223.282 457.797 217.646C459.543 216.666 459.482 213.818 457.215 213.573Z" fill="white"/>
<path d="M195.158 136.909C190.992 145.792 186.154 154.306 181.957 163.158C173.688 180.555 172.156 200.004 173.259 218.993C173.841 229.131 175.096 239.208 176.322 249.285C176.842 253.542 178.221 258.718 175.801 262.639C173.81 265.794 170.104 267.019 166.705 267.938C157.179 270.48 147.5 272.9 137.699 274.217C132.798 274.86 127.929 275.166 122.998 275.136C118.587 275.136 114.146 275.044 109.797 275.871C109.062 276.514 107.897 276.636 107.07 276.085C106.151 275.687 105.784 274.492 106.06 273.481C104.008 258.229 103.702 242.792 105.172 227.477C99.4748 222.393 94.6659 216.359 91.0823 209.591C87.4988 202.883 85.6304 195.593 83.3639 188.365C81.2812 181.719 78.7698 174.674 73.5936 169.743C70.5001 166.772 66.549 164.934 62.843 162.852C58.8 160.554 54.9101 157.951 51.2347 155.102C48.2637 152.775 44.3132 150.11 43.3637 146.22C42.8124 144.015 43.4863 141.687 44.9871 140.156C45.1709 139.758 45.5073 139.421 46.028 139.206C50.4998 137.307 55.1862 138.747 59.3823 140.585C63.8235 142.514 68.0807 144.873 72.2768 147.292C76.0441 149.467 79.7192 151.795 83.4865 154C84.5892 154.643 85.6614 155.286 86.7947 155.929C87.1622 156.144 87.56 156.359 87.9582 156.573C88.1113 156.665 88.9079 156.91 88.9998 157.155C89.3061 156.511 89.3371 154.888 89.3677 154.49C89.429 153.571 89.3983 152.622 89.3064 151.703C88.8163 147.384 86.9785 143.341 85.2939 139.39C83.5174 135.225 81.8939 130.998 80.4543 126.68C79.0454 122.392 77.8205 118.073 76.7791 113.693C75.799 109.619 74.2678 104.902 75.4623 100.706C76.4118 97.3371 79.2293 94.734 82.8435 94.8565C85.9369 94.979 88.0807 96.786 90.3166 98.5624C90.9292 92.5593 95.0642 86.9851 101.925 87.6589C106.152 88.0571 108.51 91.273 110.042 94.9178C111.849 99.2671 112.951 103.922 114.054 108.517C116.075 117.001 118.525 125.332 121.649 133.51C122.415 135.531 123.181 137.552 124.069 139.543C124.498 140.523 125.203 142.269 126.428 142.453C130.256 143.035 129.307 133.969 129.337 132.009C129.399 127.721 129.613 123.402 129.307 119.114C128.97 114.673 127.653 110.415 126.704 106.066C125.815 101.901 125.601 97.7047 125.631 93.478C125.662 89.8638 125.387 85.6984 128.388 83.1256C130.532 81.2879 133.625 80.8593 136.321 81.5025C139.69 82.3295 142.141 84.8409 143.703 87.8425C147.47 95.0095 146.98 104.076 147.317 111.916C147.5 116.174 147.806 120.401 148.603 124.597C149.46 129.068 150.593 133.509 151.635 137.92C152.891 143.188 154.146 148.487 155.371 153.786C160.915 150.171 164.713 144.168 168.664 138.931C171.605 135.041 174.851 131.396 178.435 128.058C181.804 124.903 185.694 121.105 190.35 120.125C194.086 119.329 197.853 121.381 198.527 125.301C199.14 129.405 196.812 133.418 195.158 136.909Z" fill="white"/>
<path d="M496.481 266.254C487.385 295.167 478.166 324.019 469.008 352.902C466.741 360.038 464.505 367.175 462.208 374.311C460.401 379.916 458.196 385.613 453.908 389.839C444.658 398.905 429.619 395.781 418.041 395.322C410.538 395.016 403.034 394.954 395.53 395.138C388.026 395.322 380.522 395.904 373.018 396.21C366.035 396.455 359.204 396.057 352.436 394.311C346.249 392.719 340.368 390.207 334.763 387.144C323.032 380.743 312.833 372.136 302.634 363.56C297.396 359.18 292.159 354.831 286.646 350.788C281.194 346.806 275.527 343.376 269.555 340.313C264.379 344.142 259.172 347.878 253.843 351.493C234.761 364.571 214.791 376.332 194.117 386.715C193.352 387.113 192.647 386.961 192.126 386.562C185.204 389.595 178.19 392.412 170.993 394.648C155.923 399.273 139.629 401.172 124.315 396.425C111.819 392.535 97.4233 382.121 99.2611 367.328C99.2917 367.021 99.3831 366.776 99.5056 366.531C99.9956 356.822 100.425 347.143 100.762 337.434C101.497 316.607 101.833 295.779 101.833 274.952C101.833 273.543 101.833 272.104 101.833 270.695C103.242 270.511 104.652 270.297 106.06 270.082C108.419 269.745 110.747 269.378 113.105 269.01C133.81 265.611 154.239 260.649 174.178 254.125C175.556 253.666 176.904 253.206 178.282 252.746C178.435 254.186 178.619 255.595 178.803 257.035C179.661 264.11 180.548 271.185 181.467 278.26C182.111 283.283 182.57 287.234 182.907 290.573C200.181 272.165 223.153 247.54 236.752 232.348C260.611 205.64 278.896 194.675 297.855 195.778C300.183 195.931 303.062 196.268 306.432 196.788C307.228 196.911 308.086 197.064 308.943 197.186C310.107 197.401 311.301 197.615 312.527 197.861C313.415 199.331 314.487 201.076 315.559 202.761C317.396 205.609 319.296 208.366 320.521 209.775C324.748 214.737 329.771 219.025 335.223 222.578C357.827 237.31 386.31 237.984 411.885 232.042C425.423 228.887 438.471 223.833 450.631 217.156C451.243 216.819 452.223 216.207 453.356 215.411C455.133 214.216 457.338 212.684 459.115 211.459C460.83 211.613 462.514 211.827 464.107 212.041C464.474 212.103 464.842 212.164 465.21 212.225C464.903 212.409 464.628 212.623 464.291 212.838C469.865 213.604 475.072 216.789 479.881 219.515C484.873 222.332 489.682 225.548 493.541 229.867C495.409 231.98 496.91 234.308 498.013 236.85C499.299 239.76 500.003 242.854 500.157 246.07C500.432 252.961 498.533 259.699 496.481 266.254Z" fill="#EB923F"/>
<path d="M369.924 188.916L368.148 216.176L365.606 215.441C365.33 215.349 337.121 207.201 315.497 202.76C314.425 201.045 313.322 199.33 312.465 197.86C312.986 197.952 313.506 198.074 314.058 198.166C332.404 201.78 356.478 208.457 364.258 210.662L365.697 188.641L369.924 188.916Z" fill="white"/>
<path d="M408.118 173.51C397.551 179.636 386.188 185.363 373.814 186.374C363.094 187.232 351.517 184.199 344.35 175.776C336.57 166.588 334.947 154.03 335.896 142.422C336.417 135.868 337.611 129.344 338.959 122.881C340.184 117.001 341.746 111.151 344.196 105.638C349.005 94.8258 358.929 84.5039 371.609 84.9021C374.304 84.994 374.824 80.7673 372.099 80.706C360.215 80.3385 349.679 87.8728 343.645 97.7046C336.662 109.068 334.15 123.096 332.343 136.113C330.566 149.069 331.026 162.851 338.071 174.276C344.503 184.72 356.05 190.172 368.087 190.693C383.125 191.336 397.092 184.781 409.802 177.431C412.099 176.052 410.476 172.132 408.118 173.51Z" fill="#0C2C3E"/>
<path d="M426.096 163.311C426.004 160.585 421.808 161.228 421.9 163.923C422.574 181.228 422.727 198.533 422.36 215.839C422.299 218.534 426.525 219.054 426.556 216.328C426.923 198.625 426.77 180.953 426.096 163.311Z" fill="white"/>
<path d="M424.565 218.656L423.432 214.552C424.075 214.368 439.389 210.203 457.123 211.306C457.797 211.336 458.44 211.397 459.114 211.459C457.338 212.684 455.132 214.215 453.356 215.41C437.827 215.042 424.718 218.595 424.565 218.656Z" fill="white"/>
<path d="M446.679 133.723C442.881 130.538 437.429 129.681 432.804 131.396C427.077 133.509 423.31 138.961 421.962 144.75C421.686 145.883 422.789 146.955 423.831 147.108C425.086 147.261 425.913 146.342 426.189 145.24C427.904 137.92 436.112 131.61 443.279 136.449C451.059 141.718 445.362 153.203 439.298 157.277C434.888 160.248 429.313 160.922 424.167 159.819C421.502 159.268 421.043 163.464 423.677 164.015C435.102 166.404 447.476 160.064 450.508 148.395C451.855 143.065 451.09 137.399 446.679 133.723Z" fill="#0C2C3E"/>
<path d="M441.105 141.534C440.339 140.646 439.083 140.432 438.134 141.167C434.581 143.862 431.028 146.527 427.444 149.222C426.556 149.896 426.342 151.335 427.077 152.193C427.843 153.081 429.099 153.296 430.048 152.561C433.601 149.865 437.154 147.201 440.737 144.505C441.626 143.862 441.84 142.423 441.105 141.534Z" fill="#0C2C3E"/>
<path d="M428.241 132.836C407.628 118.747 390.782 100.186 374.151 81.7786C372.344 79.7571 368.975 82.3604 370.812 84.3819C387.689 103.065 404.81 121.933 425.729 136.236C427.965 137.767 430.507 134.368 428.241 132.836Z" fill="#0C2C3E"/>
<path d="M373.844 113.876C371.608 104.32 362.573 96.7242 352.496 99.542C351.394 99.8483 350.965 101.349 351.363 102.329C351.853 103.493 353.048 103.769 354.15 103.463C357.826 102.452 361.746 103.83 364.625 106.158C367.841 108.761 369.556 112.713 370.046 116.756C371.272 126.281 366.279 135.133 361.716 143.127C360.368 145.454 363.767 148.027 365.115 145.669C370.597 136.082 376.509 125.27 373.844 113.876Z" fill="#0C2C3E"/>
<path d="M365.024 122.024C364.871 120.86 363.737 120.094 362.635 120.217C361.134 120.4 359.694 121.319 358.837 122.544C358.776 122.667 358.714 122.759 358.653 122.882C358.285 123.127 357.979 123.433 357.734 123.8C357.397 124.352 357.121 124.964 357.121 125.607C357.091 126.404 357.274 127.2 357.764 127.844C358.316 128.548 359.081 128.915 359.939 129.099C360.613 129.252 361.318 129.099 361.992 128.915C363.247 128.517 364.227 127.476 364.717 126.281C365.269 124.964 365.177 123.464 365.024 122.024Z" fill="#0C2C3E"/>
<path d="M403.064 126.128C402.972 125.454 402.573 124.902 401.991 124.596C401.746 124.443 401.501 124.351 401.195 124.321C400.828 124.29 400.46 124.32 400.124 124.474C398.929 124.81 397.826 125.699 397.091 126.679C396.785 127.077 396.54 127.567 396.356 128.027C396.234 128.241 396.111 128.486 396.019 128.731C395.652 129.65 395.498 130.783 395.774 131.732C395.835 132.1 395.958 132.437 396.203 132.743C396.387 132.988 396.601 133.172 396.846 133.295C397.459 133.631 398.041 133.632 398.684 133.417C401.624 132.376 403.431 129.16 403.064 126.128Z" fill="#0C2C3E"/>
<path d="M383.769 149.682C376.847 149.712 369.955 150.079 363.094 150.845C361.777 150.508 360.093 151.366 360.369 153.112C361.288 159.207 367.138 163.617 373.202 163.311C379.42 163.005 384.351 157.859 385.637 152.009C385.882 150.998 384.841 149.682 383.769 149.682ZM372.895 159.115C369.863 159.299 366.862 157.492 365.392 154.858C370.415 154.337 375.468 154.031 380.491 153.939C379.021 156.787 376.111 158.931 372.895 159.115Z" fill="#0C2C3E"/>
<path d="M89.949 421.877C80.6379 432.566 84.7113 444.021 90.5307 452.444C96.3501 460.867 240.917 508.218 251.422 511.251C261.928 514.314 274.148 515.845 291.637 500.561C309.126 485.278 345.267 456.242 355.16 446.318C365.084 436.395 363.89 422.643 348.759 418.048C336.6 414.373 209.033 360.069 195.801 354.249C184.162 349.134 169.491 352.902 161.068 358.476C153.258 363.683 99.2906 411.188 89.949 421.877Z" fill="#0C2C3E"/>
<path d="M287.871 489.595C287.809 489.136 287.657 488.738 287.442 488.37C287.197 488.003 286.891 487.727 286.523 487.543C285.972 487.39 285.604 487.268 285.022 487.36C284.685 487.39 284.348 487.513 284.042 487.696C283.429 488.064 282.817 488.615 282.48 489.319C282.388 489.473 282.327 489.656 282.266 489.81C282.174 489.932 282.113 490.055 282.021 490.177C281.316 491.494 281.01 493.148 281.102 494.71C281.102 494.802 281.133 494.925 281.163 495.017C281.163 495.2 281.163 495.353 281.163 495.537C281.224 495.752 281.255 495.966 281.316 496.18C281.408 496.517 281.592 496.793 281.806 497.007C281.929 497.16 282.082 497.283 282.266 497.405C282.879 497.987 283.644 498.263 284.41 498.08C285.359 497.865 286.064 497.099 286.615 496.18C286.952 495.598 287.258 494.955 287.473 494.281C287.902 492.811 288.054 491.157 287.871 489.595Z" fill="#EB923F"/>
<path d="M301.654 479.335C301.439 478.937 301.225 478.57 300.888 478.294C300.245 477.773 299.448 477.529 298.683 477.682C298.376 477.743 298.101 477.835 297.825 477.988C297.611 478.11 297.396 478.264 297.213 478.417C296.6 479.06 296.386 479.428 296.11 480.071C296.018 480.285 295.957 480.53 295.896 480.775C295.498 481.449 295.253 482.245 295.13 483.072C295.008 483.991 295.13 484.941 295.375 485.829C295.467 486.013 295.559 486.227 295.65 486.411C295.834 486.717 296.049 486.931 296.324 487.054C296.477 487.207 296.662 487.268 296.845 487.299C297.121 487.422 297.397 487.422 297.672 487.36C298.591 487.146 299.51 486.686 300.214 485.89C300.582 485.492 300.919 485.063 301.194 484.573C301.439 484.114 301.684 483.593 301.807 483.072C301.991 482.276 302.113 481.571 302.021 480.714C302.021 480.193 301.868 479.764 301.654 479.335Z" fill="#EB923F"/>
<path d="M327.717 454.158C320.948 460.039 314.211 465.981 307.503 472.015C305.635 473.669 307.166 476.762 309.004 476.64C309.463 476.854 310.015 476.854 310.596 476.64C314.884 475.047 317.733 470.667 321.347 467.819C324.808 465.093 331.117 462.397 331.209 456.486C331.271 454.311 329.341 452.749 327.717 454.158Z" fill="#EB923F"/>
<path d="M347.596 439.059C346.248 438.324 344.931 439.059 343.798 440.039C342.971 440.743 342.174 441.478 341.378 442.213C339.54 443.929 337.734 445.705 335.988 447.543C335.743 447.819 335.528 448.156 335.375 448.492C334.334 449.074 333.538 450.667 334.12 451.923C334.579 452.903 335.161 453.577 336.141 453.76C336.753 453.883 337.458 453.699 337.979 453.362C338.959 452.719 339.877 451.831 340.796 451.065C342.542 449.595 344.257 448.094 346.003 446.624C346.891 445.889 347.994 445.154 348.668 444.143C349.863 442.397 349.219 439.947 347.596 439.059Z" fill="#EB923F"/>
<path d="M228.175 394.158C226.062 391.463 238.619 381.386 241.437 381.601C244.255 381.815 292.495 398.814 292.801 400.958C293.108 403.071 282.357 414.036 279.539 414.097C276.721 414.189 230.288 396.823 228.175 394.158Z" fill="#EB923F"/>
<path d="M111.021 429.379C127.224 436.363 242.112 476.578 251.668 480.927C261.254 485.307 270.994 485.307 281.132 476.547C292.648 466.593 306.707 455.138 314.272 448.584C323.43 440.62 323.675 434.862 303.215 429.349C291.515 426.194 173.626 382.15 169.185 382.15C164.774 382.15 118.372 413.606 113.962 417.097C109.551 420.65 111.021 429.379 111.021 429.379Z" fill="#20485F"/>
<path d="M439.512 452.197C437.98 447.879 436.817 443.438 436.112 438.905C435.377 434.28 435.346 429.655 435.071 424.999C434.795 420.405 433.539 416.117 432.1 411.737C430.599 407.204 429.098 402.671 427.628 398.138C426.097 393.483 424.535 388.858 423.034 384.202C421.778 380.404 420.676 376.698 416.173 375.963C412.345 375.35 408.087 376.576 404.32 377.066C399.511 377.709 394.703 378.322 389.894 378.842C383.738 379.547 377.55 380.098 371.394 380.619C360.919 378.812 350.261 378.812 339.633 379.241C339.449 378.873 339.143 378.505 338.683 378.26C336.355 377.035 334.855 374.708 333.231 372.747C331.424 370.573 329.311 368.674 327.075 366.928C324.9 365.182 322.604 363.497 320.613 361.507C318.622 359.485 316.876 357.249 314.762 355.35C312.588 353.359 310.045 351.828 307.687 350.082C307.503 349.96 307.35 349.807 307.166 349.684C306.799 349.316 306.401 348.949 306.033 348.551C301.378 343.926 296.722 339.27 291.393 335.411C291.025 335.166 290.658 334.921 290.321 334.676C290.229 334.492 290.137 334.278 289.954 334.094C287.932 331.889 284.992 330.296 282.051 329.714C281.837 329.684 281.653 329.683 281.469 329.653C278.897 328.458 276.232 327.417 273.536 326.498C273.199 326.376 272.893 326.284 272.556 326.162C267.502 324.079 262.296 322.394 256.844 321.812C254.486 321.567 252.127 321.506 249.769 321.567C247.625 321.537 245.48 321.659 243.367 322.026C239.293 322.486 234.424 322.486 231.086 324.814C228.299 326.774 226.797 330.112 225.817 333.267C225.633 333.849 225.48 334.462 225.358 335.105C224.715 336.636 224.225 338.229 224.01 339.944C223.857 341.047 224.745 342.211 225.878 342.302C226.705 342.364 227.502 342.364 228.298 342.333C231.973 343.773 236.629 342.456 240.182 341.598C244.501 340.557 248.605 338.842 253.046 338.352C259.784 337.586 265.848 339.761 271.729 342.609C271.943 342.854 272.158 343.099 272.342 343.375C272.526 343.62 272.74 343.803 272.955 343.956C272.373 344.569 271.454 345.151 270.627 345.641C269.279 346.009 267.962 346.499 266.737 347.142C261.99 349.623 259.172 353.972 256.691 358.566C254.087 363.314 251.943 368.306 250.258 373.452C249.707 375.167 249.156 376.974 248.758 378.781C248.145 380.006 247.655 381.293 247.349 382.64C246.614 385.979 247.257 389.899 249.646 392.441C250.044 392.87 250.565 393.146 251.085 393.207C251.085 393.36 251.085 393.544 251.055 393.697C250.871 394.738 252.127 394.402 253.291 394.126C255.252 395.32 257.548 395.78 259.876 395.198C259.784 395.627 259.692 396.056 259.662 396.484C259.202 398.383 259.539 400.006 260.489 401.324C262.051 404.417 265.481 405.796 268.911 404.662C269.983 404.325 270.933 403.774 271.79 403.131C272.985 402.549 274.026 401.66 274.792 400.466C274.976 400.19 275.068 399.915 275.129 399.639C275.864 399.088 276.568 398.444 277.212 397.801C277.916 397.771 278.559 397.373 278.866 396.484C278.988 396.147 279.111 395.841 279.234 395.504C280.581 393.728 281.745 391.768 282.602 389.716C283.827 386.867 284.777 383.345 287.135 381.201C287.778 381.599 288.636 381.66 289.432 381.047C290.657 380.159 292.036 379.577 293.506 379.241C293.751 379.424 293.996 379.577 294.333 379.639C298.744 380.741 302.695 383.13 305.819 386.377C302.205 388.46 298.713 390.726 295.435 393.268C291.27 395.596 287.411 398.445 284.41 402.212C282.051 405.183 280.305 408.613 279.447 412.289C279.356 412.748 279.234 413.299 279.142 413.912C279.08 414.096 278.958 414.31 278.896 414.494C278.59 415.351 278.253 416.301 277.947 417.251C277.395 418.476 277.059 419.793 277.304 421.079C277.395 424.969 281.224 426.408 284.563 425.704C285.543 425.52 286.492 425.183 287.442 424.754C288.054 424.999 288.758 424.969 289.402 424.417C290.994 423.07 292.587 421.722 294.18 420.405C294.302 420.282 294.456 420.191 294.609 420.068C297.611 417.679 300.398 415.045 303.43 412.717C304.9 411.584 306.462 410.543 308.116 409.685C309.709 409.593 311.056 409.532 312.404 409.317C312.863 409.961 313.292 410.604 313.721 411.247C314.763 413.514 315.834 415.75 316.998 417.986C316.416 418.659 316.232 419.639 316.967 420.528C318.713 422.58 319.234 425.122 319.847 427.664C320.46 430.267 321.225 432.748 322.695 435.045C325.421 439.333 330.015 442.304 334.763 443.897C340.705 445.888 347.014 446.041 353.232 446.286C355.161 446.348 357.06 446.439 358.989 446.5C362.205 450.268 367.382 449.502 371.885 449.717C375.009 449.9 377.949 450.942 380.951 451.738C384.044 452.565 387.076 452.963 390.262 452.902C396.541 452.841 402.788 452.504 409.098 452.534C412.375 455.597 417.215 455.413 421.411 455.444C426.893 455.475 432.375 455.322 437.858 454.985C439.328 455.015 439.941 453.392 439.512 452.197Z" fill="white"/>
<path d="M323.001 407.174C316.783 403.713 309.709 405.735 304.318 409.87C298.744 414.158 294.639 420.59 288.024 423.408C285.39 424.51 281.01 425.46 279.111 422.58C277.12 419.548 278.712 415.689 280.121 412.779C282.908 407.052 286.921 401.814 291.668 397.557C294.333 395.168 297.212 393.024 300.275 391.248C301.898 390.298 303.583 389.471 305.298 388.705C306.707 388.093 309.433 386.5 310.995 386.99C313.568 387.817 315.13 383.897 312.526 383.039C308.943 381.875 304.869 384.142 301.714 385.704C298.498 387.266 295.436 389.165 292.587 391.309C286.829 395.658 281.837 401.171 278.223 407.419C274.945 413.055 270.749 422.641 277.947 427.266C284.685 431.585 293.353 426.011 298.223 421.417C301.562 418.292 304.563 414.709 308.392 412.167C311.792 409.931 316.692 408.461 320.49 410.574C321.501 411.125 322.695 411.156 323.461 410.145C324.073 409.318 324.012 407.726 323.001 407.174Z" fill="#0C2C3E"/>
<path d="M265.42 382.488C268.299 374.708 272.158 364.693 280.121 360.803C287.534 357.189 297.243 359.027 302.572 365.397C304.318 367.48 307.657 364.907 305.911 362.794C300.612 356.393 291.761 353.513 283.675 355.167C273.843 357.158 268.299 365.397 264.348 373.973C262.02 379.058 260.121 384.295 258.682 389.686C257.456 394.28 255.068 400.253 258.804 404.234C261.653 407.266 266.033 408.063 269.984 407.144C274.364 406.102 277.794 403.346 280.336 399.732C283.491 395.29 284.961 389.87 288.146 385.459C289.678 383.315 291.822 381.753 294.579 382.304C297.519 382.886 300 385.061 302.175 386.96C304.227 388.736 306.768 385.337 304.716 383.56C301.316 380.589 297.09 377.434 292.282 377.985C288.024 378.476 285.175 381.906 283.215 385.428C279.54 392.044 276.844 402.059 268.023 403.193C266.369 403.407 264.593 403.224 263.123 402.366C261.01 401.11 260.826 399.364 261.255 397.098C262.204 392.136 263.675 387.235 265.42 382.488Z" fill="#0C2C3E"/>
<path d="M296.876 347.663C286.921 339.577 272.311 339.485 262.357 347.693C257.089 352.043 254.057 358.291 251.453 364.508C250.014 367.908 248.758 371.369 247.471 374.83C246.308 378.046 245.174 381.385 245.144 384.815C245.113 391.86 250.412 398.108 257.886 396.546C260.55 395.995 259.968 391.799 257.272 392.35C251.269 393.606 248.788 387.909 249.523 382.855C249.952 379.976 251.086 377.25 252.096 374.524C253.138 371.676 254.21 368.858 255.374 366.071C257.518 360.986 259.906 355.565 264.103 351.798C267.809 348.459 272.464 346.346 277.426 345.825C283.521 345.213 289.586 347.234 294.303 351.063C296.477 352.778 298.989 349.378 296.876 347.663Z" fill="#0C2C3E"/>
<path d="M334.855 378.414L299.908 345.305C295.161 340.803 290.474 335.933 284.838 332.533C279.448 329.256 273.2 327.663 267.074 326.468C264.716 325.978 262.235 325.488 259.754 325.059C258.314 324.814 256.875 324.6 255.405 324.386C248.115 323.436 240.642 323.436 234.057 326.438C229.677 328.429 223.949 332.992 225.389 338.505C227.043 344.876 235.221 341.599 239.386 340.343C245.42 338.536 252.158 336.913 258.621 337.127C260.244 337.188 261.898 337.372 263.49 337.709C267.196 338.475 270.719 340.067 273.843 342.824C275.865 344.631 273.322 348.031 271.301 346.224C265.879 341.415 258.468 340.68 251.546 341.721C247.441 342.334 243.429 343.528 239.478 344.723C236.262 345.703 232.954 346.805 229.584 346.53C223.642 346.009 219.998 340.343 221.223 334.677C222.479 328.735 227.839 324.508 233.199 322.242C240.09 319.332 247.717 319.24 255.221 320.128C256.63 320.281 258.038 320.496 259.447 320.71C262.632 321.231 265.787 321.874 268.82 322.517C275.527 323.926 282.112 325.795 287.932 329.501C293.904 333.299 298.866 338.567 303.981 343.406C315.13 353.942 326.279 364.509 337.397 375.045C339.357 376.883 336.815 380.282 334.855 378.414Z" fill="#0C2C3E"/>
<path d="M199.048 131.518C198.313 136.663 196.016 141.38 193.536 145.882C188.237 155.438 182.999 164.964 179.599 175.378C176.138 186.098 174.913 197.369 174.852 208.61C174.791 219.973 175.893 231.336 177.118 242.638C177.486 246.007 177.854 249.345 178.252 252.714C176.904 253.174 175.526 253.634 174.147 254.093C173.535 249.07 172.983 244.077 172.463 239.054C171.36 228.242 170.472 217.369 170.655 206.496C170.839 195.776 172.156 185.056 175.372 174.796C178.496 164.75 183.336 155.408 188.512 146.281C190.901 142.054 193.443 137.613 194.515 132.835C195.403 128.945 195.894 121.992 190.135 122.513C180.763 123.37 175.219 133.233 170.931 140.4C168.45 144.535 165.908 148.608 162.478 152.008C160.364 154.121 158.006 155.868 155.617 157.644C154.3 158.593 152.983 159.543 151.727 160.554C151.39 160.768 151.084 161.044 150.778 161.289C143.243 167.445 138.924 176.266 134.79 184.873C133.595 187.323 129.675 185.792 130.838 183.341C131.91 181.136 132.952 178.931 134.085 176.756C136.352 172.346 138.833 168.027 141.988 164.168C144.652 160.921 147.746 158.287 151.053 155.806C151.758 155.255 152.493 154.704 153.228 154.183C153.81 153.754 154.423 153.295 154.974 152.866C158.435 150.17 161.498 147.23 164.04 143.524C166.919 139.328 169.217 134.764 172.126 130.599C174.791 126.831 178.007 123.34 182.019 120.981C185.756 118.807 191.207 116.969 195.25 119.358C199.293 121.717 199.63 127.291 199.048 131.518Z" fill="#0C2C3E"/>
<path d="M155.616 157.614C154.299 158.564 152.982 159.513 151.727 160.524C151.482 158.931 151.267 157.338 151.022 155.746C150.103 149.069 149.216 142.422 148.358 135.745C146.857 123.8 145.601 111.855 144.284 99.9101C143.763 95.1934 143.059 89.6496 139.567 86.0967C137.209 83.7383 132.768 82.2984 129.766 84.228C125.754 86.8008 127.285 94.0904 127.53 98.0108C127.898 103.953 128.51 109.895 129.306 115.806C130.041 121.227 131.42 126.679 131.818 132.162C132.124 136.419 131.451 140.768 127.959 143.617C125.846 145.332 123.243 141.993 125.356 140.278C129.521 136.909 127.224 129.65 126.458 125.301C125.264 118.287 124.345 111.212 123.733 104.137C123.457 100.921 123.212 97.7355 123.059 94.5195C122.936 91.9773 122.783 89.3433 123.365 86.8624C124.437 82.2375 128.112 79.2665 132.829 79.2053C137.086 79.144 141.252 81.2571 143.794 84.6569C146.949 88.8836 147.898 94.2131 148.449 99.328C150.44 117.184 152.523 135.041 154.912 152.836C155.157 154.398 155.371 156.021 155.616 157.614Z" fill="#0C2C3E"/>
<path d="M127.346 141.106C123.732 132.744 121.098 124.015 118.403 115.317C115.769 106.925 113.257 98.0732 109.03 90.3242C107.315 87.1694 104.773 84.1678 100.975 83.8003C97.1768 83.4327 93.594 85.7603 91.7257 88.9457C87.162 96.7865 90.8061 106.741 93.3483 114.612L103.487 146.068C104.313 148.671 108.234 146.987 107.376 144.414C104.681 136.052 101.986 127.66 99.2908 119.299C97.9738 115.225 96.5648 111.182 95.4009 107.078C94.2983 103.157 93.4401 98.992 94.0527 94.9184C94.5121 91.825 96.4117 88.1189 99.9952 87.9964C103.395 87.8739 105.11 91.8248 106.304 94.3976C109.643 101.687 112.093 109.344 114.513 116.971C117.239 125.639 119.873 134.368 123.456 142.76C124.498 145.241 128.418 143.587 127.346 141.106Z" fill="#0C2C3E"/>
<path d="M89.8578 101.442C90.9604 103.953 94.8503 102.299 93.7477 99.7874C91.8181 95.3769 87.3772 92.4671 82.5379 92.7734C77.3311 93.1103 73.257 97.0308 72.0932 101.993C70.7761 107.659 72.5221 113.57 74.4823 118.869C76.6875 124.78 79.0459 130.661 81.3124 136.542C83.8239 143.035 86.5808 149.497 87.7753 156.358C88.2347 159.053 92.4304 158.441 91.971 155.746C90.8684 149.191 88.3876 143.004 85.9986 136.817C83.5483 130.477 81.0371 124.168 78.6481 117.797C76.7185 112.651 73.8697 104.872 77.5758 99.8488C80.853 95.377 87.6832 96.4797 89.8578 101.442Z" fill="#0C2C3E"/>
<path d="M90.1947 156.145C83.0583 151.857 75.9211 147.569 68.7847 143.25C65.3849 141.198 62.0469 139.054 58.5553 137.186C55.6149 135.624 52.276 134.307 48.9069 134.613C42.5668 135.164 39.4429 141.504 40.76 147.293C42.2607 153.848 48.1413 157.431 53.6544 160.433C61.3115 164.629 68.6628 169.345 75.5849 174.705C77.7289 176.359 80.2705 172.99 78.1265 171.306C72.7665 167.171 67.1922 163.373 61.3728 159.943C56.3804 157.002 50.0408 154.675 46.5185 149.866C44.007 146.497 43.6695 139.605 49.0295 138.84C51.9698 138.411 55.094 140.003 57.5749 141.412C60.6072 143.128 63.5779 145.027 66.5795 146.834C73.6241 151.06 80.6691 155.318 87.7136 159.545C89.9801 160.953 92.5225 157.554 90.1947 156.145Z" fill="#0C2C3E"/>
<path d="M105.569 227.538C97.7282 220.984 93.7469 211.214 90.6534 201.749C87.2537 191.274 84.5584 180.524 78.4327 171.243C76.9319 168.977 73.5931 171.58 75.0939 173.846C86.9165 191.733 85.6918 216.42 103.058 230.969C105.141 232.684 107.652 229.284 105.569 227.538Z" fill="#0C2C3E"/>
<path d="M106.029 270.051C104.62 270.265 103.211 270.449 101.802 270.663C101.772 256.819 101.557 242.944 101.22 229.07C101.159 226.344 105.386 225.946 105.448 228.672C105.693 238.963 105.876 249.284 105.999 259.576C105.999 263.067 106.029 266.559 106.029 270.051Z" fill="#0C2C3E"/>
<path d="M284.286 272.012C275.374 280.098 267.41 289.746 262.969 301.048C260.519 307.296 259.233 314.034 259.417 320.681C258.008 320.466 256.598 320.252 255.189 320.098C255.189 319.608 255.189 319.149 255.189 318.659C255.373 306.346 260.12 294.616 267.196 284.692C270.779 279.669 274.914 275.105 279.355 270.848C280.488 269.776 281.653 268.704 282.816 267.662C283.643 266.927 285.726 265.672 285.757 264.6C285.787 263.773 285.052 262.793 284.715 262.058C284.317 261.231 283.95 260.404 283.551 259.546C282.816 257.984 282.081 256.422 281.377 254.829C280.213 252.348 284.134 250.725 285.297 253.175C286.155 255.044 287.043 256.912 287.9 258.811C288.697 260.526 289.891 262.394 290.106 264.293C290.412 267.785 286.492 269.99 284.286 272.012Z" fill="white"/>
<path d="M553.756 425.827C538.901 452.658 502.729 456.946 466.955 459.029C463.708 459.213 459.972 459.304 455.776 459.304C451.61 459.304 446.955 459.213 441.87 459.029C441.656 459.029 441.411 459.029 441.166 458.998C439.91 458.968 438.685 458.906 437.491 458.845C437.123 457.436 436.755 455.996 436.388 454.526C430.14 429.932 424.32 401.018 415.254 378.384C414.703 377.006 414.121 375.628 413.539 374.28C415.04 374.188 416.541 374.066 418.041 373.943C430.354 372.963 442.636 371.676 454.887 370.114C448.976 348.644 443.065 327.173 437.153 305.733C436.97 305.55 436.786 305.335 436.664 305.06C432.682 296.851 431.028 287.785 431.181 278.719C431.487 262.7 437.797 247.478 446.618 234.338C448.793 231.092 451.151 227.937 453.601 224.905C455.929 222.056 458.257 218.932 461.166 216.635C463.647 214.706 466.434 213.909 469.344 214.216C467.69 213.603 466.036 213.113 464.291 212.868C464.597 212.653 464.903 212.47 465.21 212.255C470.968 213.174 476.297 214.706 481.075 216.85C504.322 227.263 512.928 254.461 522.913 285.917C526.742 297.954 530.663 310.419 535.716 322.885L538.473 329.685C555.288 371.094 567.447 401.049 553.756 425.827Z" fill="#EB923F"/>
<path d="M415.224 378.384C388.853 380.374 362.39 381.079 335.988 380.467C333.262 380.405 333.783 376.209 336.478 376.27C347.382 376.515 358.285 376.576 369.22 376.362C384.013 376.086 398.776 375.382 413.539 374.28C414.09 375.627 414.672 377.005 415.224 378.384Z" fill="#0C2C3E"/>
<path d="M437.49 458.844C437.245 458.844 436.97 458.813 436.725 458.813C396.877 456.945 332.22 449.41 325.574 442.304C321.899 438.323 318.529 430.451 315.558 423.468C313.629 418.935 309.953 411.584 308.667 410.635C308.79 410.665 309.709 407.755 309.709 407.755C313.078 407.235 315.13 411.707 319.448 421.814C322.297 428.461 325.513 435.995 328.698 439.426C333.292 444.326 390.506 452.351 436.388 454.556C436.755 455.995 437.123 457.435 437.49 458.844Z" fill="#0C2C3E"/>
<path d="M481.381 372.013C476.665 372.411 471.978 372.84 467.292 373.269C465.791 373.422 464.291 373.544 462.79 373.697C447.476 375.137 432.131 376.791 416.847 378.567C414.121 378.874 413.539 374.678 416.235 374.371C431.12 372.626 446.005 371.063 460.89 369.624C462.361 369.471 463.862 369.348 465.363 369.195C470.478 368.705 475.623 368.246 480.768 367.817C483.494 367.572 484.107 371.768 481.381 372.013Z" fill="white"/>
<path d="M467.293 373.269C465.792 373.422 464.291 373.545 462.791 373.698C462.147 372.35 461.534 370.972 460.891 369.624C460.095 367.97 459.298 366.286 458.533 364.601C448.977 343.866 440.279 322.702 432.377 301.292C431.458 298.75 435.348 297.066 436.297 299.638C438.533 305.703 440.83 311.767 443.189 317.801C450.019 335.167 457.4 352.319 465.333 369.195C466.007 370.543 466.65 371.922 467.293 373.269Z" fill="white"/>
<path d="M187.073 290.144C186.705 287.448 182.509 288.03 182.876 290.756C184.928 305.58 186.491 320.465 187.532 335.381C187.716 338.107 191.912 337.495 191.728 334.769C190.687 319.853 189.125 304.968 187.073 290.144Z" fill="white"/>
<path d="M349.066 102.819C337.856 102.819 328.76 111.916 328.76 123.126C328.76 134.336 337.856 143.433 349.066 143.433C360.276 143.433 369.373 134.336 369.373 123.126C369.373 111.916 360.276 102.819 349.066 102.819ZM349.066 139.206C340.184 139.206 332.986 131.978 332.986 123.126C332.986 114.244 340.214 107.046 349.066 107.046C357.948 107.046 365.146 114.275 365.146 123.126C365.177 131.978 357.948 139.206 349.066 139.206Z" fill="#EB923F"/>
<path d="M397.612 111.365C386.402 111.365 377.306 120.462 377.306 131.672C377.306 142.882 386.402 151.978 397.612 151.978C408.822 151.978 417.919 142.882 417.919 131.672C417.919 120.492 408.791 111.365 397.612 111.365ZM397.612 147.751C388.73 147.751 381.532 140.523 381.532 131.672C381.532 122.789 388.76 115.592 397.612 115.592C406.494 115.592 413.692 122.82 413.692 131.672C413.692 140.554 406.464 147.751 397.612 147.751Z" fill="#EB923F"/>
<path d="M381.195 129.62C379.511 127.507 377.49 125.669 375.009 124.566C372.406 123.402 369.312 123.28 366.708 124.444C365.698 124.903 365.085 126.159 365.575 127.231C366.065 128.242 367.26 128.854 368.362 128.364C368.577 128.272 368.791 128.18 369.036 128.089C369.036 128.089 369.527 127.966 369.588 127.966C369.864 127.905 370.109 127.905 370.384 127.874C370.629 127.874 370.721 127.874 370.843 127.874C371.119 127.905 371.395 127.935 371.64 127.966C371.701 127.966 372.099 128.058 372.191 128.089C372.681 128.242 373.171 128.395 373.63 128.609C373.692 128.64 374.09 128.854 374.121 128.854C374.305 128.977 374.488 129.069 374.672 129.191C375.101 129.497 375.529 129.804 375.927 130.141C376.081 130.294 376.265 130.447 376.418 130.569C376.449 130.6 376.755 130.937 376.816 130.967C377.183 131.366 377.521 131.764 377.857 132.162C378.562 133.02 379.94 133.295 380.828 132.529C381.686 131.886 381.931 130.569 381.195 129.62Z" fill="#EB923F"/>
<path fill-rule="evenodd" clip-rule="evenodd" d="M580.341 82.0237C584.599 82.6363 588.305 84.7804 590.296 88.6702C592.103 92.1619 592.195 96.3581 591.827 100.279C591.545 103.792 590.971 107.305 590.4 110.808C590.164 112.252 589.928 113.694 589.714 115.133C589.329 117.654 588.951 120.174 588.574 122.691C588.14 125.589 587.706 128.482 587.263 131.366C586.62 135.654 585.671 140.218 582.547 143.434C579.331 146.742 574.706 147.569 570.296 148.059C564.783 148.641 559.238 149.039 553.695 149.284C543.104 149.745 532.486 149.583 521.918 148.799C521.351 149.411 520.625 149.915 519.915 150.408C519.588 150.635 519.265 150.859 518.963 151.09C517.931 151.889 516.887 152.674 515.838 153.464C515.237 153.916 514.634 154.369 514.031 154.827C512.331 156.098 510.639 157.377 508.947 158.655C507.255 159.934 505.562 161.213 503.862 162.484C503.51 162.751 503.157 163.018 502.803 163.286C496.874 167.779 490.886 172.316 483.862 174.889C482.3 175.471 480.217 173.909 481.075 172.163C485.44 163.433 490.278 154.978 495.612 146.819C492.42 147.641 489.071 148.051 485.884 147.293C481.136 146.16 478.502 142.301 478.043 137.553C477.514 132.155 477.693 126.606 477.868 121.18C477.886 120.633 477.903 120.088 477.92 119.544C478.134 113.326 478.563 107.109 479.298 100.952C479.788 96.8174 480.646 92.3763 483.831 89.4359C487.01 86.5129 491.477 86.2192 495.6 85.9482C495.927 85.9268 496.251 85.9054 496.573 85.8829C507.997 85.1172 519.422 84.413 530.846 83.8004C542.056 83.1878 553.235 82.6671 564.445 82.2077C565.763 82.1534 567.099 82.0659 568.445 81.9777C572.42 81.7173 576.475 81.4517 580.341 82.0237ZM500.413 143.913C501.123 144.578 501.456 145.673 500.769 146.71C496.052 153.724 491.734 160.983 487.782 168.457C492.114 166.089 496.091 163.095 500.048 160.117C500.288 159.936 500.529 159.755 500.769 159.575C502.377 158.365 503.977 157.155 505.578 155.945C507.178 154.735 508.779 153.525 510.387 152.316C510.683 152.09 510.98 151.864 511.279 151.637C512.523 150.691 513.782 149.732 515.042 148.793C515.489 148.452 515.957 148.116 516.431 147.777C516.978 147.385 517.531 146.989 518.067 146.572C518.108 145.495 518.872 144.407 520.228 144.437C520.635 144.353 521.059 144.38 521.485 144.533C532.45 145.377 543.469 145.56 554.46 145.027C559.912 144.782 565.364 144.383 570.786 143.74C575.502 143.158 579.699 141.841 581.567 137.063C582.697 134.143 583.121 130.898 583.536 127.73C583.66 126.777 583.784 125.831 583.925 124.904C584.308 122.407 584.683 119.903 585.059 117.4C585.434 114.896 585.809 112.392 586.192 109.896C586.319 109.071 586.455 108.243 586.591 107.414L586.591 107.413C587.142 104.055 587.699 100.666 587.723 97.2766C587.723 94.1525 587.203 90.5999 584.752 88.3947C581.855 85.7789 577.434 85.9783 573.695 86.1469C573.362 86.1619 573.035 86.1766 572.715 86.1891C567.798 86.3647 562.91 86.5685 557.996 86.7733L557.309 86.8019C547.263 87.2614 537.217 87.7514 527.201 88.3027C517.063 88.854 506.926 89.4665 496.788 90.171C496.37 90.1986 495.938 90.2211 495.497 90.2441C492.016 90.4258 487.935 90.6387 485.761 93.6014C483.749 96.3358 483.453 100.243 483.19 103.714C483.141 104.364 483.093 104.999 483.035 105.608C482.085 115.44 481.688 125.394 482.116 135.256C482.3 138.931 483.127 142.515 487.231 143.281C490.6 143.893 494.245 142.944 497.461 141.872C499.063 141.338 500.32 142.644 500.413 143.913Z" fill="#3FEB5B"/>
<path d="M500.769 146.71C501.456 145.673 501.123 144.578 500.413 143.913C500.32 142.644 499.063 141.338 497.461 141.872C494.245 142.944 490.6 143.893 487.231 143.281C483.127 142.515 482.3 138.931 482.116 135.256C481.688 125.394 482.085 115.44 483.035 105.608C483.093 104.999 483.141 104.364 483.19 103.714C483.453 100.243 483.749 96.3358 485.761 93.6014C487.935 90.6387 492.016 90.4258 495.497 90.2441C495.938 90.2211 496.37 90.1986 496.788 90.171C506.926 89.4665 517.063 88.854 527.201 88.3027C537.217 87.7514 547.263 87.2614 557.309 86.8019L557.996 86.7733C562.91 86.5685 567.798 86.3647 572.715 86.1891C573.035 86.1766 573.362 86.1619 573.695 86.1469C577.434 85.9783 581.855 85.7789 584.752 88.3947C587.203 90.5999 587.723 94.1525 587.723 97.2766C587.699 100.666 587.142 104.055 586.591 107.413L586.591 107.414C586.455 108.243 586.319 109.071 586.192 109.896C585.809 112.392 585.434 114.896 585.059 117.4C584.683 119.903 584.308 122.407 583.925 124.904C583.784 125.831 583.66 126.777 583.536 127.73C583.121 130.898 582.697 134.143 581.567 137.063C579.699 141.841 575.502 143.158 570.786 143.74C565.364 144.383 559.912 144.782 554.46 145.027C543.469 145.56 532.45 145.377 521.485 144.533C521.059 144.38 520.635 144.353 520.228 144.437C518.872 144.407 518.108 145.495 518.067 146.572C517.531 146.989 516.978 147.385 516.431 147.777C515.957 148.116 515.489 148.452 515.042 148.793C513.782 149.732 512.523 150.691 511.279 151.637C510.98 151.864 510.683 152.09 510.387 152.316C508.779 153.525 507.178 154.735 505.578 155.945C503.977 157.155 502.377 158.365 500.769 159.575C500.529 159.755 500.288 159.936 500.048 160.117C496.091 163.095 492.114 166.089 487.782 168.457C491.734 160.983 496.052 153.724 500.769 146.71Z" fill="white"/>
<path fill-rule="evenodd" clip-rule="evenodd" d="M580.341 82.0237C584.599 82.6363 588.305 84.7804 590.296 88.6702C592.103 92.1619 592.195 96.3581 591.827 100.279C591.545 103.792 590.971 107.305 590.4 110.808C590.164 112.252 589.928 113.694 589.714 115.133C589.329 117.654 588.951 120.174 588.574 122.691C588.14 125.589 587.706 128.482 587.263 131.366C586.62 135.654 585.671 140.218 582.547 143.434C579.331 146.742 574.706 147.569 570.296 148.059C564.783 148.641 559.238 149.039 553.695 149.284C543.104 149.745 532.486 149.583 521.918 148.799C521.351 149.411 520.625 149.915 519.915 150.408C519.588 150.635 519.265 150.859 518.963 151.09C517.931 151.889 516.887 152.674 515.838 153.464C515.237 153.916 514.634 154.369 514.031 154.827C512.331 156.098 510.639 157.377 508.947 158.655C507.255 159.934 505.562 161.213 503.862 162.484C503.51 162.751 503.157 163.018 502.803 163.286C496.874 167.779 490.886 172.316 483.862 174.889C482.3 175.471 480.217 173.909 481.075 172.163C485.44 163.433 490.278 154.978 495.612 146.819C492.42 147.641 489.071 148.051 485.884 147.293C481.136 146.16 478.502 142.301 478.043 137.553C477.514 132.155 477.693 126.606 477.868 121.18C477.886 120.633 477.903 120.088 477.92 119.544C478.134 113.326 478.563 107.109 479.298 100.952C479.788 96.8174 480.646 92.3763 483.831 89.4359C487.01 86.5129 491.477 86.2192 495.6 85.9482C495.927 85.9268 496.251 85.9054 496.573 85.8829C507.997 85.1172 519.422 84.413 530.846 83.8004C542.056 83.1878 553.235 82.6671 564.445 82.2077C565.763 82.1534 567.099 82.0659 568.445 81.9777C572.42 81.7173 576.475 81.4517 580.341 82.0237ZM500.413 143.913C501.123 144.578 501.456 145.673 500.769 146.71C496.052 153.724 491.734 160.983 487.782 168.457C492.114 166.089 496.091 163.095 500.048 160.117C500.288 159.936 500.529 159.755 500.769 159.575C502.377 158.365 503.977 157.155 505.578 155.945C507.178 154.735 508.779 153.525 510.387 152.316C510.683 152.09 510.98 151.864 511.279 151.637C512.523 150.691 513.782 149.732 515.042 148.793C515.489 148.452 515.957 148.116 516.431 147.777C516.978 147.385 517.531 146.989 518.067 146.572C518.108 145.495 518.872 144.407 520.228 144.437C520.635 144.353 521.059 144.38 521.485 144.533C532.45 145.377 543.469 145.56 554.46 145.027C559.912 144.782 565.364 144.383 570.786 143.74C575.502 143.158 579.699 141.841 581.567 137.063C582.697 134.143 583.121 130.898 583.536 127.73C583.66 126.777 583.784 125.831 583.925 124.904C584.308 122.407 584.683 119.903 585.059 117.4C585.434 114.896 585.809 112.392 586.192 109.896C586.319 109.07 586.455 108.242 586.591 107.413C587.142 104.055 587.699 100.666 587.723 97.2766C587.723 94.1525 587.203 90.5999 584.752 88.3947C581.855 85.7789 577.434 85.9783 573.695 86.1469C573.362 86.1619 573.035 86.1766 572.715 86.1891C567.798 86.3647 562.91 86.5685 557.996 86.7733L557.309 86.8019C547.263 87.2614 537.217 87.7514 527.201 88.3027C517.063 88.854 506.926 89.4665 496.788 90.171C496.37 90.1986 495.938 90.2211 495.497 90.2441C492.016 90.4258 487.935 90.6387 485.761 93.6014C483.749 96.3358 483.453 100.243 483.19 103.714C483.141 104.364 483.093 104.999 483.035 105.608C482.085 115.44 481.688 125.394 482.116 135.256C482.3 138.931 483.127 142.515 487.231 143.281C490.6 143.893 494.245 142.944 497.461 141.872C499.063 141.338 500.32 142.644 500.413 143.913Z" fill="#6B3FEB"/>
<path d="M562.21 89.7418C545.885 102.269 531.306 117.032 518.932 133.479C515.165 125.884 511.397 118.318 507.63 110.722C506.436 108.272 502.515 109.926 503.74 112.376C508.028 121.014 512.317 129.681 516.605 138.319C517.309 139.727 519.269 140.126 520.249 138.747C532.868 121.504 547.876 106.128 564.814 93.1109C566.958 91.4263 564.354 88.0879 562.21 89.7418Z" fill="#6B3FEB"/>
<path d="M284.746 91.7629C277.028 91.2422 269.494 89.4044 262.388 86.3109C259.877 85.2083 258.345 89.1595 260.857 90.2621C268.269 93.5087 276.201 95.4383 284.287 95.9896C286.982 96.1428 287.472 91.9467 284.746 91.7629Z" fill="#6B3FEB"/>
<path d="M292.372 73.3245C279.999 64.8098 268.513 55.07 258.099 44.2581C256.231 42.2979 252.862 44.9012 254.761 46.8615C265.42 57.9796 277.151 67.9951 289.861 76.7242C292.067 78.2556 294.639 74.8865 292.372 73.3245Z" fill="#6B3FEB"/>
<path d="M310.198 68.7C307.595 61.0735 304.991 53.4777 302.388 45.8513C301.5 43.2785 297.61 44.9321 298.498 47.5049L306.309 70.354C307.197 72.9268 311.087 71.2728 310.198 68.7Z" fill="#6B3FEB"/>
<path d="M63.3332 289.653C42.8734 283.681 27.9569 280.985 32.98 301.445C38.003 321.905 78.6164 425.889 82.0162 435.874C85.4159 445.889 94.3903 450.514 113.686 456.394C132.982 462.275 225.357 493.363 238.987 498.662C252.647 503.961 261.652 497.866 256.782 475.109C251.912 452.352 220.885 378.353 215.066 361.293C209.185 344.08 203.458 335.198 173.32 326.285C143.243 317.403 83.8237 295.626 63.3332 289.653Z" fill="#0C2C3E"/>
</svg>
