<svg width="1247" height="832" viewBox="0 0 1247 832" fill="none" xmlns="http://www.w3.org/2000/svg">
<g clip-path="url(#clip0_121_503)">
<path d="M517.41 829.71L517.71 714.21C518.12 712.66 519.2 711.63 520.41 711.63H692.99L1036.85 710.62C1037.67 710.62 1038.26 711.7 1038.02 712.78L1038.57 829.88L517.42 829.72L517.41 829.71Z" fill="white"/>
<path d="M1037.98 831.04C1037.43 831.04 1036.98 830.59 1036.98 830.04L1037.01 712.78C1037.01 712.71 1037.01 712.63 1037.03 712.56C1037.14 712.06 1036.92 711.67 1036.81 711.61L692.969 712.63H520.389C519.689 712.63 518.999 713.33 518.689 714.35L518.619 829.69C518.619 830.24 518.169 830.69 517.619 830.69C517.069 830.69 516.619 830.24 516.619 829.69L516.689 714.21C516.689 714.12 516.699 714.04 516.719 713.95C517.249 711.96 518.719 710.62 520.379 710.62H692.959L1036.82 709.61C1037.43 709.61 1038 709.9 1038.42 710.42C1038.94 711.06 1039.15 711.99 1038.99 712.87L1038.96 830.03C1038.96 830.58 1038.51 831.03 1037.96 831.03L1037.98 831.04Z" fill="black"/>
<path d="M321.141 723.081L320.961 662.141L1246 661.98L1245.86 722.93L321.141 723.081Z" fill="white"/>
<path d="M321.141 724.081C320.591 724.081 320.141 723.631 320.141 723.081L319.961 662.13C319.961 661.86 320.061 661.61 320.251 661.42C320.441 661.23 320.691 661.13 320.961 661.13L1246 660.98C1246.27 660.98 1246.52 661.091 1246.71 661.271C1246.9 661.461 1247 661.71 1247 661.98L1246.86 722.93C1246.86 723.48 1246.41 723.93 1245.86 723.93L321.141 724.081ZM321.961 663.13L322.131 722.081L1244.85 721.93L1244.98 662.98L321.951 663.13H321.961Z" fill="black"/>
<path d="M1187.22 661.99H965.771V615.64H1187.22C1194.31 615.64 1200.06 621.39 1200.06 628.48V649.14C1200.06 656.23 1194.31 661.98 1187.22 661.98V661.99Z" fill="white"/>
<path d="M1187.22 662.98H965.77C965.22 662.98 964.77 662.53 964.77 661.98V615.63C964.77 615.08 965.22 614.63 965.77 614.63H1187.22C1194.85 614.63 1201.06 620.84 1201.06 628.47V649.13C1201.06 656.76 1194.85 662.97 1187.22 662.97V662.98ZM966.77 660.98H1187.22C1193.75 660.98 1199.06 655.67 1199.06 649.14V628.48C1199.06 621.95 1193.75 616.64 1187.22 616.64H966.77V660.99V660.98Z" fill="black"/>
<path d="M1081.39 656.08H965.779C965.229 656.08 964.779 655.63 964.779 655.08C964.779 654.53 965.229 654.08 965.779 654.08H1081.39C1084.35 654.08 1086.77 651.33 1086.77 647.95V629.66C1086.77 626.28 1084.36 623.53 1081.39 623.53H965.779C965.229 623.53 964.779 623.08 964.779 622.53C964.779 621.98 965.229 621.53 965.779 621.53H1081.39C1085.46 621.53 1088.77 625.18 1088.77 629.66V647.95C1088.77 652.43 1085.46 656.08 1081.39 656.08Z" fill="black"/>
<path d="M1078.09 634.18H1042.82C1042.27 634.18 1041.82 633.73 1041.82 633.18C1041.82 632.63 1042.27 632.18 1042.82 632.18H1078.09C1078.64 632.18 1079.09 632.63 1079.09 633.18C1079.09 633.73 1078.64 634.18 1078.09 634.18Z" fill="black"/>
<path d="M1067.21 646.24H1017.44C1016.89 646.24 1016.44 645.79 1016.44 645.24C1016.44 644.69 1016.89 644.24 1017.44 644.24H1067.21C1067.76 644.24 1068.21 644.69 1068.21 645.24C1068.21 645.79 1067.76 646.24 1067.21 646.24Z" fill="black"/>
<path d="M1207.22 615.63H985.771V573.34H1207.22C1214.31 573.34 1220.06 579.09 1220.06 586.18V602.78C1220.06 609.87 1214.31 615.62 1207.22 615.62V615.63Z" fill="white"/>
<path d="M1207.22 616.63H985.77C985.22 616.63 984.77 616.18 984.77 615.63V573.34C984.77 572.79 985.22 572.34 985.77 572.34H1207.22C1214.85 572.34 1221.06 578.55 1221.06 586.18V602.78C1221.06 610.41 1214.85 616.62 1207.22 616.62V616.63ZM986.77 614.63H1207.22C1213.75 614.63 1219.06 609.32 1219.06 602.79V586.19C1219.06 579.66 1213.75 574.35 1207.22 574.35H986.77V614.64V614.63Z" fill="black"/>
<path d="M1103.37 610.29H985.779C985.229 610.29 984.779 609.84 984.779 609.29C984.779 608.74 985.229 608.29 985.779 608.29H1103.37C1106.39 608.29 1108.86 605.49 1108.86 602.04V586.95C1108.86 583.5 1106.4 580.7 1103.37 580.7H985.779C985.229 580.7 984.779 580.25 984.779 579.7C984.779 579.15 985.229 578.7 985.779 578.7H1103.37C1107.5 578.7 1110.86 582.4 1110.86 586.95V602.04C1110.86 606.59 1107.5 610.29 1103.37 610.29Z" fill="black"/>
<path d="M1126.48 606.52H1206.05V582.46H1126.48V606.52Z" fill="#0B9C93"/>
<path d="M695.13 491.97L735.34 603.92C739.93 616.71 733.04 630.63 719.63 635.64L648.66 662.18H883.82C906.64 662.18 922.73 641.28 915.46 621.09L868.91 491.82L695.14 491.96L695.13 491.97Z" fill="white"/>
<path d="M883.81 663.18H648.65C648.17 663.18 647.75 662.83 647.67 662.36C647.58 661.88 647.85 661.42 648.3 661.25L719.27 634.71C732.15 629.89 738.8 616.52 734.39 604.26L694.18 492.31C693.99 491.79 694.26 491.22 694.78 491.03C695.3 490.84 695.87 491.11 696.06 491.63L736.27 603.58C741.05 616.88 733.88 631.37 719.96 636.58L654.17 661.18H883.8C894.76 661.18 904.89 656.07 910.9 647.52C916.36 639.75 917.67 630.24 914.5 621.43L867.95 492.16C867.76 491.64 868.03 491.07 868.55 490.88C869.07 490.69 869.64 490.96 869.83 491.48L916.38 620.75C919.78 630.18 918.38 640.36 912.54 648.67C906.16 657.75 895.41 663.18 883.8 663.18H883.81Z" fill="black"/>
<path d="M871.061 663.18C870.511 663.18 870.061 662.73 870.061 662.18C870.061 661.63 870.511 661.18 871.061 661.18C882.021 661.18 892.151 656.08 898.161 647.52C903.621 639.75 904.931 630.24 901.761 621.43L855.231 492.23C855.041 491.71 855.311 491.14 855.831 490.95C856.351 490.76 856.921 491.03 857.111 491.55L903.641 620.75C907.041 630.18 905.641 640.359 899.801 648.669C893.421 657.749 882.671 663.18 871.061 663.18Z" fill="black"/>
<path d="M448.36 491.82H1147.82C1157.55 491.82 1165.7 484.92 1166.64 475.87L1213.91 20.3402C1214.99 9.97023 1206.25 0.990234 1195.09 0.990234H495.62C485.89 0.990234 477.74 7.89023 476.8 16.9402L429.53 472.47C428.45 482.84 437.19 491.82 448.35 491.82H448.36Z" fill="white"/>
<path d="M1147.81 492.82H448.36C442.49 492.82 436.94 490.41 433.15 486.2C429.66 482.33 428.03 477.41 428.55 472.37L475.81 16.84C476.81 7.24 485.32 0 495.62 0H1195.08C1200.95 0 1206.5 2.41 1210.29 6.62C1213.78 10.49 1215.41 15.41 1214.89 20.45L1167.62 475.98C1166.62 485.58 1158.11 492.82 1147.81 492.82ZM495.62 2C486.35 2 478.69 8.47 477.8 17.05L430.53 472.58C430.07 477.06 431.52 481.42 434.63 484.87C438.04 488.66 443.05 490.83 448.35 490.83H1147.81C1157.08 490.83 1164.74 484.36 1165.63 475.78L1212.9 20.25C1213.36 15.77 1211.91 11.41 1208.8 7.96C1205.39 4.17 1200.38 2 1195.08 2H495.62Z" fill="black"/>
<path d="M1133.29 445.72H695.391C694.841 445.72 694.391 445.27 694.391 444.72C694.391 444.17 694.841 443.72 695.391 443.72H1132.39L1175.47 47.21H508.551L465.481 443.72H547.491C548.041 443.72 548.491 444.17 548.491 444.72C548.491 445.27 548.041 445.72 547.491 445.72H464.371C464.091 445.72 463.821 445.6 463.631 445.39C463.441 445.18 463.351 444.9 463.381 444.61L506.671 46.1C506.721 45.59 507.151 45.21 507.661 45.21H1176.59C1176.87 45.21 1177.14 45.33 1177.33 45.54C1177.52 45.75 1177.61 46.03 1177.58 46.32L1134.29 444.83C1134.24 445.34 1133.81 445.72 1133.3 445.72H1133.29Z" fill="black"/>
<path d="M841.11 34.1199C834.38 34.1199 828.91 29.2399 828.91 23.2499C828.91 17.2599 834.38 12.3799 841.11 12.3799C847.84 12.3799 853.31 17.2599 853.31 23.2499C853.31 29.2399 847.84 34.1199 841.11 34.1199ZM841.11 14.3699C835.49 14.3699 830.91 18.3499 830.91 23.2399C830.91 28.1299 835.49 32.1099 841.11 32.1099C846.73 32.1099 851.31 28.1299 851.31 23.2399C851.31 18.3499 846.73 14.3699 841.11 14.3699Z" fill="black"/>
<path d="M763.01 365.2H756.81C755.35 365.2 754.03 364.63 753.09 363.58C752.13 362.52 751.7 361.11 751.85 359.62L754.46 334.78C754.56 333.87 754.3 333.02 753.74 332.39L745.71 323.33C744.79 322.29 744.35 320.86 744.5 319.4L745.54 309.53C745.64 308.61 745.38 307.75 744.81 307.12C744.25 306.5 743.46 306.16 742.58 306.16H721.55C720.1 306.16 718.73 305.56 717.81 304.51L707.78 293.19C706.86 292.15 706.42 290.72 706.57 289.26L708.04 275.26C708.19 273.82 708.88 272.47 709.99 271.46L725.7 257.12C726.43 256.45 726.91 255.53 727.01 254.59L727.8 247.05C728.11 244.09 730.76 241.68 733.69 241.68H748.44C749.9 241.68 751.22 242.25 752.16 243.3C753.12 244.36 753.55 245.77 753.4 247.26L752.88 252.25C752.78 253.17 753.04 254.03 753.61 254.66C754.17 255.28 754.96 255.62 755.84 255.62H772.59C773.51 255.62 774.46 255.24 775.19 254.57L776.7 253.19C777.91 252.09 778.34 250.49 777.81 249.13C777.36 247.97 776.35 247.3 775.04 247.3H760.97C759.52 247.3 758.15 246.7 757.23 245.65L746.52 233.56C745.6 232.52 745.16 231.09 745.31 229.63L746.47 218.62C746.62 217.18 747.31 215.83 748.42 214.82L782.18 184.01C783.29 183 784.69 182.44 786.12 182.44H818.64C819.56 182.44 820.51 182.06 821.23 181.39L849.88 155.25C850.46 154.72 850.87 154.05 851.08 153.32L853.2 145.61C853.79 143.46 855.51 141.81 857.67 141.31C859.57 140.87 861.44 141.43 862.66 142.81L873.7 155.27C874.25 155.9 875.05 156.24 875.95 156.24H937.5C938.42 156.24 939.37 155.86 940.1 155.19L950.88 145.36C951.99 144.35 953.39 143.79 954.82 143.79H979.18C980.64 143.79 981.96 144.36 982.9 145.41C983.86 146.47 984.3 147.88 984.14 149.37L981.57 173.83C981.42 175.27 980.73 176.62 979.62 177.63L966.65 189.46C965.92 190.13 965.44 191.05 965.34 191.99L963.79 206.7C963.54 209.06 961.9 211.06 959.6 211.8C957.54 212.46 955.51 211.95 954.16 210.42L948.36 203.88C947.44 202.84 947 201.4 947.15 199.95L947.66 195.05C947.8 193.71 947.22 192.57 946.11 192.01C944.85 191.38 943.28 191.66 942.1 192.73L932.38 201.6C931.65 202.27 931.17 203.19 931.07 204.13L930.51 209.42C930.41 210.34 930.68 211.2 931.25 211.83C931.81 212.45 932.6 212.79 933.48 212.79H940.22C941.68 212.79 943 213.36 943.94 214.41C944.9 215.47 945.33 216.88 945.18 218.37L943.24 236.82C943.09 238.26 942.4 239.61 941.29 240.62L900.31 278.01C899.58 278.68 899.1 279.6 899 280.54L898.19 288.28C897.94 290.64 896.3 292.64 894 293.38C891.97 294.03 889.88 293.5 888.55 292L877.19 279.18C876.68 278.6 875.94 278.26 875.12 278.21C874.13 278.15 873.13 278.54 872.34 279.25L857.35 292.93C856.17 294 854.63 294.58 853.12 294.49C851.76 294.42 850.54 293.84 849.66 292.85L839.22 281.06C838.66 280.43 837.87 280.09 836.97 280.09H824.05C822.1 280.09 820.35 281.69 820.14 283.67L819.91 285.83C819.6 288.79 816.95 291.2 814.02 291.2H809.03C807.58 291.2 806.21 290.6 805.29 289.55L797.66 280.94C796.85 280.03 795.61 279.73 794.32 280.14C792.78 280.64 791.67 281.97 791.5 283.54L790.82 289.99C790.73 290.9 790.98 291.75 791.54 292.38L799.51 301.37C800.07 302 800.86 302.34 801.76 302.34C803.88 302.34 805.65 303.53 806.4 305.45C807.23 307.59 806.59 310.05 804.77 311.71L795.19 320.45C794.46 321.12 793.98 322.04 793.88 322.98L792.25 338.5C792.1 339.94 791.41 341.29 790.3 342.3L766.93 363.62C765.82 364.63 764.42 365.19 762.99 365.19L763.01 365.2ZM733.69 243.7C731.74 243.7 729.99 245.3 729.78 247.28L728.99 254.82C728.84 256.26 728.15 257.61 727.04 258.62L711.33 272.96C710.6 273.63 710.12 274.55 710.02 275.49L708.55 289.49C708.45 290.4 708.71 291.25 709.27 291.88L719.3 303.2C719.86 303.83 720.65 304.17 721.55 304.17H742.58C744.04 304.17 745.36 304.74 746.3 305.79C747.25 306.85 747.69 308.26 747.54 309.75L746.5 319.62C746.4 320.53 746.66 321.38 747.22 322.01L755.25 331.07C756.17 332.11 756.61 333.54 756.46 335L753.85 359.84C753.75 360.76 754.01 361.62 754.59 362.25C755.14 362.87 755.94 363.21 756.82 363.21H763.02C763.94 363.21 764.89 362.83 765.62 362.16L788.99 340.84C789.72 340.17 790.2 339.25 790.3 338.31L791.93 322.79C792.08 321.35 792.77 320 793.88 318.99L803.46 310.25C804.67 309.15 805.1 307.55 804.57 306.19C804.12 305.03 803.11 304.36 801.8 304.36C800.35 304.36 798.98 303.76 798.06 302.71L790.09 293.72C789.17 292.68 788.73 291.25 788.88 289.79L789.56 283.34C789.81 280.98 791.45 278.98 793.75 278.24C795.81 277.58 797.84 278.1 799.19 279.62L806.82 288.23C807.38 288.86 808.17 289.2 809.07 289.2H814.06C816.01 289.2 817.76 287.6 817.97 285.62L818.2 283.46C818.51 280.5 821.16 278.09 824.09 278.09H837.01C838.46 278.09 839.83 278.69 840.75 279.74L851.19 291.53C851.7 292.11 852.44 292.45 853.26 292.5C854.24 292.56 855.25 292.17 856.04 291.46L871.03 277.78C872.21 276.71 873.75 276.13 875.26 276.22C876.62 276.29 877.84 276.87 878.72 277.86L890.08 290.68C890.89 291.59 892.14 291.89 893.42 291.48C894.96 290.98 896.07 289.65 896.24 288.08L897.05 280.34C897.2 278.9 897.89 277.55 899 276.54L939.98 239.15C940.71 238.48 941.19 237.56 941.29 236.62L943.23 218.17C943.33 217.25 943.07 216.39 942.49 215.76C941.94 215.14 941.14 214.8 940.26 214.8H933.52C932.06 214.8 930.74 214.23 929.8 213.18C928.85 212.12 928.4 210.71 928.56 209.22L929.12 203.93C929.27 202.49 929.96 201.15 931.07 200.13L940.79 191.26C942.58 189.62 945.04 189.22 947.05 190.23C948.91 191.17 949.92 193.1 949.69 195.26L949.18 200.16C949.08 201.07 949.34 201.92 949.9 202.55L955.7 209.09C956.51 210 957.76 210.3 959.04 209.89C960.58 209.39 961.69 208.06 961.86 206.49L963.41 191.78C963.56 190.34 964.25 188.99 965.36 187.98L978.33 176.15C979.06 175.48 979.54 174.56 979.64 173.62L982.21 149.16C982.31 148.24 982.04 147.38 981.47 146.75C980.92 146.13 980.12 145.79 979.24 145.79H954.88C953.96 145.79 953.01 146.17 952.28 146.84L941.5 156.67C940.39 157.68 938.99 158.24 937.56 158.24H876.01C874.56 158.24 873.19 157.64 872.27 156.59L861.23 144.13C860.49 143.29 859.38 142.97 858.19 143.25C856.74 143.59 855.59 144.69 855.19 146.14L853.07 153.85C852.77 154.95 852.15 155.94 851.29 156.73L822.64 182.87C821.53 183.88 820.13 184.44 818.7 184.44H786.18C785.26 184.44 784.31 184.82 783.58 185.49L749.82 216.3C749.09 216.97 748.61 217.89 748.51 218.83L747.35 229.84C747.26 230.75 747.51 231.6 748.07 232.23L758.78 244.32C759.33 244.95 760.13 245.29 761.03 245.29H775.1C777.22 245.29 778.99 246.48 779.74 248.4C780.57 250.54 779.93 253 778.11 254.66L776.6 256.04C775.49 257.05 774.09 257.61 772.66 257.61H755.91C754.45 257.61 753.13 257.04 752.19 255.99C751.24 254.93 750.8 253.52 750.95 252.03L751.47 247.04C751.57 246.12 751.31 245.26 750.73 244.63C750.18 244.01 749.38 243.67 748.5 243.67H733.75L733.69 243.7Z" fill="black"/>
<path d="M939.721 389.5H926.291C925.231 389.5 924.261 389.08 923.581 388.32C922.881 387.55 922.561 386.52 922.681 385.44L923.841 374.36C923.891 373.85 923.751 373.37 923.441 373.03C923.141 372.69 922.701 372.51 922.211 372.51H902.681C902.151 372.51 901.611 372.73 901.191 373.12L896.611 377.3C895.321 378.48 893.541 378.77 892.091 378.03C890.731 377.34 889.991 375.94 890.161 374.36L891.971 357.11C892.081 356.07 892.581 355.11 893.371 354.38L917.931 331.97C918.731 331.24 919.731 330.84 920.771 330.84H930.571C931.561 330.84 932.491 331.22 933.161 331.9C933.841 332.58 934.211 333.51 934.211 334.51L934.141 345.58C934.141 346.01 934.281 346.41 934.541 346.71L935.081 347.32C935.721 348.04 936.591 347.86 936.931 347.75C937.611 347.53 938.441 346.89 938.561 345.78C938.741 344.08 939.921 342.65 941.571 342.12C943.041 341.65 944.561 342.03 945.531 343.13L957.311 356.43C957.981 357.19 958.311 358.23 958.191 359.29L956.641 374.08C956.531 375.11 956.041 376.08 955.241 376.81L942.561 388.38C941.761 389.11 940.751 389.51 939.721 389.51V389.5ZM902.681 370.5H922.211C923.271 370.5 924.241 370.92 924.921 371.68C925.621 372.45 925.941 373.48 925.821 374.56L924.661 385.64C924.611 386.15 924.751 386.63 925.061 386.97C925.361 387.31 925.801 387.49 926.291 387.49H939.721C940.251 387.49 940.791 387.27 941.211 386.88L953.891 375.31C954.321 374.92 954.591 374.39 954.651 373.85L956.201 359.06C956.251 358.55 956.111 358.08 955.811 357.74L944.031 344.44C943.391 343.72 942.521 343.9 942.181 344.01C941.501 344.23 940.671 344.87 940.551 345.98C940.371 347.68 939.191 349.11 937.541 349.64C936.071 350.11 934.551 349.72 933.581 348.63L933.041 348.02C932.451 347.35 932.131 346.48 932.131 345.55L932.201 334.48C932.201 334.01 932.041 333.59 931.741 333.29C931.441 332.99 931.021 332.82 930.571 332.82H920.771C920.241 332.82 919.701 333.04 919.281 333.43L894.721 355.84C894.301 356.23 894.021 356.76 893.961 357.3L892.151 374.55C892.071 375.3 892.381 375.91 892.991 376.22C893.551 376.5 894.451 376.54 895.261 375.8L899.841 371.62C900.641 370.89 901.651 370.49 902.681 370.49V370.5Z" fill="black"/>
<path d="M638.19 407.02C636.1 407.02 634.18 406.18 632.78 404.59L627.57 398.71C626.22 397.19 625.57 395.08 625.8 392.95L629.99 353.1C630.21 350.97 631.24 348.97 632.89 347.47L635.81 344.81C638.43 342.42 638.87 338.57 636.79 336.22L623.82 321.58C621.02 318.42 621.52 313.31 624.94 310.18L645.08 291.81C647.99 289.16 652.1 288.71 655.08 290.72L693.27 316.52C695.47 318.01 696.66 320.66 696.37 323.45L694.94 337.08C694.72 339.21 693.69 341.21 692.04 342.71L650.78 380.36C649.52 381.51 648.69 383.1 648.52 384.72L647.02 399.04C646.65 402.54 644.21 405.51 640.79 406.61C639.92 406.89 639.05 407.03 638.21 407.03L638.19 407.02ZM650.9 291.46C649.34 291.46 647.72 292.08 646.41 293.28L626.27 311.65C623.65 314.04 623.21 317.89 625.3 320.24L638.27 334.88C641.07 338.04 640.57 343.15 637.14 346.28L634.22 348.94C632.96 350.09 632.13 351.68 631.96 353.3L627.77 393.15C627.6 394.76 628.06 396.26 629.05 397.38L634.26 403.26C635.7 404.88 637.9 405.42 640.15 404.69C642.81 403.84 644.71 401.53 645 398.82L646.5 384.5C646.72 382.37 647.75 380.37 649.4 378.87L690.66 341.22C691.92 340.07 692.74 338.48 692.91 336.86L694.34 323.22C694.56 321.14 693.73 319.25 692.11 318.16L653.92 292.36C653.01 291.75 651.96 291.45 650.87 291.45L650.9 291.46Z" fill="black"/>
<path d="M604.08 303.44C603.82 303.44 603.55 303.42 603.28 303.39L602.25 303.27L590.5 302.39C589.49 302.31 588.52 301.99 587.7 301.45L571.55 290.92C569.72 289.73 568.73 287.57 568.97 285.28L571.98 256.65C572.1 255.47 571.77 254.36 571.04 253.54L563.46 244.98C561.21 242.43 561.6 238.32 564.35 235.82L566.17 234.16C567.11 233.3 567.72 232.12 567.85 230.91L569.65 213.78C569.77 212.6 569.44 211.49 568.71 210.67L562.33 203.47C561.66 202.71 560.7 202.26 559.63 202.21C558.38 202.13 557.06 202.63 556.06 203.55L548.44 210.5C547.12 211.71 545.45 212.37 543.75 212.37C541.25 212.37 539.15 210.96 538.27 208.7C537.29 206.16 538.05 203.24 540.21 201.26L541.62 199.97C543.56 198.2 543.9 195.34 542.36 193.61L537.01 187.57C534.75 185.02 535.15 180.91 537.9 178.41L578.27 141.58C579.67 140.3 581.52 139.62 583.3 139.72C584.91 139.81 586.36 140.49 587.39 141.66L613.91 171.59C614.58 172.35 615.54 172.8 616.6 172.85C617.87 172.92 619.17 172.43 620.17 171.51L634.62 158.33C636.02 157.05 637.85 156.37 639.65 156.47C641.26 156.56 642.71 157.24 643.74 158.41L672.87 191.3C675.12 193.85 674.73 197.96 671.98 200.46L667.8 204.28C666.4 205.56 664.57 206.24 662.77 206.14C661.16 206.06 659.71 205.37 658.68 204.21L650.28 194.73C649.61 193.97 648.65 193.52 647.59 193.47C646.32 193.4 645.02 193.89 644.02 194.81L632.54 205.28C630.6 207.05 630.26 209.91 631.8 211.64L641.73 222.85C642.4 223.61 643.36 224.06 644.42 224.11C645.69 224.18 646.99 223.69 647.99 222.77L651.37 219.69C652.77 218.41 654.6 217.73 656.4 217.83C658.01 217.92 659.46 218.6 660.49 219.77L670.19 230.72C672.44 233.27 672.05 237.38 669.3 239.88L628.35 277.25C627.03 278.46 625.36 279.12 623.66 279.12H603.03C600.53 279.12 598.28 281.18 598.01 283.71L597.91 284.71C597.78 285.91 598.12 287.02 598.87 287.85C599.59 288.65 600.63 289.1 601.78 289.1H603.98C605.7 289.1 607.31 289.81 608.4 291.04L609.62 292.42C611.33 294.35 611.59 297.08 610.29 299.55C609.02 301.98 606.64 303.45 604.09 303.45L604.08 303.44ZM559.41 200.2C559.52 200.2 559.63 200.2 559.75 200.2C561.36 200.29 562.81 200.97 563.84 202.13L570.22 209.33C571.31 210.56 571.83 212.26 571.65 213.98L569.85 231.11C569.67 232.82 568.85 234.42 567.53 235.62L565.71 237.28C563.77 239.05 563.43 241.91 564.97 243.64L572.55 252.2C573.64 253.43 574.16 255.12 573.98 256.85L570.97 285.48C570.81 287.04 571.44 288.44 572.65 289.23L588.8 299.76C589.34 300.11 589.98 300.33 590.66 300.38L603.53 301.4C605.97 301.69 607.75 300.08 608.52 298.61C609.23 297.26 609.49 295.28 608.12 293.73L606.9 292.35C606.18 291.53 605.14 291.08 603.97 291.08H601.77C600.05 291.08 598.48 290.4 597.38 289.17C596.25 287.92 595.73 286.25 595.92 284.49L596.02 283.49C596.39 279.97 599.53 277.11 603.03 277.11H623.66C624.84 277.11 626.06 276.62 627 275.76L667.95 238.39C669.89 236.62 670.22 233.76 668.69 232.03L658.99 221.08C658.32 220.32 657.36 219.87 656.29 219.82C655.04 219.75 653.72 220.24 652.72 221.16L649.34 224.24C647.94 225.52 646.11 226.19 644.31 226.1C642.7 226.01 641.25 225.33 640.22 224.16L630.29 212.95C628.03 210.4 628.43 206.29 631.18 203.79L642.66 193.32C644.06 192.04 645.88 191.35 647.69 191.46C649.3 191.54 650.75 192.23 651.78 193.39L660.18 202.87C660.85 203.63 661.81 204.08 662.88 204.13C664.13 204.2 665.44 203.71 666.45 202.79L670.63 198.97C672.57 197.2 672.91 194.34 671.37 192.61L642.24 159.72C641.57 158.96 640.61 158.51 639.54 158.46C638.29 158.39 636.97 158.88 635.97 159.8L621.52 172.98C620.12 174.26 618.28 174.94 616.49 174.84C614.88 174.76 613.43 174.07 612.4 172.9L585.88 142.97C585.21 142.21 584.25 141.76 583.18 141.71C581.93 141.63 580.61 142.13 579.61 143.05L539.24 179.88C537.3 181.65 536.96 184.51 538.5 186.24L543.85 192.28C546.1 194.83 545.71 198.94 542.96 201.44L541.55 202.73C540 204.14 539.44 206.2 540.12 207.96C540.7 209.46 542.05 210.35 543.73 210.35C544.91 210.35 546.13 209.86 547.07 209L554.69 202.05C556 200.85 557.7 200.18 559.38 200.18L559.41 200.2Z" fill="black"/>
<path d="M691 208.11C690.13 208.11 689.27 207.91 688.47 207.51C686.46 206.49 685.36 204.41 685.61 202.06L689.01 169.71C689.12 168.67 688.83 167.71 688.19 166.99L684.2 162.49C682.14 160.16 682.5 156.4 685.01 154.11L692.57 147.21C694.28 145.65 694.57 143.15 693.23 141.63C692.64 140.97 691.81 140.58 690.88 140.53C689.78 140.48 688.63 140.9 687.74 141.71L665.6 161.91C664.32 163.08 662.64 163.7 661.01 163.61C659.54 163.53 658.21 162.9 657.26 161.84L649.57 153.16C648.26 151.69 647.88 149.61 648.53 147.62C649.26 145.39 651.13 143.7 653.4 143.21L665.98 140.51C666.75 140.35 667.47 139.97 668.07 139.42L683.73 125.13C685.01 123.96 686.67 123.34 688.32 123.43C689.79 123.51 691.12 124.14 692.07 125.2L706.19 141.14C706.78 141.8 707.61 142.19 708.54 142.24C709.66 142.3 710.79 141.87 711.68 141.06L719.33 134.08C720.61 132.91 722.27 132.29 723.92 132.38C725.39 132.46 726.72 133.09 727.67 134.15L739.27 147.25C741.33 149.58 740.97 153.34 738.46 155.63L724.29 168.56C723.46 169.32 722.92 170.36 722.81 171.42L721.92 179.89C721.76 181.45 721 182.92 719.8 184.01L695.25 206.41C694.01 207.54 692.49 208.13 690.99 208.13L691 208.11ZM690.68 138.51C690.78 138.51 690.88 138.51 690.99 138.51C692.46 138.59 693.79 139.22 694.74 140.28C696.8 142.61 696.44 146.37 693.93 148.66L686.37 155.56C684.66 157.12 684.37 159.62 685.71 161.14L689.7 165.64C690.7 166.77 691.18 168.32 691.01 169.9L687.61 202.25C687.45 203.77 688.11 205.07 689.38 205.71C690.81 206.43 692.59 206.11 693.92 204.9L718.47 182.5C719.3 181.74 719.84 180.7 719.95 179.64L720.84 171.17C721 169.61 721.76 168.14 722.96 167.05L737.13 154.12C738.84 152.56 739.13 150.06 737.79 148.54L726.19 135.44C725.6 134.78 724.77 134.39 723.84 134.34C722.73 134.29 721.59 134.71 720.7 135.52L713.05 142.5C711.77 143.67 710.09 144.29 708.46 144.2C706.99 144.12 705.66 143.49 704.71 142.43L690.59 126.49C690 125.83 689.17 125.44 688.24 125.39C687.13 125.34 685.99 125.76 685.1 126.57L669.44 140.86C668.58 141.65 667.53 142.19 666.42 142.43L653.84 145.13C652.26 145.47 650.97 146.65 650.45 148.21C650.01 149.54 650.24 150.85 651.08 151.8L658.77 160.48C659.36 161.14 660.19 161.53 661.13 161.58C662.24 161.64 663.38 161.21 664.27 160.4L686.41 140.2C687.61 139.11 689.16 138.49 690.7 138.49L690.68 138.51Z" fill="black"/>
<path d="M642.569 348.44C637.429 353.09 636.639 360.62 640.799 365.27C644.959 369.92 652.499 369.92 657.629 365.27C662.769 360.62 663.559 353.09 659.399 348.44C655.239 343.79 647.699 343.79 642.569 348.44Z" fill="#0B9C93"/>
<path d="M726.409 271.25C722.529 274.76 721.929 280.46 725.069 283.97C728.209 287.48 733.909 287.48 737.789 283.97C741.669 280.46 742.269 274.76 739.129 271.25C735.989 267.74 730.289 267.74 726.409 271.25Z" fill="#0B9C93"/>
<path d="M809.78 198.69C804.64 203.34 803.85 210.87 808.01 215.52C812.17 220.17 819.71 220.17 824.84 215.52C829.98 210.87 830.77 203.34 826.61 198.69C822.45 194.04 814.91 194.04 809.78 198.69Z" fill="#0B9C93"/>
<path d="M879.21 248.29C874.07 252.94 873.28 260.47 877.44 265.12C881.6 269.77 889.14 269.77 894.27 265.12C899.41 260.47 900.2 252.94 896.04 248.29C891.88 243.64 884.34 243.64 879.21 248.29Z" fill="#0B9C93"/>
<path d="M570.28 164.7C565.14 169.35 564.35 176.88 568.51 181.53C572.67 186.18 580.21 186.18 585.34 181.53C590.48 176.88 591.27 169.35 587.11 164.7C582.95 160.05 575.41 160.05 570.28 164.7Z" fill="#0B9C93"/>
<path d="M584.66 263.43C581.5 266.29 581.01 270.93 583.57 273.8C586.13 276.66 590.77 276.66 593.94 273.8C597.1 270.94 597.591 266.3 595.031 263.43C592.471 260.57 587.83 260.57 584.66 263.43Z" fill="#026F8A"/>
<path d="M732.18 281.42C729.02 284.28 728.53 288.92 731.09 291.79C733.65 294.65 738.29 294.65 741.46 291.79C744.62 288.93 745.11 284.29 742.55 281.42C739.99 278.56 735.35 278.56 732.18 281.42Z" fill="#026F8A"/>
<path d="M695.651 156.03C692.491 158.89 692.001 163.53 694.561 166.4C697.121 169.26 701.761 169.26 704.931 166.4C708.091 163.54 708.581 158.9 706.021 156.03C703.461 153.17 698.821 153.17 695.651 156.03Z" fill="#026F8A"/>
<path d="M914.991 167.94C911.831 170.8 911.341 175.44 913.901 178.31C916.461 181.17 921.101 181.17 924.271 178.31C927.431 175.45 927.921 170.81 925.361 167.94C922.801 165.08 918.161 165.08 914.991 167.94Z" fill="#026F8A"/>
<path d="M785.891 201.93C782.731 204.79 782.241 209.43 784.801 212.3C787.361 215.16 792.001 215.16 795.171 212.3C798.331 209.44 798.821 204.8 796.261 201.93C793.701 199.07 789.061 199.07 785.891 201.93Z" fill="#026F8A"/>
<path d="M825.151 196.52C821.991 199.38 821.501 204.02 824.061 206.89C826.621 209.75 831.261 209.75 834.431 206.89C837.591 204.03 838.081 199.39 835.521 196.52C832.961 193.66 828.321 193.66 825.151 196.52Z" fill="#026F8A"/>
<path d="M617.851 221.08C611.731 219.25 604.741 222.88 602.251 229.19C599.751 235.5 602.691 242.11 608.811 243.94C614.931 245.77 621.911 242.14 624.411 235.83C626.911 229.52 623.971 222.91 617.851 221.08Z" fill="#0B9C93"/>
<path d="M605.681 202C601.911 200.87 597.611 203.11 596.071 207C594.531 210.89 596.341 214.95 600.111 216.08C603.881 217.21 608.181 214.97 609.721 211.08C611.261 207.19 609.451 203.13 605.681 202Z" fill="#026F8A"/>
<path d="M625.771 233.29C622.001 232.16 617.7 234.4 616.16 238.29C614.62 242.18 616.431 246.24 620.201 247.37C623.971 248.5 628.271 246.26 629.811 242.37C631.351 238.48 629.541 234.42 625.771 233.29Z" fill="#026F8A"/>
<path d="M912.2 343.88C909.17 346.62 908.7 351.07 911.16 353.82C913.62 356.57 918.07 356.56 921.1 353.82C924.13 351.08 924.6 346.63 922.14 343.88C919.68 341.14 915.23 341.14 912.2 343.88Z" fill="#026F8A"/>
<path d="M700.28 166.32C696.13 170.08 695.49 176.16 698.85 179.92C702.21 183.68 708.3 183.68 712.45 179.92C716.6 176.16 717.24 170.08 713.88 166.32C710.52 162.56 704.43 162.56 700.28 166.32Z" fill="#0B9C93"/>
<path d="M648.93 319.58C647.66 323.54 649.77 327.44 653.64 328.29C657.51 329.14 661.67 326.62 662.94 322.67C664.21 318.71 662.1 314.81 658.23 313.96C654.36 313.11 650.2 315.63 648.93 319.58Z" fill="#026F8A"/>
<path d="M658.721 325.12C657.061 330.31 659.821 335.43 664.901 336.54C669.971 337.66 675.441 334.35 677.101 329.16C678.761 323.97 676.001 318.85 670.921 317.74C665.851 316.62 660.381 319.93 658.721 325.12Z" fill="#0B9C93"/>
<path d="M901.433 228.187C905.491 224.335 905.97 218.252 902.503 214.598C899.036 210.944 892.936 211.105 888.877 214.956C884.819 218.807 884.34 224.891 887.807 228.544C891.274 232.198 897.375 232.038 901.433 228.187Z" fill="#0B9C93"/>
<path d="M791.331 226.27C787.181 230.03 786.541 236.11 789.901 239.87C793.261 243.63 799.351 243.63 803.501 239.87C807.651 236.11 808.291 230.03 804.931 226.27C801.571 222.51 795.481 222.51 791.331 226.27Z" fill="#0B9C93"/>
<path d="M817.921 249.91C813.771 253.67 813.131 259.75 816.491 263.51C819.851 267.27 825.941 267.27 830.091 263.51C834.241 259.75 834.881 253.67 831.521 249.91C828.161 246.15 822.071 246.15 817.921 249.91Z" fill="#0B9C93"/>
<path d="M900.809 171.36C896.659 175.12 896.019 181.2 899.379 184.96C902.739 188.72 908.829 188.72 912.979 184.96C917.129 181.2 917.769 175.12 914.409 171.36C911.049 167.6 904.959 167.6 900.809 171.36Z" fill="#0B9C93"/>
<path d="M773.809 314.57C773.119 318.61 775.809 322.1 779.819 322.37C783.829 322.64 787.639 319.58 788.329 315.54C789.019 311.5 786.329 308.01 782.319 307.74C778.309 307.47 774.499 310.53 773.809 314.57Z" fill="#026F8A"/>
<path d="M764.44 326.26C763.53 331.56 767.07 336.14 772.33 336.49C777.59 336.84 782.59 332.83 783.5 327.53C784.41 322.23 780.869 317.65 775.609 317.3C770.349 316.95 765.35 320.96 764.44 326.26Z" fill="#0B9C93"/>
<path d="M880.059 201.888C884.118 198.038 884.598 191.954 881.131 188.3C877.665 184.646 871.564 184.805 867.506 188.655C863.447 192.506 862.966 198.589 866.433 202.243C869.899 205.898 876 205.739 880.059 201.888Z" fill="#0B9C93"/>
<path d="M933.379 358.7C929.229 362.46 928.59 368.54 931.95 372.3C935.31 376.06 941.399 376.06 945.549 372.3C949.699 368.54 950.339 362.46 946.979 358.7C943.619 354.94 937.529 354.94 933.379 358.7Z" fill="#0B9C93"/>
<path d="M905.92 351.74C903.84 353.62 903.53 356.66 905.21 358.54C906.89 360.42 909.93 360.42 912.01 358.54C914.09 356.66 914.4 353.62 912.72 351.74C911.04 349.86 908 349.86 905.92 351.74Z" fill="#0B9C93"/>
<path d="M880.639 221.07C877.609 223.81 877.139 228.26 879.599 231.01C882.059 233.75 886.509 233.75 889.539 231.01C892.569 228.27 893.039 223.82 890.579 221.07C888.119 218.32 883.669 218.33 880.639 221.07Z" fill="#026F8A"/>
<path d="M1045.7 144.98C1045.15 144.98 1044.7 144.53 1044.7 143.98C1044.7 143.43 1045.14 142.98 1045.7 142.98L1085.19 142.86L1120.14 116.83C1120.58 116.5 1121.21 116.59 1121.54 117.03C1121.87 117.47 1121.78 118.1 1121.34 118.43L1086.13 144.66C1085.96 144.79 1085.75 144.86 1085.54 144.86L1045.72 144.98H1045.7Z" fill="#026F8A"/>
<path d="M1049.08 191.31C1048.86 191.31 1048.65 191.24 1048.46 191.1C1048.03 190.76 1047.95 190.13 1048.29 189.7L1084.2 143.91L1060.58 118.2C1060.21 117.79 1060.23 117.16 1060.64 116.79C1061.05 116.42 1061.68 116.44 1062.05 116.85L1086.24 143.19C1086.57 143.55 1086.59 144.1 1086.29 144.48L1049.86 190.94C1049.66 191.19 1049.37 191.32 1049.07 191.32L1049.08 191.31Z" fill="#026F8A"/>
<path d="M1105.3 170.08C1105 170.08 1104.71 169.95 1104.51 169.7L1084.72 144.47C1084.38 144.04 1084.46 143.41 1084.89 143.07C1085.33 142.73 1085.95 142.81 1086.29 143.24L1106.08 168.47C1106.42 168.9 1106.34 169.53 1105.91 169.87C1105.73 170.01 1105.51 170.08 1105.29 170.08H1105.3Z" fill="#026F8A"/>
<path d="M1098.75 157.789C1107.33 149.642 1108.35 136.773 1101.01 129.045C1093.68 121.317 1080.77 121.657 1072.19 129.804C1063.6 137.951 1062.59 150.82 1069.92 158.548C1077.26 166.276 1090.16 165.936 1098.75 157.789Z" fill="#026F8A"/>
<path d="M1067.33 117.52C1066.98 120.84 1064.01 123.53 1060.69 123.53C1057.37 123.53 1054.97 120.84 1055.32 117.52C1055.67 114.2 1058.64 111.51 1061.96 111.51C1065.28 111.51 1067.68 114.2 1067.33 117.52Z" fill="#026F8A"/>
<path d="M1048.58 147.2C1046.61 148.98 1043.72 148.98 1042.13 147.2C1040.54 145.42 1040.84 142.53 1042.81 140.75C1044.78 138.97 1047.67 138.97 1049.26 140.75C1050.85 142.53 1050.55 145.42 1048.58 147.2Z" fill="#026F8A"/>
<path d="M1129.07 117.63C1128.59 122.24 1124.46 125.98 1119.84 125.98C1115.22 125.98 1111.88 122.24 1112.37 117.63C1112.85 113.02 1116.98 109.28 1121.6 109.28C1126.22 109.28 1129.56 113.02 1129.07 117.63Z" fill="#026F8A"/>
<path d="M1110.19 169.08C1109.91 171.78 1107.49 173.97 1104.78 173.97C1102.07 173.97 1100.12 171.78 1100.4 169.08C1100.68 166.38 1103.1 164.19 1105.81 164.19C1108.52 164.19 1110.47 166.38 1110.19 169.08Z" fill="#026F8A"/>
<path d="M1055.81 190.31C1055.42 194.03 1052.09 197.04 1048.38 197.04C1044.67 197.04 1041.97 194.03 1042.36 190.31C1042.75 186.59 1046.08 183.58 1049.79 183.58C1053.5 183.58 1056.2 186.59 1055.81 190.31Z" fill="#026F8A"/>
<path d="M1099.69 417.95H991.64C988.96 417.95 987.03 415.78 987.33 413.09L1006.01 245.92C1006.31 243.24 1008.73 241.06 1011.41 241.06H1119.46C1122.14 241.06 1124.07 243.23 1123.77 245.92L1105.09 413.09C1104.79 415.77 1102.37 417.95 1099.69 417.95Z" fill="white"/>
<path d="M1099.69 418.95H991.64C990.06 418.95 988.64 418.33 987.63 417.2C986.62 416.07 986.16 414.57 986.33 412.98L1005.01 245.81C1005.36 242.64 1008.23 240.06 1011.4 240.06H1119.45C1121.03 240.06 1122.45 240.68 1123.46 241.81C1124.47 242.94 1124.93 244.44 1124.76 246.03L1106.08 413.2C1105.73 416.37 1102.86 418.95 1099.69 418.95ZM1011.4 242.07C1009.22 242.07 1007.24 243.85 1006.99 246.04L988.31 413.21C988.2 414.23 988.479 415.17 989.109 415.88C989.729 416.58 990.63 416.96 991.63 416.96H1099.68C1101.86 416.96 1103.84 415.18 1104.08 412.99L1122.76 245.82C1122.87 244.8 1122.59 243.86 1121.96 243.15C1121.34 242.45 1120.44 242.07 1119.44 242.07H1011.39H1011.4Z" fill="black"/>
<path d="M1110.67 271.57H1063.55C1063 271.57 1062.55 271.12 1062.55 270.57C1062.55 270.02 1063 269.57 1063.55 269.57H1110.67C1111.22 269.57 1111.67 270.02 1111.67 270.57C1111.67 271.12 1111.22 271.57 1110.67 271.57Z" fill="black"/>
<path d="M1056.14 271.57H1020.66C1020.11 271.57 1019.66 271.12 1019.66 270.57C1019.66 270.02 1020.11 269.57 1020.66 269.57H1056.14C1056.69 269.57 1057.14 270.02 1057.14 270.57C1057.14 271.12 1056.69 271.57 1056.14 271.57Z" fill="black"/>
<path d="M1109.71 280.09H1085.06C1084.51 280.09 1084.06 279.64 1084.06 279.09C1084.06 278.54 1084.51 278.09 1085.06 278.09H1109.71C1110.26 278.09 1110.71 278.54 1110.71 279.09C1110.71 279.64 1110.26 280.09 1109.71 280.09Z" fill="black"/>
<path d="M1078.14 280.09H1019.7C1019.15 280.09 1018.7 279.64 1018.7 279.09C1018.7 278.54 1019.15 278.09 1019.7 278.09H1078.14C1078.69 278.09 1079.14 278.54 1079.14 279.09C1079.14 279.64 1078.69 280.09 1078.14 280.09Z" fill="black"/>
<path d="M1085.11 288.61H1018.75C1018.2 288.61 1017.75 288.16 1017.75 287.61C1017.75 287.06 1018.2 286.61 1018.75 286.61H1085.11C1085.66 286.61 1086.11 287.06 1086.11 287.61C1086.11 288.16 1085.66 288.61 1085.11 288.61Z" fill="black"/>
<path d="M1037.99 335.045C1045.76 327.709 1046.74 316.127 1040.18 309.175C1033.62 302.223 1022 302.535 1014.23 309.87C1006.46 317.206 1005.48 328.789 1012.04 335.741C1018.6 342.693 1030.22 342.381 1037.99 335.045Z" fill="#0B9C93"/>
<path d="M1104.74 324.59H1084.35C1083.8 324.59 1083.35 324.14 1083.35 323.59C1083.35 323.04 1083.8 322.59 1084.35 322.59H1104.74C1105.29 322.59 1105.74 323.04 1105.74 323.59C1105.74 324.14 1105.29 324.59 1104.74 324.59Z" fill="black"/>
<path d="M1080.09 324.59H1052.96C1052.41 324.59 1051.96 324.14 1051.96 323.59C1051.96 323.04 1052.41 322.59 1052.96 322.59H1080.09C1080.64 322.59 1081.09 323.04 1081.09 323.59C1081.09 324.14 1080.64 324.59 1080.09 324.59Z" fill="black"/>
<path d="M1103.79 333.11H1069.83C1069.28 333.11 1068.83 332.66 1068.83 332.11C1068.83 331.56 1069.28 331.11 1069.83 331.11H1103.79C1104.34 331.11 1104.79 331.56 1104.79 332.11C1104.79 332.66 1104.34 333.11 1103.79 333.11Z" fill="black"/>
<path d="M1065.57 333.11H1052C1051.45 333.11 1051 332.66 1051 332.11C1051 331.56 1051.45 331.11 1052 331.11H1065.57C1066.12 331.11 1066.57 331.56 1066.57 332.11C1066.57 332.66 1066.12 333.11 1065.57 333.11Z" fill="black"/>
<path d="M1076.9 341.64H1051.05C1050.5 341.64 1050.05 341.19 1050.05 340.64C1050.05 340.09 1050.5 339.64 1051.05 339.64H1076.9C1077.45 339.64 1077.9 340.09 1077.9 340.64C1077.9 341.19 1077.45 341.64 1076.9 341.64Z" fill="black"/>
<path d="M1101.39 315.07H1053.86L1054.82 306.54H1102.34L1101.39 315.07Z" fill="#0B9C93"/>
<path d="M1032.57 383.607C1040.34 376.271 1041.32 364.688 1034.75 357.736C1028.19 350.785 1016.57 351.096 1008.8 358.432C1001.03 365.768 1000.05 377.35 1006.61 384.302C1013.18 391.254 1024.8 390.943 1032.57 383.607Z" fill="#026F8A"/>
<path d="M1099.32 373.15H1078.93C1078.38 373.15 1077.93 372.7 1077.93 372.15C1077.93 371.6 1078.38 371.15 1078.93 371.15H1099.32C1099.87 371.15 1100.32 371.6 1100.32 372.15C1100.32 372.7 1099.87 373.15 1099.32 373.15Z" fill="black"/>
<path d="M1074.66 373.15H1047.53C1046.98 373.15 1046.53 372.7 1046.53 372.15C1046.53 371.6 1046.98 371.15 1047.53 371.15H1074.66C1075.21 371.15 1075.66 371.6 1075.66 372.15C1075.66 372.7 1075.21 373.15 1074.66 373.15Z" fill="black"/>
<path d="M1098.36 381.68H1064.4C1063.85 381.68 1063.4 381.23 1063.4 380.68C1063.4 380.13 1063.85 379.68 1064.4 379.68H1098.36C1098.91 379.68 1099.36 380.13 1099.36 380.68C1099.36 381.23 1098.91 381.68 1098.36 381.68Z" fill="black"/>
<path d="M1060.14 381.68H1046.57C1046.02 381.68 1045.57 381.23 1045.57 380.68C1045.57 380.13 1046.02 379.68 1046.57 379.68H1060.14C1060.69 379.68 1061.14 380.13 1061.14 380.68C1061.14 381.23 1060.69 381.68 1060.14 381.68Z" fill="black"/>
<path d="M1071.48 390.2H1045.63C1045.08 390.2 1044.63 389.75 1044.63 389.2C1044.63 388.65 1045.08 388.2 1045.63 388.2H1071.48C1072.03 388.2 1072.48 388.65 1072.48 389.2C1072.48 389.75 1072.03 390.2 1071.48 390.2Z" fill="black"/>
<path d="M1095.96 363.63H1048.44L1049.39 355.1H1096.92L1095.96 363.63Z" fill="#0B9C93"/>
<path d="M798.16 99.7105H699.99L702.46 76.2305H800.63L798.16 99.7105Z" fill="#0B9C93"/>
<path d="M1004.88 99.7105H820.42L822.88 76.2305H1007.35L1004.88 99.7105Z" fill="#0B9C93"/>
<path d="M1.16945 644.75C0.289448 618.69 2.74945 590.05 10.6094 559.55C32.3094 475.38 138.729 417.53 189.309 394.32C205.819 386.75 224.439 385.19 241.989 389.88L255.139 393.4L134.319 634.48L133.619 657.17C106.409 662.28 46.7395 669.31 1.15945 644.74L1.16945 644.75Z" fill="white"/>
<path d="M133.63 657.17L129.89 778.58C129.89 778.58 58.7299 809.09 41.7599 783.33C29.4399 764.63 3.49992 713.78 1.16992 644.74C46.7599 669.3 106.42 662.28 133.63 657.17Z" fill="white"/>
<path d="M68.0308 794.72C56.3808 794.72 46.2108 791.91 40.9208 783.89C34.5708 774.25 2.78083 722.25 0.160826 644.79C0.140826 644.24 0.570826 643.78 1.13083 643.76C1.68083 643.75 2.14083 644.17 2.16083 644.73C4.76083 721.66 36.2908 773.24 42.5908 782.8C58.9008 807.58 128.781 777.98 129.491 777.68C130.001 777.46 130.591 777.7 130.801 778.2C131.021 778.71 130.781 779.3 130.281 779.51C128.241 780.38 94.3608 794.72 68.0308 794.72Z" fill="black"/>
<path d="M183.289 795.95L37.3691 748.5L59.0391 525.74L293.509 601.99L183.289 795.95Z" fill="white"/>
<path d="M183.291 796.95C183.191 796.95 183.081 796.93 182.981 796.9L37.061 749.44C36.611 749.29 36.331 748.86 36.371 748.39L58.041 525.63C58.071 525.33 58.231 525.06 58.491 524.89C58.751 524.72 59.061 524.68 59.351 524.78L293.821 601.03C294.111 601.12 294.331 601.34 294.441 601.62C294.551 601.9 294.521 602.21 294.381 602.48L184.161 796.44C183.981 796.76 183.641 796.95 183.291 796.95ZM38.441 747.79L182.821 794.75L292.031 602.57L59.911 527.08L38.441 747.8V747.79Z" fill="black"/>
<path d="M572.369 498.44C574.319 470.4 578.909 424.21 589.129 390.94C604.769 340.02 635.839 325.78 643.439 331.96C651.039 338.13 642.629 346.65 636.159 354.35C629.689 362.05 625.309 369.17 625.309 369.17C625.309 369.17 643.039 358.95 647.529 378.48C647.529 378.48 667.689 368 669.259 387.42C669.259 387.42 689.589 380.32 690.039 402.26C690.489 424.19 673.759 418.46 673.759 418.46C673.759 418.46 663.059 450.37 651.949 463.73C651.949 463.73 665.669 491.01 675.559 524.87C654.219 534.05 612.509 539.78 572.379 498.44H572.369Z" fill="white"/>
<path d="M675.549 525.87C675.119 525.87 674.719 525.59 674.589 525.15C664.839 491.77 651.179 464.45 651.039 464.18C650.859 463.83 650.909 463.4 651.159 463.09C662.019 450.02 672.679 418.46 672.789 418.14C672.869 417.89 673.059 417.68 673.289 417.56C673.529 417.44 673.799 417.42 674.059 417.51C674.119 417.53 680.019 419.48 684.309 416.34C687.579 413.94 689.159 409.21 689.019 402.28C688.889 396.08 687.119 391.75 683.749 389.4C678.079 385.46 669.659 388.33 669.579 388.36C669.289 388.46 668.959 388.42 668.699 388.25C668.439 388.08 668.269 387.8 668.249 387.49C667.859 382.62 666.219 379.36 663.379 377.79C657.449 374.51 648.079 379.31 647.979 379.36C647.709 379.5 647.379 379.51 647.099 379.38C646.819 379.25 646.609 379 646.539 378.7C645.309 373.34 642.939 369.86 639.509 368.36C633.449 365.71 625.869 369.99 625.799 370.03C625.399 370.26 624.899 370.19 624.579 369.86C624.259 369.53 624.199 369.03 624.449 368.64C624.489 368.57 628.939 361.37 635.389 353.7C635.919 353.07 636.459 352.44 636.999 351.8C641.339 346.72 645.819 341.46 645.429 337.12C645.279 335.47 644.419 334.04 642.809 332.73C641.119 331.35 637.949 331.23 634.119 332.4C620.909 336.42 601.439 354.24 590.079 391.23C580.699 421.77 576.049 463.17 573.799 492.52C573.759 493.07 573.269 493.49 572.729 493.44C572.179 493.4 571.769 492.92 571.809 492.37C574.069 462.92 578.729 421.36 588.169 390.65C599.759 352.91 619.849 334.65 633.539 330.49C638.079 329.11 641.819 329.35 644.069 331.18C646.089 332.82 647.219 334.76 647.419 336.95C647.889 342.14 643.129 347.72 638.519 353.11C637.979 353.74 637.439 354.37 636.919 354.99C633.019 359.63 629.869 364.09 627.999 366.85C631.089 365.71 635.919 364.61 640.299 366.52C644.079 368.17 646.729 371.71 648.189 377.05C651.069 375.78 658.749 372.95 664.339 376.04C667.549 377.81 669.479 381.2 670.109 386.11C672.849 385.39 679.699 384.14 684.889 387.75C688.819 390.48 690.879 395.35 691.019 402.23C691.179 409.87 689.309 415.16 685.479 417.96C681.439 420.91 676.459 420.17 674.379 419.67C672.549 424.98 663.149 451.38 653.109 463.86C655.149 468.01 667.489 493.73 676.499 524.58C676.649 525.11 676.349 525.67 675.819 525.82C675.729 525.85 675.629 525.86 675.539 525.86L675.549 525.87Z" fill="black"/>
<path d="M674.471 414.19C674.471 414.19 674.391 414.19 674.351 414.19C673.801 414.13 673.411 413.63 673.471 413.08L674.521 403.92C674.581 403.37 675.081 402.98 675.631 403.04C676.181 403.1 676.571 403.6 676.511 404.15L675.461 413.31C675.401 413.82 674.971 414.2 674.471 414.2V414.19Z" fill="black"/>
<path d="M379.35 433.69L571.04 523.08C571.04 523.08 571.34 513.31 572.37 498.44C612.5 539.78 654.21 534.04 675.55 524.87C685.72 559.69 691.83 601.45 674.77 627.67C641.12 679.37 508.26 674.86 348.98 566.6L361.64 442.36L379.35 433.71V433.69Z" fill="white"/>
<path d="M244.38 390.38C282.08 401.57 334.8 417.8 379.35 433.7C381.59 436.82 383.23 439.11 385.47 442.23C397.51 672.18 414.28 829.83 414.28 829.83H62.4102L180.35 425.44C188.24 398.01 217 382.25 244.38 390.38Z" fill="white"/>
<path d="M379.35 433.69L571.04 523.08C571.04 523.08 571.34 513.31 572.37 498.44C612.5 539.78 654.21 534.04 675.55 524.87C685.72 559.69 691.83 601.45 674.77 627.67C641.12 679.37 508.26 674.86 348.98 566.6L361.64 442.36L379.35 433.71V433.69Z" fill="white"/>
<path d="M62.4093 830.83C62.3093 830.83 62.2193 830.82 62.1193 830.79C61.5893 830.63 61.2893 830.07 61.4493 829.54L81.5793 762.9C81.7393 762.37 82.2893 762.07 82.8293 762.23C83.3593 762.39 83.6593 762.95 83.4993 763.48L63.3693 830.12C63.2393 830.55 62.8393 830.83 62.4093 830.83Z" fill="#026F8A"/>
<path d="M414.28 830.83C413.75 830.83 413.31 830.42 413.28 829.89C413.24 829.19 409.02 758.43 394.13 595.64C394.1 595.27 394.27 594.9 394.59 594.7C394.91 594.5 395.31 594.49 395.63 594.68C478.34 643.5 539.61 656.94 576.44 659.62C622.75 662.99 658.29 651.14 673.93 627.11C691.1 600.73 684.03 557.91 674.9 526.21C660.82 531.98 616.99 544.46 573.21 500.71C572.31 514.16 572.03 523.01 572.03 523.1C572.02 523.44 571.84 523.74 571.55 523.92C571.26 524.1 570.91 524.12 570.6 523.97L378.95 434.6C337.32 419.74 288.45 404.6 254.77 394.5C254.59 394.44 254.42 394.34 254.3 394.19L248.49 392.62L244.09 391.31C241.98 390.69 239.75 390.19 237.46 389.83C221.2 386.47 204.71 388.33 189.73 395.21C143.45 416.44 33.4398 474.97 11.5798 559.78C4.41979 587.55 1.24979 615.93 2.14979 644.12C13.4098 650.11 26.3398 654.59 40.5898 657.42C41.1298 657.53 41.4798 658.05 41.3798 658.6C41.2698 659.14 40.7498 659.49 40.1998 659.39C25.5398 656.47 12.2498 651.84 0.699792 645.62C0.389792 645.45 0.189792 645.13 0.169792 644.77C-0.800208 616.2 2.38979 587.44 9.63979 559.29C19.1298 522.46 45.6698 486.8 88.5098 453.28C123.82 425.66 162.59 405.47 188.9 393.41C204.28 386.36 221.2 384.45 237.82 387.88C240.15 388.24 242.47 388.76 244.67 389.41L249.6 390.88L255.41 392.43C255.62 392.49 255.8 392.6 255.93 392.77C289.62 402.87 338.24 417.95 379.69 432.75C379.73 432.76 379.77 432.78 379.81 432.8L570.1 521.53C570.22 518.23 570.59 509.75 571.38 498.36C571.41 497.97 571.66 497.63 572.03 497.49C572.4 497.35 572.82 497.45 573.09 497.73C617.64 543.62 662.48 529.39 675.16 523.93C675.42 523.82 675.72 523.82 675.98 523.94C676.24 524.06 676.43 524.29 676.51 524.56C685.91 556.76 693.39 600.87 675.61 628.18C661.34 650.1 631.15 662.16 591.56 662.16C586.62 662.16 581.53 661.97 576.31 661.59C523.64 657.76 461.43 635.56 396.31 597.37C411.06 758.82 415.25 829.05 415.29 829.74C415.32 830.29 414.9 830.76 414.35 830.8C414.33 830.8 414.31 830.8 414.29 830.8L414.28 830.83Z" fill="#026F8A"/>
<path d="M569.5 551.25C569.5 551.25 569.44 551.25 569.41 551.25C568.86 551.2 568.46 550.71 568.51 550.16L570.69 526.68C570.74 526.13 571.21 525.73 571.78 525.78C572.33 525.83 572.73 526.32 572.68 526.87L570.5 550.35C570.45 550.87 570.02 551.26 569.5 551.26V551.25Z" fill="#026F8A"/>
<path d="M82.5505 764.19C82.4605 764.19 82.3705 764.18 82.2805 764.15C81.7505 764 81.4405 763.45 81.5905 762.92L155.171 499.64L140.941 487.24C140.521 486.88 140.481 486.25 140.841 485.83C141.201 485.41 141.841 485.37 142.251 485.73L156.951 498.54C157.241 498.79 157.361 499.19 157.261 499.56L83.5105 763.45C83.3905 763.89 82.9805 764.18 82.5505 764.18V764.19Z" fill="#026F8A"/>
<path d="M311.971 303.6C311.971 303.6 354.361 222.14 389.711 241.56C427.411 262.27 396.061 281.23 396.061 281.23C396.061 281.23 409.151 298.61 377.501 302.17C370.741 302.93 346.791 319.72 340.161 320.04C315.861 321.2 311.971 303.6 311.971 303.6Z" fill="black"/>
<path d="M399.341 369.28C399.271 365.58 398.771 360.87 397.981 355.57C388.321 360.15 373.791 365.05 365.801 358.19C353.101 347.29 347.781 311.63 347.781 311.63L379.531 287.93L319.931 309.21C319.931 309.21 282.291 367.06 334.131 387.05C385.971 407.04 399.761 391.71 399.351 369.27L399.341 369.28Z" fill="black"/>
<path d="M365.789 358.19C373.779 365.05 388.309 360.15 397.969 355.57C393.949 328.71 382.449 286.89 382.449 286.89L379.509 287.94L352.779 307.89C349.649 310.23 348.139 314.15 348.919 317.98C351.089 328.74 356.449 350.17 365.789 358.19Z" fill="white"/>
<path d="M381.089 289.5C383.399 298.09 392.159 331.38 395.769 354.39C390.249 356.9 382.799 359.59 376.339 359.59C372.459 359.59 369.359 358.61 367.099 356.67C358.019 348.88 352.739 326.74 350.889 317.58C350.269 314.53 351.489 311.36 353.989 309.49L380.479 289.72L381.099 289.5H381.089ZM382.459 286.89L379.519 287.94L352.789 307.89C349.659 310.23 348.149 314.15 348.929 317.98C351.099 328.74 356.459 350.17 365.799 358.19C368.649 360.64 372.339 361.59 376.339 361.59C383.539 361.59 391.769 358.51 397.979 355.57C393.959 328.71 382.459 286.89 382.459 286.89Z" fill="black"/>
<path d="M293.631 343.65C294.711 344.42 294.831 345.93 293.951 346.91C291.601 349.55 291.341 354.09 293.141 357.33C295.601 361.76 300.631 364.16 305.351 365.78C311.441 367.88 317.831 369.02 324.261 369.29C328.961 369.49 334.081 369.26 337.991 366.56C342.471 363.46 344.371 357.85 345.591 352.54C348.211 341.13 348.961 329.3 347.801 317.65C347.291 312.56 346.181 307.06 342.271 303.76C337.731 299.93 373.171 240.97 367.681 243.21C353.211 249.1 304.811 235.86 280.591 281.29C265.451 309.68 279.551 324.45 281.811 330.36C283.761 335.48 288.891 340.28 293.631 343.65Z" fill="black"/>
<path d="M268.89 396.66C276.36 403.64 292.72 413.58 323.04 409.32C325.59 408.96 327.84 407.48 329.21 405.3C333.94 397.79 345.25 379.93 349.01 374.7C353.82 368.02 352.51 342.94 349.24 335.19C345.97 327.44 329.63 323.27 323.68 331.79C317.73 340.31 318.95 350.89 335.56 354.45L333.26 359.89C331.29 364.54 326.23 367.06 321.33 365.84C311.45 363.37 296.05 359.14 292.2 355.89L268.11 385.19C265.29 388.62 265.65 393.63 268.89 396.66Z" fill="white"/>
<path d="M331.121 403.27C330.941 403.27 330.751 403.22 330.591 403.12C330.121 402.83 329.981 402.21 330.281 401.74C335.531 393.43 344.841 378.79 348.201 374.12C352.641 367.97 351.521 343.18 348.321 335.59C346.761 331.9 341.541 328.78 335.901 328.18C330.881 327.65 326.741 329.18 324.511 332.37C321.531 336.64 320.671 340.99 322.101 344.62C323.771 348.86 328.501 351.92 335.781 353.48C336.071 353.54 336.321 353.73 336.461 354C336.601 354.26 336.611 354.58 336.491 354.85L334.191 360.29C332.021 365.42 326.511 368.17 321.101 366.82C310.451 364.16 297.161 360.41 292.381 357.26L268.891 385.83C268.541 386.26 267.911 386.32 267.481 385.97C267.051 385.62 266.991 384.99 267.341 384.56L291.431 355.26C291.601 355.05 291.851 354.92 292.111 354.9C292.381 354.88 292.641 354.96 292.851 355.13C295.631 357.48 305.841 360.94 321.581 364.88C326.031 365.99 330.561 363.73 332.341 359.51L334.181 355.17C325.001 352.92 321.521 348.63 320.231 345.36C318.551 341.09 319.491 336.07 322.871 331.24C325.531 327.43 330.361 325.59 336.111 326.21C342.531 326.89 348.311 330.43 350.171 334.83C353.341 342.35 355.071 368.04 349.831 375.31C346.501 379.93 337.211 394.53 331.971 402.82C331.781 403.12 331.461 403.29 331.121 403.29V403.27Z" fill="black"/>
<path d="M343.1 351.85C342.68 351.85 342.28 351.58 342.15 351.15C341.09 347.83 338.25 345.05 334.9 344.07C334.37 343.92 334.07 343.36 334.22 342.83C334.38 342.3 334.93 342 335.46 342.15C339.49 343.33 342.78 346.55 344.05 350.54C344.22 351.07 343.93 351.63 343.4 351.8C343.3 351.83 343.2 351.85 343.1 351.85Z" fill="black"/>
<path d="M345.511 421.88C345.511 421.88 326.921 397.85 298.051 388.31C269.181 378.77 254.081 371.33 243.721 389.91C243.721 389.91 269.381 412.13 345.511 421.87V421.88Z" fill="#026F8A"/>
<path d="M333.689 164.77H1.11914C0.569141 164.77 0.119141 164.32 0.119141 163.77V44.1104C0.119141 43.5604 0.569141 43.1104 1.11914 43.1104H333.679C334.229 43.1104 334.679 43.5604 334.679 44.1104V163.76C334.679 164.31 334.229 164.76 333.679 164.76L333.689 164.77ZM2.11914 162.77H332.679V45.1104H2.11914V162.76V162.77Z" fill="#026F8A"/>
<path d="M53.6958 91.2567C53.702 85.3141 48.8852 80.4917 42.9371 80.4854C36.989 80.4792 32.162 85.2916 32.1558 91.2341C32.1496 97.1767 36.9664 101.999 42.9145 102.005C48.8626 102.012 53.6896 97.1993 53.6958 91.2567Z" fill="#026F8A"/>
<path d="M302.639 91.5498H65.3594C64.8094 91.5498 64.3594 91.0998 64.3594 90.5498C64.3594 89.9998 64.8094 89.5498 65.3594 89.5498H302.649C303.199 89.5498 303.649 89.9998 303.649 90.5498C303.649 91.0998 303.199 91.5498 302.649 91.5498H302.639Z" fill="black"/>
<path d="M302.64 108.97H153.23C152.68 108.97 152.23 108.52 152.23 107.97C152.23 107.42 152.68 106.97 153.23 106.97H302.64C303.19 106.97 303.64 107.42 303.64 107.97C303.64 108.52 303.19 108.97 302.64 108.97Z" fill="black"/>
<path d="M302.64 126.39H153.23C152.68 126.39 152.23 125.94 152.23 125.39C152.23 124.84 152.68 124.39 153.23 124.39H302.64C303.19 124.39 303.64 124.84 303.64 125.39C303.64 125.94 303.19 126.39 302.64 126.39Z" fill="black"/>
<path d="M137.92 362.59H100.92C100.37 362.59 99.9199 362.14 99.9199 361.59V178.16C99.9199 177.61 100.37 177.16 100.92 177.16C101.47 177.16 101.92 177.61 101.92 178.16V360.59H137.92C138.47 360.59 138.92 361.04 138.92 361.59C138.92 362.14 138.47 362.59 137.92 362.59Z" fill="#026F8A"/>
</g>
<defs>
<clipPath id="clip0_121_503">
<rect width="1247" height="831.04" fill="white"/>
</clipPath>
</defs>
</svg>
