<svg width="268" height="56" viewBox="0 0 268 56" fill="none" xmlns="http://www.w3.org/2000/svg">
<path fill-rule="evenodd" clip-rule="evenodd" d="M27.7603 55.5208C35.3524 55.5208 41.6005 49.7665 42.3813 42.3813C49.7664 41.6006 55.5207 35.3525 55.5207 27.7604C55.5207 20.1683 49.7664 13.9201 42.3813 13.1394C41.6005 5.75429 35.3524 0 27.7603 0C20.1682 0 13.92 5.75431 13.1393 13.1395C5.75424 13.9202 0 20.1683 0 27.7604C0 35.3525 5.75424 41.6006 13.1394 42.3814C13.9201 49.7665 20.1682 55.5208 27.7603 55.5208ZM17.8851 14.7031C17.8851 9.24919 22.3064 4.82789 27.7603 4.82789C33.2142 4.82789 37.6355 9.24919 37.6355 14.7031V15.2873C37.6355 16.722 38.7986 17.8851 40.2334 17.8851H40.8176C46.2715 17.8851 50.6928 22.3064 50.6928 27.7604C50.6928 33.2143 46.2715 37.6356 40.8176 37.6356H24.112V42.4635H37.499C36.7154 47.134 32.6535 50.6929 27.7603 50.6929C22.3064 50.6929 17.8851 46.2716 17.8851 40.8176V14.7031ZM13.0572 37.4991V18.0217C8.3867 18.8053 4.82789 22.8673 4.82789 27.7604C4.82789 32.6536 8.3867 36.7155 13.0572 37.4991Z" fill="#24D0C0"/>
<path d="M263.853 7.81853C261.562 7.81853 259.706 9.67515 259.706 11.9654C259.706 14.2557 261.562 16.1123 263.853 16.1123C266.143 16.1123 268 14.2557 268 11.9654C268 9.67515 266.143 7.81853 263.853 7.81853Z" fill="#0B537C"/>
<path d="M267.623 48.9102V19.1282H260.083V48.9102H267.623Z" fill="#0B537C"/>
<path d="M104.764 19.5052H112.304V34.2077C112.304 38.3718 115.679 41.7474 119.843 41.7474C124.007 41.7474 127.383 38.3718 127.383 34.2077V19.5052H134.923V34.2077C134.923 36.188 134.533 38.1488 133.775 39.9784C133.017 41.8079 131.906 43.4703 130.506 44.8705C129.106 46.2708 127.444 47.3815 125.614 48.1394C123.784 48.8972 121.824 49.2872 119.843 49.2872C117.863 49.2872 115.902 48.8972 114.073 48.1394C112.243 47.3815 110.581 46.2708 109.181 44.8705C107.78 43.4703 106.669 41.8079 105.912 39.9784C105.154 38.1488 104.764 36.188 104.764 34.2077V19.5052Z" fill="#0B537C"/>
<path d="M234.448 19.1282H226.908V48.9102H234.448V34.2077C234.448 30.0436 237.823 26.6679 241.987 26.6679C246.151 26.6679 249.527 30.0436 249.527 34.2077V48.9102H257.067V34.2077C257.067 32.2274 256.677 30.2666 255.919 28.437C255.161 26.6075 254.05 24.9451 252.65 23.5449C251.25 22.1446 249.588 21.0338 247.758 20.276C245.929 19.5182 243.968 19.1282 241.987 19.1282C240.007 19.1282 238.046 19.5182 236.217 20.276C235.607 20.5285 235.016 20.82 234.448 21.1484V19.1282Z" fill="#0B537C"/>
<path d="M145.478 19.1282H137.939V48.9102H145.478V34.2077C145.478 30.0436 148.854 26.6679 153.018 26.6679C157.182 26.6679 160.558 30.0436 160.558 34.2077V48.9102H168.098V34.2077C168.098 30.0436 171.473 26.6679 175.638 26.6679C179.802 26.6679 183.177 30.0436 183.177 34.2077V48.9102H190.717V34.2077C190.717 32.2274 190.327 30.2666 189.569 28.437C188.811 26.6075 187.701 24.9451 186.3 23.5449C184.9 22.1446 183.238 21.0338 181.408 20.276C179.579 19.5182 177.618 19.1282 175.638 19.1282C173.657 19.1282 171.696 19.5182 169.867 20.276C168.037 21.0338 166.375 22.1446 164.975 23.5449C164.752 23.7679 164.536 23.9976 164.328 24.2336C164.12 23.9976 163.904 23.7679 163.681 23.5449C162.281 22.1446 160.618 21.0338 158.789 20.276C156.959 19.5182 154.999 19.1282 153.018 19.1282C151.038 19.1282 149.077 19.5182 147.248 20.276C146.638 20.5285 146.047 20.82 145.478 21.1484V19.1282Z" fill="#0B537C"/>
<path d="M79.1286 5.93359H71.5889V48.9102H79.1286V34.2077C79.1286 30.0436 82.5043 26.6679 86.6684 26.6679C90.8325 26.6679 94.2081 30.0436 94.2081 34.2077V48.9102H101.748V34.2077C101.748 32.2274 101.358 30.2666 100.6 28.437C99.8423 26.6075 98.7314 24.9451 97.3312 23.5449C95.9309 22.1446 94.2686 21.0338 92.4391 20.276C90.6095 19.5182 88.6487 19.1282 86.6684 19.1282C84.6881 19.1282 82.7272 19.5182 80.8977 20.276C80.2883 20.5285 79.6974 20.82 79.1286 21.1484V5.93359Z" fill="#0B537C"/>
<path fill-rule="evenodd" clip-rule="evenodd" d="M216.352 47.2698C214.134 48.5529 211.559 49.2872 208.812 49.2872C200.484 49.2872 193.733 42.5359 193.733 34.2077C193.733 25.8795 200.484 19.1282 208.812 19.1282C211.559 19.1282 214.134 19.8625 216.352 21.1456V19.5052H223.892V48.9102H216.352V47.2698ZM216.352 34.2077C216.352 38.3718 212.977 41.7474 208.812 41.7474C204.648 41.7474 201.273 38.3718 201.273 34.2077C201.273 30.0436 204.648 26.6679 208.812 26.6679C212.977 26.6679 216.352 30.0436 216.352 34.2077Z" fill="#0B537C"/>
</svg>
