<svg width="1247" height="831" viewBox="0 0 1247 831" fill="none" xmlns="http://www.w3.org/2000/svg">
<g clip-path="url(#clip0_121_620)">
<path d="M1199.79 430.92H1032.86C1032.31 430.92 1031.86 430.47 1031.86 429.92C1031.86 429.37 1032.31 428.92 1032.86 428.92H1199.79C1200.34 428.92 1200.79 429.37 1200.79 429.92C1200.79 430.47 1200.34 430.92 1199.79 430.92Z" fill="black"/>
<path d="M280.341 430.92H1.2207C0.670703 430.92 0.220703 430.47 0.220703 429.92C0.220703 429.37 0.670703 428.92 1.2207 428.92H280.341C280.891 428.92 281.341 429.37 281.341 429.92C281.341 430.47 280.891 430.92 280.341 430.92Z" fill="black"/>
<path d="M1032.86 0H301.4V429.92H1032.86V0Z" fill="#4EB2A0"/>
<path d="M428.56 377.22C466.198 377.22 496.71 346.762 496.71 309.19C496.71 271.618 466.198 241.16 428.56 241.16C390.922 241.16 360.41 271.618 360.41 309.19C360.41 346.762 390.922 377.22 428.56 377.22Z" fill="white"/>
<path d="M504.91 290.53C496.76 256.05 465.77 230.37 428.76 230.26V308.92C428.76 308.92 492.22 293.45 504.91 290.52V290.53Z" fill="#2F6970"/>
<path d="M383.73 250.6C367.89 262.45 357.79 280.09 355.15 299.12C372.98 301.5 427.91 308.75 427.91 308.75C427.91 308.75 390.97 260.35 383.73 250.6Z" fill="white"/>
<path d="M427.909 309.75C427.909 309.75 427.819 309.75 427.779 309.75C427.779 309.75 372.849 302.5 355.019 300.12C354.759 300.08 354.519 299.95 354.359 299.73C354.199 299.52 354.129 299.25 354.169 298.99C356.869 279.49 367.429 261.56 383.139 249.81C383.349 249.65 383.619 249.58 383.879 249.62C384.139 249.66 384.379 249.8 384.539 250.01C391.699 259.64 428.349 307.67 428.719 308.15C428.969 308.47 428.989 308.91 428.789 309.26C428.609 309.57 428.279 309.76 427.919 309.76L427.909 309.75ZM356.279 298.26C372.689 300.45 415.129 306.05 425.649 307.44C418.919 298.62 390.939 261.92 383.519 252C368.939 263.24 359.069 280 356.279 298.25V298.26Z" fill="black"/>
<path d="M620.69 242.95C624.203 242.95 627.05 240.107 627.05 236.6C627.05 233.093 624.203 230.25 620.69 230.25C617.178 230.25 614.33 233.093 614.33 236.6C614.33 240.107 617.178 242.95 620.69 242.95Z" fill="#2F6970"/>
<path d="M602.139 242.95C605.652 242.95 608.499 240.107 608.499 236.6C608.499 233.093 605.652 230.25 602.139 230.25C598.627 230.25 595.779 233.093 595.779 236.6C595.779 240.107 598.627 242.95 602.139 242.95Z" fill="white"/>
<path d="M583.591 242.95C587.103 242.95 589.951 240.107 589.951 236.6C589.951 233.093 587.103 230.25 583.591 230.25C580.078 230.25 577.23 233.093 577.23 236.6C577.23 240.107 580.078 242.95 583.591 242.95Z" fill="white"/>
<path d="M620.69 375.2C624.203 375.2 627.05 372.357 627.05 368.85C627.05 365.343 624.203 362.5 620.69 362.5C617.178 362.5 614.33 365.343 614.33 368.85C614.33 372.357 617.178 375.2 620.69 375.2Z" fill="white"/>
<path d="M602.139 375.2C605.652 375.2 608.499 372.357 608.499 368.85C608.499 365.343 605.652 362.5 602.139 362.5C598.627 362.5 595.779 365.343 595.779 368.85C595.779 372.357 598.627 375.2 602.139 375.2Z" fill="white"/>
<path d="M583.591 375.2C587.103 375.2 589.951 372.357 589.951 368.85C589.951 365.343 587.103 362.5 583.591 362.5C580.078 362.5 577.23 365.343 577.23 368.85C577.23 372.357 580.078 375.2 583.591 375.2Z" fill="#2F6970"/>
<path d="M572.441 369.85H509.271C509.071 369.85 508.871 369.79 508.701 369.67L464.741 339.23C464.291 338.92 464.171 338.29 464.491 337.84C464.801 337.39 465.431 337.27 465.881 337.59L509.581 367.85H572.441C572.991 367.85 573.441 368.3 573.441 368.85C573.441 369.4 572.991 369.85 572.441 369.85Z" fill="black"/>
<path d="M465.31 267.85C464.99 267.85 464.68 267.7 464.49 267.42C464.18 266.97 464.29 266.34 464.74 266.03L508.7 235.59C508.87 235.47 509.07 235.41 509.27 235.41H572.44C572.99 235.41 573.44 235.86 573.44 236.41C573.44 236.96 572.99 237.41 572.44 237.41H509.58L465.88 267.67C465.71 267.79 465.51 267.85 465.31 267.85Z" fill="black"/>
<path d="M465.31 267.85C464.99 267.85 464.68 267.7 464.49 267.42C464.18 266.97 464.29 266.34 464.74 266.03L483.14 253.29C483.59 252.98 484.22 253.09 484.53 253.54C484.84 253.99 484.73 254.62 484.28 254.93L465.88 267.67C465.71 267.79 465.51 267.85 465.31 267.85Z" fill="white"/>
<path d="M341.74 60.3198C345.64 71.3898 363.37 79.7498 384.67 79.7498C405.97 79.7498 423.7 71.3898 427.6 60.3198H341.73H341.74Z" fill="black"/>
<path d="M407.83 141.79C405.73 137.61 396.16 134.45 384.67 134.45C373.18 134.45 363.61 137.61 361.51 141.79H407.83Z" fill="black"/>
<path d="M384.67 129.31C384.12 129.31 383.67 128.86 383.67 128.31V79.7402C383.67 79.1902 384.12 78.7402 384.67 78.7402C385.22 78.7402 385.67 79.1902 385.67 79.7402V128.31C385.67 128.86 385.22 129.31 384.67 129.31Z" fill="black"/>
<path d="M372.58 39.0799C376.34 37.2499 378.3 36.7699 381.32 36.8699C384.22 36.9699 387.11 38.3599 390.01 38.3499C395.81 38.3499 401.61 38.5599 407.43 39.0699C413.24 39.5699 419.07 40.3999 424.86 41.7699C427.75 42.4499 430.64 43.2699 433.49 44.3199C434.92 44.8299 436.33 45.4199 437.74 46.0499C439.14 46.7199 440.53 47.3999 441.89 48.2199C443.25 49.0299 444.58 49.9099 445.85 50.9299C446.5 51.4199 447.1 51.9899 447.72 52.5299C448.31 53.1199 448.91 53.6899 449.45 54.3399C450.02 54.9599 450.52 55.6499 451.03 56.3299C451.5 57.0499 451.99 57.7599 452.39 58.5299C453.22 60.0499 453.89 61.6699 454.31 63.3499C454.75 65.0199 455 66.7399 455.04 68.4199C455.09 69.2699 455.04 70.0999 455 70.9299C455 71.3399 454.93 71.7699 454.88 72.1899C454.82 72.6099 454.78 73.0299 454.71 73.4499C454.52 74.2899 454.39 75.1399 454.11 75.9599C453.98 76.3699 453.86 76.7899 453.71 77.1999L453.21 78.4099C452.49 79.9999 451.6 81.5399 450.5 82.8799C450.24 83.2299 449.96 83.5599 449.67 83.8699L448.79 84.8099C448.17 85.3799 447.56 85.9899 446.9 86.4799C445.61 87.5499 444.22 88.4099 442.83 89.2099C440.02 90.7499 437.12 91.8799 434.21 92.7699C428.39 94.5299 422.55 95.3899 416.77 96.0499C405.21 97.2999 393.76 97.4899 382.56 98.3399C379.77 98.5599 376.99 98.8399 374.28 99.2499C371.57 99.6499 368.91 100.2 366.46 100.99C364.05 101.78 361.79 102.9 360.6 104.38C360 105.12 359.65 105.92 359.51 106.89L359.45 107.64C359.47 107.89 359.44 108.16 359.48 108.39C359.51 108.88 359.64 109.33 359.78 109.76C360.12 110.6 360.67 111.39 361.52 112.07C362.36 112.76 363.4 113.36 364.57 113.85C366.9 114.84 369.57 115.45 372.27 115.92C377.72 116.82 383.39 117.15 389.08 117.54C391.93 117.73 394.79 117.93 397.67 118.24C400.55 118.56 403.44 118.95 406.34 119.81C407.06 120.04 407.79 120.28 408.5 120.61C409.22 120.92 409.93 121.31 410.6 121.81C411.27 122.31 411.91 122.94 412.37 123.73C412.83 124.52 413.08 125.45 413.09 126.32C413.2 128.04 412.29 129.92 410.89 130.85C410.21 131.34 409.47 131.67 408.73 131.88C407.98 132.1 407.25 132.23 406.45 132.25C406.14 132.25 405.89 132.01 405.89 131.71C405.89 131.45 406.06 131.22 406.31 131.16H406.35C407.61 130.83 408.89 130.25 409.75 129.43C410.19 129.02 410.5 128.56 410.66 128.05C410.77 127.81 410.78 127.53 410.84 127.27C410.83 126.99 410.88 126.71 410.83 126.44C410.7 124.26 408.16 123.09 405.6 122.46C402.99 121.83 400.2 121.59 397.4 121.42C394.6 121.26 391.77 121.21 388.92 121.16C383.23 121.06 377.48 121.04 371.63 120.37C368.7 120.01 365.74 119.52 362.75 118.44C361.26 117.9 359.75 117.17 358.34 116.11C356.93 115.07 355.64 113.56 354.86 111.78C354.49 110.89 354.22 109.95 354.11 109.03C354.03 108.56 354.03 108.11 354 107.65C354 107.19 354.03 106.73 354.06 106.26C354.22 104.39 354.96 102.45 356.1 100.93C357.24 99.3899 358.67 98.2599 360.1 97.3899C361.54 96.5099 363.01 95.8599 364.48 95.2999C367.43 94.2499 370.36 93.5899 373.27 93.0799C376.18 92.5699 379.08 92.1999 381.96 91.8999C387.72 91.2899 393.43 90.9099 399.1 90.5099C404.77 90.1099 410.4 89.6699 415.93 88.9699C421.46 88.2699 426.92 87.3099 432.01 85.7199C434.54 84.9099 436.96 83.9199 439.14 82.6999C440.2 82.0599 441.24 81.4099 442.14 80.6399C442.62 80.2799 443 79.8599 443.44 79.4699L444.01 78.8399C444.21 78.6399 444.38 78.4199 444.54 78.1899C445.93 76.4399 446.75 74.3999 447.14 72.1599C447.18 71.8799 447.2 71.5899 447.24 71.2999C447.27 71.0099 447.32 70.7299 447.32 70.4299C447.32 69.8399 447.38 69.2499 447.34 68.6699C447.32 67.5099 447.13 66.3899 446.85 65.3099C446.58 64.2199 446.14 63.1999 445.61 62.2199C445.36 61.7199 445.03 61.2599 444.72 60.7799C444.37 60.3299 444.04 59.8599 443.64 59.4399C443.27 58.9899 442.83 58.5899 442.42 58.1699C441.96 57.7799 441.53 57.3599 441.04 56.9999C440.09 56.2399 439.04 55.5499 437.95 54.8999C436.87 54.2399 435.69 53.6799 434.52 53.1199C433.32 52.5899 432.11 52.0799 430.85 51.6399C428.35 50.7299 425.74 49.9999 423.09 49.3799C417.78 48.1499 412.28 47.3899 406.75 46.8499C401.21 46.3299 395.62 46.0899 390.02 46.0599C387.22 46.0399 384.42 46.6399 381.62 46.7099C378.83 46.7899 375.99 46.9099 373.29 47.1099H373.23C371.16 47.2699 367.56 46.3899 367.25 43.7699C366.89 40.7099 370.55 39.8699 372.61 39.0599L372.58 39.0799Z" fill="black"/>
<path d="M384.67 134.83C384.12 134.83 383.67 134.38 383.67 133.83V101.83C383.67 101.28 384.12 100.83 384.67 100.83C385.22 100.83 385.67 101.28 385.67 101.83V133.83C385.67 134.38 385.22 134.83 384.67 134.83Z" fill="black"/>
<path d="M711 190.27V126.98L756.91 109.64L802.54 121.61L848.17 80.5199L893.8 87.2899L939.42 46.6699V190.27H711Z" fill="white"/>
<path d="M948.03 197.84H702.4C701.85 197.84 701.4 197.39 701.4 196.84V57.21C701.4 56.66 701.85 56.21 702.4 56.21C702.95 56.21 703.4 56.66 703.4 57.21V195.84H948.03C948.58 195.84 949.03 196.29 949.03 196.84C949.03 197.39 948.58 197.84 948.03 197.84Z" fill="black"/>
<path d="M948.03 377.84H702.4C701.85 377.84 701.4 377.39 701.4 376.84V237.21C701.4 236.66 701.85 236.21 702.4 236.21C702.95 236.21 703.4 236.66 703.4 237.21V375.84H948.03C948.58 375.84 949.03 376.29 949.03 376.84C949.03 377.39 948.58 377.84 948.03 377.84Z" fill="black"/>
<path d="M759.111 314.19H710.801V370.27H759.111V314.19Z" fill="white"/>
<path d="M817.33 237.21H769.02V370.27H817.33V237.21Z" fill="#2F6970"/>
<path d="M875.55 332.54H827.24V370.27H875.55V332.54Z" fill="white"/>
<path d="M933.759 282.4H885.449V370.26H933.759V282.4Z" fill="#2F6970"/>
<path d="M627.04 84.02H482.99C482.44 84.02 481.99 83.57 481.99 83.02C481.99 82.47 482.44 82.02 482.99 82.02H627.04C627.59 82.02 628.04 82.47 628.04 83.02C628.04 83.57 627.59 84.02 627.04 84.02Z" fill="black"/>
<path d="M627.04 102.01H482.99C482.44 102.01 481.99 101.56 481.99 101.01C481.99 100.46 482.44 100.01 482.99 100.01H627.04C627.59 100.01 628.04 100.46 628.04 101.01C628.04 101.56 627.59 102.01 627.04 102.01Z" fill="black"/>
<path d="M548.67 119.99H482.99C482.44 119.99 481.99 119.54 481.99 118.99C481.99 118.44 482.44 117.99 482.99 117.99H548.67C549.22 117.99 549.67 118.44 549.67 118.99C549.67 119.54 549.22 119.99 548.67 119.99Z" fill="black"/>
<path d="M548.67 50.71H482.99V69.77H548.67V50.71Z" fill="white"/>
<path d="M195.56 110.96H32C14.36 110.96 0 96.6 0 78.96C0 61.32 14.36 46.96 32 46.96H195.56C213.21 46.96 227.56 61.31 227.56 78.96C227.56 96.61 213.2 110.96 195.56 110.96ZM32 48.96C15.46 48.96 2 62.42 2 78.96C2 95.5 15.46 108.96 32 108.96H195.56C212.1 108.96 225.56 95.5 225.56 78.96C225.56 62.42 212.1 48.96 195.56 48.96H32Z" fill="#2F6970"/>
<path d="M173.909 169.17C160.929 169.17 148.079 162.72 140.329 152.3C132.549 141.83 130.089 127.58 133.909 115.11C134.069 114.58 134.629 114.29 135.159 114.45C135.689 114.61 135.989 115.17 135.819 115.7C132.179 127.58 134.519 141.14 141.929 151.11C149.299 161.03 161.539 167.18 173.899 167.18C173.959 167.18 174.029 167.18 174.079 167.18C174.629 167.18 175.079 167.62 175.079 168.18C175.079 168.73 174.639 169.18 174.079 169.18C174.019 169.18 173.959 169.18 173.899 169.18L173.909 169.17Z" fill="#2F6970"/>
<path d="M62.8595 71.3599H32.4395C31.8895 71.3599 31.4395 70.9099 31.4395 70.3599C31.4395 69.8099 31.8895 69.3599 32.4395 69.3599H62.8595C63.4095 69.3599 63.8595 69.8099 63.8595 70.3599C63.8595 70.9099 63.4095 71.3599 62.8595 71.3599Z" fill="#2F6970"/>
<path d="M197.519 71.3599H84.4492C83.8992 71.3599 83.4492 70.9099 83.4492 70.3599C83.4492 69.8099 83.8992 69.3599 84.4492 69.3599H197.519C198.069 69.3599 198.519 69.8099 198.519 70.3599C198.519 70.9099 198.069 71.3599 197.519 71.3599Z" fill="#2F6970"/>
<path d="M137.549 85.8501H32.4395C31.8895 85.8501 31.4395 85.4001 31.4395 84.8501C31.4395 84.3001 31.8895 83.8501 32.4395 83.8501H137.549C138.099 83.8501 138.549 84.3001 138.549 84.8501C138.549 85.4001 138.099 85.8501 137.549 85.8501Z" fill="#2F6970"/>
<path d="M197.521 85.8501H161.211C160.661 85.8501 160.211 85.4001 160.211 84.8501C160.211 84.3001 160.661 83.8501 161.211 83.8501H197.521C198.071 83.8501 198.521 84.3001 198.521 84.8501C198.521 85.4001 198.071 85.8501 197.521 85.8501Z" fill="#2F6970"/>
<path d="M160.941 338.43L143.531 700.58C143.271 704.85 141.701 708.91 139.091 712.13L124.481 730.12C121.951 733.23 124.011 738.1 127.851 738.1H224.121C231.551 738.1 237.511 731.49 237.291 723.5L229.191 458.94L313.891 728.17C315.611 734.08 320.701 738.11 326.461 738.11H427.041C431.481 738.11 433.211 731.91 429.511 729.28L402.251 709.9C399.031 707.61 396.571 704.28 395.231 700.39L275.851 351.69L160.951 338.44L160.941 338.43Z" fill="white"/>
<path d="M427.03 739.1H326.45C320.21 739.1 314.78 734.82 312.92 728.44L230.4 466.15L238.28 723.47C238.4 727.75 236.82 731.91 233.93 734.87C231.28 737.6 227.79 739.1 224.11 739.1H127.84C125.73 739.1 123.91 737.91 122.96 735.92C121.94 733.77 122.22 731.31 123.7 729.49L138.31 711.5C140.78 708.46 142.28 704.56 142.53 700.52L159.93 338.39C159.94 338.11 160.07 337.85 160.28 337.68C160.49 337.5 160.77 337.42 161.04 337.45L275.94 350.7C276.32 350.74 276.65 351 276.77 351.37L396.15 700.07C397.43 703.79 399.73 706.91 402.8 709.09L430.06 728.47C432.15 729.95 433 732.65 432.2 735.18C431.44 737.57 429.4 739.12 427.02 739.12L427.03 739.1ZM229.18 457.94C229.61 457.94 230 458.22 230.13 458.64L314.83 727.87C316.44 733.4 321.11 737.11 326.45 737.11H427.03C428.85 737.11 429.92 735.79 430.31 734.56C430.73 733.25 430.62 731.29 428.92 730.09L401.66 710.71C398.25 708.28 395.7 704.83 394.28 700.71L275.1 352.6L161.89 339.55L144.54 700.63C144.26 705.09 142.61 709.4 139.88 712.76L125.27 730.75C124.09 732.2 124.25 733.93 124.79 735.06C125.4 736.34 126.55 737.1 127.87 737.1H224.14C227.27 737.1 230.25 735.81 232.52 733.48C235.03 730.9 236.41 727.27 236.3 723.53L228.2 458.97C228.19 458.47 228.54 458.04 229.03 457.95C229.09 457.95 229.14 457.94 229.2 457.94H229.18Z" fill="black"/>
<path d="M229.18 459.94C228.63 459.94 228.18 459.49 228.18 458.94L228.24 440.88C228.24 440.33 228.69 439.88 229.24 439.88C229.79 439.88 230.24 440.33 230.24 440.88L230.18 458.94C230.18 459.49 229.73 459.94 229.18 459.94Z" fill="black"/>
<path d="M234.079 717.42C234.079 717.42 234.049 717.42 234.039 717.42C205.939 716.33 177.489 714.54 149.459 712.08C148.909 712.03 148.499 711.55 148.549 711C148.599 710.45 149.089 710.04 149.629 710.09C177.619 712.54 206.039 714.34 234.109 715.42C234.659 715.44 235.089 715.91 235.069 716.46C235.049 717 234.609 717.42 234.069 717.42H234.079Z" fill="black"/>
<path d="M314.381 715.86C313.831 715.86 313.391 715.42 313.381 714.88C313.381 714.33 313.811 713.87 314.361 713.86C340.711 713.46 367.271 711.01 393.311 706.58C393.861 706.49 394.371 706.85 394.461 707.4C394.551 707.94 394.191 708.46 393.641 708.55C367.511 712.99 340.841 715.45 314.391 715.86H314.371H314.381Z" fill="black"/>
<path d="M365.931 276.29C365.931 276.29 309.471 229.55 293.291 224.05C259.971 212.72 219.151 217.44 187.271 233.58C155.391 249.71 153.991 303.76 158.821 332.84C158.821 332.84 136.901 454.74 129.801 512.89L192.961 512.25L216.361 354.76L261.061 357.6L294.411 511.23L340.531 510.76L281.641 364.69L298.591 293.11C298.591 293.11 340.041 324.76 365.921 323.09C391.801 321.42 401.871 304.11 403.821 291.64C406.211 276.3 365.921 276.3 365.921 276.3L365.931 276.29Z" fill="white"/>
<path d="M129.81 513.88C129.53 513.88 129.25 513.76 129.06 513.55C128.87 513.34 128.78 513.05 128.81 512.76C135.71 456.25 156.87 338.05 157.81 332.83C153.3 305.44 153.59 249.5 186.82 232.68C220.28 215.75 261.2 212.08 293.62 223.1C309.37 228.46 361.52 271.35 366.3 275.29C369.8 275.32 395.2 275.85 402.76 284.68C404.54 286.76 405.23 289.15 404.82 291.78C402.55 306.33 391.16 322.46 366 324.08C365.31 324.12 364.61 324.15 363.9 324.15C340.18 324.15 306.21 299.98 299.23 294.82L282.7 364.61L341.47 510.39C341.59 510.7 341.56 511.04 341.37 511.32C341.19 511.59 340.88 511.76 340.55 511.76L294.43 512.23C293.95 512.2 293.54 511.91 293.44 511.44L260.25 358.55L217.22 355.82L193.96 512.4C193.89 512.89 193.47 513.25 192.98 513.25L129.82 513.89L129.81 513.88ZM253.61 218.82C231.33 218.82 208.13 224.15 187.73 234.47C155.46 250.8 155.36 305.85 159.82 332.68C159.84 332.79 159.84 332.91 159.82 333.02C159.6 334.23 138.11 453.98 130.95 511.88L192.12 511.26L215.39 354.62C215.47 354.11 215.92 353.74 216.44 353.77L261.14 356.61C261.59 356.64 261.96 356.96 262.05 357.4L295.22 510.23L339.06 509.79L280.72 365.08C280.64 364.89 280.63 364.68 280.68 364.48L297.63 292.9C297.71 292.57 297.95 292.3 298.27 292.19C298.59 292.08 298.94 292.13 299.21 292.34C299.62 292.65 340.66 323.74 365.87 322.12C389.85 320.58 400.7 305.3 402.84 291.51C403.16 289.45 402.64 287.65 401.24 286.02C393.88 277.43 366.21 277.33 365.94 277.33C365.71 277.33 365.48 277.25 365.3 277.1C364.74 276.63 308.8 230.41 292.98 225.03C280.79 220.88 267.37 218.85 253.61 218.85V218.82Z" fill="#2F6970"/>
<path d="M272.411 316.33C272.361 316.33 272.301 316.33 272.251 316.32C271.711 316.23 271.341 315.71 271.431 315.17L277.881 276.51L267.541 268.31C267.291 268.11 267.151 267.8 267.161 267.48C267.181 267.16 267.351 266.86 267.621 266.69L277.751 260.15L263.101 221.56C262.901 221.04 263.161 220.47 263.681 220.27C264.191 220.08 264.771 220.33 264.971 220.85L279.911 260.2C280.081 260.64 279.911 261.14 279.521 261.39L269.891 267.61L279.601 275.31C279.891 275.54 280.021 275.9 279.971 276.26L273.431 315.51C273.351 316 272.931 316.35 272.441 316.35L272.411 316.33Z" fill="#2F6970"/>
<path d="M231.089 320.02C230.649 320.02 230.249 319.73 230.129 319.28L219.869 281.11C219.789 280.83 219.839 280.53 220.009 280.29L225.889 271.53L218.059 266.29C217.749 266.08 217.579 265.71 217.619 265.34L222.579 224.87C222.649 224.32 223.119 223.93 223.689 224C224.239 224.07 224.629 224.57 224.559 225.11L219.669 264.97L227.819 270.43C228.039 270.58 228.189 270.81 228.239 271.07C228.289 271.33 228.239 271.6 228.089 271.82L221.909 281.03L232.049 318.76C232.189 319.29 231.879 319.84 231.339 319.99C231.249 320.01 231.169 320.02 231.079 320.02H231.089Z" fill="#2F6970"/>
<path d="M257.17 218.25C257.17 218.25 266.99 264.1 262.02 300.62L240.5 301.92C240.5 301.92 236.48 244.84 224.18 221.08L257.17 218.24V218.25Z" fill="#2F6970"/>
<path d="M201.039 386.48H283.719L311.849 280.76H229.179L201.039 386.48Z" fill="black"/>
<path d="M195.65 325.03C220.72 323.36 284.54 318.5 299.75 321.15C299.75 321.15 309.79 322.18 305.3 333.08C305.3 333.08 307.71 339.66 302.84 343.24C302.84 343.24 305.28 349.32 300.16 352.93C300.16 352.93 303.48 365.77 289.52 364.67L290.34 360.98C273.87 364.11 255.59 366.67 235.71 368.07C224.25 368.88 213.31 369.22 202.95 369.23C199.44 368.58 194.31 367.36 188.44 364.92C182.51 362.46 179.47 361.25 178.09 359.07C174.07 352.71 181.81 339.12 195.66 325.03H195.65Z" fill="white"/>
<path d="M256.07 364.3C255.63 364.3 255.22 364 255.1 363.55C248.99 339.98 258.43 320.92 258.52 320.74C258.77 320.25 259.37 320.05 259.86 320.3C260.35 320.55 260.55 321.15 260.3 321.64C260.21 321.82 251.11 340.23 257.03 363.05C257.17 363.58 256.85 364.13 256.31 364.27C256.23 364.29 256.14 364.3 256.06 364.3H256.07Z" fill="#2F6970"/>
<path d="M291.15 365.74C290.6 365.74 290.03 365.72 289.44 365.67C289.15 365.65 288.89 365.5 288.71 365.27C288.54 365.04 288.47 364.74 288.54 364.46L289.36 360.77C289.48 360.23 290.01 359.89 290.55 360.01C291.09 360.13 291.43 360.66 291.31 361.2L290.75 363.74C294.03 363.8 296.44 362.99 297.87 361.29C300.43 358.24 299.19 353.23 299.18 353.18C299.08 352.78 299.23 352.35 299.57 352.11C303.99 348.99 301.92 343.66 301.9 343.61C301.73 343.19 301.87 342.7 302.24 342.43C306.46 339.33 304.37 333.48 304.35 333.43C304.26 333.19 304.27 332.94 304.36 332.7C305.68 329.5 305.8 326.96 304.71 325.13C303.18 322.56 299.67 322.15 299.63 322.15C284.13 319.45 252.58 320.76 228.84 322.34C228.31 322.39 227.81 321.96 227.78 321.41C227.74 320.86 228.16 320.38 228.71 320.35C252.56 318.77 284.27 317.45 299.91 320.18C300.02 320.18 304.36 320.67 306.42 324.11C307.81 326.44 307.79 329.47 306.35 333.13C307.15 335.66 307.51 340.52 304 343.6C304.73 346.08 304.86 350.43 301.26 353.36C301.56 355.03 302.04 359.45 299.41 362.58C297.64 364.69 294.87 365.75 291.15 365.75V365.74Z" fill="black"/>
<path d="M305.429 334.81C305.069 334.81 304.729 334.62 304.549 334.28C303.139 331.63 300.289 329.82 297.299 329.67C296.749 329.64 296.319 329.17 296.349 328.62C296.379 328.07 296.859 327.64 297.399 327.67C301.079 327.86 304.579 330.08 306.319 333.34C306.579 333.83 306.399 334.43 305.909 334.69C305.759 334.77 305.599 334.81 305.439 334.81H305.429Z" fill="black"/>
<path d="M302.9 344.39C302.6 344.39 302.31 344.26 302.11 344C300.21 341.55 296.76 340.3 293.73 340.97C293.19 341.09 292.66 340.75 292.54 340.21C292.42 339.67 292.76 339.14 293.3 339.02C297.11 338.18 301.29 339.69 303.69 342.78C304.03 343.22 303.95 343.84 303.51 344.18C303.33 344.32 303.11 344.39 302.9 344.39Z" fill="black"/>
<path d="M300.349 355.07C299.819 355.07 299.379 354.66 299.349 354.12C299.329 353.76 299.019 353.35 298.429 352.88C296.739 351.55 294.499 350.8 292.389 350.86C291.789 350.86 291.379 350.43 291.369 349.88C291.359 349.33 291.799 348.87 292.349 348.86C294.999 348.81 297.589 349.67 299.659 351.3C300.739 352.15 301.289 353.03 301.339 354C301.369 354.55 300.949 355.02 300.389 355.05C300.369 355.05 300.349 355.05 300.339 355.05L300.349 355.07Z" fill="black"/>
<path d="M208.979 324.43C208.979 324.43 208.889 324.43 208.839 324.43C208.289 324.35 207.909 323.85 207.989 323.3C210.079 308.4 212.839 293.4 216.209 278.73C216.329 278.19 216.869 277.86 217.409 277.98C217.949 278.1 218.279 278.64 218.159 279.18C214.809 293.8 212.049 308.73 209.969 323.58C209.899 324.08 209.469 324.44 208.979 324.44V324.43Z" fill="#2F6970"/>
<path d="M195.649 326.03C195.129 326.03 194.689 325.63 194.649 325.11C194.609 324.56 195.019 324.08 195.569 324.04C201.149 323.62 206.839 322.91 212.339 322.22L215.239 321.86C215.789 321.79 216.289 322.18 216.349 322.73C216.419 323.28 216.029 323.78 215.479 323.85L212.589 324.21C207.069 324.9 201.359 325.61 195.729 326.04C195.699 326.04 195.679 326.04 195.649 326.04V326.03Z" fill="#2F6970"/>
<path d="M199.169 370.57C199.109 370.57 199.049 370.57 198.989 370.55C193.569 369.56 188.649 367.83 183.959 365.26C172.319 358.87 163.449 347.92 159.619 335.21C159.459 334.68 159.759 334.12 160.289 333.96C160.819 333.8 161.379 334.1 161.539 334.63C165.219 346.84 173.739 357.37 184.929 363.5C189.429 365.97 194.149 367.63 199.349 368.58C199.889 368.68 200.249 369.2 200.149 369.74C200.059 370.22 199.639 370.56 199.169 370.56V370.57Z" fill="#2F6970"/>
<path d="M403.83 247.2C403.83 247.2 408.72 268.85 403.93 290.21C399.14 311.57 363.08 303.3 357.75 286.32L369.19 257.66L403.83 247.2Z" fill="white"/>
<path d="M351.779 300.11C351.649 300.11 351.519 300.08 351.389 300.03C350.879 299.82 350.639 299.23 350.859 298.72L368.269 257.28C368.389 257.01 368.619 256.8 368.899 256.71L403.539 246.25C403.799 246.17 404.079 246.2 404.319 246.33C404.559 246.46 404.729 246.68 404.799 246.95C404.859 247.18 410.729 269.89 403.919 295.96C403.779 296.5 403.229 296.82 402.699 296.67C402.169 296.53 401.849 295.98 401.989 295.45C407.859 273 404.139 253.1 403.109 248.47L369.939 258.49L352.709 299.5C352.549 299.88 352.179 300.11 351.789 300.11H351.779Z" fill="#2F6970"/>
<path d="M367.961 268.26H384.511C386.021 268.26 387.341 267.27 387.771 265.83L409.011 194.12C409.651 191.94 408.021 189.76 405.751 189.76H389.201C387.691 189.76 386.371 190.75 385.941 192.19L364.701 263.9C364.061 266.08 365.691 268.26 367.961 268.26Z" fill="black"/>
<path d="M391.24 253.93L388.4 264.92C388.4 264.92 398.8 265.31 402.77 256.56C405.4 250.75 410.18 238.95 413.1 231.69C414.65 227.84 413.69 223.42 410.67 220.57C406.56 216.68 400.74 211.81 396.88 211.19C390.33 210.14 395.51 217.78 399.2 221.78C399.2 221.78 391.73 215.27 389.07 218.96C385.09 224.49 399.25 228.28 399.94 236.93C399.94 236.93 387.13 222.8 384.99 227.98C382.91 232.99 392.6 238.09 394.74 244.55C394.74 244.55 387.14 234.4 383.15 238.22C379.44 241.78 390.09 247.79 391.25 253.93H391.24Z" fill="white"/>
<path d="M388.651 265.92C388.501 265.92 388.401 265.92 388.371 265.92C388.071 265.91 387.791 265.76 387.611 265.52C387.431 265.28 387.371 264.97 387.441 264.67L390.221 253.9C389.671 251.52 387.451 248.99 385.481 246.75C382.631 243.51 379.691 240.15 382.461 237.5C383.331 236.66 384.431 236.27 385.661 236.38C386.531 236.45 387.431 236.77 388.311 237.23C385.361 234 382.701 230.94 384.081 227.6C384.581 226.39 385.471 226 386.131 225.89C389.011 225.38 393.911 229.48 397.281 232.75C395.971 230.89 394.101 229.27 392.371 227.76C389.091 224.91 385.701 221.96 388.271 218.38C388.891 217.51 389.801 216.99 390.881 216.86C392.101 216.72 393.451 217.09 394.731 217.67C393.301 215.45 392.231 212.99 393.061 211.42C393.671 210.29 395.001 209.87 397.051 210.2C400.341 210.73 405.161 213.97 411.371 219.84C414.701 222.99 415.751 227.79 414.041 232.06C411.331 238.82 406.381 251.05 403.691 256.97C399.821 265.51 390.441 265.92 388.661 265.92H388.651ZM385.271 238.35C384.711 238.35 384.251 238.54 383.841 238.93C382.551 240.17 384.171 242.21 386.981 245.42C389.181 247.92 391.671 250.76 392.231 253.73C392.261 253.87 392.251 254.02 392.221 254.17L389.721 263.87C392.481 263.67 398.991 262.5 401.871 256.13C404.541 250.24 409.481 238.04 412.181 231.3C413.591 227.8 412.731 223.86 409.991 221.28C404.241 215.85 399.541 212.61 396.731 212.16C395.501 211.96 394.931 212.14 394.821 212.35C394.311 213.3 396.291 217.12 399.941 221.09C400.301 221.48 400.291 222.08 399.921 222.46C399.551 222.84 398.951 222.86 398.551 222.52C397.261 221.4 393.431 218.56 391.101 218.83C390.571 218.89 390.191 219.11 389.891 219.53C388.521 221.43 389.991 223.03 393.681 226.23C396.911 229.04 400.581 232.22 400.941 236.84C400.971 237.27 400.731 237.67 400.341 237.84C399.951 238.01 399.491 237.91 399.201 237.59C395.311 233.3 388.751 227.43 386.461 227.84C386.281 227.87 386.081 227.94 385.911 228.35C384.971 230.62 387.331 233.2 390.071 236.19C392.351 238.67 394.701 241.24 395.691 244.22C395.841 244.69 395.641 245.19 395.201 245.42C394.771 245.65 394.231 245.52 393.941 245.13C392.591 243.33 388.431 238.59 385.491 238.35C385.411 238.35 385.341 238.35 385.271 238.35Z" fill="black"/>
<path d="M406.599 229.33C406.359 229.33 406.129 229.25 405.939 229.08L398.539 222.53C398.129 222.16 398.089 221.53 398.459 221.12C398.829 220.71 399.459 220.67 399.869 221.03L407.269 227.58C407.679 227.95 407.719 228.58 407.349 228.99C407.149 229.21 406.879 229.33 406.599 229.33Z" fill="black"/>
<path d="M255.5 201.35L252.92 217.83L249.01 232.79L229.18 219.92L234.42 182.95L255.5 201.35Z" fill="white"/>
<path d="M229.18 220.92C229.18 220.92 229.09 220.92 229.04 220.92C228.49 220.84 228.11 220.34 228.19 219.79L233.43 182.83C233.48 182.47 233.73 182.16 234.07 182.03C234.41 181.9 234.8 181.97 235.08 182.21L256.16 200.61C256.42 200.84 256.54 201.18 256.49 201.52L253.91 217.99C253.83 218.53 253.32 218.91 252.77 218.82C252.22 218.74 251.85 218.22 251.94 217.68L254.43 201.75L235.15 184.92L230.17 220.06C230.1 220.56 229.67 220.92 229.18 220.92Z" fill="black"/>
<path d="M276.621 163.78C278.821 158.43 277.681 151.86 273.801 147.56C269.921 143.26 263.501 141.45 257.951 143.09C258.571 138.8 255.191 134.65 251.071 133.32C246.951 131.99 242.391 132.96 238.461 134.78C233.211 137.2 228.581 141.22 226.081 146.43C223.581 151.64 223.411 158.08 226.271 163.1C223.631 161.67 220.081 162.78 218.261 165.17C216.441 167.56 216.181 170.88 217.021 173.76C217.861 176.64 219.671 179.15 221.681 181.38C225.911 186.07 231.301 189.86 237.401 191.53C243.501 193.2 250.341 192.58 255.681 189.2C259.571 186.74 262.531 182.76 263.641 178.29C264.051 176.65 263.581 173.99 265.261 173.11C267.401 171.99 269.641 171.69 271.661 170.15C273.831 168.5 275.591 166.31 276.631 163.78H276.621Z" fill="black"/>
<path d="M260.71 161.73C262.19 162.08 263.42 163.1 264.01 164.49C267.21 172.01 276.58 197.15 260.9 202.14C242.41 208.03 237.77 195.09 237.77 195.09C237.77 195.09 227.67 193.56 227.34 184.99C227.01 176.41 236.87 178.13 239.99 185.26C239.99 185.26 246.14 184.81 244.14 178.03C242.22 171.53 243.27 157.61 260.71 161.73Z" fill="white"/>
<path d="M252.03 204.67C241.97 204.67 238.01 197.95 237.06 195.97C234.83 195.47 226.64 193.09 226.33 185.03C226.13 179.92 229.16 178.66 230.47 178.36C234.06 177.54 238.44 180.1 240.55 184.15C241.23 183.98 242.3 183.57 242.95 182.63C243.64 181.62 243.72 180.17 243.17 178.32C242.16 174.88 241.56 167.87 245.75 163.44C248.96 160.05 254.07 159.15 260.92 160.76C262.71 161.18 264.2 162.43 264.91 164.1C267.65 170.52 273.53 186.51 269.08 196.23C267.53 199.61 264.87 201.93 261.18 203.1C257.67 204.22 254.63 204.67 252.01 204.67H252.03ZM231.84 180.21C231.52 180.21 231.21 180.24 230.92 180.31C229.15 180.72 228.23 182.37 228.33 184.95C228.62 192.59 237.54 194.05 237.91 194.1C238.27 194.16 238.58 194.41 238.7 194.75C238.88 195.24 243.3 206.69 260.59 201.18C263.77 200.17 265.96 198.27 267.28 195.38C271.52 186.14 265.14 169.69 263.09 164.87C262.63 163.78 261.65 162.97 260.48 162.69C254.36 161.25 249.9 161.96 247.22 164.79C244.11 168.08 243.94 173.8 245.1 177.73C245.83 180.2 245.66 182.23 244.59 183.76C243.04 186 240.18 186.24 240.06 186.24C239.63 186.26 239.24 186.03 239.07 185.64C237.55 182.16 234.33 180.18 231.84 180.18V180.21Z" fill="black"/>
<path d="M236.71 190.73C236.34 190.73 235.98 190.52 235.81 190.16C235 188.49 233.07 187.34 231.21 187.45C230.69 187.48 230.19 187.06 230.16 186.51C230.13 185.96 230.55 185.49 231.1 185.45C233.76 185.3 236.45 186.87 237.62 189.28C237.86 189.78 237.65 190.38 237.16 190.62C237.02 190.69 236.87 190.72 236.73 190.72L236.71 190.73Z" fill="black"/>
<path d="M293.12 535.87C290.9 553.51 280.04 568.12 263.9 568.12C247.76 568.12 236.84 553.52 234.68 535.87C232.36 516.92 242.22 494.01 269.59 504.63C288.03 498.74 295.33 518.32 293.13 535.87H293.12Z" fill="black"/>
<path d="M463.97 535.87C461.75 553.51 450.89 568.12 434.75 568.12C418.61 568.12 407.69 553.52 405.53 535.87C403.21 516.92 413.07 494.01 440.44 504.63C458.88 498.74 466.18 518.32 463.98 535.87H463.97Z" fill="black"/>
<path d="M641.951 535.87C639.731 553.51 628.871 568.12 612.731 568.12C596.591 568.12 585.671 553.52 583.511 535.87C581.191 516.92 591.051 494.01 618.421 504.63C636.861 498.74 644.161 518.32 641.961 535.87H641.951Z" fill="black"/>
<path d="M812.8 535.87C810.58 553.51 799.72 568.12 783.58 568.12C767.44 568.12 756.52 553.52 754.36 535.87C752.04 516.92 761.9 494.01 789.27 504.63C807.71 498.74 815.01 518.32 812.81 535.87H812.8Z" fill="black"/>
<path d="M990.781 535.87C988.561 553.51 977.701 568.12 961.561 568.12C945.421 568.12 934.501 553.52 932.341 535.87C930.021 516.92 939.881 494.01 967.251 504.63C985.691 498.74 992.991 518.32 990.791 535.87H990.781Z" fill="black"/>
<path d="M1166.14 535.87C1163.92 553.51 1153.06 568.12 1136.92 568.12C1120.78 568.12 1109.86 553.52 1107.7 535.87C1105.38 516.92 1115.24 494.01 1142.61 504.63C1161.05 498.74 1168.35 518.32 1166.15 535.87H1166.14Z" fill="black"/>
<path d="M1245.63 830L1.5 829.96V664.48L423.31 623.7L1005.64 614.26L1245.63 657.73V830Z" fill="white"/>
<path d="M1039.37 627.05V576.54C1039.37 548.66 1018.6 526.05 992.989 526.05H929.489C903.869 526.05 883.109 548.65 883.109 576.54V627.05H1039.38H1039.37Z" fill="white"/>
<path d="M1039.38 628.05C1038.83 628.05 1038.38 627.6 1038.38 627.05V576.54C1038.38 549.25 1018.02 527.05 992.999 527.05H929.499C904.479 527.05 884.119 549.25 884.119 576.54V627.05C884.119 627.6 883.669 628.05 883.119 628.05C882.569 628.05 882.119 627.6 882.119 627.05V576.54C882.119 548.15 903.379 525.05 929.499 525.05H992.999C1019.13 525.05 1040.38 548.15 1040.38 576.54V627.05C1040.38 627.6 1039.93 628.05 1039.38 628.05Z" fill="black"/>
<path d="M1212.59 627.05V576.54C1212.59 548.66 1191.82 526.05 1166.21 526.05H1102.71C1077.09 526.05 1056.33 548.65 1056.33 576.54V627.05H1212.6H1212.59Z" fill="white"/>
<path d="M1212.59 628.05C1212.04 628.05 1211.59 627.6 1211.59 627.05V576.54C1211.59 549.25 1191.23 527.05 1166.21 527.05H1102.71C1077.69 527.05 1057.33 549.25 1057.33 576.54V627.05C1057.33 627.6 1056.88 628.05 1056.33 628.05C1055.78 628.05 1055.33 627.6 1055.33 627.05V576.54C1055.33 548.15 1076.59 525.05 1102.71 525.05H1166.21C1192.34 525.05 1213.59 548.15 1213.59 576.54V627.05C1213.59 627.6 1213.14 628.05 1212.59 628.05Z" fill="black"/>
<path d="M863.539 627.05V576.54C863.539 548.66 842.769 526.05 817.159 526.05H753.659C728.039 526.05 707.279 548.65 707.279 576.54V627.05H863.549H863.539Z" fill="white"/>
<path d="M863.539 628.05C862.989 628.05 862.539 627.6 862.539 627.05V576.54C862.539 549.25 842.179 527.05 817.159 527.05H753.659C728.639 527.05 708.279 549.25 708.279 576.54V627.05C708.279 627.6 707.829 628.05 707.279 628.05C706.729 628.05 706.279 627.6 706.279 627.05V576.54C706.279 548.15 727.539 525.05 753.659 525.05H817.159C843.289 525.05 864.539 548.15 864.539 576.54V627.05C864.539 627.6 864.089 628.05 863.539 628.05Z" fill="black"/>
<path d="M689.28 627.05V576.54C689.28 548.66 668.51 526.05 642.9 526.05H579.4C553.78 526.05 533.02 548.65 533.02 576.54V627.05H689.289H689.28Z" fill="white"/>
<path d="M689.28 628.05C688.73 628.05 688.28 627.6 688.28 627.05V576.54C688.28 549.25 667.92 527.05 642.9 527.05H579.4C554.38 527.05 534.02 549.25 534.02 576.54V627.05C534.02 627.6 533.57 628.05 533.02 628.05C532.47 628.05 532.02 627.6 532.02 627.05V576.54C532.02 548.15 553.28 525.05 579.4 525.05H642.9C669.03 525.05 690.28 548.15 690.28 576.54V627.05C690.28 627.6 689.83 628.05 689.28 628.05Z" fill="black"/>
<path d="M513.449 627.05V576.54C513.449 548.66 492.679 526.05 467.069 526.05H403.569C377.949 526.05 357.189 548.65 357.189 576.54V627.05H513.459H513.449Z" fill="white"/>
<path d="M513.449 628.05C512.899 628.05 512.449 627.6 512.449 627.05V576.54C512.449 549.25 492.089 527.05 467.069 527.05H403.569C378.549 527.05 358.189 549.25 358.189 576.54V627.05C358.189 627.6 357.739 628.05 357.189 628.05C356.639 628.05 356.189 627.6 356.189 627.05V576.54C356.189 548.15 377.449 525.05 403.569 525.05H467.069C493.199 525.05 514.449 548.15 514.449 576.54V627.05C514.449 627.6 513.999 628.05 513.449 628.05Z" fill="black"/>
<path d="M338.129 627.05V576.54C338.129 548.66 317.359 526.05 291.749 526.05H228.249C202.629 526.05 181.869 548.65 181.869 576.54V627.05H338.139H338.129Z" fill="white"/>
<path d="M338.129 628.05C337.579 628.05 337.129 627.6 337.129 627.05V576.54C337.129 549.25 316.769 527.05 291.749 527.05H228.249C203.229 527.05 182.869 549.25 182.869 576.54V627.05C182.869 627.6 182.419 628.05 181.869 628.05C181.319 628.05 180.869 627.6 180.869 627.05V576.54C180.869 548.15 202.129 525.05 228.249 525.05H291.749C317.879 525.05 339.129 548.15 339.129 576.54V627.05C339.129 627.6 338.679 628.05 338.129 628.05Z" fill="black"/>
<path d="M152.66 597.98C149.39 624 133.37 645.54 109.57 645.54C85.7701 645.54 69.6601 624.01 66.4801 597.98C63.0601 570.04 77.5901 536.25 117.95 551.92C145.14 543.24 155.91 572.11 152.66 597.98Z" fill="black"/>
<path d="M404.6 597.98C401.33 624 385.31 645.54 361.51 645.54C337.71 645.54 321.6 624.01 318.42 597.98C315 570.04 329.53 536.25 369.89 551.92C397.08 543.24 407.85 572.11 404.6 597.98Z" fill="black"/>
<path d="M667.029 597.98C663.759 624 647.739 645.54 623.939 645.54C600.139 645.54 584.029 624.01 580.849 597.98C577.429 570.04 591.959 536.25 632.319 551.92C659.509 543.24 670.279 572.11 667.029 597.98Z" fill="black"/>
<path d="M918.961 597.98C915.691 624 899.671 645.54 875.871 645.54C852.071 645.54 835.961 624.01 832.781 597.98C829.361 570.04 843.891 536.25 884.251 551.92C911.441 543.24 922.211 572.11 918.961 597.98Z" fill="black"/>
<path d="M1181.39 597.98C1178.12 624 1162.1 645.54 1138.3 645.54C1114.5 645.54 1098.39 624.01 1095.21 597.98C1091.79 570.04 1106.32 536.25 1146.68 551.92C1173.87 543.24 1184.64 572.11 1181.39 597.98Z" fill="black"/>
<path d="M1246 732.06V657.71C1246 616.66 1215.85 583.39 1178.66 583.39H1086.46C1049.27 583.39 1019.12 616.66 1019.12 657.71V732.06H1245.99H1246Z" fill="white"/>
<path d="M1246 733.06C1245.45 733.06 1245 732.61 1245 732.06V657.71C1245 617.28 1215.24 584.39 1178.66 584.39H1086.46C1049.88 584.39 1020.12 617.28 1020.12 657.71V732.06C1020.12 732.61 1019.67 733.06 1019.12 733.06C1018.57 733.06 1018.12 732.61 1018.12 732.06V657.71C1018.12 616.18 1048.78 582.39 1086.46 582.39H1178.66C1216.34 582.39 1247 616.18 1247 657.71V732.06C1247 732.61 1246.55 733.06 1246 733.06Z" fill="black"/>
<path d="M990.73 732.06V657.71C990.73 616.66 960.58 583.39 923.39 583.39H831.19C794 583.39 763.85 616.66 763.85 657.71V732.06H990.72H990.73Z" fill="white"/>
<path d="M990.73 733.06C990.18 733.06 989.73 732.61 989.73 732.06V657.71C989.73 617.28 959.97 584.39 923.39 584.39H831.19C794.61 584.39 764.85 617.28 764.85 657.71V732.06C764.85 732.61 764.4 733.06 763.85 733.06C763.3 733.06 762.85 732.61 762.85 732.06V657.71C762.85 616.18 793.51 582.39 831.19 582.39H923.39C961.07 582.39 991.73 616.18 991.73 657.71V732.06C991.73 732.61 991.28 733.06 990.73 733.06Z" fill="black"/>
<path d="M737.739 732.06V657.71C737.739 616.66 707.589 583.39 670.399 583.39H578.199C541.009 583.39 510.859 616.66 510.859 657.71V732.06H737.729H737.739Z" fill="white"/>
<path d="M737.739 733.06C737.189 733.06 736.739 732.61 736.739 732.06V657.71C736.739 617.28 706.979 584.39 670.399 584.39H578.199C541.619 584.39 511.859 617.28 511.859 657.71V732.06C511.859 732.61 511.409 733.06 510.859 733.06C510.309 733.06 509.859 732.61 509.859 732.06V657.71C509.859 616.18 540.519 582.39 578.199 582.39H670.399C708.079 582.39 738.739 616.18 738.739 657.71V732.06C738.739 732.61 738.289 733.06 737.739 733.06Z" fill="black"/>
<path d="M482.47 732.06V657.71C482.47 616.66 452.32 583.39 415.13 583.39H322.93C285.74 583.39 255.59 616.66 255.59 657.71V732.06H482.46H482.47Z" fill="white"/>
<path d="M482.47 733.06C481.92 733.06 481.47 732.61 481.47 732.06V657.71C481.47 617.28 451.71 584.39 415.13 584.39H322.93C286.35 584.39 256.59 617.28 256.59 657.71V732.06C256.59 732.61 256.14 733.06 255.59 733.06C255.04 733.06 254.59 732.61 254.59 732.06V657.71C254.59 616.18 285.25 582.39 322.93 582.39H415.13C452.81 582.39 483.47 616.18 483.47 657.71V732.06C483.47 732.61 483.02 733.06 482.47 733.06Z" fill="black"/>
<path d="M225.94 732.06V657.71C225.94 616.66 195.79 583.39 158.6 583.39H66.4002C29.2102 583.39 2.23016 615.45 2.23016 656.49L1.41016 731.61L225.93 732.06H225.94Z" fill="white"/>
<path d="M225.941 733.06C225.391 733.06 224.941 732.61 224.941 732.06V657.71C224.941 617.28 195.181 584.39 158.601 584.39H66.4009C30.1909 584.39 2.88086 615.79 2.88086 657.44L3.12086 730.73C3.12086 731.28 2.68086 731.73 2.12086 731.73C1.57086 731.73 1.12086 731.28 1.12086 730.73L0.880859 657.44C0.880859 637.16 7.47086 618.32 19.4309 604.37C31.5909 590.2 48.2709 582.39 66.3909 582.39H158.591C196.271 582.39 226.931 616.18 226.931 657.71V732.06C226.931 732.61 226.481 733.06 225.931 733.06H225.941Z" fill="black"/>
<path d="M280.009 669.99C276.369 698.97 258.519 722.96 232.019 722.96C205.519 722.96 187.579 698.98 184.029 669.99C180.219 638.87 196.409 601.25 241.349 618.69C271.629 609.02 283.629 641.18 280.009 669.99Z" fill="black"/>
<path d="M572.281 669.99C568.641 698.97 550.791 722.96 524.291 722.96C497.791 722.96 479.851 698.98 476.301 669.99C472.491 638.87 488.681 601.25 533.621 618.69C563.901 609.02 575.901 641.18 572.281 669.99Z" fill="black"/>
<path d="M852.861 669.99C849.221 698.97 831.371 722.96 804.871 722.96C778.371 722.96 760.431 698.98 756.881 669.99C753.071 638.87 769.261 601.25 814.201 618.69C844.481 609.02 856.481 641.18 852.861 669.99Z" fill="black"/>
<path d="M1145.12 669.99C1141.48 698.97 1123.63 722.96 1097.13 722.96C1070.63 722.96 1052.69 698.98 1049.14 669.99C1045.33 638.87 1061.52 601.25 1106.46 618.69C1136.74 609.02 1148.74 641.18 1145.12 669.99Z" fill="black"/>
<path d="M353.759 830V745.45C353.759 698.78 319.479 660.94 277.189 660.94H172.359C130.069 660.94 95.7891 698.78 95.7891 745.45V830H353.759Z" fill="white"/>
<path d="M353.759 831C353.209 831 352.759 830.55 352.759 830V745.46C352.759 699.41 318.859 661.95 277.189 661.95H172.359C130.689 661.95 96.7891 699.41 96.7891 745.46V830C96.7891 830.55 96.3391 831 95.7891 831C95.2391 831 94.7891 830.55 94.7891 830V745.46C94.7891 698.31 129.589 659.95 172.359 659.95H277.189C319.959 659.95 354.759 698.31 354.759 745.46V830C354.759 830.55 354.309 831 353.759 831Z" fill="black"/>
<path d="M644.361 830V745.45C644.361 698.78 610.081 660.94 567.791 660.94H462.961C420.671 660.94 386.391 698.78 386.391 745.45V830H644.361Z" fill="white"/>
<path d="M644.361 831C643.811 831 643.361 830.55 643.361 830V745.46C643.361 699.41 609.461 661.95 567.791 661.95H462.961C421.291 661.95 387.391 699.41 387.391 745.46V830C387.391 830.55 386.941 831 386.391 831C385.841 831 385.391 830.55 385.391 830V745.46C385.391 698.31 420.191 659.95 462.961 659.95H567.791C610.561 659.95 645.361 698.31 645.361 745.46V830C645.361 830.55 644.911 831 644.361 831Z" fill="black"/>
<path d="M933.82 830V745.45C933.82 698.78 899.54 660.94 857.25 660.94H752.42C710.13 660.94 675.85 698.78 675.85 745.45V830H933.82Z" fill="white"/>
<path d="M933.82 831C933.27 831 932.82 830.55 932.82 830V745.46C932.82 699.41 898.92 661.95 857.25 661.95H752.42C710.75 661.95 676.85 699.41 676.85 745.46V830C676.85 830.55 676.4 831 675.85 831C675.3 831 674.85 830.55 674.85 830V745.46C674.85 698.31 709.65 659.95 752.42 659.95H857.25C900.02 659.95 934.82 698.31 934.82 745.46V830C934.82 830.55 934.37 831 933.82 831Z" fill="black"/>
<path d="M1224 830V745.45C1224 698.78 1189.72 660.94 1147.43 660.94H1042.6C1000.31 660.94 966.029 698.78 966.029 745.45V830H1224Z" fill="white"/>
<path d="M1224 831C1223.45 831 1223 830.55 1223 830V745.46C1223 699.41 1189.1 661.95 1147.43 661.95H1042.6C1000.93 661.95 967.029 699.41 967.029 745.46V830C967.029 830.55 966.579 831 966.029 831C965.479 831 965.029 830.55 965.029 830V745.46C965.029 698.31 999.829 659.95 1042.6 659.95H1147.43C1190.2 659.95 1225 698.31 1225 745.46V830C1225 830.55 1224.55 831 1224 831Z" fill="black"/>
<path d="M1191.85 135.703C1196.94 133.594 1199.36 127.756 1197.25 122.664C1195.14 117.571 1189.3 115.153 1184.21 117.262C1179.12 119.372 1176.7 125.21 1178.81 130.302C1180.92 135.394 1186.75 137.812 1191.85 135.703Z" fill="#2F6970"/>
<path d="M1165.96 133.536C1169.86 129.639 1169.86 123.32 1165.96 119.422C1162.06 115.525 1155.74 115.525 1151.84 119.422C1147.95 123.32 1147.95 129.638 1151.84 133.536C1155.74 137.433 1162.06 137.433 1165.96 133.536Z" fill="white"/>
<path d="M1158.9 137.46C1152.85 137.46 1147.92 132.53 1147.92 126.48C1147.92 120.43 1152.85 115.5 1158.9 115.5C1164.95 115.5 1169.88 120.43 1169.88 126.48C1169.88 132.53 1164.95 137.46 1158.9 137.46ZM1158.9 117.5C1153.95 117.5 1149.92 121.53 1149.92 126.48C1149.92 131.43 1153.95 135.46 1158.9 135.46C1163.85 135.46 1167.88 131.43 1167.88 126.48C1167.88 121.53 1163.85 117.5 1158.9 117.5Z" fill="black"/>
<path d="M1139.44 128.757C1140.71 123.393 1137.39 118.018 1132.02 116.752C1126.66 115.485 1121.28 118.808 1120.02 124.172C1118.75 129.537 1122.07 134.912 1127.44 136.178C1132.8 137.444 1138.18 134.122 1139.44 128.757Z" fill="white"/>
<path d="M1129.77 137.46C1123.71 137.46 1118.79 132.53 1118.79 126.48C1118.79 120.43 1123.72 115.5 1129.77 115.5C1135.82 115.5 1140.75 120.43 1140.75 126.48C1140.75 132.53 1135.82 137.46 1129.77 137.46ZM1129.77 117.5C1124.82 117.5 1120.79 121.53 1120.79 126.48C1120.79 131.43 1124.82 135.46 1129.77 135.46C1134.72 135.46 1138.75 131.43 1138.75 126.48C1138.75 121.53 1134.72 117.5 1129.77 117.5Z" fill="black"/>
<path d="M1165.35 66.4399H1046.92C1046.37 66.4399 1045.92 65.9899 1045.92 65.4399C1045.92 64.8899 1046.37 64.4399 1046.92 64.4399H1165.35C1165.9 64.4399 1166.35 64.8899 1166.35 65.4399C1166.35 65.9899 1165.9 66.4399 1165.35 66.4399Z" fill="black"/>
<path d="M1199.79 66.4502H1175.15C1174.6 66.4502 1174.15 66.0002 1174.15 65.4502C1174.15 64.9002 1174.6 64.4502 1175.15 64.4502H1199.79C1200.34 64.4502 1200.79 64.9002 1200.79 65.4502C1200.79 66.0002 1200.34 66.4502 1199.79 66.4502Z" fill="black"/>
<path d="M1199.79 101.38H1118.02C1117.47 101.38 1117.02 100.93 1117.02 100.38C1117.02 99.8299 1117.47 99.3799 1118.02 99.3799H1199.79C1200.34 99.3799 1200.79 99.8299 1200.79 100.38C1200.79 100.93 1200.34 101.38 1199.79 101.38Z" fill="black"/>
<path d="M1144.3 83.8599H1118.01C1117.46 83.8599 1117.01 83.4099 1117.01 82.8599C1117.01 82.3099 1117.46 81.8599 1118.01 81.8599H1144.3C1144.85 81.8599 1145.3 82.3099 1145.3 82.8599C1145.3 83.4099 1144.85 83.8599 1144.3 83.8599Z" fill="black"/>
<path d="M1199.79 83.8599H1154.24C1153.69 83.8599 1153.24 83.4099 1153.24 82.8599C1153.24 82.3099 1153.69 81.8599 1154.24 81.8599H1199.79C1200.34 81.8599 1200.79 82.3099 1200.79 82.8599C1200.79 83.4099 1200.34 83.8599 1199.79 83.8599Z" fill="black"/>
<path d="M1246 513.88C1245.45 513.88 1245 513.43 1245 512.88V127.48H1210.86C1210.31 127.48 1209.86 127.03 1209.86 126.48C1209.86 125.93 1210.31 125.48 1210.86 125.48H1246C1246.55 125.48 1247 125.93 1247 126.48V512.88C1247 513.43 1246.55 513.88 1246 513.88Z" fill="black"/>
</g>
<defs>
<clipPath id="clip0_121_620">
<rect width="1247" height="831" fill="white"/>
</clipPath>
</defs>
</svg>
