<svg width="476" height="477" viewBox="0 0 476 477" fill="none" xmlns="http://www.w3.org/2000/svg">
<path d="M167.874 339.224C166.328 346.02 163.305 352.339 159.509 358.18C155.623 364.158 150.986 369.567 146.145 374.772C141.122 380.158 135.895 385.363 130.167 390C118.803 399.16 105.211 405.978 90.3691 406.251C75.9819 406.546 62.2539 399.932 54.6171 387.523C54.3216 387.045 54.276 386.522 54.4123 386.045C53.2077 384.659 52.0257 383.25 50.912 381.795C39.8887 367.453 33.1613 350.475 28.5019 333.133C25.9336 323.564 23.9561 313.836 22.1151 304.109C20.615 296.176 19.092 287.903 20.7966 279.948C20.3648 269.197 29.4338 258.901 40.3662 258.697C41.2981 258.674 41.9346 259.265 42.2074 259.97C53.9126 257.378 66.822 262.765 73.0497 273.357C75.1407 276.925 76.5273 280.789 77.7092 284.721C79.0729 289.312 80.3456 293.903 81.6639 298.517C84.0959 307.086 86.5505 315.655 88.9825 324.223C92.5508 321.36 96.0741 318.45 99.5516 315.45C111.393 305.245 122.621 294.358 133.213 282.857C135.554 279.812 138.122 276.971 140.918 274.289C142.395 272.902 144.759 275.289 143.441 276.789C142.713 277.63 141.963 278.448 141.213 279.289C141.326 279.38 141.44 279.471 141.531 279.562C152.259 290.858 163.169 303.359 167.328 318.723C169.169 325.383 169.419 332.451 167.874 339.224Z" fill="white"/>
<path d="M137.94 279.244C121.985 295.382 106.189 311.678 90.5289 328.088C88.9606 329.747 86.0741 327.611 87.6651 325.929C97.8929 315.201 108.189 304.541 118.553 293.927C124.167 288.154 129.781 282.358 135.441 276.63C136.304 277.517 137.122 278.381 137.94 279.244Z" fill="#0C2C3E"/>
<path d="M263.335 243.834C260.766 247.334 257.789 250.539 254.789 253.676C251.857 256.767 248.833 259.835 245.265 262.199C238.674 266.608 229.514 268.722 222.605 263.767C216.945 259.722 214.172 251.971 216.559 245.357C218.536 239.902 223.559 235.97 229.151 234.97C227.332 232.947 225.537 230.924 223.696 228.924C222.65 227.811 221.627 226.765 220.014 227.447C218.582 228.061 217.377 229.129 215.968 229.811C205.831 234.697 194.262 228.288 188.148 220.083C186.103 217.333 184.421 214.333 182.921 211.242C179.966 206.469 177.534 201.445 175.625 196.195C174.306 192.808 173.147 189.354 172.147 185.831C172.079 185.626 172.033 185.467 172.011 185.331C171.783 184.513 172.193 183.876 172.829 183.581C173.147 183.24 173.625 183.035 174.102 183.012C179.693 174.285 185.807 165.512 194.421 159.534C201.513 154.579 210.354 152.011 219.014 153.329C223.105 153.965 227.105 155.488 230.4 158.034C232.946 160.034 234.946 162.602 236.446 165.421C237.992 165.011 239.674 165.034 241.287 165.557C245.424 166.898 247.924 170.966 248.902 174.989C249.993 179.535 249.743 184.694 249.424 189.331C249.152 193.15 248.356 196.945 246.47 200.264C250.538 208.491 257.857 215.537 267.494 215.833C268.107 215.855 268.721 216.355 268.949 216.924C272.517 226.288 268.949 236.175 263.335 243.834Z" fill="white"/>
<path d="M310.315 314.087C306.951 322.678 301.951 330.565 296.178 337.747C290.564 344.68 284.268 351.294 277.45 357.044C271.04 362.453 263.676 367.09 255.335 368.749C246.789 370.477 237.742 368.658 230.424 363.976C222.696 358.999 217.242 351.021 211.559 343.975L205.604 336.565C203.854 338.497 202.127 340.452 200.445 342.407C199.627 343.316 198.854 344.202 198.058 345.111C197.285 344.202 196.49 343.316 195.672 342.407C194.831 341.429 194.013 340.52 193.217 339.634C192.695 339.043 192.172 338.429 191.649 337.838C174.08 317.996 156.17 298.472 137.941 279.267C137.123 278.403 136.305 277.517 135.441 276.653C136.282 275.812 137.123 274.948 137.941 274.107C140.532 271.493 143.123 268.902 145.76 266.334C153.874 258.379 162.875 251.856 173.239 247.151C187.331 240.764 202.513 237.582 217.81 235.378C219.06 235.196 220.287 235.037 221.537 234.855C221.31 236.06 221.128 237.31 221.037 238.537C220.673 243.946 221.923 249.469 226.083 253.288C235.333 261.766 249.198 253.879 255.448 245.628C261.948 237.014 263.699 226.173 263.244 215.627C263.199 214.422 263.108 213.24 262.994 212.035C263.221 212.058 263.426 212.058 263.653 212.081C263.653 212.081 263.858 212.058 263.948 212.058C264.198 212.035 264.449 212.035 264.699 212.013C264.858 211.99 264.994 211.99 265.13 211.967C265.358 211.944 265.585 211.899 265.812 211.854C265.971 211.74 266.153 211.672 266.358 211.626C267.79 211.285 269.04 211.604 270.267 212.354C271.949 213.354 270.653 215.536 269.04 215.49C269.449 215.831 269.881 216.149 270.29 216.513C271.494 217.581 272.631 218.718 273.699 219.945C275.881 222.445 277.722 225.263 279.723 227.9C283.905 233.423 288.518 238.628 293.496 243.424C294.405 244.31 294.133 245.628 293.428 246.31C293.61 246.469 293.792 246.651 293.973 246.81C299.701 252.197 304.519 258.424 308.156 265.379C311.747 272.289 314.065 279.926 314.611 287.722C315.315 296.722 313.611 305.723 310.315 314.087Z" fill="#C0D926"/>
<path d="M220.31 350.953C207.263 332.429 195.24 313.155 184.375 293.267C183.284 291.267 179.966 292.631 181.08 294.654C192.103 314.814 204.24 334.361 217.468 353.135C218.809 355.044 221.628 352.839 220.31 350.953Z" fill="white"/>
<path d="M456.345 360.364C456.186 366.319 454.799 372.319 451.913 377.569C448.89 383.047 444.299 387.161 438.867 390.161C433.253 393.252 426.979 395.138 420.82 396.752C414.751 398.343 408.501 399.502 402.228 399.661C396.046 399.798 389.75 399.025 384.045 396.479C377.863 393.729 373.226 389.07 368.862 384.024C358.589 372.137 348.384 360.205 338.133 348.272C337.406 347.431 337.702 346.499 338.338 345.954C336.861 343.931 336.019 341.567 335.656 339.067C335.201 336.135 335.36 333.112 335.633 330.157C335.997 326.407 336.451 322.634 336.86 318.884C337.701 311.088 338.565 303.292 339.383 295.496C340.133 288.564 340.588 281.382 344.179 275.245C347.474 269.608 352.816 265.426 357.93 261.517C363.18 257.494 368.748 253.744 374.885 251.175C380.59 248.789 387.5 246.993 393.636 248.516C396.864 249.312 399.319 251.198 401.182 253.903C403.364 257.039 405.364 260.312 407.433 263.494C411.569 269.927 415.66 276.359 419.729 282.814C427.934 295.883 436.116 308.997 443.867 322.339C450.663 333.93 456.708 346.59 456.345 360.364Z" fill="white"/>
<path d="M404.978 254.381C403.932 254.972 402.887 255.54 401.841 256.131C400.841 256.699 399.841 257.244 398.841 257.813C377.862 269.495 356.816 281.087 335.701 292.565C334.587 293.178 333.655 292.428 333.405 291.474C327.837 291.974 322.2 291.315 316.79 289.792C304.222 286.223 293.698 277.882 284.993 268.404C257.673 238.675 256.628 187.331 301.335 174.603C327.178 167.239 349.429 180.035 364.998 199.968C376.385 214.492 387.386 229.311 398.023 244.38C399.682 246.721 401.319 249.085 402.955 251.448C403.637 252.403 404.318 253.403 404.978 254.381Z" fill="#C0D926"/>
<path d="M326.088 288.789C315.587 275.13 305.746 260.947 296.609 246.332C295.381 244.378 292.563 246.582 293.768 248.537C302.905 263.152 312.746 277.334 323.247 290.994C324.656 292.812 327.497 290.608 326.088 288.789Z" fill="white"/>
<path d="M450.935 383.454C441.23 394.955 425.366 400.569 410.842 402.569C402.91 403.66 394.592 403.455 387 400.66C379.113 397.75 373.113 391.909 367.635 385.75C354.771 371.272 342.134 356.589 329.383 341.997C327.86 340.247 330.701 338.065 332.201 339.793C335.201 343.202 338.179 346.611 341.157 350.043C347.248 357.021 353.362 364.021 359.453 370.976C362.453 374.408 365.431 377.817 368.408 381.227C371.113 384.318 373.818 387.432 376.863 390.159C382.841 395.523 389.841 398.637 397.842 399.364C405.592 400.091 413.479 398.819 420.934 396.773C434.503 393.023 448.572 385.545 453.708 371.59C459.481 355.884 453.186 339.111 445.595 325.223C437.208 309.904 427.662 295.108 418.138 280.471C412.82 272.266 407.365 264.129 401.797 256.06C402.842 255.492 403.887 254.901 404.933 254.31C413.047 266.084 420.911 278.016 428.525 290.085C433.435 297.835 438.23 305.677 442.935 313.564C447.435 321.11 451.936 328.746 455.095 336.952C460.982 352.111 461.959 370.408 450.935 383.454Z" fill="#0C2C3E"/>
<path d="M281.745 418.184C293.814 416.434 298.632 419.07 308.883 407.615C319.133 396.16 348.703 335.407 352.317 330.134C355.931 324.86 348.703 321.337 334.225 321.337C319.747 321.337 164.124 321.337 156.874 321.337C149.646 321.337 127.918 396.183 124.895 405.002C121.872 413.798 124.895 421.73 136.35 420.843C147.828 419.934 281.745 418.184 281.745 418.184Z" fill="#0C2C3E"/>
<path d="M324.043 271.471C319.292 272.607 309.337 276.676 302.337 290.472C295.314 304.268 289.677 313.314 290.131 317.837C290.586 322.36 291.268 326.656 295.109 327.338C298.95 328.02 302.791 325.747 302.791 325.747C302.791 325.747 303.246 331.179 308.905 332.088C314.564 332.997 317.951 330.724 317.951 330.724C317.951 330.724 320.656 334.793 325.406 334.793C330.156 334.793 332.429 332.088 332.429 332.088C332.429 332.088 333.793 338.202 337.861 338.429C341.93 338.657 345.93 336.907 349.635 330.52C353.317 324.11 358.908 313.337 361.181 312.201C363.454 311.064 367.522 309.496 367.522 309.496C367.522 309.496 369.022 294.836 361.408 288.676C354.022 282.744 327.293 268.471 324.043 271.471Z" fill="white"/>
<path d="M193.738 349.179C167.805 350.293 141.826 350.748 115.87 350.566C115.529 350.566 115.188 350.566 114.847 350.543C109.711 321.814 105.71 292.881 102.847 263.833C102.028 255.583 101.324 247.31 100.688 239.059C124.666 240.537 148.758 240.491 172.714 238.832C179.078 238.4 185.419 237.832 191.761 237.173C192.374 271.629 192.988 306.063 193.579 340.52C193.624 343.429 193.693 346.315 193.738 349.179Z" fill="white"/>
<path d="M196.193 347.75C195.715 320.362 195.215 292.951 194.738 265.563C194.556 255.812 194.397 246.084 194.215 236.334C194.192 235.334 193.056 234.72 192.192 234.811C168.35 237.357 144.348 238.334 120.37 237.675C113.574 237.493 106.778 237.152 100.005 236.697C98.8003 236.629 97.9591 237.561 98.0273 238.743C100.323 269.609 103.914 300.383 108.823 330.976C109.823 337.067 110.846 343.158 111.937 349.25C112.142 350.431 112.369 351.636 112.574 352.818C113.779 352.841 115.006 352.863 116.21 352.863C140.575 353.045 164.918 352.636 189.26 351.659C190.397 351.613 191.533 351.568 192.692 351.522C193.874 351.477 195.056 351.432 196.238 351.386C196.238 350.136 196.215 348.931 196.193 347.75ZM116.597 349.25C116.256 349.25 115.938 349.25 115.597 349.227C110.574 321.157 106.664 292.905 103.869 264.54C103.073 256.471 102.369 248.403 101.755 240.334C125.188 241.789 148.69 241.721 172.1 240.13C178.305 239.698 184.51 239.152 190.692 238.516C191.283 272.154 191.897 305.792 192.465 339.454C192.51 342.272 192.579 345.09 192.624 347.886C167.304 348.977 141.939 349.431 116.597 349.25Z" fill="#0C2C3E"/>
<path d="M182.67 253.154C159.76 252.699 136.827 252.245 113.916 251.79C111.644 251.745 111.212 255.313 113.507 255.358C136.418 255.813 159.351 256.268 182.262 256.722C184.534 256.745 184.966 253.199 182.67 253.154Z" fill="#6B3FEB"/>
<path d="M133.87 271.541C134.848 271.496 135.507 270.405 135.394 269.518C135.234 268.473 134.325 267.973 133.37 267.995C127.756 268.223 122.143 267.859 116.597 266.995C114.324 266.632 113.915 270.2 116.187 270.564C122.029 271.473 127.938 271.768 133.87 271.541Z" fill="#6B3FEB"/>
<path d="M144.215 267.563C141.919 267.722 142.442 271.268 144.715 271.108C156.761 270.245 168.808 269.904 180.876 270.131C183.149 270.177 183.581 266.608 181.285 266.563C168.944 266.335 156.557 266.676 144.215 267.563Z" fill="#6B3FEB"/>
<path d="M181.285 280.883C160.625 281.451 139.987 282.019 119.327 282.587C117.032 282.656 117.554 286.201 119.85 286.133C140.51 285.565 161.148 284.997 181.808 284.428C184.104 284.36 183.558 280.815 181.285 280.883Z" fill="#6B3FEB"/>
<path d="M130.439 301.474C134.394 301.315 138.326 301.133 142.281 300.951L165.964 299.929C168.26 299.838 167.737 296.292 165.441 296.383L143.553 297.337C140.008 297.497 136.462 297.656 132.894 297.792C129.894 297.928 126.075 298.588 123.325 297.019C121.348 295.883 119.189 298.747 121.189 299.883C124.098 301.542 127.166 301.588 130.439 301.474Z" fill="#6B3FEB"/>
<path d="M184.011 296.271C181.443 296.089 178.898 295.884 176.329 295.702C175.397 295.634 174.42 296.293 174.352 297.271C174.283 298.203 174.92 299.18 175.92 299.248C178.488 299.43 181.034 299.634 183.602 299.816C184.534 299.884 185.511 299.225 185.579 298.248C185.648 297.316 185.011 296.339 184.011 296.271Z" fill="#6B3FEB"/>
<path d="M182.853 310.771C163.534 310.975 144.465 315.658 125.1 314.748C122.804 314.635 122.395 318.203 124.691 318.317C144.078 319.226 163.102 314.544 182.444 314.339C184.717 314.294 185.149 310.748 182.853 310.771Z" fill="#6B3FEB"/>
<path d="M269.108 353.522C265.63 359.841 255.652 357.863 249.97 358.09C234.765 358.681 219.582 359.091 204.377 359.477C198.535 359.613 191.785 362.272 188.671 355.727C186.989 352.204 186.058 348.431 185.467 344.567C185.285 343.385 185.148 342.203 185.012 341.021C187.171 339.294 189.512 337.839 191.944 336.635C196.353 334.521 201.081 333.225 205.854 332.589C210.627 331.953 215.377 332.248 220.173 331.998C224.809 331.748 229.037 330.612 232.56 327.18C235.674 324.134 237.902 320.202 240.538 316.724C247.857 307.019 257.902 300.746 268.676 296.678C268.721 297.769 268.767 298.86 268.812 299.951C269.403 314.997 269.971 330.066 270.494 345.135C270.562 348.226 270.38 351.204 269.108 353.522Z" fill="#C0D926"/>
<path d="M268.652 296.678C257.856 300.746 247.833 307.019 240.515 316.724C237.878 320.202 235.651 324.157 232.537 327.18C229.037 330.612 224.787 331.748 220.15 331.998C215.377 332.248 210.604 331.953 205.831 332.589C201.058 333.225 196.33 334.521 191.921 336.635C189.489 337.817 187.148 339.271 184.988 341.021C184.534 336.862 184.375 332.657 183.988 328.566C183.42 322.588 183.102 316.565 182.829 310.542C182.579 305.133 181.488 299.405 181.716 294.019C181.852 290.587 182.92 287.041 185.261 284.723C189.375 280.631 195.558 281.995 200.74 281.927C214.49 281.7 228.287 280.768 242.037 280.768C247.06 280.768 252.061 280.859 257.084 281.04C260.834 281.177 264.902 280.245 267.062 284.541C268.243 286.882 268.38 289.677 268.493 292.382C268.539 293.814 268.607 295.246 268.652 296.678Z" fill="#6B3FEB"/>
<path d="M271.176 317.111C271.085 311.906 271.016 306.702 270.925 301.497C270.857 297.11 271.176 292.474 269.948 288.223C267.675 280.246 259.629 278.109 252.22 277.95C247.606 277.859 242.992 278.086 238.401 278.177C233.218 278.291 228.037 278.404 222.877 278.518C211.331 278.768 199.762 279.018 188.216 279.268C186.057 279.314 186.557 282.632 188.693 282.586C208.376 282.155 228.082 281.746 247.765 281.314C253.993 281.177 263.197 280.859 266.22 287.655C267.925 291.519 267.516 296.178 267.584 300.292C267.652 305.224 267.744 310.134 267.812 315.066C267.994 326.225 268.153 337.362 268.335 348.522C268.357 350.681 271.676 350.181 271.653 348.045C271.494 337.726 271.335 327.407 271.176 317.111Z" fill="#0C2C3E"/>
<path d="M187.192 279.517C182.056 280.995 181.101 287.609 180.623 292.086C179.919 298.609 180.396 305.201 180.851 311.724C181.01 313.883 184.328 313.383 184.169 311.247C183.76 305.542 183.351 299.791 183.783 294.064C184.056 290.541 184.237 283.813 188.487 282.608C190.556 282.017 189.238 278.926 187.192 279.517Z" fill="#0C2C3E"/>
<path d="M220.172 310.654C218.581 314.041 216.059 316.814 212.968 318.587C202.899 324.36 191.012 312.655 194.194 301.154C197.762 288.221 214.127 288.471 219.718 299.381C221.514 302.858 221.854 307.063 220.172 310.654Z" fill="white"/>
<path d="M297.586 404.616C292.768 393.979 264.334 337.521 259.516 325.111C254.697 312.701 250.47 308.565 244.447 308.565C241.401 308.565 198.762 309.542 156.783 310.52C149.828 303.451 135.827 291.268 134.054 291.268C131.645 291.268 75.2326 290.746 71.6187 291.928C68.3458 292.996 66.7319 309.247 67.4592 318.884C67.1865 320.452 67.2777 321.997 67.755 323.043C70.7779 329.543 95.5065 383.251 104.552 399.297C114.212 416.435 117.735 422.344 125.667 422.344C138.941 422.344 259.584 419.98 278.267 419.98C296.95 419.98 302.405 415.253 297.586 404.616Z" fill="#0C2C3E"/>
<path d="M236.878 209.991C230.582 220.287 220.831 229.492 208.194 230.151C202.308 230.469 196.33 228.719 191.898 224.764C189.466 222.582 187.579 219.81 185.829 217.059C183.92 214.059 182.17 210.923 180.601 207.741C177.124 200.74 174.419 193.353 172.578 185.739C172.033 183.512 168.487 184.012 169.032 186.262C170.828 193.649 173.328 200.831 176.601 207.695C178.192 211.036 179.965 214.286 181.874 217.446C183.761 220.56 185.761 223.651 188.307 226.264C197.989 236.106 213.354 235.469 224.445 228.446C230.786 224.423 235.855 218.537 239.741 212.15C240.923 210.195 238.059 208.036 236.878 209.991Z" fill="#0C2C3E"/>
<path d="M236.56 242.059C236.015 242.764 234.742 243.082 234.06 242.423C232.355 240.809 230.651 239.173 228.969 237.559C227.855 236.491 226.741 235.423 225.628 234.354C224.128 232.9 222.605 231.468 221.105 230.036C220.423 229.377 220.104 228.4 220.741 227.536C221.264 226.831 222.537 226.513 223.241 227.172C225.559 229.377 227.878 231.604 230.173 233.809C231.287 234.877 232.424 235.945 233.537 237.014C234.424 237.855 235.31 238.718 236.196 239.559C236.878 240.218 237.174 241.196 236.56 242.059Z" fill="#0C2C3E"/>
<path d="M263.289 215.628C263.289 215.832 257.584 214.605 256.948 214.264C250.607 210.718 244.765 202.968 240.583 197.195C239.242 195.331 242.061 193.127 243.402 195.013C245.947 198.559 248.834 201.877 251.97 204.9C254.584 207.423 258.016 211.446 261.789 211.9C262.175 211.969 262.584 212.014 262.993 212.037C263.153 213.241 263.244 214.446 263.289 215.628Z" fill="#0C2C3E"/>
<path d="M249.219 178.715C248.083 174.511 245.06 171.124 240.787 170.033C236.878 169.033 232.673 170.056 229.9 173.056C226.991 176.215 226.172 181.216 228.127 185.057C229.172 187.102 232.469 185.716 231.423 183.67C230.218 181.307 230.423 178.42 231.946 176.215C233.537 173.92 236.241 172.942 238.968 173.306C242.014 173.715 244.333 175.761 245.446 178.579C246.719 181.806 246.219 185.352 245.015 188.512C243.924 191.284 241.696 195.944 238.082 195.785C235.787 195.694 235.378 199.262 237.673 199.353C242.242 199.535 245.333 195.966 247.242 192.216C249.356 188.102 250.446 183.261 249.219 178.715Z" fill="#0C2C3E"/>
<path d="M239.537 179.17C238.559 178.829 237.65 179.284 237.218 180.193C236.036 182.625 235.195 185.171 234.559 187.785C234.468 188.194 234.673 188.762 234.923 189.08C235.196 189.421 235.695 189.739 236.127 189.762C236.582 189.785 237.082 189.694 237.423 189.398C237.809 189.057 237.991 188.671 238.105 188.194C238.196 187.875 238.219 187.739 238.264 187.603C238.355 187.307 238.423 187.012 238.514 186.716C238.696 186.125 238.878 185.534 239.105 184.944C239.514 183.762 240.014 182.625 240.56 181.511C240.969 180.648 240.4 179.466 239.537 179.17Z" fill="#0C2C3E"/>
<path d="M191.83 194.08C188.716 191.762 184.875 190.33 180.988 190.194C177.716 190.058 173.352 190.853 172.284 194.535C171.647 196.717 174.966 198.058 175.625 195.831C176.329 193.399 180.057 193.626 182.012 193.853C185.035 194.217 187.898 195.467 190.262 197.376C195.103 201.285 197.103 208.081 195.376 214.036C194.739 216.218 198.058 217.559 198.717 215.332C200.967 207.581 198.399 198.944 191.83 194.08Z" fill="#0C2C3E"/>
<path d="M210.718 192.263C210.604 191.535 210.309 190.899 209.922 190.285C209.241 189.217 207.945 188.399 206.695 188.308C205.535 188.217 204.217 188.717 203.831 189.944C203.649 190.535 203.626 191.217 203.922 191.763C204.285 192.854 204.785 193.785 205.467 194.467C206.013 195.036 206.626 195.604 207.376 195.854C207.99 196.058 208.672 196.081 209.263 195.785C209.854 195.49 210.331 194.967 210.536 194.331C210.763 193.672 210.831 192.967 210.718 192.263Z" fill="#0C2C3E"/>
<path d="M211.809 174.124C207.854 172.124 202.854 172.056 198.899 174.124C195.308 176.01 192.535 179.352 191.535 183.306C191.308 184.238 191.557 185.238 192.558 185.625C193.376 185.943 194.649 185.556 194.876 184.602C195.626 181.602 197.512 178.874 200.308 177.42C203.535 175.738 207.308 175.806 210.536 177.442C211.399 177.874 212.536 177.261 212.854 176.42C213.218 175.488 212.672 174.579 211.809 174.124Z" fill="#0C2C3E"/>
<path d="M192.126 203.672C191.99 202.9 191.694 202.241 191.262 201.581C190.512 200.422 189.216 199.604 187.83 199.422C187.398 199.354 186.876 199.513 186.535 199.786C186.421 199.877 186.307 200.013 186.194 200.15C186.057 200.24 185.921 200.377 185.807 200.513C185.535 200.899 185.398 201.354 185.467 201.831C185.83 204.104 187.444 206.127 189.603 206.9C190.012 207.059 190.558 207.082 190.944 206.877C191.353 206.673 191.785 206.332 191.921 205.877C192.148 205.15 192.24 204.422 192.126 203.672Z" fill="#0C2C3E"/>
<path d="M212.196 210.287C211.218 209.946 210.309 210.4 209.877 211.31C209.809 211.446 209.741 211.582 209.672 211.696C209.195 212.537 208.604 213.31 207.945 214.014C207.445 214.492 206.922 214.946 206.354 215.333C206.195 215.446 206.036 215.537 205.877 215.651C205.354 215.946 204.99 216.128 204.627 216.287C203.763 216.651 203.263 217.765 203.672 218.628C204.082 219.492 205.104 219.969 206.013 219.583C209.195 218.219 211.718 215.696 213.218 212.605C213.605 211.764 213.059 210.582 212.196 210.287Z" fill="#0C2C3E"/>
<path d="M252.378 204.013C251.174 199.376 249.946 194.762 248.742 190.126C248.537 189.353 248.037 188.694 247.173 188.603C246.469 188.535 245.832 188.898 245.469 189.489C244.81 189.717 244.241 190.262 244.241 190.967C244.241 191.376 244.264 191.785 244.287 192.194C244.15 192.535 244.014 192.853 243.855 193.194C243.31 194.49 242.832 195.717 243.446 197.081C243.946 198.217 244.832 199.263 245.514 200.285C246.219 201.331 246.901 202.376 247.605 203.445C247.855 203.831 248.31 204.036 248.764 204.104C248.81 204.24 248.833 204.377 248.878 204.513C249.128 205.445 249.878 206.172 250.901 206.036C251.719 205.922 252.606 204.967 252.378 204.013Z" fill="#0C2C3E"/>
<path d="M249.945 197.991C249.309 200.059 246.445 199.013 246.49 197.127C246.65 191.263 247.218 185.217 246.672 179.353C246.65 179.262 246.65 179.194 246.65 179.103C246.604 178.967 246.559 178.808 246.559 178.626C246.559 178.512 246.536 178.399 246.536 178.262C246.468 177.739 246.377 177.217 246.286 176.717C245.354 173.216 242.195 170.33 238.422 170.284C234.24 170.239 230.694 174.148 230.489 178.194C230.421 179.239 230.899 180.353 230.285 181.285C229.694 182.149 228.535 182.603 227.535 182.671C225.262 182.808 223.171 181.035 221.875 179.33C220.148 177.103 218.785 174.512 217.262 172.125C215.58 169.466 213.875 166.784 212.193 164.125C212.148 164.057 212.125 163.989 212.08 163.92C210.943 163.875 209.784 163.784 208.625 163.625C207.329 163.443 206.057 163.216 204.784 162.898C203.511 162.579 202.011 161.829 200.693 161.829C198.874 161.807 197.647 164.579 196.715 165.83C195.51 167.511 194.237 169.171 192.919 170.762C190.237 174.012 187.328 177.103 184.123 179.853C180.964 182.58 177.532 184.967 173.804 186.853C170.395 188.604 165.94 190.854 162.326 188.581C161.485 189.172 160.553 189.604 159.44 189.695C157.303 189.876 155.19 188.763 154.599 186.603C153.849 183.922 155.485 181.444 157.645 179.421C156.213 178.967 154.667 178.057 154.462 176.466C154.167 174.421 156.394 173.148 157.849 172.216C159.508 171.148 161.258 170.239 163.077 169.466C163.122 169.33 163.168 169.193 163.259 169.08C167.645 161.852 173.554 155.556 180.418 150.624C186.419 146.306 193.169 143.01 200.283 140.987C203.192 140.169 206.261 139.464 209.352 139.055C208.489 137.896 207.647 136.714 206.92 135.464C206.443 134.669 206.398 133.828 207.079 133.123C207.716 132.441 208.67 132.464 209.397 132.941C211.147 134.032 212.761 135.305 214.284 136.669C214.534 135.919 214.83 135.169 215.261 134.464C215.784 133.6 216.421 132.85 217.171 132.168C217.966 131.418 219.08 130.555 220.239 130.646C221.671 130.782 222.421 132.1 222.33 133.418C222.262 134.441 221.694 135.373 221.217 136.282C220.716 137.237 220.171 138.192 219.625 139.101C221.239 136.419 234.785 142.806 240.945 149.01C255.877 164.079 255.627 179.489 249.945 197.991Z" fill="#0C2C3E"/>
<path d="M366.546 312.587C363.273 310.587 360.318 315.565 358.909 317.701C356.613 321.179 354.317 324.679 351.999 328.179C348.84 332.997 345.226 340.634 338.385 340.362C335.543 340.248 333.226 338.43 332.021 335.929C331.885 335.611 331.748 335.316 331.634 334.998C331.157 333.611 331.043 332.134 331.134 330.679C331.225 329.52 331.475 328.361 331.816 327.224C332.771 324.065 334.294 321.019 335.771 318.087C337.271 315.065 338.885 312.087 340.635 309.201C344.089 303.45 344.317 302.7 348.681 297.609C350.181 295.859 353.045 297.995 351.567 299.768C346.908 305.178 346.454 306.314 342.863 312.474C341.272 315.201 339.794 317.974 338.43 320.815C337.089 323.611 335.544 326.565 334.908 329.611C334.885 329.702 334.862 329.793 334.862 329.884C334.748 330.52 334.68 331.225 334.726 331.929C334.794 333.77 335.453 335.588 337.135 336.452C339.794 337.816 342.635 335.429 344.158 333.475C346.181 330.929 347.84 328.043 349.636 325.315L355.408 316.542C356.999 314.11 358.568 311.428 361.113 309.86C363.5 308.405 366.318 308.269 368.705 309.723C370.637 310.928 368.478 313.792 366.546 312.587Z" fill="#0C2C3E"/>
<path d="M321.793 317.928C320.543 320.678 319.134 324.451 319.565 327.724C319.747 328.974 320.179 330.133 320.997 331.156C321.27 331.474 321.565 331.793 321.906 332.065C324.724 334.406 328.838 333.179 331.111 330.679C331.429 330.361 331.68 330.02 331.907 329.656C332.702 328.383 334.203 328.861 334.816 329.883C334.703 330.52 334.634 331.224 334.68 331.929C333.884 333.156 332.838 334.179 331.611 334.975C329.293 336.52 326.361 337.225 323.633 336.679C321.247 336.202 319.338 334.838 318.019 332.997C317.338 332.043 316.792 330.952 316.451 329.792C316.247 329.156 316.088 328.474 316.02 327.792C315.383 322.678 317.77 317.86 319.974 313.428C324.634 304.041 328.066 298.7 334.634 290.517C336.089 288.722 338.953 290.858 337.521 292.677C330.452 301.495 326.543 307.609 321.793 317.928Z" fill="#0C2C3E"/>
<path d="M304.404 321.521C303.813 325.612 305.132 329.68 309.495 330.817C311.95 331.453 314.337 330.93 316.496 329.817C317.61 329.248 318.633 328.521 319.587 327.726C319.769 328.976 320.201 330.135 321.019 331.158C320.087 331.885 319.087 332.499 318.064 333.021C314.973 334.567 311.496 335.181 307.996 334.09C303.223 332.635 300.654 328.271 300.7 323.43C300.723 318.384 303.018 313.475 305.064 308.975C309.609 298.906 312.541 293.701 319.61 285.246C321.087 283.473 323.951 285.609 322.473 287.405C318.996 291.587 318.746 291.746 315.86 296.36C313.337 300.383 311.064 304.565 309.041 308.861C307.177 312.838 305.063 317.111 304.404 321.521Z" fill="#0C2C3E"/>
<path d="M422.526 342.929C403.843 320.496 382.138 300.472 358.091 283.903C352 279.698 345.681 275.766 338.863 272.857C332.203 270.016 324.748 268.311 317.861 271.334C311.747 274.016 306.793 279.267 302.974 284.631C299.088 290.085 296.155 296.177 293.519 302.313C290.723 308.836 286.064 317.087 289.496 324.201C290.882 327.088 293.474 329.27 296.746 329.451C299.815 329.61 302.724 328.11 303.997 325.269C304.929 323.156 301.61 321.86 300.656 323.974C299.792 325.928 297.064 326.36 295.292 325.497C292.973 324.36 291.973 321.519 291.882 319.11C291.746 315.769 293.155 312.541 294.383 309.541C295.565 306.655 296.769 303.768 298.042 300.927C300.519 295.427 303.315 290.04 306.997 285.222C310.588 280.517 315.316 275.721 321.134 273.948C327.771 271.903 334.839 274.812 340.772 277.676C346.908 280.653 352.613 284.426 358.182 288.335C368.887 295.881 379.138 304.086 388.843 312.905C399.866 322.906 410.185 333.702 419.708 345.134C421.163 346.907 424.004 344.702 422.526 342.929Z" fill="#0C2C3E"/>
<path d="M34.2753 284.814C36.5482 284.132 51.9125 283.677 57.3446 290.928C62.7768 298.155 66.6177 308.338 70.2316 308.338C73.8454 308.338 77.6866 302.678 77.6866 302.678C77.6866 302.678 81.528 304.269 84.71 302.451C87.8693 300.633 89.2329 297.701 89.2329 297.701C89.2329 297.701 94.7562 300.587 98.5064 296.337C102.257 292.087 101.893 289.587 101.893 289.587C101.893 289.587 104.393 293.632 106.87 291.36C109.348 289.087 113.212 281.177 110.711 271.904C108.234 262.631 98.7337 250.857 91.7106 247.471C84.6874 244.084 73.6181 241.129 65.6859 242.266C57.7763 243.402 43.7529 248.834 37.4116 254.698C31.0703 260.562 25.4336 267.813 25.4336 267.813L34.2753 284.814Z" fill="white"/>
<path d="M79.1641 294.517C77.3231 287.835 73.4138 281.857 68.3908 277.107C62.8905 271.902 55.9128 268.402 48.4805 267.061C46.2076 266.652 45.8208 270.22 48.071 270.629C60.0262 272.789 70.4587 281.448 74.8453 292.767C76.0272 295.79 77.1867 299.677 75.6866 302.813C74.482 305.313 71.3678 306.813 69.0949 304.7C67.0266 302.768 66.2087 299.677 64.8222 297.29C63.2767 294.585 61.3447 292.199 59.0491 290.108C53.9806 285.471 47.253 282.607 40.389 282.289C38.0934 282.175 37.6844 285.744 39.98 285.858C46.8213 286.176 53.4353 289.176 58.1174 294.176C60.4357 296.654 61.9582 299.449 63.4355 302.472C64.7993 305.245 66.5494 308.177 69.7314 309.086C73.0271 310.018 76.4364 308.222 78.2774 305.472C80.3911 302.222 80.1414 298.131 79.1641 294.517Z" fill="#0C2C3E"/>
<path d="M90.8919 296.45C90.6191 297.632 90.2327 298.768 89.7099 299.859C89.5508 300.155 89.4146 300.45 89.2327 300.745C87.0735 304.382 81.9367 306.587 78.2546 303.7C76.4591 302.291 78.3458 299.245 80.164 300.654C81.755 301.927 83.9143 301.473 85.3007 300.064C85.9371 299.427 86.3914 298.654 86.7324 297.813L87.4143 295.495C87.5053 295.109 87.5509 294.722 87.5963 294.359C88.6873 286.063 84.9827 277.767 79.1869 271.948C73.3229 266.062 65.5042 262.607 57.5492 260.607C55.2991 260.038 56.3445 256.629 58.5719 257.175C64.0495 258.561 69.4132 260.607 74.2544 263.561C82.6185 268.698 89.3237 276.949 90.9829 286.79C91.4829 289.881 91.6192 293.29 90.8919 296.45Z" fill="#0C2C3E"/>
<path d="M99.2119 297.427C96.7572 299.768 92.9389 300.904 89.7115 299.881C88.8251 299.586 87.9839 299.154 87.2339 298.517C86.9838 298.313 86.8248 298.086 86.7339 297.836L87.4159 295.517C87.9386 295.108 88.6889 295.063 89.3708 295.608C89.8481 296.017 90.3707 296.29 90.9162 296.472C92.1662 296.858 93.5299 296.699 94.8254 296.131C96.9392 295.199 98.212 293.381 98.8484 291.199C100.076 286.971 98.8936 282.085 97.4617 278.039C96.098 274.198 94.1893 270.584 91.7346 267.311C86.7571 260.629 79.8926 255.56 71.9831 252.947C69.7784 252.219 71.074 248.878 73.256 249.606C78.5063 251.356 83.4386 254.151 87.6434 257.742C95.0756 264.106 100.508 272.902 102.371 282.585C103.326 287.608 103.167 293.631 99.2119 297.427Z" fill="#0C2C3E"/>
<path d="M154.103 312.746C150.943 308.542 147.511 304.541 143.829 300.791C142.056 298.996 140.238 297.2 138.306 295.564C136.17 293.768 134.079 292.904 131.283 292.654C123.396 291.972 115.396 291.836 107.441 291.882C105.691 291.904 105.713 292.154 103.963 292.2C103.872 292.154 103.304 291.336 103.213 291.291C102.372 290.813 102.236 290.927 102.758 290.245C103.395 289.381 103.417 289.472 104.258 289.95C104.986 290.336 105.6 288.972 106.213 288.427C107.645 288.404 109.077 288.404 110.509 288.427C112.031 288.45 113.532 288.472 115.054 288.495C120.896 288.609 126.964 288.472 132.76 289.245C138.329 289.995 142.102 294.041 145.897 297.836C149.875 301.791 153.557 306.064 156.944 310.542C158.307 312.383 155.489 314.587 154.103 312.746Z" fill="white"/>
<path d="M134.349 385.865C133.145 388.297 131.667 390.547 129.826 392.547C126.098 396.616 121.439 399.616 116.53 402.071C111.12 404.775 105.302 407.116 99.3924 408.457C87.5963 411.139 75.6409 407.73 65.7767 401.093C55.5488 394.207 48.1393 384.138 41.9117 373.66C38.6615 368.182 35.6158 362.546 32.7292 356.841C29.6836 350.818 27.5017 344.613 25.9334 338.044C22.7059 324.589 19.6152 310.997 17.7742 297.269C16.9105 290.814 15.8191 283.927 17.3647 277.495C18.7966 271.609 22.4786 266.54 26.4106 262.063C33.9111 253.494 43.4799 246.493 54.3897 242.993C65.2312 239.516 77.3228 239.584 87.9144 243.993C98.1422 248.244 106.347 256.585 110.006 267.086C111.779 272.131 112.507 277.586 111.825 282.905C111.598 284.746 111.279 286.723 110.506 288.428C110.143 289.223 109.689 289.951 109.098 290.61C108.598 291.155 108.029 291.61 107.416 291.905C105.825 292.769 103.938 292.814 102.188 291.973C102.097 291.928 102.006 291.882 101.916 291.837C101.075 291.382 101.006 290.041 101.529 289.337C102.165 288.473 103.165 288.473 104.029 288.95C104.756 289.337 105.575 288.973 106.188 288.405C106.484 288.132 106.734 287.837 106.893 287.564C107.484 286.587 107.757 285.405 107.984 284.291C109.802 274.518 106.416 264.358 100.006 256.903C93.2103 248.994 83.0734 244.812 72.7773 244.175C62.2312 243.516 51.7758 246.675 42.9344 252.357C38.5477 255.198 34.457 258.585 30.8659 262.403C27.1839 266.335 23.5243 270.768 21.5697 275.836C19.365 281.586 20.1832 287.882 20.9105 293.86C21.6605 300.201 22.7517 306.497 23.9791 312.747C25.2291 319.02 26.6384 325.248 28.0476 331.498C29.4113 337.522 30.7295 343.567 33.116 349.295C35.4343 354.863 38.4115 360.182 41.3207 365.478C44.0709 370.501 46.98 375.478 50.2757 380.183C56.6169 389.252 64.5492 397.389 74.7089 402.071C79.5501 404.298 84.755 405.707 90.119 405.866C96.0057 406.025 101.756 404.366 107.188 402.253C116.325 398.684 126.416 393.82 130.962 384.592C132.008 382.524 135.372 383.797 134.349 385.865Z" fill="#0C2C3E"/>
<path d="M233.516 236.992C231.993 237.174 230.47 237.356 228.947 237.537C226.311 237.856 223.697 238.197 221.061 238.56C221.151 237.31 221.31 236.083 221.561 234.878C222.901 234.696 224.265 234.515 225.606 234.356C227.129 234.174 228.652 233.992 230.175 233.81C231.288 234.856 232.402 235.924 233.516 236.992Z" fill="#0C2C3E"/>
<path d="M127.71 166.057C127.733 164.625 127.756 163.238 127.779 161.897C127.847 156.033 127.892 150.988 127.756 148.669C127.165 138.169 119.642 132.828 105.414 132.828C97.8904 132.828 89.64 132.964 81.6623 133.1C74.3891 133.214 67.5252 133.328 61.843 133.328C49.3423 133.328 46.9102 139.714 46.9102 150.738C46.9102 154.783 47.024 160.67 47.1149 166.92C47.2286 173.307 47.3425 180.535 47.3879 186.831C47.4107 188.035 47.4107 189.217 47.4107 190.354C47.4107 190.74 47.4101 191.126 47.4329 191.467C47.5692 198.263 48.865 202.468 51.6834 205.105C54.2972 207.559 58.0699 208.536 63.9111 208.264C70.9115 207.945 85.2537 208.446 96.7771 208.855C102.937 209.059 108.232 209.264 110.892 209.264C114.778 209.264 120.392 208.809 124.12 204.945C126.779 202.195 128.006 198.104 127.801 192.786C127.529 185.558 127.665 173.921 127.756 166.216L127.71 166.057ZM124.642 161.875C124.62 163.193 124.597 164.602 124.574 166.011C124.461 176.421 124.37 186.172 124.62 192.899C124.802 197.331 123.847 200.627 121.801 202.763C119.597 205.059 116.119 206.127 110.823 206.127C108.232 206.127 102.959 205.945 96.8226 205.741C87.8448 205.423 77.1624 205.059 69.5028 205.059C67.2754 205.059 65.3207 205.082 63.7297 205.173C58.8657 205.4 55.7062 204.65 53.797 202.854C51.6832 200.877 50.6606 197.24 50.547 191.422C50.5242 191.081 50.5242 190.74 50.5242 190.399C50.5242 189.263 50.5242 188.081 50.5015 186.853C50.4787 180.535 50.3426 173.307 50.229 166.898C50.1154 160.67 50.0242 154.783 50.0242 150.783C50.0242 139.714 52.6606 136.51 61.8203 136.51C67.5479 136.51 74.4119 136.396 81.7078 136.282C89.6628 136.146 97.9131 136.01 105.414 136.01C122.005 136.01 124.324 143.351 124.642 148.897C124.733 151.056 124.688 156.261 124.642 161.875Z" fill="#6B3FEB"/>
<path d="M126.212 161.873C126.189 163.26 126.166 164.714 126.144 166.192C123.234 167.578 120.416 169.124 117.575 170.669C110.37 174.578 103.392 178.897 96.5736 183.465C93.5507 185.511 90.4142 187.579 86.9367 188.761C83.3456 189.988 79.7999 190.011 76.1406 189.102C72.6632 188.216 69.3446 186.92 65.7308 186.67C62.5942 186.443 59.3443 186.852 56.3441 187.829C53.6849 188.67 51.2302 189.898 48.9801 191.443C48.9573 191.079 48.9573 190.716 48.9573 190.352C48.9573 189.216 48.9573 188.034 48.9346 186.829C51.2756 185.488 53.7986 184.443 56.4124 183.738C59.5944 182.897 62.8901 182.556 66.163 182.783C69.936 183.033 73.3675 184.374 77.0041 185.306C81.0498 186.352 84.7091 185.738 88.4139 183.874C92.0277 182.079 95.2779 179.579 98.6645 177.374C105.96 172.647 113.507 168.283 121.212 164.328C122.848 163.487 124.507 162.646 126.212 161.873Z" fill="#6B3FEB"/>
<path d="M78.8454 146.805C78.7091 146.783 78.5956 146.783 78.4592 146.783C78.2774 146.646 78.0955 146.555 77.8228 146.465C71.8679 144.76 65.0267 146.874 61.4583 152.078C57.8672 157.283 58.2308 164.625 62.0037 169.648C65.7994 174.716 72.8224 176.784 78.8454 175.171C84.9822 173.534 89.9145 167.943 90.4373 161.533C91.0055 154.51 85.8459 147.828 78.8454 146.805ZM79.2095 170.943C74.9138 172.693 69.5266 171.761 66.1855 168.511C62.8898 165.306 61.9584 160.033 63.7994 155.851C65.845 151.237 71.5954 148.737 76.3911 150.101C76.7093 150.192 77.0046 150.192 77.3001 150.147C77.5728 150.397 77.9364 150.601 78.391 150.669C82.8458 151.328 86.3235 155.465 86.5508 159.897C86.8235 164.647 83.5052 169.216 79.2095 170.943Z" fill="#6B3FEB"/>
<path d="M300.108 403.57C298.722 405.365 296.381 398.683 296.108 398.047C294.812 394.91 293.494 391.796 292.153 388.682C289.426 382.364 286.608 376.091 283.789 369.818C278.13 357.226 272.561 344.589 266.606 332.111C264.015 326.679 261.583 320.906 258.174 315.905C254.833 311.019 250.196 308.132 244.264 307.655C241.105 307.405 237.9 307.587 234.718 307.655C231.15 307.723 227.604 307.814 224.036 307.882C217.103 308.019 210.194 308.178 203.261 308.314C187.42 308.655 171.601 308.973 155.759 309.314C153.463 309.36 153.986 312.905 156.259 312.86C170.51 312.564 184.761 312.246 199.011 311.951C206.126 311.792 213.262 311.655 220.376 311.496C227.399 311.337 234.445 310.973 241.468 311.087C244.514 311.132 247.719 311.428 250.378 313.064C252.673 314.474 254.378 316.61 255.81 318.837C259.265 324.224 261.787 330.315 264.515 336.088C270.493 348.748 276.152 361.567 281.903 374.363C285.085 381.432 288.221 388.523 291.244 395.66C291.994 397.456 292.744 399.229 293.471 401.024C294.108 402.592 294.699 404.274 295.858 405.547C297.744 407.615 301.131 408.047 302.972 405.661C304.381 403.888 301.517 401.751 300.108 403.57Z" fill="white"/>
<path d="M320.199 116.008C320.017 115.621 319.722 115.349 319.336 115.167C319.108 115.076 318.858 115.008 318.608 114.962C318.495 114.939 318.381 114.939 318.268 114.939C318.018 114.939 317.767 114.939 317.54 114.985C317.313 115.03 317.063 115.099 316.835 115.189C316.449 115.349 316.131 115.599 315.835 115.871C315.176 115.644 314.335 115.803 313.949 116.439C311.244 120.826 307.926 124.758 304.108 128.167C305.062 124.054 305.994 119.94 306.949 115.826C307.153 114.939 306.289 114.076 305.471 113.962C304.494 113.848 303.812 114.553 303.608 115.439C302.312 121.076 301.016 126.69 299.721 132.327C299.38 133.804 301.357 134.622 302.403 133.85C307.858 129.827 312.562 124.781 316.199 119.076C316.517 119.144 316.858 119.144 317.154 119.008C317.518 118.826 317.858 118.531 317.995 118.144C318.358 118.167 318.563 118.19 318.767 118.167C318.972 118.19 319.177 118.144 319.358 118.053C319.563 117.985 319.722 117.849 319.858 117.69C320.018 117.553 320.131 117.371 320.199 117.167C320.336 116.826 320.358 116.394 320.199 116.008Z" fill="#6B3FEB"/>
<path d="M383.317 71.4593C382.362 68.0045 381.181 64.277 377.317 63.2542C375.385 62.7541 373.294 62.8678 371.316 62.8223C369.043 62.7769 366.748 62.7542 364.476 62.7542C355.293 62.7315 346.088 63.0042 336.928 63.5724C327.723 64.1406 318.518 64.9816 309.359 66.118C307.086 66.3907 304.835 66.709 302.562 67.0272C300.653 67.2999 298.676 67.4817 296.812 68.0954C295.13 68.6409 293.721 69.7545 292.948 71.3455C292.107 73.0956 292.176 75.1412 292.13 77.0504C291.994 81.7098 291.858 86.392 291.721 91.0513C291.585 95.3698 291.312 99.7109 291.425 104.029C291.539 107.598 292.221 111.643 294.744 114.371C296.835 116.621 299.972 118.053 303.063 117.666C304.517 117.485 305.881 116.848 306.949 115.848C308.495 114.371 306.449 111.712 304.903 113.212C302.949 115.053 300.13 114.484 298.13 112.962C295.448 110.916 294.88 107.189 294.766 104.029C294.607 100.211 294.903 96.347 295.017 92.5286C295.153 88.3238 295.267 84.0963 295.403 79.8915C295.448 78.0278 295.38 76.1186 295.63 74.2549C295.858 72.4593 296.79 71.5046 298.517 71.0501C302.245 70.0955 306.313 69.8682 310.108 69.3909C318.268 68.3909 326.45 67.5954 334.655 67.0499C342.997 66.4817 351.338 66.1634 359.702 66.0952C363.816 66.0498 367.93 66.0726 372.044 66.1635C373.635 66.1862 375.658 65.9816 377.135 66.6862C378.635 67.4135 379.158 69.1636 379.613 70.6182C381.908 77.8005 382.681 85.5283 382.045 93.0287C381.726 96.8699 381.044 100.688 379.953 104.393C379.09 107.37 378.203 111.439 374.771 112.325C372.726 112.848 370.453 112.734 368.362 112.802C366.044 112.893 363.702 112.984 361.384 113.053C356.634 113.234 351.906 113.394 347.156 113.575C337.678 113.916 328.2 114.28 318.7 114.621C316.541 114.689 317.041 118.007 319.177 117.939C328.564 117.598 337.951 117.257 347.338 116.894C351.997 116.712 356.634 116.553 361.293 116.371C363.611 116.28 365.953 116.189 368.271 116.121C370.362 116.053 372.499 116.098 374.567 115.757C378.681 115.053 380.817 112.212 382.135 108.461C383.499 104.552 384.476 100.484 385.022 96.3698C386.158 88.0738 385.567 79.528 383.317 71.4593Z" fill="#6B3FEB"/>
<path d="M376.546 31.48C362.023 47.7536 349.477 65.7319 339.203 84.9603C336.794 89.4605 334.544 94.0063 332.407 98.6429C328.475 92.188 324.293 85.8695 318.588 80.801C316.974 79.3691 314.975 82.0511 316.588 83.483C322.771 88.9833 327.089 96.1883 331.294 103.234C331.998 104.416 333.703 103.848 334.18 102.825C343.044 83.1421 354.249 64.5501 367.523 47.5263C371.273 42.7306 375.183 38.0486 379.251 33.5028C380.66 31.8891 377.978 29.889 376.546 31.48Z" fill="#6B3FEB"/>
</svg>
