<svg width="356" height="356" viewBox="0 0 356 356" fill="none" xmlns="http://www.w3.org/2000/svg">
<g clip-path="url(#clip0_121_81)">
<rect width="356" height="356" fill="white"/>
<rect width="356" height="356" rx="178" fill="#E0F3F1"/>
<g clip-path="url(#clip1_121_81)">
<path fill-rule="evenodd" clip-rule="evenodd" d="M113.137 108.708V247.283L162.624 252.44L208.401 247.283C208.401 196.318 208.401 167.19 208.401 108.708C208.401 103.042 203.765 98.4023 198.103 98.4023H180.972L160.774 109.307L140.566 98.4023H123.435C117.773 98.4023 113.137 103.042 113.137 108.708Z" fill="#EFF6FF"/>
<path fill-rule="evenodd" clip-rule="evenodd" d="M140.566 98.4023V105.221C140.566 107.464 142.409 109.307 144.649 109.307H176.889C179.139 109.307 180.972 107.464 180.972 105.221V98.4023H140.566Z" fill="#8163D9"/>
<path fill-rule="evenodd" clip-rule="evenodd" d="M132.227 170.286L156.654 223.385C159.448 229.459 166.698 232.138 172.768 229.341L182.423 224.892C183.521 224.383 184.011 223.076 183.503 221.977L175.019 203.536C174.511 202.437 173.313 202.383 172.106 202.465L165.682 202.91L153.641 176.733L158.16 172.138C159.004 171.276 159.739 170.323 159.231 169.224L150.747 150.783C150.248 149.684 148.932 149.203 147.834 149.711L138.18 154.161C132.109 156.957 129.432 164.212 132.227 170.286Z" fill="#8163D9"/>
<path fill-rule="evenodd" clip-rule="evenodd" d="M186.061 188.066C186.061 191.788 187.63 195.157 190.135 197.554L189.463 206.861L199.272 201.186H208.4H229.76C236.964 201.186 242.862 195.284 242.862 188.065V157.458C242.862 150.248 236.964 144.347 229.76 144.347H208.4H199.172C191.959 144.347 186.061 150.248 186.061 157.458V188.066H186.061Z" fill="#24D0C0"/>
<path fill-rule="evenodd" clip-rule="evenodd" d="M201.143 167.58V176.941C201.143 177.849 201.887 178.584 202.794 178.584H208.139V183.941C208.139 184.268 208.238 184.577 208.402 184.831C208.701 185.285 209.209 185.585 209.79 185.585H219.145C220.043 185.585 220.787 184.849 220.787 183.941V178.584H226.141C227.039 178.584 227.783 177.849 227.783 176.941V167.58C227.783 166.672 227.039 165.936 226.141 165.936H220.787V160.579C220.787 159.671 220.043 158.936 219.145 158.936H209.79C209.209 158.936 208.701 159.235 208.402 159.689C208.238 159.944 208.139 160.252 208.139 160.579V165.936H202.794C201.886 165.937 201.143 166.672 201.143 167.58Z" fill="white"/>
<path fill-rule="evenodd" clip-rule="evenodd" d="M113.137 247.283C113.137 252.958 117.773 257.598 123.435 257.598H198.103C203.765 257.598 208.401 252.958 208.401 247.283H113.137Z" fill="#8163D9"/>
<path fill-rule="evenodd" clip-rule="evenodd" d="M234.053 157.458V188.065C234.053 195.284 228.155 201.186 220.95 201.186H229.761C236.965 201.186 242.863 195.284 242.863 188.065V157.458C242.863 150.248 236.965 144.347 229.761 144.347H220.95C228.155 144.347 234.053 150.248 234.053 157.458Z" fill="#27BCAE"/>
<path fill-rule="evenodd" clip-rule="evenodd" d="M197.659 108.708V144.427C198.158 144.373 198.657 144.346 199.174 144.346H208.402V108.708C208.402 103.042 203.766 98.4023 198.104 98.4023H187.36C193.022 98.4023 197.659 103.042 197.659 108.708Z" fill="#D9EEFF"/>
<path fill-rule="evenodd" clip-rule="evenodd" d="M197.658 202.121V247.283H208.401V201.186H199.273L197.658 202.121Z" fill="#D9EEFF"/>
<path fill-rule="evenodd" clip-rule="evenodd" d="M197.659 247.283C197.659 252.958 193.023 257.598 187.36 257.598H198.104C203.765 257.598 208.402 252.958 208.402 247.283H197.659Z" fill="#6645C6"/>
<path fill-rule="evenodd" clip-rule="evenodd" d="M144.659 153.589L151.528 168.516C152.036 169.614 151.301 170.568 150.457 171.43L145.938 176.025L161.464 209.774L167.888 209.329C169.095 209.247 170.301 209.311 170.8 210.4L177.415 224.783C177.923 225.872 177.442 227.18 176.344 227.688L182.424 224.892C183.522 224.383 184.012 223.076 183.504 221.977L175.02 203.536C174.512 202.437 173.314 202.383 172.107 202.465L165.683 202.91L153.642 176.733L158.161 172.138C159.005 171.276 159.74 170.323 159.232 169.224L150.748 150.783C150.249 149.684 148.933 149.203 147.835 149.711L141.756 152.508C140.658 153.016 144.16 152.49 144.659 153.589Z" fill="#6645C6"/>
<path fill-rule="evenodd" clip-rule="evenodd" d="M170.654 105.221C170.654 107.464 168.821 109.307 166.58 109.307H176.888C179.138 109.307 180.971 107.464 180.971 105.221V98.4023H170.654V103.968V105.221H170.654Z" fill="#6645C6"/>
<path d="M130.045 171.291L154.471 224.389C156.091 227.91 158.996 230.593 162.65 231.943C164.302 232.554 166.015 232.858 167.721 232.858C169.788 232.858 171.846 232.411 173.774 231.523L183.432 227.072C185.736 226.005 186.746 223.267 185.685 220.974L177.199 202.528C175.936 199.798 172.932 200.002 171.94 200.068L167.171 200.399L156.517 177.236L159.877 173.819C160.57 173.111 162.679 170.956 161.413 168.22L152.934 149.79C152.427 148.674 151.512 147.823 150.357 147.395C149.198 146.965 147.943 147.014 146.828 147.53L137.174 151.979C129.888 155.335 126.69 163.999 130.045 171.291ZM148.653 151.98L156.911 169.931C156.827 170.043 156.685 170.21 156.447 170.455L151.928 175.049C151.228 175.761 151.041 176.831 151.459 177.737L163.499 203.914C163.917 204.822 164.856 205.376 165.848 205.307L172.268 204.863C172.614 204.839 172.836 204.84 172.977 204.848L181.234 222.795L171.763 227.16C169.41 228.243 166.765 228.341 164.315 227.437C161.865 226.531 159.919 224.736 158.836 222.381L134.409 169.283C132.161 164.396 134.303 158.592 139.185 156.343L148.653 151.98Z" fill="#0B537C"/>
<path d="M229.761 141.944H210.804V108.708C210.804 101.701 205.106 96 198.103 96H180.972H140.566H123.435C116.432 96 110.734 101.701 110.734 108.708V171.594C110.734 172.921 111.81 173.997 113.137 173.997C114.463 173.997 115.539 172.921 115.539 171.594V108.708C115.539 104.35 119.081 100.805 123.435 100.805H138.164V105.221C138.164 108.799 141.073 111.709 144.65 111.709H176.889C180.465 111.709 183.374 108.799 183.374 105.221V100.805H198.103C202.457 100.805 205.999 104.35 205.999 108.708V141.944H199.174C190.619 141.944 183.66 148.903 183.66 157.457V188.065C183.66 191.943 185.073 195.589 187.663 198.454L187.069 206.688C187.005 207.575 187.436 208.425 188.19 208.897C188.58 209.14 189.022 209.263 189.465 209.263C189.88 209.263 190.296 209.156 190.668 208.94L199.918 203.588H205.999V244.881H115.539V182.69C115.539 181.363 114.463 180.287 113.137 180.287C111.81 180.287 110.734 181.363 110.734 182.69V247.283C110.734 254.295 116.432 260 123.435 260H198.103C205.106 260 210.804 254.295 210.804 247.283V203.588H216.94C218.266 203.588 219.342 202.512 219.342 201.185C219.342 199.858 218.266 198.783 216.94 198.783H199.273C198.851 198.783 198.436 198.894 198.07 199.106L192.187 202.51L192.532 197.726C192.584 197.012 192.314 196.313 191.797 195.818C189.648 193.76 188.464 191.007 188.464 188.065V157.457C188.464 151.552 193.268 146.748 199.174 146.748H229.761C235.661 146.748 240.461 151.552 240.461 157.457V188.065C240.461 193.975 235.661 198.783 229.761 198.783H228.019C226.692 198.783 225.617 199.858 225.617 201.185C225.617 202.512 226.692 203.588 228.019 203.588H229.761C238.31 203.588 245.266 196.624 245.266 188.065V157.457C245.266 148.903 238.31 141.944 229.761 141.944ZM178.569 105.221C178.569 106.149 177.815 106.905 176.888 106.905H144.65C143.739 106.905 142.969 106.134 142.969 105.221V100.805H178.569V105.221ZM198.103 255.195H123.435C119.917 255.195 116.93 252.877 115.912 249.685H205.626C204.608 252.877 201.621 255.195 198.103 255.195Z" fill="#0B537C"/>
<path d="M230.185 176.942V167.581C230.185 165.35 228.37 163.535 226.14 163.535H223.189V160.58C223.189 158.349 221.375 156.534 219.145 156.534H209.79C207.555 156.534 205.736 158.349 205.736 160.58V163.535H202.794C200.559 163.535 198.74 165.35 198.74 167.581V176.942C198.74 179.173 200.559 180.988 202.794 180.988H205.736V183.943C205.736 186.174 207.555 187.989 209.79 187.989H219.145C221.375 187.989 223.189 186.174 223.189 183.943V180.988H226.14C228.371 180.988 230.185 179.173 230.185 176.942ZM225.38 176.183H220.787C219.46 176.183 218.385 177.258 218.385 178.585V183.184H210.541V178.585C210.541 177.258 209.465 176.183 208.138 176.183H203.545V168.34H208.139C209.465 168.34 210.541 167.265 210.541 165.938V161.34H218.385V165.938C218.385 167.265 219.461 168.34 220.787 168.34H225.381V176.183H225.38Z" fill="#0B537C"/>
<path d="M138.528 133.577C138.528 134.904 139.604 135.979 140.931 135.979H179.929C181.256 135.979 182.332 134.904 182.332 133.577C182.332 132.25 181.256 131.175 179.929 131.175H140.931C139.604 131.175 138.528 132.25 138.528 133.577Z" fill="#0B537C"/>
<path d="M174.402 124.712C175.729 124.712 176.804 123.637 176.804 122.31C176.804 120.983 175.729 119.907 174.402 119.907H146.464C145.137 119.907 144.062 120.983 144.062 122.31C144.062 123.637 145.137 124.712 146.464 124.712H174.402Z" fill="#0B537C"/>
</g>
<path d="M278 276L198 356H278V276Z" fill="#6B3FEB"/>
<path d="M0 276H120C142.091 276 160 293.909 160 316V316C160 338.091 142.091 356 120 356H0V276Z" fill="#6B3FEB"/>
</g>
<defs>
<clipPath id="clip0_121_81">
<rect width="356" height="356" fill="white"/>
</clipPath>
<clipPath id="clip1_121_81">
<rect width="164" height="164" fill="white" transform="translate(96 96)"/>
</clipPath>
</defs>
</svg>
