<svg width="1247" height="831" viewBox="0 0 1247 831" fill="none" xmlns="http://www.w3.org/2000/svg">
<g clip-path="url(#clip0_121_230)">
<path d="M1245 433.91H742.26V730.56H1245V433.91Z" fill="white"/>
<path d="M1245 732.06H742.26C741.43 732.06 740.76 731.39 740.76 730.56V433.91C740.76 433.08 741.43 432.41 742.26 432.41H1245C1245.83 432.41 1246.5 433.08 1246.5 433.91V730.56C1246.5 731.39 1245.83 732.06 1245 732.06ZM743.76 729.06H1243.5V435.41H743.76V729.06Z" fill="#4E9BA5"/>
<path d="M1245 698.88H742.26C741.43 698.88 740.76 698.21 740.76 697.38C740.76 696.55 741.43 695.88 742.26 695.88H1245C1245.83 695.88 1246.5 696.55 1246.5 697.38C1246.5 698.21 1245.83 698.88 1245 698.88Z" fill="#4E9BA5"/>
<path d="M1245 665.69H742.26C741.43 665.69 740.76 665.02 740.76 664.19C740.76 663.36 741.43 662.69 742.26 662.69H1245C1245.83 662.69 1246.5 663.36 1246.5 664.19C1246.5 665.02 1245.83 665.69 1245 665.69Z" fill="#4E9BA5"/>
<path d="M1245 632.5H742.26C741.43 632.5 740.76 631.83 740.76 631C740.76 630.17 741.43 629.5 742.26 629.5H1245C1245.83 629.5 1246.5 630.17 1246.5 631C1246.5 631.83 1245.83 632.5 1245 632.5Z" fill="#4E9BA5"/>
<path d="M1245 599.31H742.26C741.43 599.31 740.76 598.64 740.76 597.81C740.76 596.98 741.43 596.31 742.26 596.31H1245C1245.83 596.31 1246.5 596.98 1246.5 597.81C1246.5 598.64 1245.83 599.31 1245 599.31Z" fill="#4E9BA5"/>
<path d="M1245 566.12H742.26C741.43 566.12 740.76 565.45 740.76 564.62C740.76 563.79 741.43 563.12 742.26 563.12H1245C1245.83 563.12 1246.5 563.79 1246.5 564.62C1246.5 565.45 1245.83 566.12 1245 566.12Z" fill="#4E9BA5"/>
<path d="M1245 532.66H742.26C741.43 532.66 740.76 531.99 740.76 531.16C740.76 530.33 741.43 529.66 742.26 529.66H1245C1245.83 529.66 1246.5 530.33 1246.5 531.16C1246.5 531.99 1245.83 532.66 1245 532.66Z" fill="#4E9BA5"/>
<path d="M1245 499.48H742.26C741.43 499.48 740.76 498.81 740.76 497.98C740.76 497.15 741.43 496.48 742.26 496.48H1245C1245.83 496.48 1246.5 497.15 1246.5 497.98C1246.5 498.81 1245.83 499.48 1245 499.48Z" fill="#4E9BA5"/>
<path d="M1245 466.29H742.26C741.43 466.29 740.76 465.62 740.76 464.79C740.76 463.96 741.43 463.29 742.26 463.29H1245C1245.83 463.29 1246.5 463.96 1246.5 464.79C1246.5 465.62 1245.83 466.29 1245 466.29Z" fill="#4E9BA5"/>
<path d="M805.84 732.06C805.01 732.06 804.34 731.39 804.34 730.56V433.91C804.34 433.08 805.01 432.41 805.84 432.41C806.67 432.41 807.34 433.08 807.34 433.91V730.56C807.34 731.39 806.67 732.06 805.84 732.06Z" fill="#4E9BA5"/>
<path d="M869.42 732.06C868.59 732.06 867.92 731.39 867.92 730.56V433.91C867.92 433.08 868.59 432.41 869.42 432.41C870.25 432.41 870.92 433.08 870.92 433.91V730.56C870.92 731.39 870.25 732.06 869.42 732.06Z" fill="#4E9BA5"/>
<path d="M933 732.06C932.17 732.06 931.5 731.39 931.5 730.56V433.91C931.5 433.08 932.17 432.41 933 432.41C933.83 432.41 934.5 433.08 934.5 433.91V730.56C934.5 731.39 933.83 732.06 933 732.06Z" fill="#4E9BA5"/>
<path d="M996.58 732.06C995.75 732.06 995.08 731.39 995.08 730.56V433.91C995.08 433.08 995.75 432.41 996.58 432.41C997.41 432.41 998.08 433.08 998.08 433.91V730.56C998.08 731.39 997.41 732.06 996.58 732.06Z" fill="#4E9BA5"/>
<path d="M1060.16 732.06C1059.33 732.06 1058.66 731.39 1058.66 730.56V433.91C1058.66 433.08 1059.33 432.41 1060.16 432.41C1060.99 432.41 1061.66 433.08 1061.66 433.91V730.56C1061.66 731.39 1060.99 732.06 1060.16 732.06Z" fill="#4E9BA5"/>
<path d="M1119.53 731.88C1118.7 731.88 1118.03 731.21 1118.03 730.38V433.73C1118.03 432.9 1118.7 432.23 1119.53 432.23C1120.36 432.23 1121.03 432.9 1121.03 433.73V730.38C1121.03 731.21 1120.36 731.88 1119.53 731.88Z" fill="#4E9BA5"/>
<path d="M1183.11 731.88C1182.28 731.88 1181.61 731.21 1181.61 730.38V433.73C1181.61 432.9 1182.28 432.23 1183.11 432.23C1183.94 432.23 1184.61 432.9 1184.61 433.73V730.38C1184.61 731.21 1183.94 731.88 1183.11 731.88Z" fill="#4E9BA5"/>
<path d="M847.281 566.43C847.281 566.43 847.211 566.43 847.171 566.43L771.201 558.31C770.651 558.25 770.251 557.76 770.311 557.21C770.371 556.66 770.851 556.26 771.411 556.32L847.131 564.41L945.071 524.85C945.201 524.8 945.331 524.77 945.481 524.78L1032.99 527.69L1150.28 476.55C1150.42 476.49 1150.58 476.46 1150.74 476.47L1209.95 480.24C1210.5 480.28 1210.92 480.75 1210.88 481.3C1210.84 481.85 1210.36 482.26 1209.82 482.23L1150.85 478.48L1033.58 529.61C1033.44 529.67 1033.3 529.7 1033.15 529.69L945.621 526.78L847.651 566.35C847.531 566.4 847.401 566.42 847.271 566.42L847.281 566.43Z" fill="black"/>
<path d="M945.45 538.45C952.326 538.45 957.9 532.773 957.9 525.77C957.9 518.767 952.326 513.09 945.45 513.09C938.574 513.09 933 518.767 933 525.77C933 532.773 938.574 538.45 945.45 538.45Z" fill="#2A4C5C"/>
<path d="M1032.65 542.49C1039.53 542.49 1045.1 536.813 1045.1 529.81C1045.1 522.807 1039.53 517.13 1032.65 517.13C1025.77 517.13 1020.2 522.807 1020.2 529.81C1020.2 536.813 1025.77 542.49 1032.65 542.49Z" fill="#2A4C5C"/>
<path d="M1150.68 490.15C1157.56 490.15 1163.13 484.473 1163.13 477.47C1163.13 470.467 1157.56 464.79 1150.68 464.79C1143.8 464.79 1138.23 470.467 1138.23 477.47C1138.23 484.473 1143.8 490.15 1150.68 490.15Z" fill="#2A4C5C"/>
<path d="M845.649 577.3C852.525 577.3 858.099 571.623 858.099 564.62C858.099 557.617 852.525 551.94 845.649 551.94C838.773 551.94 833.199 557.617 833.199 564.62C833.199 571.623 838.773 577.3 845.649 577.3Z" fill="#2A4C5C"/>
<path d="M815.169 636.79C814.949 636.79 814.739 636.72 814.559 636.58L770.689 602.95C770.249 602.61 770.169 601.99 770.499 601.55C770.839 601.11 771.459 601.03 771.899 601.36L815.279 634.62L918.779 585.24C918.989 585.14 919.219 585.12 919.439 585.17L1028.47 611.13L1161.26 535.56C1161.55 535.4 1161.9 535.39 1162.2 535.53L1230.53 569.05C1231.03 569.29 1231.23 569.89 1230.99 570.39C1230.75 570.89 1230.15 571.09 1229.65 570.85L1161.8 537.56L1029.13 613.07C1028.91 613.2 1028.65 613.23 1028.4 613.17L919.329 587.2L815.599 636.69C815.459 636.76 815.319 636.79 815.169 636.79Z" fill="black"/>
<path d="M1028.64 623.86C1035.52 623.86 1041.09 618.183 1041.09 611.18C1041.09 604.177 1035.52 598.5 1028.64 598.5C1021.76 598.5 1016.19 604.177 1016.19 611.18C1016.19 618.183 1021.76 623.86 1028.64 623.86Z" fill="white"/>
<path d="M1028.64 624.86C1021.22 624.86 1015.19 618.72 1015.19 611.18C1015.19 603.64 1021.22 597.5 1028.64 597.5C1036.06 597.5 1042.09 603.64 1042.09 611.18C1042.09 618.72 1036.06 624.86 1028.64 624.86ZM1028.64 599.5C1022.33 599.5 1017.19 604.74 1017.19 611.18C1017.19 617.62 1022.33 622.86 1028.64 622.86C1034.95 622.86 1040.09 617.62 1040.09 611.18C1040.09 604.74 1034.95 599.5 1028.64 599.5Z" fill="black"/>
<path d="M919.219 598.83C926.095 598.83 931.669 593.153 931.669 586.15C931.669 579.147 926.095 573.47 919.219 573.47C912.344 573.47 906.77 579.147 906.77 586.15C906.77 593.153 912.344 598.83 919.219 598.83Z" fill="white"/>
<path d="M919.219 599.83C911.799 599.83 905.77 593.69 905.77 586.15C905.77 578.61 911.799 572.47 919.219 572.47C926.639 572.47 932.669 578.61 932.669 586.15C932.669 593.69 926.639 599.83 919.219 599.83ZM919.219 574.47C912.909 574.47 907.77 579.71 907.77 586.15C907.77 592.59 912.909 597.83 919.219 597.83C925.529 597.83 930.669 592.59 930.669 586.15C930.669 579.71 925.529 574.47 919.219 574.47Z" fill="black"/>
<path d="M815.171 648.47C822.047 648.47 827.621 642.793 827.621 635.79C827.621 628.787 822.047 623.11 815.171 623.11C808.295 623.11 802.721 628.787 802.721 635.79C802.721 642.793 808.295 648.47 815.171 648.47Z" fill="white"/>
<path d="M815.171 649.47C807.751 649.47 801.721 643.33 801.721 635.79C801.721 628.25 807.751 622.11 815.171 622.11C822.591 622.11 828.621 628.25 828.621 635.79C828.621 643.33 822.591 649.47 815.171 649.47ZM815.171 624.11C808.861 624.11 803.721 629.35 803.721 635.79C803.721 642.23 808.861 647.47 815.171 647.47C821.481 647.47 826.621 642.23 826.621 635.79C826.621 629.35 821.481 624.11 815.171 624.11Z" fill="black"/>
<path d="M1161.77 549.12C1168.65 549.12 1174.22 543.443 1174.22 536.44C1174.22 529.437 1168.65 523.76 1161.77 523.76C1154.89 523.76 1149.32 529.437 1149.32 536.44C1149.32 543.443 1154.89 549.12 1161.77 549.12Z" fill="white"/>
<path d="M1161.77 550.12C1154.35 550.12 1148.32 543.98 1148.32 536.44C1148.32 528.9 1154.35 522.76 1161.77 522.76C1169.19 522.76 1175.22 528.9 1175.22 536.44C1175.22 543.98 1169.19 550.12 1161.77 550.12ZM1161.77 524.76C1155.46 524.76 1150.32 530 1150.32 536.44C1150.32 542.88 1155.46 548.12 1161.77 548.12C1168.08 548.12 1173.22 542.88 1173.22 536.44C1173.22 530 1168.08 524.76 1161.77 524.76Z" fill="black"/>
<path d="M993.63 781.01C1030.56 781.01 1060.49 751.036 1060.49 714.06C1060.49 677.085 1030.56 647.11 993.63 647.11C956.704 647.11 926.77 677.085 926.77 714.06C926.77 751.036 956.704 781.01 993.63 781.01Z" fill="white"/>
<path d="M993.62 782.01C975.71 782.01 958.85 775.1 946.06 762.52C933.13 749.8 925.93 732.79 925.78 714.64C925.46 677.17 955.64 646.43 993.06 646.11C1011.21 645.95 1028.29 652.88 1041.21 665.6C1054.14 678.32 1061.34 695.33 1061.49 713.47C1061.81 750.94 1031.63 781.68 994.21 782C994.01 782 993.81 782 993.61 782L993.62 782.01ZM993.65 648.11C993.46 648.11 993.26 648.11 993.07 648.11C956.76 648.42 927.47 678.26 927.78 714.62C927.93 732.24 934.92 748.74 947.47 761.09C959.88 773.3 976.25 780.01 993.62 780.01C993.81 780.01 994 780.01 994.2 780.01C1030.51 779.7 1059.8 749.86 1059.49 713.5C1059.34 695.88 1052.35 679.38 1039.8 667.03C1027.39 654.82 1011.02 648.11 993.65 648.11Z" fill="black"/>
<path d="M1016.41 688.33H971.479C964.979 688.33 959.699 693.6 959.699 700.11V725.83C959.699 732.33 964.969 737.61 971.479 737.61H1001.37L1008.62 749.93L1014.78 737.61H1016.41C1022.91 737.61 1028.19 732.34 1028.19 725.83V700.11C1028.19 693.61 1022.92 688.33 1016.41 688.33Z" fill="#2A4C5C"/>
<path d="M661.94 829.86C672.09 668.81 641.15 611.33 641.15 611.33L385.42 611.78C352.26 649.84 344.39 704.03 345.43 829.86H661.94Z" fill="white"/>
<path d="M661.94 830.86C661.94 830.86 661.9 830.86 661.88 830.86C661.33 830.83 660.91 830.35 660.94 829.8C670.45 678.84 643.52 618.49 640.53 612.33L385.87 612.78C354.58 648.96 345.35 699.85 346.42 829.85C346.42 830.4 345.98 830.85 345.43 830.86C344.88 830.86 344.43 830.42 344.43 829.87C343.35 698.87 352.75 647.76 384.67 611.12C384.86 610.9 385.13 610.78 385.42 610.78L641.15 610.33C641.49 610.33 641.86 610.53 642.03 610.86C642.35 611.45 649.91 625.76 656.33 660.02C662.24 691.56 668.18 746.63 662.93 829.93C662.9 830.46 662.46 830.87 661.93 830.87L661.94 830.86Z" fill="black"/>
<path d="M557 831C556.5 831 556.07 830.63 556.01 830.12L547.58 761.95C547.55 761.75 547.59 761.55 547.69 761.37L561.05 735.71C561.3 735.22 561.91 735.03 562.4 735.28C562.89 735.53 563.08 736.14 562.82 736.63L549.61 762.02L558 829.88C558.07 830.43 557.68 830.93 557.13 831C557.09 831 557.05 831 557.01 831H557Z" fill="black"/>
<path d="M711.63 402.23C711.63 402.23 809.97 546.27 768.82 586.09C727.67 625.9 632.82 564.66 595.16 477.75L711.63 402.23Z" fill="white"/>
<path d="M736.05 599.5C731.54 599.5 726.81 599.011 721.88 598.031C674.66 588.631 619.78 537.09 594.24 478.15C594.05 477.7 594.2 477.18 594.61 476.91L711.08 401.391C711.54 401.091 712.14 401.221 712.45 401.671C712.7 402.031 737.3 438.21 756.55 478.8C782.55 533.62 786.91 569.96 769.5 586.8C760.82 595.2 749.41 599.49 736.04 599.49L736.05 599.5ZM596.41 478.13C621.86 536.2 675.84 586.83 722.27 596.07C741.15 599.83 757 596.13 768.12 585.37C806.62 548.12 719.16 415.28 711.35 403.61L596.42 478.13H596.41Z" fill="black"/>
<path d="M694.981 572.77C694.601 572.77 694.231 572.55 694.061 572.18L641.931 454.71C641.711 454.21 641.931 453.61 642.441 453.39C642.951 453.16 643.531 453.39 643.761 453.9L695.891 571.37C696.111 571.87 695.891 572.47 695.381 572.69C695.251 572.75 695.111 572.78 694.981 572.78V572.77Z" fill="black"/>
<path d="M675.301 355.69C638.381 310.37 582.201 285.14 523.761 286.12C523.761 286.12 443.261 282.79 402.891 296.24C299.621 334.3 298.641 446.3 327.881 507.82C333.371 519.37 340.011 533.15 347.581 547.96L342.571 631.61C341.571 648.34 356.171 661.77 372.751 659.37L413.001 653.56C434.171 679.56 456.911 698.6 479.471 701.32C529.281 707.33 593.751 639.67 612.731 618.2L652.281 612.56C666.271 610.56 675.301 596.72 671.501 583.11L657.071 531.46L741.561 483.36C741.561 483.36 722.181 413.23 675.311 355.7L675.301 355.69Z" fill="#4E9BA5"/>
<path d="M600.179 506.91C599.789 506.91 599.429 506.69 599.259 506.31C599.039 505.8 599.269 505.21 599.779 504.99C619.479 496.41 633.869 477.07 636.419 455.73C638.969 434.39 629.559 412.21 612.439 399.21C611.999 398.88 611.909 398.25 612.249 397.81C612.579 397.37 613.209 397.28 613.649 397.62C631.319 411.03 641.039 433.93 638.399 455.97C635.759 478 620.909 497.96 600.569 506.82C600.439 506.88 600.299 506.9 600.169 506.9L600.179 506.91Z" fill="black"/>
<path d="M502.571 555.95C502.261 555.95 501.951 555.8 501.761 555.53L444.391 475.17C441.191 470.68 437.561 465.6 436.721 459.6C435.891 453.64 438.751 446.49 444.961 444.82C445.501 444.68 446.041 444.99 446.191 445.53C446.331 446.06 446.021 446.61 445.481 446.76C440.411 448.12 438.011 454.35 438.711 459.33C439.481 464.85 442.961 469.72 446.021 474.02L503.391 554.38C503.711 554.83 503.611 555.45 503.161 555.78C502.981 555.91 502.781 555.97 502.581 555.97L502.571 555.95Z" fill="black"/>
<path d="M453.1 598.53C452.78 598.53 452.46 598.38 452.27 598.09C451.96 597.63 452.08 597.01 452.54 596.7L548.96 531.86C549.42 531.55 550.04 531.67 550.35 532.13C550.66 532.59 550.54 533.21 550.08 533.52L453.66 598.36C453.49 598.48 453.29 598.53 453.1 598.53Z" fill="black"/>
<path d="M412.99 654.55C412.69 654.55 412.4 654.42 412.2 654.16C386.13 620.53 363.38 583.56 344.58 544.27C344.34 543.77 344.55 543.17 345.05 542.94C345.55 542.7 346.14 542.91 346.38 543.41C365.12 582.57 387.8 619.42 413.78 652.94C414.12 653.38 414.04 654 413.6 654.34C413.42 654.48 413.2 654.55 412.99 654.55Z" fill="black"/>
<path d="M752.671 518.91L675.571 529.7C667.901 530.77 661.631 523.67 663.641 516.19L700.081 380.46C701.891 373.72 707.551 368.72 714.451 367.76L800.601 355.7C805.141 355.06 808.861 359.27 807.671 363.7L770.151 503.44C767.951 511.64 761.061 517.72 752.661 518.9L752.671 518.91Z" fill="black"/>
<path d="M612.72 618.2L557.34 529.58C557.34 529.58 663.76 447.35 682 444.31L674.11 474.66C674.11 474.66 764.96 454.5 768.5 463.14C770.39 467.74 753.39 478.84 753.39 478.84C753.39 478.84 758.95 487.46 746.22 499C746.22 499 755.19 509.34 737.86 518.59C737.86 518.59 738.54 528.27 703.71 544.59C668.88 560.91 653.39 557.2 653.39 557.2L612.72 618.19V618.2Z" fill="white"/>
<path d="M665.49 558.021C665 558.021 664.57 557.661 664.5 557.151C664.43 556.601 664.81 556.101 665.36 556.031C672.8 555.021 685.41 552.071 703.29 543.691C736.57 528.101 736.87 518.75 736.87 518.66C736.83 518.11 737.25 517.631 737.8 517.591C738.37 517.551 738.83 517.971 738.87 518.521C738.95 519.581 738.601 529.351 704.151 545.5C686.041 553.98 673.211 556.981 665.641 558.011C665.601 558.011 665.551 558.011 665.511 558.011L665.49 558.021Z" fill="black"/>
<path d="M691.13 497.02C689.75 497.02 688.36 497 686.98 496.95C686.43 496.93 686 496.47 686.02 495.92C686.04 495.37 686.55 494.94 687.05 494.96C708.19 495.7 729.15 490.66 747.64 480.37C748.12 480.1 748.73 480.28 749 480.76C749.27 481.24 749.09 481.85 748.61 482.12C731.01 491.91 711.22 497.03 691.12 497.03L691.13 497.02Z" fill="black"/>
<path d="M701.27 517.77C700.8 517.77 700.39 517.44 700.29 516.97C700.18 516.43 700.53 515.9 701.08 515.79C714.55 513.11 727.38 508.21 739.21 501.25C739.69 500.97 740.3 501.13 740.58 501.6C740.86 502.08 740.7 502.69 740.23 502.97C728.2 510.05 715.16 515.02 701.47 517.75C701.4 517.76 701.34 517.77 701.27 517.77Z" fill="black"/>
<path d="M698.28 535.66C697.85 535.66 697.45 535.37 697.32 534.94C697.17 534.41 697.47 533.86 698 533.7C710.44 530.12 722.46 525.06 733.72 518.67C734.2 518.4 734.81 518.57 735.08 519.05C735.35 519.53 735.19 520.14 734.7 520.41C723.31 526.89 711.14 532.01 698.55 535.63C698.46 535.66 698.36 535.67 698.27 535.67L698.28 535.66Z" fill="black"/>
<path d="M673.471 117.16C675.261 128.12 668.701 139.16 667.431 149.82C666.141 160.62 669.891 172.87 665.781 182.99C661.731 192.95 650.491 199.2 644.011 208.13C637.741 216.79 635.411 229.42 627.141 236.77C619.171 243.86 606.351 244.79 596.781 250.38C587.571 255.75 580.531 266.5 570.071 270.21C560.041 273.76 547.801 269.93 536.821 271.72C525.841 273.51 515.451 281.04 504.821 280.86C493.721 280.67 483.631 272.71 473.191 270.54C462.341 268.29 449.891 271.48 440.081 267.29C429.901 262.94 423.681 251.7 414.981 245.49C406.011 239.08 393.361 236.72 386.361 228.57C379.241 220.28 378.911 207.48 374.261 197.65C369.671 187.95 359.941 179.56 358.161 168.61C356.371 157.65 362.931 146.61 364.201 135.95C365.491 125.15 361.741 112.9 365.851 102.78C369.901 92.8204 381.141 86.5704 387.621 77.6404C393.891 68.9804 396.221 56.3504 404.491 49.0004C412.461 41.9104 425.281 40.9804 434.851 35.3904C444.061 30.0204 451.101 19.2704 461.561 15.5604C471.591 12.0104 483.831 15.8404 494.811 14.0504C505.791 12.2604 516.181 4.7304 526.811 4.9104C537.911 5.1004 548.001 13.0604 558.441 15.2304C569.291 17.4804 581.741 14.2904 591.551 18.4804C601.731 22.8304 607.951 34.0704 616.651 40.2804C625.621 46.6904 638.271 49.0504 645.271 57.2004C652.391 65.4904 652.721 78.2904 657.371 88.1204C661.961 97.8204 671.691 106.21 673.471 117.16Z" fill="black"/>
<path d="M502.41 191.33L464.64 284.47L422.76 291.36C422.76 291.36 495.47 355.64 556.08 343.87C592.32 336.83 576.15 292.37 576.15 292.37L541.54 283.57L558.36 231.04L502.41 191.34V191.33Z" fill="white"/>
<path d="M576.149 293.37C576.069 293.37 575.989 293.36 575.899 293.34L541.289 284.54C541.019 284.47 540.789 284.3 540.659 284.06C540.529 283.82 540.499 283.53 540.579 283.27L557.179 231.43L502.859 192.89L465.559 284.86C465.429 285.18 465.139 285.41 464.799 285.47L422.919 292.36C422.379 292.45 421.859 292.08 421.769 291.54C421.679 291 422.049 290.48 422.589 290.39L463.919 283.59L501.479 190.97C501.599 190.69 501.829 190.47 502.129 190.39C502.419 190.3 502.739 190.36 502.989 190.53L558.939 230.23C559.299 230.48 559.449 230.94 559.309 231.35L542.809 282.87L576.389 291.41C576.929 291.55 577.249 292.09 577.109 292.63C576.999 293.08 576.589 293.38 576.139 293.38L576.149 293.37Z" fill="black"/>
<path d="M539.33 291.16C539.23 291.16 539.12 291.14 539.01 291.11C538.49 290.93 538.2 290.37 538.38 289.84L540.58 283.24C540.75 282.72 541.32 282.43 541.84 282.61C542.36 282.79 542.65 283.35 542.47 283.88L540.27 290.48C540.13 290.9 539.74 291.16 539.32 291.16H539.33Z" fill="black"/>
<path d="M514.16 160.14C510.34 156.57 505.18 154.17 499.97 154.61C491.9 155.28 485.56 162.72 484.07 170.68C482.58 178.64 485.04 186.85 488.61 194.12C490.95 198.88 493.93 203.56 498.46 206.32C502.99 209.08 509.37 209.36 513.25 205.76C518.76 216.68 524.54 227.77 533.44 236.16C542.34 244.55 555.07 249.87 566.92 246.87C576.81 244.37 584.56 236.57 590.04 227.96C599.11 213.73 603.24 196.8 604.43 179.97C605.62 163.14 604.02 146.24 602.42 129.44C600.77 134.73 594.61 137.87 589.15 136.93C583.68 135.99 579.19 131.61 577.18 126.45C577.66 135.06 573.11 143.77 565.78 148.31C558.44 152.85 548.62 153.03 541.13 148.76C542.26 153.62 543.08 158.67 542.2 163.58C540.86 171.05 533.9 178.91 525.62 175.56C522.82 174.43 522.27 172.76 521.11 170.19C519.4 166.4 517.24 163 514.18 160.14H514.16Z" fill="white"/>
<path d="M560.11 248.7C550.79 248.7 540.81 244.49 532.74 236.89C524.32 228.96 518.72 218.81 512.91 207.32C508.47 210.52 502.17 209.76 497.93 207.18C492.83 204.08 489.79 198.81 487.71 194.57C483.32 185.64 481.77 177.54 483.09 170.5C484.55 162.68 490.8 154.36 499.89 153.61C504.99 153.19 510.45 155.3 514.85 159.41C517.74 162.11 520.09 165.5 522.01 169.78L522.27 170.37C523.24 172.55 523.77 173.74 525.98 174.64C528.72 175.75 531.4 175.59 533.97 174.18C537.49 172.24 540.4 167.91 541.21 163.42C542.09 158.53 541.17 153.38 540.15 149C540.06 148.61 540.21 148.21 540.53 147.97C540.85 147.73 541.28 147.71 541.62 147.9C548.76 151.97 558.26 151.8 565.25 147.47C572.24 143.14 576.63 134.72 576.18 126.51C576.15 126.02 576.49 125.58 576.97 125.48C577.46 125.38 577.94 125.64 578.11 126.09C580.13 131.26 584.53 135.13 589.32 135.95C594.48 136.84 600.04 133.72 601.47 129.15C601.61 128.69 602.06 128.4 602.53 128.45C603 128.5 603.38 128.88 603.42 129.35C605 145.93 606.63 163.08 605.43 180.04C604.07 199.18 599.18 215.48 590.89 228.5C586.27 235.75 578.4 245 567.17 247.84C564.9 248.42 562.53 248.7 560.12 248.7H560.11ZM513.24 204.76C513.3 204.76 513.36 204.76 513.42 204.78C513.73 204.84 513.99 205.03 514.14 205.31C520.07 217.08 525.67 227.47 534.12 235.43C541.69 242.56 554.2 249.05 566.67 245.9C577.26 243.22 584.76 234.37 589.19 227.43C597.31 214.69 602.1 198.7 603.43 179.9C604.54 164.25 603.2 148.36 601.75 132.91C598.99 136.62 593.9 138.76 588.98 137.91C584.68 137.17 580.68 134.32 578.06 130.32C577.2 137.9 572.78 145.14 566.3 149.15C559.32 153.47 550.04 153.98 542.55 150.6C543.4 154.69 543.97 159.27 543.17 163.75C542.25 168.88 539.01 173.66 534.93 175.91C531.86 177.61 528.5 177.8 525.23 176.48C522.27 175.28 521.47 173.47 520.44 171.17L520.18 170.59C518.34 166.5 516.21 163.41 513.48 160.86C509.49 157.14 504.59 155.22 500.05 155.59C492.04 156.25 486.34 163.95 485.05 170.85C483.81 177.46 485.31 185.13 489.5 193.67C491.46 197.67 494.31 202.62 498.97 205.46C502.9 207.86 508.84 208.47 512.56 205.02C512.75 204.85 512.99 204.75 513.24 204.75V204.76Z" fill="black"/>
<path d="M515.81 194.89C515.4 194.89 515.02 194.64 514.87 194.23C512.63 188.14 507.42 183.09 501.26 181.04C500.74 180.87 500.45 180.3 500.63 179.78C500.8 179.26 501.37 178.97 501.89 179.15C508.72 181.41 514.27 186.79 516.75 193.55C516.94 194.07 516.67 194.64 516.16 194.83C516.05 194.87 515.93 194.89 515.82 194.89H515.81Z" fill="black"/>
<path d="M1156.58 265.82H856.051C855.501 265.82 855.051 265.37 855.051 264.82V1C855.051 0.45 855.501 0 856.051 0C856.601 0 857.051 0.45 857.051 1V263.82H1156.58C1157.13 263.82 1157.58 264.27 1157.58 264.82C1157.58 265.37 1157.13 265.82 1156.58 265.82Z" fill="#2A4C5C"/>
<path d="M868.32 253.56C867.77 253.56 867.32 253.11 867.32 252.56V35.3701C867.32 34.8201 867.77 34.3701 868.32 34.3701C868.87 34.3701 869.32 34.8201 869.32 35.3701V252.56C869.32 253.11 868.87 253.56 868.32 253.56Z" fill="#2A4C5C"/>
<path d="M880.58 253.56C880.03 253.56 879.58 253.11 879.58 252.56V45.8604C879.58 45.3104 880.03 44.8604 880.58 44.8604C881.13 44.8604 881.58 45.3104 881.58 45.8604V252.56C881.58 253.11 881.13 253.56 880.58 253.56Z" fill="#2A4C5C"/>
<path d="M892.84 253.56C892.29 253.56 891.84 253.11 891.84 252.56V66.8398C891.84 66.2898 892.29 65.8398 892.84 65.8398C893.39 65.8398 893.84 66.2898 893.84 66.8398V252.56C893.84 253.11 893.39 253.56 892.84 253.56Z" fill="#2A4C5C"/>
<path d="M905.109 253.56C904.559 253.56 904.109 253.11 904.109 252.56V87.8203C904.109 87.2703 904.559 86.8203 905.109 86.8203C905.659 86.8203 906.109 87.2703 906.109 87.8203V252.56C906.109 253.11 905.659 253.56 905.109 253.56Z" fill="#2A4C5C"/>
<path d="M917.369 253.56C916.819 253.56 916.369 253.11 916.369 252.56V98.3096C916.369 97.7596 916.819 97.3096 917.369 97.3096C917.919 97.3096 918.369 97.7596 918.369 98.3096V252.56C918.369 253.11 917.919 253.56 917.369 253.56Z" fill="#2A4C5C"/>
<path d="M929.631 253.56C929.081 253.56 928.631 253.11 928.631 252.56V87.8203C928.631 87.2703 929.081 86.8203 929.631 86.8203C930.181 86.8203 930.631 87.2703 930.631 87.8203V252.56C930.631 253.11 930.181 253.56 929.631 253.56Z" fill="#2A4C5C"/>
<path d="M941.9 253.56C941.35 253.56 940.9 253.11 940.9 252.56V87.8203C940.9 87.2703 941.35 86.8203 941.9 86.8203C942.45 86.8203 942.9 87.2703 942.9 87.8203V252.56C942.9 253.11 942.45 253.56 941.9 253.56Z" fill="#2A4C5C"/>
<path d="M954.16 253.56C953.61 253.56 953.16 253.11 953.16 252.56V77.3301C953.16 76.7801 953.61 76.3301 954.16 76.3301C954.71 76.3301 955.16 76.7801 955.16 77.3301V252.56C955.16 253.11 954.71 253.56 954.16 253.56Z" fill="#2A4C5C"/>
<path d="M966.42 253.56C965.87 253.56 965.42 253.11 965.42 252.56V66.8398C965.42 66.2898 965.87 65.8398 966.42 65.8398C966.97 65.8398 967.42 66.2898 967.42 66.8398V252.56C967.42 253.11 966.97 253.56 966.42 253.56Z" fill="#2A4C5C"/>
<path d="M978.68 253.56C978.13 253.56 977.68 253.11 977.68 252.56V77.3301C977.68 76.7801 978.13 76.3301 978.68 76.3301C979.23 76.3301 979.68 76.7801 979.68 77.3301V252.56C979.68 253.11 979.23 253.56 978.68 253.56Z" fill="#2A4C5C"/>
<path d="M990.949 253.56C990.399 253.56 989.949 253.11 989.949 252.56V87.8203C989.949 87.2703 990.399 86.8203 990.949 86.8203C991.499 86.8203 991.949 87.2703 991.949 87.8203V252.56C991.949 253.11 991.499 253.56 990.949 253.56Z" fill="#2A4C5C"/>
<path d="M1003.21 253.56C1002.66 253.56 1002.21 253.11 1002.21 252.56V66.8398C1002.21 66.2898 1002.66 65.8398 1003.21 65.8398C1003.76 65.8398 1004.21 66.2898 1004.21 66.8398V252.56C1004.21 253.11 1003.76 253.56 1003.21 253.56Z" fill="#2A4C5C"/>
<path d="M1015.47 253.56C1014.92 253.56 1014.47 253.11 1014.47 252.56V77.3301C1014.47 76.7801 1014.92 76.3301 1015.47 76.3301C1016.02 76.3301 1016.47 76.7801 1016.47 77.3301V252.56C1016.47 253.11 1016.02 253.56 1015.47 253.56Z" fill="#2A4C5C"/>
<path d="M1027.74 253.56C1027.19 253.56 1026.74 253.11 1026.74 252.56V66.8398C1026.74 66.2898 1027.19 65.8398 1027.74 65.8398C1028.29 65.8398 1028.74 66.2898 1028.74 66.8398V252.56C1028.74 253.11 1028.29 253.56 1027.74 253.56Z" fill="#2A4C5C"/>
<path d="M1040 253.56C1039.45 253.56 1039 253.11 1039 252.56V98.3096C1039 97.7596 1039.45 97.3096 1040 97.3096C1040.55 97.3096 1041 97.7596 1041 98.3096V252.56C1041 253.11 1040.55 253.56 1040 253.56Z" fill="#2A4C5C"/>
<path d="M1052.26 253.56C1051.71 253.56 1051.26 253.11 1051.26 252.56V87.8203C1051.26 87.2703 1051.71 86.8203 1052.26 86.8203C1052.81 86.8203 1053.26 87.2703 1053.26 87.8203V252.56C1053.26 253.11 1052.81 253.56 1052.26 253.56Z" fill="#2A4C5C"/>
<path d="M1064.53 253.56C1063.98 253.56 1063.53 253.11 1063.53 252.56V77.3301C1063.53 76.7801 1063.98 76.3301 1064.53 76.3301C1065.08 76.3301 1065.53 76.7801 1065.53 77.3301V252.56C1065.53 253.11 1065.08 253.56 1064.53 253.56Z" fill="#2A4C5C"/>
<path d="M1076.79 253.56C1076.24 253.56 1075.79 253.11 1075.79 252.56V45.8604C1075.79 45.3104 1076.24 44.8604 1076.79 44.8604C1077.34 44.8604 1077.79 45.3104 1077.79 45.8604V252.56C1077.79 253.11 1077.34 253.56 1076.79 253.56Z" fill="#2A4C5C"/>
<path d="M1089.05 253.56C1088.5 253.56 1088.05 253.11 1088.05 252.56V35.3701C1088.05 34.8201 1088.5 34.3701 1089.05 34.3701C1089.6 34.3701 1090.05 34.8201 1090.05 35.3701V252.56C1090.05 253.11 1089.6 253.56 1089.05 253.56Z" fill="#2A4C5C"/>
<path d="M1101.31 253.56C1100.76 253.56 1100.31 253.11 1100.31 252.56V45.8604C1100.31 45.3104 1100.76 44.8604 1101.31 44.8604C1101.86 44.8604 1102.31 45.3104 1102.31 45.8604V252.56C1102.31 253.11 1101.86 253.56 1101.31 253.56Z" fill="#2A4C5C"/>
<path d="M1113.58 253.56C1113.03 253.56 1112.58 253.11 1112.58 252.56V66.8398C1112.58 66.2898 1113.03 65.8398 1113.58 65.8398C1114.13 65.8398 1114.58 66.2898 1114.58 66.8398V252.56C1114.58 253.11 1114.13 253.56 1113.58 253.56Z" fill="#2A4C5C"/>
<path d="M1125.84 253.56C1125.29 253.56 1124.84 253.11 1124.84 252.56V150.76C1124.84 150.21 1125.29 149.76 1125.84 149.76C1126.39 149.76 1126.84 150.21 1126.84 150.76V252.56C1126.84 253.11 1126.39 253.56 1125.84 253.56Z" fill="#2A4C5C"/>
<path d="M1138.1 253.56C1137.55 253.56 1137.1 253.11 1137.1 252.56V119.28C1137.1 118.73 1137.55 118.28 1138.1 118.28C1138.65 118.28 1139.1 118.73 1139.1 119.28V252.55C1139.1 253.1 1138.65 253.55 1138.1 253.55V253.56Z" fill="#2A4C5C"/>
<path d="M1150.37 253.56C1149.82 253.56 1149.37 253.11 1149.37 252.56V66.8398C1149.37 66.2898 1149.82 65.8398 1150.37 65.8398C1150.92 65.8398 1151.37 66.2898 1151.37 66.8398V252.56C1151.37 253.11 1150.92 253.56 1150.37 253.56Z" fill="#2A4C5C"/>
<path d="M839.82 204.49H802.9C802.35 204.49 801.9 204.04 801.9 203.49C801.9 202.94 802.35 202.49 802.9 202.49H839.82C840.37 202.49 840.82 202.94 840.82 203.49C840.82 204.04 840.37 204.49 839.82 204.49Z" fill="#2A4C5C"/>
<path d="M839.82 143.15H802.9C802.35 143.15 801.9 142.7 801.9 142.15C801.9 141.6 802.35 141.15 802.9 141.15H839.82C840.37 141.15 840.82 141.6 840.82 142.15C840.82 142.7 840.37 143.15 839.82 143.15Z" fill="#2A4C5C"/>
<path d="M839.82 81.8203H802.9C802.35 81.8203 801.9 81.3703 801.9 80.8203C801.9 80.2703 802.35 79.8203 802.9 79.8203H839.82C840.37 79.8203 840.82 80.2703 840.82 80.8203C840.82 81.3703 840.37 81.8203 839.82 81.8203Z" fill="#2A4C5C"/>
<path d="M839.82 20.4902H802.9C802.35 20.4902 801.9 20.0402 801.9 19.4902C801.9 18.9402 802.35 18.4902 802.9 18.4902H839.82C840.37 18.4902 840.82 18.9402 840.82 19.4902C840.82 20.0402 840.37 20.4902 839.82 20.4902Z" fill="#2A4C5C"/>
<path d="M917.369 316.1C916.819 316.1 916.369 315.65 916.369 315.1V278.17C916.369 277.62 916.819 277.17 917.369 277.17C917.919 277.17 918.369 277.62 918.369 278.17V315.1C918.369 315.65 917.919 316.1 917.369 316.1Z" fill="#2A4C5C"/>
<path d="M978.68 316.1C978.13 316.1 977.68 315.65 977.68 315.1V278.17C977.68 277.62 978.13 277.17 978.68 277.17C979.23 277.17 979.68 277.62 979.68 278.17V315.1C979.68 315.65 979.23 316.1 978.68 316.1Z" fill="#2A4C5C"/>
<path d="M1040 316.1C1039.45 316.1 1039 315.65 1039 315.1V278.17C1039 277.62 1039.45 277.17 1040 277.17C1040.55 277.17 1041 277.62 1041 278.17V315.1C1041 315.65 1040.55 316.1 1040 316.1Z" fill="#2A4C5C"/>
<path d="M1101.31 316.1C1100.76 316.1 1100.31 315.65 1100.31 315.1V278.17C1100.31 277.62 1100.76 277.17 1101.31 277.17C1101.86 277.17 1102.31 277.62 1102.31 278.17V315.1C1102.31 315.65 1101.86 316.1 1101.31 316.1Z" fill="#2A4C5C"/>
<path d="M754.211 346.31C753.661 346.31 753.211 345.86 753.211 345.31V268.32C753.211 267.77 753.661 267.32 754.211 267.32H827.901C828.451 267.32 828.901 267.77 828.901 268.32C828.901 268.87 828.451 269.32 827.901 269.32H755.211V345.31C755.211 345.86 754.761 346.31 754.211 346.31Z" fill="#2A4C5C"/>
<path d="M1059.74 202.096C1074.51 171.561 1061.79 134.856 1031.32 120.113C1000.85 105.37 964.172 118.172 949.398 148.707C934.623 179.242 947.347 215.947 977.818 230.69C1008.29 245.433 1044.97 232.631 1059.74 202.096Z" fill="white"/>
<path d="M1004.59 237.83C1003.31 237.83 1002.03 237.79 1000.74 237.71C984.14 236.71 968.94 229.29 957.92 216.84C935.16 191.11 937.58 151.59 963.32 128.76C975.8 117.69 991.83 112.14 1008.46 113.15C1025.06 114.15 1040.26 121.57 1051.28 134.02C1074.04 159.75 1071.62 199.27 1045.88 222.1C1034.36 232.32 1019.83 237.82 1004.58 237.82L1004.59 237.83ZM959.42 215.52C970.08 227.57 984.8 234.75 1000.86 235.72C1016.96 236.7 1032.47 231.33 1044.55 220.61C1069.46 198.51 1071.81 160.26 1049.78 135.35C1039.12 123.3 1024.4 116.12 1008.34 115.15C992.25 114.18 976.73 119.54 964.65 130.26C939.74 152.36 937.39 190.61 959.42 215.52Z" fill="#2A4C5C"/>
<path d="M1014.91 157.44L1018.02 145.32C1019.09 141.19 1018.05 135.26 1013.92 134.19C1009.79 133.12 1007.25 135.93 1005.12 141.62L999.94 152.62C997.21 158.32 991.68 162.44 987.65 163.67C984.64 164.59 982.59 167.38 982.65 170.53L983.06 192.07C983.12 195.29 984.7 198.3 987.31 200.18C993.37 202.71 999.89 203.94 1006.46 203.81C1006.46 203.81 1019.85 203.39 1027.16 203.28C1030.57 203.23 1033.38 200.4 1033.23 196.99C1033.17 195.59 1032.63 194.32 1031.77 193.33C1031.51 193.03 1031.69 192.38 1032.08 192.34L1032.91 192.3C1035.89 191.94 1037.74 189.26 1038.17 187C1038.47 185.44 1038.27 183.81 1036.38 181.92C1038.33 180.8 1040.36 178 1040.28 175.54C1040.2 173.14 1038.52 171.79 1036.77 171.03C1035.85 170.63 1035.61 169.43 1036.34 168.73C1037.25 167.86 1037.93 166.5 1037.97 164.43C1037.91 161.11 1035.65 159.32 1031.87 158.99C1025.12 158.39 1014.93 157.44 1014.93 157.44H1014.91Z" fill="#2A4C5C"/>
<path d="M969.061 201.3L976.541 201.12C978.551 201.07 980.141 199.4 980.101 197.39L979.431 166.84C979.391 164.83 977.721 163.23 975.701 163.28L968.221 163.46C966.211 163.51 964.621 165.18 964.661 167.19L965.331 197.74C965.371 199.75 967.041 201.35 969.061 201.3Z" fill="#2A4C5C"/>
<path d="M422.76 222.89H1V390.74H422.76V222.89Z" fill="white"/>
<path d="M422.76 391.74H1C0.45 391.74 0 391.29 0 390.74V222.89C0 222.34 0.45 221.89 1 221.89H422.76C423.31 221.89 423.76 222.34 423.76 222.89V390.74C423.76 391.29 423.31 391.74 422.76 391.74ZM2 389.74H421.76V223.89H2V389.74Z" fill="black"/>
<path d="M115.281 304.1L87.1407 287.73C84.2507 286.05 80.6207 288.12 80.6007 291.46L80.3907 323.97C80.3707 327.32 83.9807 329.44 86.9007 327.78L115.251 311.64C118.171 309.98 118.191 305.78 115.291 304.1H115.281Z" fill="#2A4C5C"/>
<path d="M94.9602 243.19C59.3102 243.19 30.4102 272.1 30.4102 307.77C30.4102 343.44 59.3102 372.34 94.9602 372.34C130.61 372.34 159.51 343.43 159.51 307.77C159.51 272.11 130.61 243.19 94.9602 243.19ZM94.9602 350.8C71.2002 350.8 51.9402 331.53 51.9402 307.76C51.9402 283.99 71.2002 264.72 94.9602 264.72C118.72 264.72 137.98 283.99 137.98 307.76C137.98 331.53 118.72 350.8 94.9602 350.8Z" fill="#2A4C5C"/>
<path d="M51.9792 309.2H30.4492C31.2092 343.96 59.4092 371.94 94.2492 372.32V350.78C71.2992 350.4 52.7292 332.06 51.9792 309.2Z" fill="black"/>
<path d="M249.199 344.39H205.529C204.979 344.39 204.529 343.94 204.529 343.39C204.529 342.84 204.979 342.39 205.529 342.39H249.199C249.749 342.39 250.199 342.84 250.199 343.39C250.199 343.94 249.749 344.39 249.199 344.39Z" fill="black"/>
<path d="M377.821 344.39H274.551C274.001 344.39 273.551 343.94 273.551 343.39C273.551 342.84 274.001 342.39 274.551 342.39H377.821C378.371 342.39 378.821 342.84 378.821 343.39C378.821 343.94 378.371 344.39 377.821 344.39Z" fill="black"/>
<path d="M377.819 308.74H205.529C204.979 308.74 204.529 308.29 204.529 307.74C204.529 307.19 204.979 306.74 205.529 306.74H377.819C378.369 306.74 378.819 307.19 378.819 307.74C378.819 308.29 378.369 308.74 377.819 308.74Z" fill="black"/>
<path d="M308.569 273.09H205.529C204.979 273.09 204.529 272.64 204.529 272.09C204.529 271.54 204.979 271.09 205.529 271.09H308.569C309.119 271.09 309.569 271.54 309.569 272.09C309.569 272.64 309.119 273.09 308.569 273.09Z" fill="black"/>
<path d="M377.82 273.09H332.68C332.13 273.09 331.68 272.64 331.68 272.09C331.68 271.54 332.13 271.09 332.68 271.09H377.82C378.37 271.09 378.82 271.54 378.82 272.09C378.82 272.64 378.37 273.09 377.82 273.09Z" fill="black"/>
<path d="M659.91 365.59H444.92C444.37 365.59 443.92 365.14 443.92 364.59C443.92 364.04 444.37 363.59 444.92 363.59H659.91C660.46 363.59 660.91 364.04 660.91 364.59C660.91 365.14 660.46 365.59 659.91 365.59Z" fill="#2A4C5C"/>
<path d="M243.652 628.475C276.577 598.682 279.024 547.736 249.117 514.684C219.21 481.631 168.273 478.988 135.348 508.781C102.422 538.573 99.9751 589.519 129.882 622.572C159.79 655.624 210.726 658.267 243.652 628.475Z" fill="white"/>
<path d="M189.819 650.18C144.859 650.18 108.139 613.59 107.969 568.62C107.889 546.82 116.289 526.34 131.639 510.93C146.979 495.53 167.419 487.05 189.199 487.05C234.159 487.05 270.879 523.64 271.049 568.61C271.129 590.41 262.729 610.89 247.379 626.3C232.039 641.7 211.599 650.18 189.819 650.18ZM189.199 489.04C167.959 489.04 148.019 497.31 133.059 512.34C118.089 527.37 109.889 547.36 109.969 568.62C110.139 612.5 145.959 648.19 189.819 648.19C211.059 648.19 230.999 639.92 245.959 624.89C260.929 609.86 269.129 589.87 269.049 568.61C268.879 524.73 233.059 489.04 189.199 489.04Z" fill="black"/>
<path d="M257.05 714.06C288.138 714.06 313.34 688.827 313.34 657.7C313.34 626.573 288.138 601.34 257.05 601.34C225.962 601.34 200.76 626.573 200.76 657.7C200.76 688.827 225.962 714.06 257.05 714.06Z" fill="white"/>
<path d="M257.03 715.06C241.91 715.06 227.68 709.23 216.88 698.6C205.97 687.86 199.89 673.5 199.76 658.18C199.49 626.55 224.97 600.6 256.56 600.33C271.86 600.2 286.3 606.04 297.21 616.78C308.12 627.52 314.2 641.88 314.33 657.2C314.6 688.83 289.12 714.78 257.53 715.05C257.36 715.05 257.19 715.05 257.03 715.05V715.06ZM257.06 602.33C256.9 602.33 256.74 602.33 256.57 602.33C226.08 602.59 201.5 627.64 201.76 658.16C201.89 672.95 207.76 686.8 218.29 697.17C228.82 707.54 242.77 713.2 257.52 713.05C288.01 712.79 312.59 687.74 312.33 657.22C312.2 642.43 306.33 628.58 295.8 618.21C285.38 607.96 271.64 602.33 257.05 602.33H257.06Z" fill="black"/>
<path d="M243.25 662.47C236.26 662.47 230.53 668.06 230.27 674.99C236.16 684.07 246.39 690.09 258.02 690.09C269.65 690.09 279.88 684.08 285.77 674.99C285.51 668.06 279.78 662.47 272.79 662.47H243.26H243.25Z" fill="#2A4C5C"/>
<path d="M261.009 656.018C266.682 654.382 269.954 648.457 268.318 642.784C266.681 637.112 260.756 633.84 255.084 635.476C249.411 637.112 246.139 643.037 247.775 648.71C249.411 654.382 255.336 657.655 261.009 656.018Z" fill="#2A4C5C"/>
<path d="M279.651 546.49C269.861 505.65 233.121 475.23 189.381 475.11L189.741 568.28C189.741 568.28 264.661 549.95 279.651 546.49Z" fill="#2A4C5C"/>
<path d="M136.261 499.21C117.601 513.25 105.741 534.14 102.711 556.68C123.801 559.5 188.741 568.08 188.741 568.08C188.741 568.08 144.861 510.75 136.261 499.21Z" fill="white"/>
<path d="M188.74 569.08C188.74 569.08 188.65 569.08 188.61 569.08C187.96 568.99 123.42 560.46 102.57 557.68C102.31 557.64 102.07 557.51 101.91 557.3C101.75 557.09 101.68 556.82 101.71 556.56C104.81 533.51 117.18 512.32 135.65 498.43C135.86 498.27 136.13 498.2 136.39 498.24C136.65 498.28 136.89 498.42 137.05 498.63C145.55 510.04 189.09 566.92 189.52 567.49C189.77 567.81 189.79 568.25 189.59 568.6C189.41 568.91 189.08 569.1 188.72 569.1L188.74 569.08ZM103.84 555.82C123.23 558.41 174.76 565.22 186.48 566.77C178.96 556.94 144.8 512.28 136.06 500.61C118.72 513.99 107.03 534.01 103.84 555.81V555.82Z" fill="black"/>
<path d="M218.819 496.57C218.609 496.57 218.399 496.5 218.219 496.37C217.779 496.04 217.689 495.41 218.019 494.97L261.149 437.89C261.339 437.64 261.629 437.49 261.949 437.49H395.689C396.239 437.49 396.689 437.94 396.689 438.49C396.689 439.04 396.239 439.49 395.689 439.49H262.439L219.609 496.17C219.409 496.43 219.109 496.57 218.809 496.57H218.819Z" fill="black"/>
</g>
<defs>
<clipPath id="clip0_121_230">
<rect width="1246.5" height="831" fill="white"/>
</clipPath>
</defs>
</svg>
