<svg width="476" height="477" viewBox="0 0 476 477" fill="none" xmlns="http://www.w3.org/2000/svg">
<path d="M214.22 165.042C214.174 164.519 213.743 163.974 213.243 163.815C212.606 163.633 211.993 163.451 211.357 163.292C208.538 157.042 203.333 152.041 197.151 148.928C188.083 144.359 176.968 144.109 167.195 146.291C164.422 146.905 162.604 148.246 161.603 150.996C161.353 151.701 161.126 152.451 160.876 153.155C160.558 153.292 160.285 153.564 160.172 154.019C159.626 156.133 159.08 158.224 158.535 160.337C158.376 160.997 158.581 161.542 158.944 161.928C158.376 166.247 157.99 170.588 157.74 174.929C156.149 177.02 155.603 179.475 154.876 181.998C154.58 183.02 154.148 184.021 153.648 184.93C149.239 187.475 144.944 190.203 140.807 193.157C139.648 193.476 138.92 195.067 140.193 195.862C153.535 203.931 169.899 205.954 184.878 201.862C184.991 202.408 185.4 202.885 186.173 202.954C193.242 203.454 200.128 198.385 204.697 193.453C209.152 188.634 212.243 182.611 213.652 176.202C214.447 172.543 214.629 168.77 214.22 165.042Z" fill="white"/>
<path d="M433.664 251.776C432.55 253.731 431.3 255.571 429.868 257.299C427.959 259.594 425.732 261.663 423.118 263.39C417.572 267.072 411.117 269.209 404.571 270.323C389.934 272.8 374.524 270.55 361.114 264.208C360.091 263.731 360 262.595 360.432 261.845L359.637 261.276C358.523 260.458 357.386 259.663 356.273 258.867C345.886 251.64 335.022 245.116 323.771 239.321C312.066 233.343 300.156 227.774 288.314 222.069C288.292 222.842 288.246 223.615 288.201 224.388C286.973 247.935 284.428 271.391 280.587 294.642C281.882 295.051 282.428 297.074 280.837 297.551C269.677 301.006 258.494 304.438 247.335 307.893C237.675 310.87 228.038 314.052 218.265 316.621C208.469 319.189 198.468 320.325 188.49 321.985C171.671 324.757 155.602 331.19 138.76 333.667C137.533 339.713 136.419 345.759 135.305 351.827C132.532 366.851 129.737 381.897 125.1 396.489C121.077 409.171 115.691 421.877 106.713 431.877C98.1898 441.355 86.3251 447.855 73.3698 447.924C71.3924 447.924 69.4609 447.765 67.5517 447.424C64.256 446.855 61.1192 445.764 58.21 444.242C54.7098 440.878 51.7548 436.9 49.4592 432.582C48.391 430.559 47.4364 428.445 46.6409 426.286C42.1179 413.854 41.9366 400.398 42.5957 387.329C44.0503 359.169 48.5048 331.19 55.3234 303.847C58.7554 290.096 62.7332 276.414 67.5289 263.095C69.7563 256.89 72.3015 250.821 75.5744 245.116C78.7109 239.616 82.5976 234.616 87.0297 230.093C95.6666 221.206 105.872 214.16 116.168 207.341C123.009 202.818 129.828 198.318 136.669 193.818C137.374 193.363 138.078 192.886 138.783 192.432C139.01 192.522 139.237 192.704 139.419 192.977C139.851 193.636 140.351 194.25 140.851 194.818C145.965 200.591 154.307 202.25 161.739 202.864C176.922 204.091 195.741 202.841 206.514 190.568C213.492 182.635 215.628 171.157 212.787 161.111C212.469 159.998 212.105 158.907 211.651 157.838C212.014 157.497 212.401 157.134 212.787 156.77C214.674 154.588 216.719 152.679 218.947 151.02C224.22 147.065 228.606 141.679 234.152 137.837C239.448 134.178 245.425 131.496 251.721 130.178C264.517 127.496 278.178 129.723 290.178 134.587C293.36 135.883 296.474 137.383 299.451 139.11C324.112 153.497 412.026 215.206 422.845 225.093C429.118 230.82 432.3 238.048 433.3 245.389C433.641 247.526 433.732 249.662 433.664 251.776Z" fill="#24D0C0"/>
<path d="M317.544 346.485C298.429 349.826 279.36 353.235 260.268 356.735C256.995 340.939 253.722 325.143 250.449 309.346C251.04 309.21 251.631 309.096 252.222 308.983C270.905 305.164 289.565 301.21 308.225 297.255C309.271 303.096 310.339 308.96 311.43 314.779C313.407 325.37 315.453 335.939 317.544 346.485Z" fill="#6B3FEB"/>
<path d="M380.684 364.578L375.547 339.781L374.888 336.667L364.296 285.46L363.66 282.346L357.91 254.572C357.364 252.003 356.796 249.639 356.114 247.503C355.773 246.435 355.432 245.435 355.023 244.48C351.909 236.934 346.887 232.911 336.931 232.911C333.454 232.911 329.408 233.388 324.612 234.389L301.702 239.139L298.588 239.775L238.63 252.185L235.516 252.821L176.444 265.049L173.33 265.709L137.374 273.141C132.851 274.096 129.737 275.959 127.828 278.868C126.078 281.55 125.373 285.073 125.351 289.301C125.351 290.324 125.373 291.415 125.442 292.528C125.851 299.12 127.51 306.984 129.305 315.462C129.624 316.984 129.964 318.553 130.283 320.121C130.305 320.28 130.874 323.121 131.783 327.735C131.965 328.689 132.169 329.758 132.396 330.849C134.714 342.599 138.556 362.055 141.965 379.215C142.17 380.261 142.374 381.306 142.579 382.329C144.466 391.716 146.17 400.194 147.374 406.035C152.602 431.218 163.103 432.582 172.717 430.582L203.878 424.127L206.992 423.49L268.268 410.808L271.382 410.149L328.499 398.33L331.59 397.694L351.477 393.58C363.865 391.011 371.797 387.738 376.411 383.284C381.025 378.829 382.411 372.851 380.684 364.578ZM260.267 356.737C256.994 340.94 253.722 325.144 250.449 309.347C251.04 309.211 251.631 309.097 252.222 308.984C270.905 305.165 289.565 301.211 308.225 297.256C309.27 303.097 310.338 308.961 311.429 314.78C313.407 325.348 315.453 335.917 317.544 346.463C298.429 349.827 279.337 353.236 260.267 356.737Z" fill="white"/>
<path d="M383.774 363.94L378.661 339.257L378.024 336.143L367.387 284.822L366.751 281.731L361 253.956C360.455 251.388 359.864 249.024 359.182 246.888C358.841 245.819 358.477 244.819 358.091 243.865C357.068 244.092 356.069 244.297 355.023 244.501C355.432 245.456 355.773 246.456 356.114 247.524C356.796 249.661 357.387 252.002 357.91 254.593L363.659 282.367L364.296 285.481L374.888 336.688L375.547 339.802L380.684 364.599C382.411 372.872 381.024 378.827 376.365 383.35C371.774 387.805 363.842 391.078 351.432 393.646L331.544 397.76L328.453 398.397L271.336 410.215L268.222 410.875L206.946 423.557L203.832 424.194L172.671 430.648C163.08 432.649 152.556 431.285 147.329 406.102C146.124 400.26 144.42 391.783 142.533 382.396C142.329 381.373 142.124 380.327 141.92 379.282C138.51 362.144 134.647 342.666 132.351 330.915C132.124 329.802 131.942 328.756 131.737 327.801C130.828 323.188 130.259 320.347 130.237 320.21C129.919 318.619 129.578 317.073 129.26 315.528C127.464 307.027 125.805 299.163 125.396 292.595C125.328 291.481 125.282 290.39 125.305 289.367C124.237 289.572 123.191 289.754 122.123 289.936C122.123 290.981 122.168 292.049 122.259 293.163C122.714 299.777 124.35 307.528 126.168 316.187C126.486 317.71 126.828 319.256 127.146 320.824C127.191 321.051 127.737 323.824 128.623 328.279C128.805 329.234 129.032 330.302 129.237 331.393C131.532 343.121 135.396 362.667 138.828 379.896C139.056 380.941 139.237 381.987 139.465 383.009C141.351 392.419 143.056 400.897 144.261 406.738C148.17 425.625 155.375 434.421 167.262 434.421C169.148 434.421 171.171 434.194 173.33 433.762L204.537 427.285L207.628 426.648L268.881 413.966L271.995 413.306L329.158 401.465L332.249 400.828L352.091 396.715C365.114 394.01 373.524 390.51 378.57 385.623C383.979 380.327 385.684 373.236 383.774 363.94Z" fill="#0C2C3E"/>
<path d="M358.067 243.844C357.044 244.071 356.045 244.275 354.999 244.48C345.658 246.457 336.316 248.389 326.975 250.321C279.426 260.14 231.81 269.527 184.102 278.482C164.51 282.164 144.896 285.778 125.281 289.301C124.213 289.506 123.167 289.687 122.099 289.869C122.076 284.823 122.894 280.528 125.122 277.141C127.508 273.505 131.281 271.186 136.668 270.072L172.738 262.595L175.875 261.958L234.833 249.753L237.947 249.094L298.064 236.661L301.177 236.002L323.951 231.298C343.021 227.366 352.726 230.548 358.067 243.844Z" fill="#0C2C3E"/>
<path d="M359.16 246.866C358.137 247.094 357.114 247.298 356.091 247.526C319.953 255.117 283.723 262.481 247.471 269.595C206.833 277.573 166.148 285.232 125.373 292.574C124.328 292.755 123.282 292.96 122.237 293.142C122.146 292.051 122.101 290.96 122.101 289.915C123.169 289.733 124.214 289.528 125.282 289.346C144.897 285.823 164.512 282.21 184.104 278.528C231.811 269.572 279.428 260.186 326.976 250.367C336.317 248.435 345.659 246.48 355.001 244.525C356.023 244.321 357.046 244.116 358.069 243.889C358.455 244.798 358.819 245.821 359.16 246.866Z" fill="#0C2C3E"/>
<path d="M207.607 426.604L204.516 427.24C204.289 426.217 204.084 425.195 203.834 424.172C203.061 420.603 202.311 417.035 201.538 413.467C198.652 399.83 195.834 386.192 193.083 372.51C192.879 371.464 192.674 370.419 192.47 369.396C190.197 358.054 187.969 346.69 185.81 335.326C184.992 331.007 184.174 326.666 183.378 322.348C183.174 321.302 182.992 320.257 182.81 319.234C179.514 301.437 176.332 283.596 173.309 265.731C173.127 264.708 172.946 263.663 172.764 262.64L175.901 262.003C176.06 263.026 176.241 264.072 176.423 265.094C178.423 276.936 180.492 288.755 182.628 300.551C183.719 306.597 184.81 312.62 185.946 318.666C186.128 319.711 186.333 320.757 186.515 321.779C189.447 337.485 192.469 353.145 195.606 368.805C195.811 369.851 196.015 370.873 196.22 371.919C196.652 374.055 197.084 376.192 197.515 378.328C200.561 393.42 203.72 408.489 206.948 423.535C207.175 424.558 207.38 425.604 207.607 426.604Z" fill="#0C2C3E"/>
<path d="M271.973 413.284L268.859 413.944C268.654 412.921 268.449 411.898 268.222 410.875C267.927 409.398 267.609 407.943 267.313 406.488C264.131 391.147 260.972 375.782 257.767 360.44C257.563 359.395 257.335 358.372 257.108 357.327C254.608 345.235 252.108 333.166 249.608 321.075C248.835 317.37 248.085 313.688 247.312 309.983C247.107 308.937 246.88 307.915 246.653 306.869C242.925 288.868 239.198 270.867 235.47 252.866C235.266 251.843 235.061 250.82 234.834 249.798L237.948 249.138C238.153 250.161 238.357 251.184 238.585 252.229C240.721 262.594 242.88 272.935 245.016 283.277C246.607 290.936 248.199 298.596 249.767 306.233C249.971 307.278 250.199 308.301 250.403 309.346C253.676 325.143 256.949 340.939 260.222 356.736C260.427 357.781 260.654 358.827 260.858 359.849C261.472 362.804 262.086 365.736 262.699 368.691C265.563 382.533 268.427 396.374 271.314 410.216C271.541 411.216 271.768 412.262 271.973 413.284Z" fill="#0C2C3E"/>
<path d="M332.228 400.807L329.136 401.443C328.909 400.421 328.682 399.398 328.454 398.375C328.25 397.489 328.045 396.625 327.863 395.739C324.499 380.374 321.25 365.01 318.159 349.577C317.954 348.531 317.75 347.509 317.522 346.463C315.431 335.917 313.385 325.348 311.408 314.779C310.317 308.938 309.249 303.097 308.203 297.256C308.021 296.21 307.817 295.165 307.635 294.142C304.408 276.05 301.385 257.935 298.544 239.798C298.385 238.752 298.226 237.729 298.066 236.707L301.18 236.047C301.339 237.093 301.499 238.116 301.658 239.161C303.931 253.662 306.317 268.14 308.84 282.618C309.476 286.255 310.113 289.869 310.749 293.483C310.931 294.528 311.136 295.574 311.317 296.596C314.272 313.075 317.386 329.53 320.659 345.94C320.863 346.986 321.068 348.008 321.295 349.054C322.704 356.123 324.159 363.214 325.636 370.26C327.545 379.42 329.523 388.602 331.546 397.739C331.773 398.762 332 399.784 332.228 400.807Z" fill="#0C2C3E"/>
<path d="M367.388 284.821C366.365 285.049 365.342 285.253 364.297 285.458C346.637 289.117 328.977 292.867 311.34 296.595C310.294 296.822 309.271 297.027 308.226 297.254C289.565 301.209 270.905 305.141 252.222 308.982C251.632 309.118 251.041 309.232 250.45 309.346C249.404 309.55 248.381 309.755 247.335 309.982C227.107 314.119 206.833 318.096 186.514 321.801C185.468 322.005 184.423 322.187 183.377 322.369C166.399 325.46 149.398 328.324 132.329 330.915C131.284 331.074 130.261 331.233 129.238 331.393C129.01 330.279 128.806 329.233 128.624 328.279C129.67 328.12 130.693 327.96 131.738 327.801C145.398 325.733 159.012 323.46 172.604 321.074C175.991 320.483 179.4 319.869 182.809 319.255C183.855 319.073 184.9 318.869 185.945 318.687C206.242 314.982 226.493 311.005 246.699 306.891C247.745 306.686 248.79 306.482 249.813 306.255C269.11 302.323 288.406 298.231 307.657 294.163C308.703 293.936 309.726 293.731 310.771 293.504C324.522 290.595 338.25 287.685 351.978 284.821C355.887 284.003 359.774 283.208 363.66 282.39C364.683 282.185 365.706 281.98 366.752 281.753L367.388 284.821Z" fill="#0C2C3E"/>
<path d="M192.469 369.396C175.604 372.624 158.762 375.896 141.92 379.237C138.511 362.1 134.647 342.622 132.352 330.871C149.398 328.28 166.422 325.393 183.4 322.325C184.195 326.643 185.013 330.985 185.831 335.303C187.968 346.713 190.196 358.055 192.469 369.396Z" fill="#0C2C3E"/>
<path d="M174.444 331.142C168.444 339.37 164.49 348.962 162.967 359.008C156.921 354.485 151.398 349.325 146.488 343.575C145.17 342.03 142.693 343.961 144.011 345.507C149.67 352.144 156.125 358.053 163.239 363.099C164.194 363.781 165.603 363.235 165.74 362.008C166.876 351.53 170.762 341.53 176.967 333.029C178.172 331.393 175.649 329.506 174.444 331.142Z" fill="white"/>
<path d="M378.661 339.259C377.616 339.44 376.593 339.6 375.57 339.781C357.478 342.804 339.386 345.895 321.317 349.055C320.271 349.236 319.226 349.418 318.181 349.6C302.839 352.282 287.519 355.01 272.223 357.782C268.45 358.464 264.677 359.146 260.927 359.851C259.881 360.032 258.836 360.214 257.813 360.419C237.267 364.169 216.742 368.01 196.241 371.92C195.196 372.124 194.151 372.329 193.128 372.533C176.263 375.761 159.421 379.034 142.579 382.375C141.557 382.579 140.534 382.784 139.488 382.988C139.283 381.966 139.079 380.92 138.852 379.875C139.874 379.67 140.92 379.465 141.943 379.261C158.785 375.92 175.649 372.624 192.491 369.42C193.31 369.26 194.105 369.101 194.923 368.942C195.15 368.897 195.378 368.851 195.605 368.806C216.106 364.896 236.607 361.055 257.131 357.305C258.177 357.1 259.222 356.919 260.268 356.737C279.36 353.237 298.429 349.85 317.544 346.486C318.59 346.304 319.635 346.123 320.68 345.941C337.318 343.031 353.955 340.168 370.592 337.372C372.024 337.122 373.456 336.895 374.911 336.645C375.957 336.463 376.979 336.304 378.025 336.122L378.661 339.259Z" fill="#0C2C3E"/>
<path d="M126.986 372.624C131.396 370.76 135.691 368.487 140.51 368.169C143.032 368.01 145.692 368.465 147.942 369.601C150.715 370.238 153.056 372.67 153.192 375.647C153.215 376.215 152.919 376.715 152.51 377.033C152.806 378.124 152.965 379.261 152.919 380.42C152.897 381.147 152.783 381.829 152.601 382.534C152.579 382.647 152.556 382.738 152.51 382.829C152.76 382.92 153.01 383.056 153.192 383.125C156.124 384.488 158.102 387.579 157.943 390.83C157.806 393.398 156.306 395.762 154.192 397.148C155.692 400.194 155.897 403.694 154.669 406.944C154.465 407.513 154.079 407.808 153.67 407.899C153.601 408.217 153.51 408.535 153.419 408.831C152.419 412.308 149.783 414.877 146.396 416.036C144.805 416.581 143.146 416.854 141.465 416.899C140.919 416.922 140.328 416.922 139.737 416.899C136.692 420.718 133.1 424.059 129.305 427.105C127.373 428.65 125.395 430.127 123.372 431.559C121.486 432.923 119.622 434.446 117.554 435.514C113.554 437.582 108.849 435.287 105.257 433.309C98.9617 429.832 93.8025 424.4 90.7342 417.922C87.1885 416.149 83.9382 413.763 80.9835 411.104C78.7106 409.058 76.4376 406.876 74.5284 404.489C72.6874 402.171 71.2101 399.285 71.8011 396.262C72.892 390.511 78.8014 389.057 83.1426 386.239C83.1653 385.852 83.3472 385.488 83.7563 385.193C88.8703 381.42 94.0072 377.624 98.8257 373.442C103.667 369.215 107.872 364.556 111.849 359.51C115.145 355.305 118.599 351.259 123.009 348.191C127.054 345.372 131.623 343.304 136.373 341.963C141.259 340.599 146.283 339.963 151.351 340.031C155.761 340.077 164.238 339.895 166.239 344.759C167.079 346.804 167.17 349.895 165.443 351.373C163.693 352.873 159.943 353.555 157.761 353.759C153.192 354.146 146.874 353.827 142.805 355.873C135.691 359.441 130.395 365.51 126.986 372.624Z" fill="white"/>
<path d="M163.056 339.713C158.806 337.35 153.669 337.395 148.987 338.122C140.486 339.463 132.008 342.486 124.531 346.714C116.28 351.396 109.007 357.828 104.098 365.988C103.052 367.715 105.666 369.488 106.712 367.738C114.962 354.078 129.713 345.759 144.918 342.145C149.328 341.1 154.123 340.145 158.601 341.282C161.942 342.123 166.647 345.441 164.579 349.509C162.601 353.396 156.533 352.01 153.101 352.101C149.419 352.214 145.782 353.01 142.396 354.441C134.668 357.692 128.349 364.101 125.463 371.988C124.758 373.897 127.735 374.92 128.44 373.011C131.167 365.533 137.35 359.669 144.759 356.874C148.782 355.373 152.737 355.214 156.964 355.351C161.078 355.464 166.01 354.601 167.647 350.259C169.192 346.123 166.647 341.736 163.056 339.713Z" fill="#0C2C3E"/>
<path d="M152.283 370.077C149.078 367.35 144.76 367.123 140.783 367.668C132.032 368.873 123.35 371.805 115.417 375.646C113.599 376.532 114.94 379.373 116.758 378.487C123.691 375.146 130.987 372.691 138.555 371.236C142.033 370.577 146.078 369.85 149.306 371.782C152.67 373.805 152.42 377.305 151.942 380.737C151.647 382.737 154.784 382.964 155.079 380.964C155.647 376.964 155.624 372.896 152.283 370.077Z" fill="#0C2C3E"/>
<path d="M157.398 383.375C154.739 380.943 150.989 380.761 147.58 380.988C143.466 381.261 139.329 381.875 135.261 382.511C130.488 383.238 125.76 384.147 121.055 385.17C119.078 385.602 119.646 388.693 121.624 388.261C130.306 386.352 139.261 384.647 148.171 384.079C151.762 383.852 155.989 384.42 156.853 388.579C157.58 392.08 155.853 395.853 152.808 397.671C151.08 398.694 152.421 401.557 154.148 400.512C157.058 398.785 159.171 396.012 159.899 392.671C160.558 389.421 159.944 385.693 157.398 383.375Z" fill="#0C2C3E"/>
<path d="M155.694 398.58C152.58 395.376 147.171 396.148 143.148 396.148C137.17 396.148 131.192 396.148 125.237 396.148C123.215 396.148 122.964 399.285 125.01 399.285C129.419 399.285 133.829 399.285 138.261 399.285H145.011C146.92 399.285 148.898 399.171 150.784 399.512C152.375 399.808 153.807 400.58 154.262 402.217C154.785 404.081 153.989 406.035 153.08 407.626C151.398 410.558 149.239 414.399 145.739 415.354C142.011 416.4 137.897 414.945 134.17 414.559C132.147 414.354 131.92 417.491 133.943 417.695C137.897 418.104 141.966 419.423 145.943 418.536C150.376 417.559 152.921 413.831 155.194 410.195C157.285 406.831 158.944 401.921 155.694 398.58Z" fill="#0C2C3E"/>
<path d="M138.6 411.693C138.918 411.465 139.123 410.988 139.146 410.625C139.168 410.238 139.031 409.761 138.759 409.488C138.486 409.193 138.1 408.965 137.691 408.943C137.259 408.92 136.895 409.056 136.554 409.329C134.849 410.533 133.554 412.374 132.963 414.375C132.736 415.17 133.1 416.125 133.941 416.375C134.736 416.602 135.69 416.238 135.94 415.397C136.054 415.011 136.213 414.625 136.372 414.261C136.645 413.738 136.986 413.261 137.373 412.806C137.736 412.375 138.145 412.011 138.6 411.693Z" fill="#0C2C3E"/>
<path d="M106.667 367.828C101.235 372.623 95.8022 377.419 90.3701 382.215C89.3246 383.147 88.3021 384.101 87.2338 385.033C86.9384 383.897 86.6204 382.738 86.3477 381.601C92.4617 376.26 98.5297 370.828 104.621 365.464C106.144 364.1 108.19 366.487 106.667 367.828Z" fill="#0C2C3E"/>
<path d="M140.716 418.58C138.511 420.899 136.261 423.171 133.943 425.353C128.261 430.74 122.169 435.649 115.737 440.127C114.987 439.377 114.26 438.604 113.578 437.831C122.488 431.649 130.738 424.581 138.193 416.716C139.579 415.239 142.102 417.103 140.716 418.58Z" fill="#0C2C3E"/>
<path d="M412.277 297.892C403.253 315.212 392.753 331.758 380.957 347.35C380.411 348.077 379.684 348.146 379.093 347.827C378.093 349.418 377.024 350.964 375.797 352.419C370.751 358.442 362.91 363.26 354.887 360.714C354.364 360.555 353.978 359.987 353.887 359.419C350.364 361.51 346.409 362.851 342.341 363.283C339.727 363.555 335.999 363.874 334.272 361.396C334.09 361.124 333.931 360.851 333.84 360.555C332.204 361.215 330.476 361.623 328.726 361.828C327.749 362.01 326.771 362.101 325.771 362.101C323.089 362.101 320.43 361.419 318.044 360.078C317.908 360.01 317.794 359.942 317.657 359.873C317.112 359.555 316.976 359.032 317.044 358.51C316.953 358.464 316.862 358.419 316.771 358.374C316.476 358.533 316.203 358.692 315.908 358.828C310.225 361.555 303.907 363.01 297.588 362.601C294.383 362.396 291.178 361.692 288.224 360.442C285.814 359.419 282.883 357.964 282.337 355.123C282.087 353.805 282.428 352.373 283.337 351.373C284.383 350.236 285.769 350.191 287.201 350.282C290.224 350.464 293.179 350.305 296.133 349.646C300.656 348.668 304.884 346.668 308.543 343.85C309.611 342.827 310.703 341.85 311.839 340.941C312.362 340.531 312.884 340.486 313.316 340.668C316.68 337.077 319.68 333.145 322.294 328.917C322.68 328.281 323.362 328.19 323.976 328.372C324.203 327.735 324.43 327.099 324.612 326.44C326.044 321.076 325.18 314.666 320.544 311.121C318.066 309.234 315.021 308.28 312.089 307.393C308.429 306.279 304.725 305.211 301.043 304.12C298.225 303.302 293.065 301.984 291.701 299.074C290.565 296.62 292.065 293.347 293.815 291.392C298.679 285.983 307.52 290.438 313.657 289.642C313.93 289.415 314.317 289.279 314.748 289.324C323.385 290.074 332.613 290.869 340.886 287.733C348.159 284.983 353.023 279.142 356.501 272.482L358.046 269.277C358.751 267.823 360.774 268.255 361.092 269.459C363.183 268.8 365.546 269.027 367.706 269.141C370.183 269.277 372.66 269.55 375.115 269.959C383.775 271.368 392.094 274.368 399.685 278.71C403.526 280.892 407.231 283.437 410.549 286.392C412.072 287.756 413.504 289.347 413.959 291.392C414.436 293.733 413.322 295.892 412.277 297.892Z" fill="white"/>
<path d="M433.663 251.775C433.481 257.889 431.913 263.799 429.504 268.708C425.322 277.163 390.524 343.281 376.819 355.736C369.477 362.418 363.909 364.123 359.909 364.123C357.09 364.123 355.045 363.259 353.727 362.714C353.454 362.6 353.204 362.486 352.999 362.418C352.181 362.145 351.726 361.259 351.999 360.441C352.272 359.622 353.158 359.168 353.999 359.441C354.272 359.532 354.59 359.668 354.954 359.827C357.772 361.009 363.614 363.486 374.682 353.418C387.206 342.031 420.481 279.822 426.663 267.322C427.89 264.822 429.14 261.321 429.845 257.298C431.299 255.571 432.549 253.73 433.663 251.775Z" fill="#0C2C3E"/>
<path d="M219.811 154.952C218.856 158.248 217.356 161.498 215.015 164.044C212.446 166.839 209.06 168.816 205.651 170.407C198.968 173.521 191.218 174.976 183.922 173.362C177.399 171.908 171.353 168.271 167.603 162.657C167.148 161.952 167.307 161.202 167.739 160.702C166.989 159.384 166.239 158.043 165.489 156.725C164.671 155.293 163.876 153.861 163.057 152.452C162.739 151.906 162.512 151.406 161.853 151.27C161.739 151.247 161.648 151.247 161.534 151.247C161.193 151.452 160.761 151.52 160.284 151.338C160.148 151.338 160.034 151.361 159.92 151.361C157.375 151.406 154.715 150.747 152.943 148.792C152.215 147.997 151.738 147.042 151.466 145.997C151.079 145.588 150.693 145.133 150.375 144.656C148.306 141.701 147.511 137.678 149.375 134.428C150.943 131.678 153.898 130.36 156.648 129.087C158.011 128.451 159.398 127.837 160.58 126.882C162.012 125.723 162.693 124.155 163.239 122.45C164.262 119.245 165.262 116.268 167.33 113.586C169.285 111.063 171.762 108.972 174.489 107.358C180.558 103.744 187.558 102.608 194.559 102.972C198.718 103.199 202.832 103.926 206.878 104.881C208.923 105.358 210.992 105.858 213.015 106.426C214.628 106.881 216.174 107.586 217.174 108.995C218.242 110.495 218.651 112.45 219.106 114.2C219.629 116.109 220.061 118.041 220.447 119.973C221.243 124.018 221.72 128.11 221.924 132.224C222.288 139.747 221.924 147.679 219.811 154.952Z" fill="white"/>
<path d="M220.744 108.63C219.948 106.766 217.062 107.994 217.857 109.857C220.789 116.744 221.539 124.245 221.312 131.654C221.198 135.405 220.858 139.155 220.449 142.882C220.039 146.655 219.789 150.61 218.766 154.269C215.334 166.565 201.629 173.134 189.674 173.202C182.06 173.247 173.877 170.293 170.082 163.247C169.127 161.474 166.218 162.701 167.195 164.474C174.695 178.316 193.742 178.68 206.402 172.429C212.357 169.497 217.562 164.929 220.426 158.86C222.085 155.337 222.608 151.473 223.085 147.655C223.585 143.541 224.062 139.427 224.312 135.291C224.835 126.268 224.335 117.04 220.744 108.63Z" fill="#0C2C3E"/>
<path d="M166.876 135.065C165.467 131.928 162.922 129.201 159.603 128.087C156.467 127.019 152.852 127.519 150.193 129.564C147.216 131.86 146.466 135.633 146.557 139.179C146.648 142.838 147.83 146.679 150.307 149.452C153.012 152.452 157.08 154.18 161.126 153.452C163.126 153.089 162.671 149.975 160.671 150.338C152.694 151.77 148.603 142.429 149.921 135.838C150.557 132.633 153.239 130.542 156.512 130.655C159.898 130.769 162.649 133.315 163.967 136.292C164.808 138.133 167.694 136.929 166.876 135.065Z" fill="#0C2C3E"/>
<path d="M165.286 144.814C162.695 141.972 159.899 139.359 156.898 136.972C156.262 136.472 155.171 136.609 154.694 137.291C154.194 138.018 154.331 138.95 155.012 139.495C156.444 140.632 157.83 141.814 159.171 143.041C159.49 143.336 159.831 143.654 160.149 143.973C160.217 144.041 160.285 144.109 160.331 144.155C160.581 144.405 160.74 144.564 160.899 144.723C161.558 145.382 162.172 146.041 162.808 146.723C163.354 147.337 164.331 147.587 165.013 146.996C165.626 146.496 165.877 145.473 165.286 144.814Z" fill="#0C2C3E"/>
<path d="M229.197 108.95C228.879 109.018 228.561 109.063 228.242 109.086C228.424 110.109 228.242 111.177 227.538 112.154C226.651 113.336 225.151 114.064 223.674 113.996C222.265 113.927 221.219 113.155 220.31 112.154C220.31 112.7 220.06 113.268 219.378 113.564C205.286 119.7 189.513 118.382 174.899 114.927C174.467 120.496 173.375 125.996 171.625 131.315C171.148 132.769 170.625 134.201 170.034 135.633C169.557 136.77 168.989 137.997 167.716 138.383C165.557 139.065 163.671 136.315 165.239 134.724C164.557 134.52 164.034 134.156 163.784 133.633C163.148 132.383 162.307 131.315 161.284 130.383C160.898 130.065 160.534 129.746 160.125 129.451C159.761 129.178 159.579 128.86 159.511 128.519C157.397 128.201 155.193 128.633 153.193 129.315C153.193 129.428 153.193 129.542 153.215 129.633C153.329 131.656 150.215 132.11 150.101 130.087C149.556 120.019 150.761 109.859 153.943 100.245C155.193 96.4717 157.079 93.1081 160.579 91.0398C163.852 89.1306 167.693 88.4258 171.353 87.7667C180.308 86.1302 189.149 85.7894 198.013 88.0849C206.218 90.1987 213.832 94.0397 221.196 98.1763C223.037 99.1991 224.856 100.245 226.697 101.313C228.22 102.199 229.856 103.154 230.652 104.813C231.425 106.336 231.106 108.564 229.197 108.95Z" fill="#0C2C3E"/>
<path d="M157.374 153.224C156.397 163.338 155.033 173.406 153.237 183.407C152.874 185.407 156.01 185.748 156.351 183.771C158.146 173.77 159.533 163.701 160.488 153.587C160.692 151.564 157.579 151.201 157.374 153.224Z" fill="#0C2C3E"/>
<path d="M203.492 173.042C203.446 172.224 202.492 171.565 201.719 171.702C200.833 171.861 200.333 172.61 200.378 173.474C200.401 173.815 200.424 174.156 200.424 174.497C200.424 174.656 200.424 174.838 200.447 174.997C200.447 175.043 200.447 175.27 200.447 175.293C200.447 175.952 200.424 176.611 200.401 177.27C200.333 178.611 200.174 179.952 199.947 181.293C199.81 182.111 200.515 182.975 201.333 183.043C202.219 183.111 202.924 182.52 203.083 181.657C203.538 178.816 203.674 175.929 203.492 173.042Z" fill="#0C2C3E"/>
<path d="M190.853 140.2C190.716 139.519 190.375 138.973 189.784 138.632C189.352 138.382 188.83 138.291 188.352 138.405C188.148 138.45 187.943 138.496 187.761 138.609C187.398 138.791 187.193 138.95 186.921 139.269C186.762 139.45 186.648 139.678 186.534 139.905C186.443 140.155 186.375 140.428 186.352 140.678C186.352 140.769 186.352 140.882 186.352 140.973C186.284 141.178 186.216 141.405 186.17 141.632C186.011 142.405 186.125 143.223 186.397 143.95C186.534 144.314 186.92 144.678 187.284 144.814C187.648 144.928 188.125 144.996 188.466 144.791C188.784 144.61 189.102 144.428 189.375 144.178C189.648 143.928 189.898 143.655 190.102 143.36C190.512 142.746 190.785 142.064 190.875 141.337C190.898 140.951 190.921 140.564 190.853 140.2Z" fill="#0C2C3E"/>
<path d="M217.244 139.541C217.017 138.905 216.517 138.382 215.881 138.086C215.131 137.745 214.199 137.882 213.563 138.405C213.244 138.677 212.972 139.018 212.858 139.404C212.767 139.7 212.721 140.018 212.767 140.336C212.653 140.564 212.54 140.768 212.472 140.996C212.313 141.564 212.244 142.109 212.312 142.678C212.426 143.564 212.926 144.609 213.949 144.678C214.608 144.723 215.29 144.541 215.79 144.087C216.245 143.7 216.517 143.269 216.79 142.746C216.972 142.405 217.131 142.041 217.222 141.677C217.313 141.359 217.404 141.064 217.404 140.723C217.426 140.314 217.381 139.95 217.244 139.541Z" fill="#0C2C3E"/>
<path d="M202.717 159.224C202.558 158.429 201.808 157.724 200.944 157.883C200.626 157.951 200.33 157.974 200.012 157.997C199.649 157.997 199.467 157.997 199.308 157.974C198.99 157.951 198.671 157.906 198.376 157.838C198.012 157.747 197.854 157.701 197.694 157.633C197.399 157.52 197.103 157.406 196.83 157.269C196.535 157.11 196.399 157.02 196.285 156.952C196.012 156.77 195.739 156.565 195.489 156.338C195.217 156.133 195.08 155.906 195.012 155.838C194.489 155.201 193.467 154.997 192.807 155.565C192.171 156.088 191.967 157.111 192.535 157.77C194.672 160.293 198.126 161.588 201.399 160.974C202.194 160.861 202.876 160.088 202.717 159.224Z" fill="#0C2C3E"/>
<path d="M221.061 129.631C213.106 129.631 206.651 136.109 206.651 144.041C206.651 149.178 209.356 153.701 213.424 156.246C213.674 156.019 213.925 155.792 214.175 155.542C214.697 155.042 215.243 154.519 215.811 153.996C212.243 152.11 209.788 148.36 209.788 144.041C209.788 137.836 214.856 132.768 221.061 132.768C225.902 132.768 230.039 135.836 231.63 140.109C232.516 139.427 233.38 138.745 234.198 138.109C231.948 133.109 226.902 129.631 221.061 129.631Z" fill="#24D0C0"/>
<path d="M235.471 144.042C235.471 151.997 229.016 158.452 221.061 158.452C218.242 158.452 215.629 157.656 213.401 156.247C213.651 156.02 213.902 155.793 214.152 155.543C214.674 155.043 215.242 154.52 215.788 153.997C217.356 154.838 219.151 155.315 221.038 155.315C227.243 155.315 232.312 150.269 232.312 144.042C232.312 142.655 232.062 141.337 231.607 140.133C232.493 139.451 233.357 138.769 234.175 138.132C235.039 139.928 235.471 141.928 235.471 144.042Z" fill="white"/>
<path d="M217.242 129.336C214.856 129.132 212.742 130.131 210.81 131.472C209.037 132.7 207.401 134.2 206.469 136.177C205.446 138.337 205.696 140.859 205.696 143.178C205.696 145.837 205.696 148.473 205.696 151.133C205.696 151.996 206.173 152.769 207.083 152.883C207.855 152.974 208.833 152.337 208.833 151.496C208.833 149.315 208.833 147.133 208.833 144.951C208.833 142.882 208.583 140.609 208.969 138.564C209.31 136.905 210.537 135.677 211.81 134.654C213.242 133.541 214.969 132.314 216.879 132.473C218.879 132.632 219.265 129.518 217.242 129.336Z" fill="#0C2C3E"/>
<path d="M168.309 85.265C168.195 84.6286 167.763 84.1284 167.127 83.9693C166.559 83.8329 165.831 84.0147 165.49 84.5375C165.127 85.1057 164.832 85.7422 164.65 86.3786C163.65 85.6741 162.558 85.0831 161.399 84.674C160.808 84.4694 160.149 84.5832 159.717 85.0377C159.308 85.4468 159.081 86.1969 159.377 86.7424C160.672 89.1289 162.627 91.0154 165.104 92.1745C165.422 92.3336 165.786 92.3107 166.127 92.197C166.331 92.3334 166.559 92.4245 166.809 92.4473C167.65 92.5155 168.468 91.947 168.559 91.0606C168.718 89.1514 168.65 87.1742 168.309 85.265Z" fill="#0C2C3E"/>
<path d="M429.482 268.708C427.709 272.299 420.413 286.278 411.548 302.142C411.026 303.074 410.503 303.983 409.98 304.915C409.571 304.552 409.162 304.233 408.753 303.892C408.344 303.551 407.935 303.211 407.525 302.915C392.115 290.573 375.433 279.891 357.795 271.072C356.841 270.595 355.886 270.118 354.932 269.663C355.477 268.754 356 267.845 356.523 266.935C357.591 265.049 358.636 263.163 359.682 261.276C360.204 260.344 360.705 259.435 361.205 258.503C361.341 258.253 361.477 258.003 361.614 257.753C367.319 247.275 372.751 236.661 378.183 226.024C378.365 225.638 378.66 225.41 378.956 225.274C380.661 221.819 382.32 218.364 384.07 214.932C385.024 213.069 386.047 211.205 387.32 209.523C388.502 207.932 389.843 206.568 390.275 204.568C390.411 204 390.752 203.477 391.275 203.273C391.547 202.841 391.797 202.386 392.07 201.954C407.389 212.955 419.344 221.842 422.913 225.115C436.232 237.32 435.664 256.276 429.482 268.708Z" fill="#24D0C0"/>
<path d="M357.796 271.072C354.114 277.686 349.887 284.345 343.5 288.209C335.045 293.323 325.067 292.005 315.726 291.095C310.93 290.618 306.043 290.209 301.247 290.936C297.77 291.459 291.656 293.096 292.633 297.846C293.701 303.028 300.361 303.869 304.634 304.392C309.679 305.006 314.794 305.437 319.249 308.097C323.272 310.46 325.794 314.392 325.771 319.097C325.749 323.688 323.862 328.302 321.476 332.166C319.112 336.03 315.93 339.394 312.43 342.28C308.862 345.235 304.816 347.94 300.566 349.826C298.225 350.849 295.725 351.531 293.156 351.554C290.633 351.554 288.019 350.508 285.519 350.94C284.565 351.099 283.497 351.531 282.951 352.372C282.315 353.304 282.724 354.44 283.224 355.349C284.155 357.099 285.769 358.44 287.519 359.327C291.633 361.441 296.611 361.759 301.134 361.441C306.316 361.054 311.361 359.622 315.953 357.19C324.817 352.508 331.272 344.417 337.227 336.575C338.431 334.962 340.977 336.848 339.75 338.462C338.227 340.462 336.704 342.462 335.113 344.394C328.522 352.417 320.726 359.713 310.589 362.827C305.543 364.373 300.247 364.986 294.974 364.509C290.769 364.123 286.224 362.941 283.019 360.032C281.337 358.509 279.837 356.418 279.519 354.122C279.224 351.895 280.428 349.94 282.315 348.849C284.474 347.576 286.883 347.622 289.292 347.962C292.11 348.394 294.656 348.622 297.429 347.69C302.088 346.144 306.452 343.144 310.225 340.076C313.794 337.189 316.953 333.757 319.294 329.78C321.544 325.916 323.794 320.279 322.135 315.824C320.453 311.301 315.407 309.256 311.021 308.437C305.77 307.46 299.952 307.756 295.088 305.233C291.088 303.165 287.906 298.369 290.11 293.869C292.088 289.823 296.906 288.391 301.02 287.8C306.021 287.095 311.111 287.504 316.112 287.982C325.771 288.914 336.34 290.414 344.432 283.731C348.091 280.709 350.773 276.663 353.228 272.64C353.819 271.663 354.41 270.663 354.978 269.685C355.887 270.14 356.842 270.617 357.796 271.072Z" fill="#0C2C3E"/>
<path d="M410.003 304.937C398.297 325.757 384.365 348.871 376.819 355.736C369.477 362.418 363.909 364.122 359.909 364.122C357.09 364.122 355.045 363.259 353.727 362.713C353.454 362.599 353.204 362.486 352.999 362.418C352.181 362.145 351.726 361.258 351.999 360.44C352.272 359.622 353.158 359.168 353.999 359.44C354.272 359.531 354.59 359.667 354.954 359.826C357.772 361.008 363.614 363.486 374.682 353.417C381.819 346.917 395.729 323.87 407.502 302.937C407.911 303.255 408.321 303.596 408.73 303.914C409.162 304.232 409.594 304.573 410.003 304.937Z" fill="#0C2C3E"/>
<path d="M348.978 344.099C344.66 349.282 339.819 354.6 334.091 358.237C331.409 359.941 328.295 361.146 325.068 361.1C321.431 361.055 317.977 359.668 314.726 358.146C312.885 357.305 311.749 360.214 313.59 361.078C317.158 362.737 320.977 364.191 324.954 364.214C328.5 364.237 331.864 363.123 334.909 361.373C341.387 357.623 346.751 351.668 351.501 345.986C352.774 344.418 350.251 342.554 348.978 344.099Z" fill="#0C2C3E"/>
<path d="M360.91 348.712C357.773 353.508 354.478 358.326 348.864 360.349C343.614 362.236 336.886 362.872 331.885 359.917C330.158 358.894 328.272 361.394 329.999 362.44C335.818 365.895 342.909 365.531 349.182 363.554C355.796 361.485 359.774 356.167 363.41 350.598C364.547 348.916 362.024 347.007 360.91 348.712Z" fill="#0C2C3E"/>
<path d="M186.103 129.11C178.148 129.11 171.693 135.565 171.693 143.52C171.693 151.475 178.148 157.929 186.103 157.929C194.059 157.929 200.514 151.475 200.514 143.52C200.514 135.565 194.059 129.11 186.103 129.11ZM186.103 154.793C179.876 154.793 174.83 149.725 174.83 143.52C174.83 137.292 179.899 132.246 186.103 132.246C192.331 132.246 197.377 137.315 197.377 143.52C197.4 149.725 192.331 154.793 186.103 154.793Z" fill="#24D0C0"/>
<path d="M155.011 185.567C152.034 187.522 149.079 189.476 146.101 191.431C144.351 192.567 142.624 193.726 140.874 194.863C140.352 194.295 139.874 193.681 139.442 193.022C139.26 192.749 139.033 192.567 138.806 192.476C143.556 189.34 148.306 186.226 153.079 183.09C154.784 181.976 156.716 184.453 155.011 185.567Z" fill="#0C2C3E"/>
<path d="M115.759 440.106C114.872 440.719 114.008 441.31 113.099 441.924C109.622 444.219 106.076 446.401 102.44 448.424C96.9166 451.515 91.0075 454.356 84.5753 454.788C79.1432 455.152 73.7106 453.993 68.824 451.629C66.3011 450.424 63.9831 448.947 61.8012 447.288C58.3237 445.06 55.3232 442.106 52.9594 438.674C49.732 433.969 47.6183 428.536 46.7546 422.9C45.8 416.627 46.2094 409.786 49.3232 404.126C55.3235 393.262 67.3924 389.353 78.8704 386.807C79.1659 386.693 79.4155 386.602 79.6656 386.512C81.1656 385.875 82.484 384.898 83.7113 383.852C83.9386 383.67 84.166 383.466 84.3933 383.284C85.0524 382.716 85.7118 382.148 86.3482 381.579C86.6209 382.739 86.9389 383.875 87.2344 385.011C88.5981 389.989 90.121 394.944 91.8483 399.808C96.7804 413.581 103.804 426.968 113.554 437.81C114.282 438.583 115.009 439.355 115.759 440.106Z" fill="#24D0C0"/>
<path d="M210.401 142.404C206.855 140.995 202.582 141.654 199.673 144.154C199.059 144.7 198.832 145.7 199.401 146.359C199.923 146.973 200.946 147.223 201.605 146.632C201.878 146.382 202.173 146.154 202.491 145.95C202.559 145.904 202.651 145.859 202.719 145.791C202.469 145.95 202.742 145.791 202.787 145.745C202.946 145.654 203.128 145.563 203.287 145.495C203.628 145.336 203.969 145.2 204.332 145.086C204.832 144.95 205.037 144.927 205.241 144.881C205.605 144.813 205.969 144.79 206.355 144.768C206.491 144.768 206.583 144.768 206.651 144.768C206.833 144.768 207.014 144.79 207.219 144.813C207.401 144.836 207.583 144.859 207.765 144.881C207.878 144.904 207.992 144.927 208.105 144.95C208.469 145.041 208.56 145.063 208.651 145.086C208.855 145.154 209.037 145.223 209.242 145.291C210.014 145.586 211.015 145.2 211.288 144.404C211.56 143.631 211.219 142.722 210.401 142.404Z" fill="#24D0C0"/>
<path d="M367.069 232.457C363.932 244.389 359.705 256.004 354.432 267.141C353.568 268.959 356.5 270.118 357.364 268.277C362.637 257.14 366.864 245.526 370.001 233.593C370.501 231.684 367.569 230.502 367.069 232.457Z" fill="white"/>
<path d="M311.726 245.752C311.476 245.139 310.953 244.639 310.339 244.411C310.157 244.343 309.952 244.298 309.748 244.275C309.43 244.184 309.18 244.116 308.93 244.093C308.384 244.07 307.93 244.138 307.407 244.32C306.907 244.502 306.498 244.82 306.157 245.207C305.998 245.389 305.861 245.639 305.748 245.866C305.634 246.116 305.566 246.389 305.543 246.639C305.521 246.843 305.521 247.048 305.543 247.252C305.543 247.343 305.543 247.411 305.566 247.502C305.612 247.775 305.702 248.071 305.839 248.321C306.111 248.843 306.475 249.298 306.952 249.639C307.452 249.98 307.998 250.207 308.589 250.298C308.861 250.343 309.157 250.343 309.43 250.321C309.725 250.298 309.998 250.207 310.271 250.116C310.634 249.957 310.907 249.753 311.066 249.503C311.18 249.275 311.316 249.071 311.43 248.843C311.543 248.616 311.635 248.412 311.726 248.162C311.976 247.343 312.044 246.548 311.726 245.752Z" fill="white"/>
<path d="M326.704 243.434C326.59 242.797 326.43 242.388 326.18 242.093C325.703 241.547 325.044 241.184 324.317 241.115C323.885 241.07 323.499 241.138 323.09 241.275C322.681 241.411 322.317 241.729 322.044 242.07C321.817 242.343 321.635 242.684 321.544 243.025C321.453 243.389 321.362 243.729 321.362 244.093C321.362 244.457 321.385 244.82 321.431 245.184C321.453 245.298 321.476 245.411 321.499 245.525C321.567 245.843 321.612 245.98 321.658 246.116C321.794 246.502 322.158 246.82 322.544 246.957C323.249 247.252 324.112 247.207 324.794 246.889C325.453 246.57 325.999 246.093 326.362 245.434C326.567 245.07 326.681 244.752 326.749 244.343C326.794 244.07 326.772 243.752 326.704 243.434Z" fill="white"/>
<path d="M340.136 240.501C340.182 240.365 340.205 240.206 340.227 240.069C340.25 239.956 340.227 239.819 340.227 239.706C340.227 239.592 340.227 239.456 340.205 239.342C340.114 238.933 340 238.637 339.75 238.297C339.568 238.069 339.341 237.91 339.091 237.797C338.841 237.706 338.568 237.66 338.295 237.706C337.75 237.842 337.25 238.047 336.818 238.41C336.432 238.751 336.159 239.115 335.931 239.547C335.863 239.615 335.773 239.683 335.704 239.774C335.454 240.047 335.363 240.569 335.409 240.933C335.431 241.047 335.454 241.16 335.5 241.251C335.5 241.683 335.568 242.115 335.704 242.524C335.773 242.751 335.932 243.024 336.068 243.206C336.386 243.638 336.955 243.888 337.5 243.91C338.182 243.933 338.863 243.752 339.363 243.274C339.863 242.797 340.296 242.183 340.296 241.456C340.296 241.138 340.25 240.819 340.136 240.501Z" fill="white"/>
<path d="M264.358 316.233C264.108 315.665 263.744 315.187 263.267 314.778C263.131 314.665 262.972 314.551 262.79 314.46C262.54 314.233 262.245 314.051 261.881 314.028H261.471C261.312 314.051 261.153 314.119 260.994 314.187C260.744 314.255 260.631 314.346 260.494 314.415C260.358 314.483 260.245 314.551 260.154 314.665C260.017 314.801 259.858 314.937 259.744 315.096C259.63 315.278 259.517 315.46 259.449 315.642C259.29 316.006 259.267 316.369 259.29 316.733C259.244 317.028 259.244 317.301 259.267 317.574C259.29 317.847 259.381 318.119 259.449 318.369C259.517 318.597 259.653 318.756 259.835 318.937C260.108 319.142 260.221 319.233 260.358 319.301C260.653 319.392 260.858 319.438 261.063 319.483C261.244 319.528 261.449 319.551 261.653 319.551C261.994 319.574 262.335 319.551 262.653 319.528C262.994 319.483 263.335 319.392 263.653 319.278C263.903 319.165 264.131 319.006 264.29 318.779C264.449 318.551 264.563 318.301 264.586 318.006C264.676 317.392 264.585 316.778 264.358 316.233Z" fill="white"/>
<path d="M296.431 308.62L271.815 312.62C269.815 312.938 270.27 316.052 272.27 315.734C280.475 314.393 288.68 313.052 296.885 311.734C298.885 311.415 298.431 308.302 296.431 308.62Z" fill="white"/>
<path d="M282.293 323.189C282.133 322.348 281.383 321.757 280.52 321.848C277.883 322.166 275.247 322.507 272.61 322.826C271.792 322.917 271.133 323.78 271.269 324.598C271.428 325.439 272.178 326.03 273.042 325.939C275.678 325.621 278.315 325.28 280.951 324.962C281.77 324.871 282.452 324.007 282.293 323.189Z" fill="white"/>
<path d="M300.566 321.642C300.407 320.779 299.657 320.211 298.793 320.302L290.065 321.256C289.247 321.347 288.588 322.211 288.724 323.029C288.883 323.893 289.633 324.461 290.497 324.37C293.406 324.052 296.316 323.734 299.225 323.415C300.043 323.347 300.725 322.461 300.566 321.642Z" fill="white"/>
<path d="M305.929 329.098C295.156 331.803 284.268 334.076 273.313 335.939C271.313 336.28 271.768 339.394 273.768 339.053C284.724 337.189 295.61 334.916 306.384 332.212C308.338 331.712 307.906 328.598 305.929 329.098Z" fill="white"/>
<path d="M258.768 65.7644C258.063 65.2416 257.109 65.4235 256.563 66.0826C253.79 69.3782 251.677 73.2648 250.381 77.3786C250.131 78.1969 250.449 79.0833 251.267 79.4243C252.017 79.7197 253.063 79.3561 253.313 78.5378C254.541 74.583 256.404 71.1511 259.086 67.9691C259.632 67.31 259.404 66.2417 258.768 65.7644Z" fill="#6B3FEB"/>
<path d="M274.609 72.7192C268.45 75.1284 263.063 79.3788 259.267 84.7882C258.108 86.4474 260.631 88.3338 261.79 86.6746C265.291 81.6743 270.154 77.8332 275.836 75.6058C277.723 74.8785 276.495 71.9692 274.609 72.7192Z" fill="#6B3FEB"/>
<path d="M287.134 84.1746C281.157 86.5611 275.157 88.925 269.179 91.3115C267.293 92.0615 268.52 94.9478 270.406 94.1978C276.384 91.8113 282.384 89.4477 288.362 87.0612C290.248 86.3339 289.021 83.4246 287.134 84.1746Z" fill="#6B3FEB"/>
<path d="M89.8241 382.191C89.2787 381.487 88.3241 381.441 87.6195 381.919C83.7557 384.51 79.0513 385.782 74.3919 385.51C73.5509 385.464 72.7554 386.01 72.6417 386.896C72.5508 387.714 73.1642 388.578 74.0279 388.646C79.5282 388.964 84.9605 387.464 89.5289 384.419C90.2563 383.919 90.3242 382.828 89.8241 382.191Z" fill="white"/>
<path d="M290.11 195.409C289.314 204.41 288.519 213.41 287.746 222.411C287.564 224.434 290.701 224.797 290.86 222.774C291.655 213.774 292.451 204.773 293.223 195.773C293.405 193.75 290.292 193.386 290.11 195.409Z" fill="white"/>
</svg>
